<svg width="200" height="200" viewBox="0 0 200 200" fill="none" xmlns="http://www.w3.org/2000/svg">
<path d="M200 175.757H0V175.891H200V175.757Z" fill="#EBEBEB"/>
<path d="M179.96 184.395H166.712V184.529H179.96V184.395Z" fill="#EBEBEB"/>
<path d="M132.488 185.855H129.012V185.989H132.488V185.855Z" fill="#EBEBEB"/>
<path d="M166.312 179.413H158.636V179.547H166.312V179.413Z" fill="#EBEBEB"/>
<path d="M38.26 180.314H20.984V180.449H38.26V180.314Z" fill="#EBEBEB"/>
<path d="M44.356 180.314H41.824V180.449H44.356V180.314Z" fill="#EBEBEB"/>
<path d="M90.06 182.581H52.588V182.715H90.06V182.581Z" fill="#EBEBEB"/>
<path d="M94.8 151.815H17.564C16.9589 151.813 16.379 151.49 15.9516 150.915C15.5241 150.34 15.284 149.562 15.284 148.75V3.03868C15.2893 2.23131 15.5317 1.45933 15.9586 0.89042C16.3855 0.321513 16.9624 0.00162721 17.564 0.000244141H94.8C95.4058 0.000244141 95.9867 0.323193 96.415 0.898044C96.8434 1.4729 97.084 2.25256 97.084 3.06552V148.75C97.084 149.563 96.8434 150.342 96.415 150.917C95.9867 151.492 95.4058 151.815 94.8 151.815ZM17.564 0.10761C16.9855 0.109032 16.431 0.418467 16.0223 0.967996C15.6135 1.51753 15.384 2.26224 15.384 3.03868V148.75C15.384 149.526 15.6135 150.271 16.0223 150.82C16.431 151.37 16.9855 151.679 17.564 151.681H94.8C95.3789 151.679 95.9338 151.37 96.3432 150.821C96.7525 150.271 96.983 149.527 96.984 148.75V3.03868C96.983 2.26175 96.7525 1.51704 96.3432 0.967668C95.9338 0.418293 95.3789 0.109029 94.8 0.10761H17.564Z" fill="#EBEBEB"/>
<path d="M181.324 151.815H104.084C103.479 151.813 102.898 151.49 102.47 150.915C102.042 150.341 101.801 149.562 101.8 148.75V3.03868C101.806 2.23082 102.05 1.45884 102.477 0.890084C102.905 0.321325 103.482 0.00161213 104.084 0.000244141H181.324C181.925 0.00303805 182.501 0.323548 182.927 0.892304C183.353 1.46106 183.595 2.23224 183.6 3.03868V148.75C183.6 149.561 183.36 150.339 182.934 150.913C182.507 151.488 181.928 151.812 181.324 151.815ZM104.084 0.10761C103.505 0.109029 102.95 0.418293 102.541 0.967668C102.131 1.51704 101.901 2.26175 101.9 3.03868V148.75C101.901 149.527 102.131 150.271 102.541 150.821C102.95 151.37 103.505 151.679 104.084 151.681H181.324C181.903 151.679 182.458 151.37 182.867 150.821C183.276 150.271 183.507 149.527 183.508 148.75V3.03868C183.507 2.26175 183.276 1.51704 182.867 0.967668C182.458 0.418293 181.903 0.109029 181.324 0.10761H104.084Z" fill="#EBEBEB"/>
<path d="M72.228 38.7322C72.2291 38.0524 72.1115 37.3818 71.8846 36.7741C71.6576 36.1663 71.3277 35.6385 70.9212 35.2329C70.5148 34.8273 70.0431 34.5552 69.5441 34.4386C69.0451 34.3219 68.5327 34.3638 68.048 34.5611C68.2079 33.1099 68.1073 31.6285 67.7545 30.24C67.4017 28.8516 66.8069 27.5963 66.0197 26.5786C65.2324 25.5609 64.2754 24.8103 63.2284 24.3891C62.1814 23.968 61.0745 23.8885 60 24.1574C59.327 22.6528 58.3061 21.4845 57.0929 20.8302C55.8796 20.1759 54.5402 20.0714 53.2786 20.5327C52.017 20.9939 50.9022 21.9957 50.1039 23.3855C49.3055 24.7753 48.8673 26.4771 48.856 28.2319H48.756C48.0284 28.2319 47.3081 28.4242 46.6359 28.7978C45.9638 29.1715 45.353 29.7191 44.8386 30.4095C44.3242 31.1 43.9161 31.9196 43.6377 32.8217C43.3593 33.7237 43.216 34.6905 43.216 35.6669C43.216 36.6433 43.3593 37.6101 43.6377 38.5122C43.9161 39.4143 44.3242 40.2339 44.8386 40.9243C45.353 41.6147 45.9638 42.1624 46.6359 42.536C47.3081 42.9097 48.0284 43.102 48.756 43.102H69.092C69.9352 43.0629 70.7341 42.585 71.3194 41.7694C71.9047 40.9538 72.2306 39.8646 72.228 38.7322Z" fill="#F0F0F0"/>
<path d="M154.192 83.2996C154.193 82.6183 154.074 81.9463 153.846 81.3375C153.619 80.7287 153.288 80.2 152.88 79.7939C152.472 79.3878 152 79.1156 151.499 78.9991C150.999 78.8826 150.486 78.9251 150 79.1231C150.048 78.6805 150.072 78.2337 150.072 77.7864C150.073 76.5748 149.895 75.3749 149.55 74.2554C149.205 73.1358 148.699 72.1185 148.061 71.2615C147.422 70.4045 146.665 69.7247 145.831 69.2609C144.997 68.7971 144.103 68.5583 143.2 68.5583C142.775 68.5583 142.35 68.6104 141.932 68.714C141.256 67.2167 140.236 66.0556 139.024 65.4065C137.813 64.7575 136.477 64.6558 135.219 65.117C133.961 65.5781 132.849 66.5769 132.051 67.9621C131.254 69.3474 130.815 71.0436 130.8 72.7939H130.7C129.257 72.8459 127.886 73.6518 126.879 75.04C125.872 76.4281 125.309 78.2889 125.309 80.2263C125.309 82.1636 125.872 84.0244 126.879 85.4125C127.886 86.8007 129.257 87.6066 130.7 87.6586H151.04C151.885 87.6264 152.687 87.1529 153.276 86.3387C153.865 85.5245 154.193 84.4341 154.192 83.2996Z" fill="#F0F0F0"/>
<path d="M52.376 117.168C52.3759 116.489 52.2577 115.82 52.0307 115.213C51.8038 114.606 51.4744 114.079 51.0688 113.673C50.6632 113.268 50.1927 112.995 49.6946 112.877C49.1965 112.758 48.6847 112.797 48.2 112.991C48.2464 112.549 48.2705 112.102 48.272 111.655C48.272 109.207 47.5476 106.86 46.2581 105.129C44.9686 103.399 43.2196 102.427 41.396 102.427C40.9707 102.426 40.5462 102.478 40.128 102.582C39.4548 101.077 38.4337 99.9089 37.22 99.2547C36.0063 98.6005 34.6666 98.4965 33.4048 98.9584C32.143 99.4204 31.0282 100.423 30.2301 101.814C29.4321 103.204 28.9945 104.907 28.984 106.662H28.884C28.1442 106.636 27.408 106.808 26.7187 107.17C26.0294 107.531 25.4011 108.074 24.8708 108.767C24.3405 109.46 23.919 110.288 23.6312 111.203C23.3434 112.118 23.1952 113.101 23.1952 114.095C23.1952 115.088 23.3434 116.071 23.6312 116.986C23.919 117.901 24.3405 118.729 24.8708 119.422C25.4011 120.115 26.0294 120.658 26.7187 121.02C27.408 121.381 28.1442 121.554 28.884 121.527H49.22C50.0657 121.496 50.869 121.023 51.4586 120.209C52.0482 119.395 52.3774 118.303 52.376 117.168Z" fill="#F0F0F0"/>
<path d="M175.028 120.7C175.028 120.021 174.91 119.351 174.683 118.744C174.455 118.136 174.126 117.609 173.72 117.203C173.313 116.797 172.842 116.525 172.344 116.407C171.845 116.289 171.333 116.329 170.848 116.524C170.896 116.081 170.92 115.634 170.92 115.187C170.921 113.834 170.7 112.496 170.272 111.271C169.845 110.045 169.221 108.961 168.446 108.095C167.671 107.229 166.763 106.604 165.787 106.262C164.811 105.921 163.791 105.872 162.8 106.12C162.128 104.613 161.107 103.442 159.893 102.786C158.679 102.13 157.338 102.025 156.075 102.486C154.812 102.948 153.697 103.951 152.898 105.343C152.1 106.734 151.662 108.438 151.652 110.195H151.552C150.083 110.195 148.674 110.978 147.635 112.372C146.596 113.767 146.012 115.658 146.012 117.63C146.012 119.602 146.596 121.493 147.635 122.887C148.674 124.281 150.083 125.065 151.552 125.065H171.896C172.738 125.026 173.536 124.548 174.121 123.734C174.705 122.919 175.031 121.831 175.028 120.7Z" fill="#F0F0F0"/>
<path d="M108 94.2993C107.999 93.844 107.92 93.3952 107.768 92.9883C107.615 92.5814 107.395 92.2276 107.123 91.9547C106.852 91.6819 106.537 91.4976 106.203 91.4163C105.869 91.335 105.526 91.3589 105.2 91.4863C105.295 90.6033 105.248 89.7032 105.061 88.847C104.875 87.9907 104.553 87.1982 104.118 86.5233C103.684 85.8483 103.146 85.3065 102.542 84.9347C101.937 84.5628 101.281 84.3695 100.616 84.368C100.33 84.3681 100.045 84.404 99.764 84.4753C99.3069 83.4682 98.6182 82.6879 97.8018 82.2518C96.9854 81.8158 96.0855 81.7478 95.2378 82.0579C94.39 82.3681 93.6404 83.0397 93.1018 83.9715C92.5633 84.9033 92.265 86.0448 92.252 87.2239H92.184C91.1942 87.2239 90.245 87.7516 89.5451 88.6909C88.8452 89.6302 88.452 90.9041 88.452 92.2325C88.452 93.5608 88.8452 94.8348 89.5451 95.7741C90.245 96.7134 91.1942 97.2411 92.184 97.2411H105.892C106.459 97.2146 106.997 96.8926 107.39 96.3435C107.784 95.7943 108.002 95.0611 108 94.2993Z" fill="#F0F0F0"/>
<path d="M169.568 38.6892C169.569 38.2306 169.49 37.778 169.337 37.368C169.184 36.9579 168.961 36.6019 168.687 36.3287C168.412 36.0554 168.094 35.8726 167.757 35.795C167.42 35.7173 167.075 35.747 166.748 35.8816C166.848 34.9974 166.804 34.0946 166.619 33.2353C166.434 32.3761 166.113 31.5807 165.678 30.9038C165.242 30.2269 164.703 29.6847 164.096 29.3142C163.489 28.9438 162.83 28.754 162.164 28.7579C161.878 28.7581 161.593 28.794 161.312 28.8653C160.856 27.8569 160.168 27.0751 159.351 26.6382C158.535 26.2012 157.634 26.1328 156.786 26.4432C155.938 26.7536 155.189 27.4261 154.651 28.3589C154.113 29.2918 153.815 30.4343 153.804 31.6139H153.736C152.746 31.6139 151.797 32.1416 151.097 33.0808C150.397 34.0201 150.004 35.2941 150.004 36.6225C150.004 37.9508 150.397 39.2248 151.097 40.1641C151.797 41.1034 152.746 41.6311 153.736 41.6311H167.44C168.01 41.6087 168.551 41.2889 168.949 40.7396C169.346 40.1903 169.568 39.4548 169.568 38.6892Z" fill="#F0F0F0"/>
<path d="M23.592 168.242V143.006H25.196V130.975H27.548V89.162H30.948V83.7669L38.204 79.2253V73.7819H39.208V89.162H40.616V130.975H42.024V108.987H45.84V97.66H46.908V130.975H49.808V118.296H51.716V115.059H56.14V104H58.56V96.1783H61.54V84.7761H62.6V96.1783H65.576V104H68V115.059H72.424V118.296H74.332V130.975H76.596V115.059H81.02V80.7982H82.428V77.019H91.876V80.7982H93.884V105.616H101.924V108.048H104.94V109.932H101.924V119.648H110.368V87.2724H112.176V80.3956H116.096V55.9807H117.204V80.3956H120.016V87.2724H136.516V85.0069H137.52V100.387H138.928V100.655H139.772V116.03H141.18V120.212H144.152V108.885H145.22V135.861H146.408V124.534H147.472V142.2H148.12V129.521H150.032V126.284H154.452V115.225H156.876V107.398H159.852V96.0012H160.916V107.398H163.892V115.225H166.312V126.284H170.736V129.521H172.644V141.932H172.988V142.2H173.932V168.242H23.592Z" fill="#F5F5F5"/>
<path d="M127.312 88.7861H126.172V90.3161H127.312V88.7861Z" fill="#FAFAFA"/>
<path d="M127.312 91.3467H126.172V92.8766H127.312V91.3467Z" fill="#FAFAFA"/>
<path d="M127.312 101.6H126.172V103.13H127.312V101.6Z" fill="#FAFAFA"/>
<path d="M127.312 104.161H126.172V105.691H127.312V104.161Z" fill="#FAFAFA"/>
<path d="M127.312 106.727H126.172V108.257H127.312V106.727Z" fill="#FAFAFA"/>
<path d="M127.312 114.414H126.172V115.944H127.312V114.414Z" fill="#FAFAFA"/>
<path d="M127.312 116.975H126.172V118.505H127.312V116.975Z" fill="#FAFAFA"/>
<path d="M125.5 99.0393H124.36V100.569H125.5V99.0393Z" fill="#FAFAFA"/>
<path d="M125.5 101.6H124.36V103.13H125.5V101.6Z" fill="#FAFAFA"/>
<path d="M125.5 104.161H124.36V105.691H125.5V104.161Z" fill="#FAFAFA"/>
<path d="M125.5 106.727H124.36V108.257H125.5V106.727Z" fill="#FAFAFA"/>
<path d="M125.5 109.287H124.36V110.817H125.5V109.287Z" fill="#FAFAFA"/>
<path d="M125.5 114.414H124.36V115.944H125.5V114.414Z" fill="#FAFAFA"/>
<path d="M125.5 116.975H124.36V118.505H125.5V116.975Z" fill="#FAFAFA"/>
<path d="M123.692 88.7861H122.552V90.3161H123.692V88.7861Z" fill="#FAFAFA"/>
<path d="M123.692 91.3467H122.552V92.8766H123.692V91.3467Z" fill="#FAFAFA"/>
<path d="M123.692 93.9128H122.552V95.4428H123.692V93.9128Z" fill="#FAFAFA"/>
<path d="M123.692 96.4734H122.552V98.0033H123.692V96.4734Z" fill="#FAFAFA"/>
<path d="M123.692 99.0393H122.552V100.569H123.692V99.0393Z" fill="#FAFAFA"/>
<path d="M123.692 101.6H122.552V103.13H123.692V101.6Z" fill="#FAFAFA"/>
<path d="M123.692 104.161H122.552V105.691H123.692V104.161Z" fill="#FAFAFA"/>
<path d="M123.692 106.727H122.552V108.257H123.692V106.727Z" fill="#FAFAFA"/>
<path d="M123.692 109.287H122.552V110.817H123.692V109.287Z" fill="#FAFAFA"/>
<path d="M123.692 111.854H122.552V113.383H123.692V111.854Z" fill="#FAFAFA"/>
<path d="M123.692 116.975H122.552V118.505H123.692V116.975Z" fill="#FAFAFA"/>
<path d="M121.884 88.7861H120.744V90.3161H121.884V88.7861Z" fill="#FAFAFA"/>
<path d="M121.884 91.3467H120.744V92.8766H121.884V91.3467Z" fill="#FAFAFA"/>
<path d="M121.884 93.9128H120.744V95.4428H121.884V93.9128Z" fill="#FAFAFA"/>
<path d="M121.884 96.4734H120.744V98.0033H121.884V96.4734Z" fill="#FAFAFA"/>
<path d="M121.884 99.0393H120.744V100.569H121.884V99.0393Z" fill="#FAFAFA"/>
<path d="M121.884 101.6H120.744V103.13H121.884V101.6Z" fill="#FAFAFA"/>
<path d="M121.884 104.161H120.744V105.691H121.884V104.161Z" fill="#FAFAFA"/>
<path d="M121.884 127.228H120.744V128.758H121.884V127.228Z" fill="#FAFAFA"/>
<path d="M120.076 88.7861H118.936V90.3161H120.076V88.7861Z" fill="#FAFAFA"/>
<path d="M120.076 91.3467H118.936V92.8766H120.076V91.3467Z" fill="#FAFAFA"/>
<path d="M120.076 93.9128H118.936V95.4428H120.076V93.9128Z" fill="#FAFAFA"/>
<path d="M120.076 96.4734H118.936V98.0033H120.076V96.4734Z" fill="#FAFAFA"/>
<path d="M120.076 99.0393H118.936V100.569H120.076V99.0393Z" fill="#FAFAFA"/>
<path d="M120.076 101.6H118.936V103.13H120.076V101.6Z" fill="#FAFAFA"/>
<path d="M120.076 104.161H118.936V105.691H120.076V104.161Z" fill="#FAFAFA"/>
<path d="M120.076 106.727H118.936V108.257H120.076V106.727Z" fill="#FAFAFA"/>
<path d="M120.076 122.102H118.936V123.632H120.076V122.102Z" fill="#FAFAFA"/>
<path d="M120.076 124.668H118.936V126.198H120.076V124.668Z" fill="#FAFAFA"/>
<path d="M120.076 127.228H118.936V128.758H120.076V127.228Z" fill="#FAFAFA"/>
<path d="M120.076 129.789H118.936V131.319H120.076V129.789Z" fill="#FAFAFA"/>
<path d="M120.076 140.042H118.936V141.572H120.076V140.042Z" fill="#FAFAFA"/>
<path d="M118.264 88.7861H117.124V90.3161H118.264V88.7861Z" fill="#FAFAFA"/>
<path d="M118.264 91.3467H117.124V92.8766H118.264V91.3467Z" fill="#FAFAFA"/>
<path d="M118.264 93.9128H117.124V95.4428H118.264V93.9128Z" fill="#FAFAFA"/>
<path d="M118.264 96.4734H117.124V98.0033H118.264V96.4734Z" fill="#FAFAFA"/>
<path d="M118.264 99.0393H117.124V100.569H118.264V99.0393Z" fill="#FAFAFA"/>
<path d="M118.264 101.6H117.124V103.13H118.264V101.6Z" fill="#FAFAFA"/>
<path d="M118.264 104.161H117.124V105.691H118.264V104.161Z" fill="#FAFAFA"/>
<path d="M118.264 106.727H117.124V108.257H118.264V106.727Z" fill="#FAFAFA"/>
<path d="M118.264 109.287H117.124V110.817H118.264V109.287Z" fill="#FAFAFA"/>
<path d="M118.264 111.854H117.124V113.383H118.264V111.854Z" fill="#FAFAFA"/>
<path d="M118.264 119.541H117.124V121.071H118.264V119.541Z" fill="#FAFAFA"/>
<path d="M118.264 122.102H117.124V123.632H118.264V122.102Z" fill="#FAFAFA"/>
<path d="M118.264 124.668H117.124V126.198H118.264V124.668Z" fill="#FAFAFA"/>
<path d="M118.264 127.228H117.124V128.758H118.264V127.228Z" fill="#FAFAFA"/>
<path d="M118.264 129.789H117.124V131.319H118.264V129.789Z" fill="#FAFAFA"/>
<path d="M118.264 140.042H117.124V141.572H118.264V140.042Z" fill="#FAFAFA"/>
<path d="M116.456 88.7861H115.316V90.3161H116.456V88.7861Z" fill="#FAFAFA"/>
<path d="M116.456 91.3467H115.316V92.8766H116.456V91.3467Z" fill="#FAFAFA"/>
<path d="M116.456 93.9128H115.316V95.4428H116.456V93.9128Z" fill="#FAFAFA"/>
<path d="M116.456 96.4734H115.316V98.0033H116.456V96.4734Z" fill="#FAFAFA"/>
<path d="M116.456 99.0393H115.316V100.569H116.456V99.0393Z" fill="#FAFAFA"/>
<path d="M116.456 101.6H115.316V103.13H116.456V101.6Z" fill="#FAFAFA"/>
<path d="M116.456 104.161H115.316V105.691H116.456V104.161Z" fill="#FAFAFA"/>
<path d="M116.456 106.727H115.316V108.257H116.456V106.727Z" fill="#FAFAFA"/>
<path d="M116.456 109.287H115.316V110.817H116.456V109.287Z" fill="#FAFAFA"/>
<path d="M116.456 111.854H115.316V113.383H116.456V111.854Z" fill="#FAFAFA"/>
<path d="M116.456 114.414H115.316V115.944H116.456V114.414Z" fill="#FAFAFA"/>
<path d="M116.456 116.975H115.316V118.505H116.456V116.975Z" fill="#FAFAFA"/>
<path d="M116.456 119.541H115.316V121.071H116.456V119.541Z" fill="#FAFAFA"/>
<path d="M116.456 122.102H115.316V123.632H116.456V122.102Z" fill="#FAFAFA"/>
<path d="M116.456 124.668H115.316V126.198H116.456V124.668Z" fill="#FAFAFA"/>
<path d="M116.456 127.228H115.316V128.758H116.456V127.228Z" fill="#FAFAFA"/>
<path d="M116.456 129.789H115.316V131.319H116.456V129.789Z" fill="#FAFAFA"/>
<path d="M116.456 132.355H115.316V133.885H116.456V132.355Z" fill="#FAFAFA"/>
<path d="M114.648 88.7861H113.508V90.3161H114.648V88.7861Z" fill="#FAFAFA"/>
<path d="M114.648 91.3467H113.508V92.8766H114.648V91.3467Z" fill="#FAFAFA"/>
<path d="M114.648 93.9128H113.508V95.4428H114.648V93.9128Z" fill="#FAFAFA"/>
<path d="M114.648 96.4734H113.508V98.0033H114.648V96.4734Z" fill="#FAFAFA"/>
<path d="M114.648 99.0393H113.508V100.569H114.648V99.0393Z" fill="#FAFAFA"/>
<path d="M114.648 101.6H113.508V103.13H114.648V101.6Z" fill="#FAFAFA"/>
<path d="M114.648 104.161H113.508V105.691H114.648V104.161Z" fill="#FAFAFA"/>
<path d="M114.648 106.727H113.508V108.257H114.648V106.727Z" fill="#FAFAFA"/>
<path d="M114.648 109.287H113.508V110.817H114.648V109.287Z" fill="#FAFAFA"/>
<path d="M114.648 111.854H113.508V113.383H114.648V111.854Z" fill="#FAFAFA"/>
<path d="M114.648 119.541H113.508V121.071H114.648V119.541Z" fill="#FAFAFA"/>
<path d="M114.648 122.102H113.508V123.632H114.648V122.102Z" fill="#FAFAFA"/>
<path d="M114.648 124.668H113.508V126.198H114.648V124.668Z" fill="#FAFAFA"/>
<path d="M114.648 127.228H113.508V128.758H114.648V127.228Z" fill="#FAFAFA"/>
<path d="M112.836 88.7861H111.696V90.3161H112.836V88.7861Z" fill="#FAFAFA"/>
<path d="M112.836 91.3467H111.696V92.8766H112.836V91.3467Z" fill="#FAFAFA"/>
<path d="M112.836 93.9128H111.696V95.4428H112.836V93.9128Z" fill="#FAFAFA"/>
<path d="M112.836 96.4734H111.696V98.0033H112.836V96.4734Z" fill="#FAFAFA"/>
<path d="M112.836 99.0393H111.696V100.569H112.836V99.0393Z" fill="#FAFAFA"/>
<path d="M112.836 101.6H111.696V103.13H112.836V101.6Z" fill="#FAFAFA"/>
<path d="M112.836 104.161H111.696V105.691H112.836V104.161Z" fill="#FAFAFA"/>
<path d="M112.836 106.727H111.696V108.257H112.836V106.727Z" fill="#FAFAFA"/>
<path d="M112.836 109.287H111.696V110.817H112.836V109.287Z" fill="#FAFAFA"/>
<path d="M112.836 111.854H111.696V113.383H112.836V111.854Z" fill="#FAFAFA"/>
<path d="M112.836 119.541H111.696V121.071H112.836V119.541Z" fill="#FAFAFA"/>
<path d="M112.836 122.102H111.696V123.632H112.836V122.102Z" fill="#FAFAFA"/>
<path d="M112.836 124.668H111.696V126.198H112.836V124.668Z" fill="#FAFAFA"/>
<path d="M92.468 82.1294H91.328V83.6593H92.468V82.1294Z" fill="#FAFAFA"/>
<path d="M92.468 84.6953H91.328V86.2253H92.468V84.6953Z" fill="#FAFAFA"/>
<path d="M92.468 87.2561H91.328V88.7861H92.468V87.2561Z" fill="#FAFAFA"/>
<path d="M92.468 89.8169H91.328V91.3469H92.468V89.8169Z" fill="#FAFAFA"/>
<path d="M92.468 92.3826H91.328V93.9125H92.468V92.3826Z" fill="#FAFAFA"/>
<path d="M92.468 94.9434H91.328V96.4733H92.468V94.9434Z" fill="#FAFAFA"/>
<path d="M92.468 97.5095H91.328V99.0395H92.468V97.5095Z" fill="#FAFAFA"/>
<path d="M92.468 100.07H91.328V101.6H92.468V100.07Z" fill="#FAFAFA"/>
<path d="M92.468 107.758H91.328V109.288H92.468V107.758Z" fill="#FAFAFA"/>
<path d="M92.468 110.324H91.328V111.854H92.468V110.324Z" fill="#FAFAFA"/>
<path d="M90.66 82.1294H89.52V83.6593H90.66V82.1294Z" fill="#FAFAFA"/>
<path d="M90.66 84.6953H89.52V86.2253H90.66V84.6953Z" fill="#FAFAFA"/>
<path d="M90.66 87.2561H89.52V88.7861H90.66V87.2561Z" fill="#FAFAFA"/>
<path d="M90.66 89.8169H89.52V91.3469H90.66V89.8169Z" fill="#FAFAFA"/>
<path d="M90.66 92.3826H89.52V93.9125H90.66V92.3826Z" fill="#FAFAFA"/>
<path d="M90.66 94.9434H89.52V96.4733H90.66V94.9434Z" fill="#FAFAFA"/>
<path d="M90.66 97.5095H89.52V99.0395H90.66V97.5095Z" fill="#FAFAFA"/>
<path d="M90.66 100.07H89.52V101.6H90.66V100.07Z" fill="#FAFAFA"/>
<path d="M90.66 110.324H89.52V111.854H90.66V110.324Z" fill="#FAFAFA"/>
<path d="M88.848 82.1294H87.708V83.6593H88.848V82.1294Z" fill="#FAFAFA"/>
<path d="M88.848 84.6953H87.708V86.2253H88.848V84.6953Z" fill="#FAFAFA"/>
<path d="M88.848 87.2561H87.708V88.7861H88.848V87.2561Z" fill="#FAFAFA"/>
<path d="M88.848 89.8169H87.708V91.3469H88.848V89.8169Z" fill="#FAFAFA"/>
<path d="M88.848 92.3826H87.708V93.9125H88.848V92.3826Z" fill="#FAFAFA"/>
<path d="M88.848 94.9434H87.708V96.4733H88.848V94.9434Z" fill="#FAFAFA"/>
<path d="M88.848 97.5095H87.708V99.0395H88.848V97.5095Z" fill="#FAFAFA"/>
<path d="M88.848 100.07H87.708V101.6H88.848V100.07Z" fill="#FAFAFA"/>
<path d="M87.04 82.1294H85.9V83.6593H87.04V82.1294Z" fill="#FAFAFA"/>
<path d="M87.04 84.6953H85.9V86.2253H87.04V84.6953Z" fill="#FAFAFA"/>
<path d="M87.04 87.2561H85.9V88.7861H87.04V87.2561Z" fill="#FAFAFA"/>
<path d="M87.04 89.8169H85.9V91.3469H87.04V89.8169Z" fill="#FAFAFA"/>
<path d="M87.04 92.3826H85.9V93.9125H87.04V92.3826Z" fill="#FAFAFA"/>
<path d="M87.04 94.9434H85.9V96.4733H87.04V94.9434Z" fill="#FAFAFA"/>
<path d="M87.04 100.07H85.9V101.6H87.04V100.07Z" fill="#FAFAFA"/>
<path d="M87.04 102.636H85.9V104.166H87.04V102.636Z" fill="#FAFAFA"/>
<path d="M87.04 110.324H85.9V111.854H87.04V110.324Z" fill="#FAFAFA"/>
<path d="M87.04 112.884H85.9V114.414H87.04V112.884Z" fill="#FAFAFA"/>
<path d="M87.04 115.45H85.9V116.98H87.04V115.45Z" fill="#FAFAFA"/>
<path d="M87.04 118.011H85.9V119.541H87.04V118.011Z" fill="#FAFAFA"/>
<path d="M87.04 120.572H85.9V122.102H87.04V120.572Z" fill="#FAFAFA"/>
<path d="M87.04 123.137H85.9V124.667H87.04V123.137Z" fill="#FAFAFA"/>
<path d="M87.04 125.698H85.9V127.228H87.04V125.698Z" fill="#FAFAFA"/>
<path d="M85.232 82.1294H84.092V83.6593H85.232V82.1294Z" fill="#FAFAFA"/>
<path d="M85.232 84.6953H84.092V86.2253H85.232V84.6953Z" fill="#FAFAFA"/>
<path d="M85.232 87.2561H84.092V88.7861H85.232V87.2561Z" fill="#FAFAFA"/>
<path d="M85.232 89.8169H84.092V91.3469H85.232V89.8169Z" fill="#FAFAFA"/>
<path d="M85.232 92.3826H84.092V93.9125H85.232V92.3826Z" fill="#FAFAFA"/>
<path d="M85.232 94.9434H84.092V96.4733H85.232V94.9434Z" fill="#FAFAFA"/>
<path d="M85.232 102.636H84.092V104.166H85.232V102.636Z" fill="#FAFAFA"/>
<path d="M85.232 105.197H84.092V106.727H85.232V105.197Z" fill="#FAFAFA"/>
<path d="M85.232 107.758H84.092V109.288H85.232V107.758Z" fill="#FAFAFA"/>
<path d="M85.232 110.324H84.092V111.854H85.232V110.324Z" fill="#FAFAFA"/>
<path d="M85.232 112.884H84.092V114.414H85.232V112.884Z" fill="#FAFAFA"/>
<path d="M85.232 115.45H84.092V116.98H85.232V115.45Z" fill="#FAFAFA"/>
<path d="M85.232 118.011H84.092V119.541H85.232V118.011Z" fill="#FAFAFA"/>
<path d="M85.232 120.572H84.092V122.102H85.232V120.572Z" fill="#FAFAFA"/>
<path d="M85.232 123.137H84.092V124.667H85.232V123.137Z" fill="#FAFAFA"/>
<path d="M85.232 125.698H84.092V127.228H85.232V125.698Z" fill="#FAFAFA"/>
<path d="M85.232 128.264H84.092V129.794H85.232V128.264Z" fill="#FAFAFA"/>
<path d="M85.232 133.391H84.092V134.921H85.232V133.391Z" fill="#FAFAFA"/>
<path d="M83.42 82.1294H82.28V83.6593H83.42V82.1294Z" fill="#FAFAFA"/>
<path d="M83.42 84.6953H82.28V86.2253H83.42V84.6953Z" fill="#FAFAFA"/>
<path d="M83.42 87.2561H82.28V88.7861H83.42V87.2561Z" fill="#FAFAFA"/>
<path d="M83.42 89.8169H82.28V91.3469H83.42V89.8169Z" fill="#FAFAFA"/>
<path d="M83.42 92.3826H82.28V93.9125H83.42V92.3826Z" fill="#FAFAFA"/>
<path d="M83.42 94.9434H82.28V96.4733H83.42V94.9434Z" fill="#FAFAFA"/>
<path d="M83.42 102.636H82.28V104.166H83.42V102.636Z" fill="#FAFAFA"/>
<path d="M83.42 105.197H82.28V106.727H83.42V105.197Z" fill="#FAFAFA"/>
<path d="M83.42 107.758H82.28V109.288H83.42V107.758Z" fill="#FAFAFA"/>
<path d="M83.42 110.324H82.28V111.854H83.42V110.324Z" fill="#FAFAFA"/>
<path d="M83.42 118.011H82.28V119.541H83.42V118.011Z" fill="#FAFAFA"/>
<path d="M83.42 120.572H82.28V122.102H83.42V120.572Z" fill="#FAFAFA"/>
<path d="M83.42 123.137H82.28V124.667H83.42V123.137Z" fill="#FAFAFA"/>
<path d="M83.42 125.698H82.28V127.228H83.42V125.698Z" fill="#FAFAFA"/>
<path d="M83.42 128.264H82.28V129.794H83.42V128.264Z" fill="#FAFAFA"/>
<path d="M83.42 133.391H82.28V134.921H83.42V133.391Z" fill="#FAFAFA"/>
<path d="M83.42 135.952H82.28V137.482H83.42V135.952Z" fill="#FAFAFA"/>
<path d="M67.004 105.959H65.864V107.489H67.004V105.959Z" fill="#FAFAFA"/>
<path d="M67.004 108.525H65.864V110.055H67.004V108.525Z" fill="#FAFAFA"/>
<path d="M67.004 111.086H65.864V112.616H67.004V111.086Z" fill="#FAFAFA"/>
<path d="M67.004 113.652H65.864V115.182H67.004V113.652Z" fill="#FAFAFA"/>
<path d="M67.004 116.212H65.864V117.742H67.004V116.212Z" fill="#FAFAFA"/>
<path d="M67.004 118.773H65.864V120.303H67.004V118.773Z" fill="#FAFAFA"/>
<path d="M67.004 121.339H65.864V122.869H67.004V121.339Z" fill="#FAFAFA"/>
<path d="M67.004 129.027H65.864V130.557H67.004V129.027Z" fill="#FAFAFA"/>
<path d="M67.004 131.593H65.864V133.122H67.004V131.593Z" fill="#FAFAFA"/>
<path d="M67.004 134.153H65.864V135.683H67.004V134.153Z" fill="#FAFAFA"/>
<path d="M65.196 105.959H64.056V107.489H65.196V105.959Z" fill="#FAFAFA"/>
<path d="M65.196 108.525H64.056V110.055H65.196V108.525Z" fill="#FAFAFA"/>
<path d="M65.196 111.086H64.056V112.616H65.196V111.086Z" fill="#FAFAFA"/>
<path d="M65.196 113.652H64.056V115.182H65.196V113.652Z" fill="#FAFAFA"/>
<path d="M65.196 116.212H64.056V117.742H65.196V116.212Z" fill="#FAFAFA"/>
<path d="M65.196 118.773H64.056V120.303H65.196V118.773Z" fill="#FAFAFA"/>
<path d="M65.196 121.339H64.056V122.869H65.196V121.339Z" fill="#FAFAFA"/>
<path d="M63.388 105.959H62.248V107.489H63.388V105.959Z" fill="#FAFAFA"/>
<path d="M63.388 108.525H62.248V110.055H63.388V108.525Z" fill="#FAFAFA"/>
<path d="M63.388 111.086H62.248V112.616H63.388V111.086Z" fill="#FAFAFA"/>
<path d="M63.388 113.652H62.248V115.182H63.388V113.652Z" fill="#FAFAFA"/>
<path d="M63.388 116.212H62.248V117.742H63.388V116.212Z" fill="#FAFAFA"/>
<path d="M63.388 118.773H62.248V120.303H63.388V118.773Z" fill="#FAFAFA"/>
<path d="M63.388 121.339H62.248V122.869H63.388V121.339Z" fill="#FAFAFA"/>
<path d="M61.576 105.959H60.436V107.489H61.576V105.959Z" fill="#FAFAFA"/>
<path d="M61.576 108.525H60.436V110.055H61.576V108.525Z" fill="#FAFAFA"/>
<path d="M61.576 111.086H60.436V112.616H61.576V111.086Z" fill="#FAFAFA"/>
<path d="M61.576 113.652H60.436V115.182H61.576V113.652Z" fill="#FAFAFA"/>
<path d="M61.576 116.212H60.436V117.742H61.576V116.212Z" fill="#FAFAFA"/>
<path d="M61.576 118.773H60.436V120.303H61.576V118.773Z" fill="#FAFAFA"/>
<path d="M61.576 121.339H60.436V122.869H61.576V121.339Z" fill="#FAFAFA"/>
<path d="M61.576 123.9H60.436V125.43H61.576V123.9Z" fill="#FAFAFA"/>
<path d="M61.576 126.466H60.436V127.996H61.576V126.466Z" fill="#FAFAFA"/>
<path d="M61.576 129.027H60.436V130.557H61.576V129.027Z" fill="#FAFAFA"/>
<path d="M61.576 131.593H60.436V133.122H61.576V131.593Z" fill="#FAFAFA"/>
<path d="M59.768 105.959H58.628V107.489H59.768V105.959Z" fill="#FAFAFA"/>
<path d="M59.768 108.525H58.628V110.055H59.768V108.525Z" fill="#FAFAFA"/>
<path d="M59.768 111.086H58.628V112.616H59.768V111.086Z" fill="#FAFAFA"/>
<path d="M59.768 113.652H58.628V115.182H59.768V113.652Z" fill="#FAFAFA"/>
<path d="M59.768 116.212H58.628V117.742H59.768V116.212Z" fill="#FAFAFA"/>
<path d="M59.768 118.773H58.628V120.303H59.768V118.773Z" fill="#FAFAFA"/>
<path d="M59.768 121.339H58.628V122.869H59.768V121.339Z" fill="#FAFAFA"/>
<path d="M59.768 123.9H58.628V125.43H59.768V123.9Z" fill="#FAFAFA"/>
<path d="M59.768 126.466H58.628V127.996H59.768V126.466Z" fill="#FAFAFA"/>
<path d="M59.768 129.027H58.628V130.557H59.768V129.027Z" fill="#FAFAFA"/>
<path d="M59.768 131.593H58.628V133.122H59.768V131.593Z" fill="#FAFAFA"/>
<path d="M59.768 134.153H58.628V135.683H59.768V134.153Z" fill="#FAFAFA"/>
<path d="M59.768 141.84H58.628V143.37H59.768V141.84Z" fill="#FAFAFA"/>
<path d="M59.768 144.407H58.628V145.937H59.768V144.407Z" fill="#FAFAFA"/>
<path d="M57.96 105.959H56.82V107.489H57.96V105.959Z" fill="#FAFAFA"/>
<path d="M57.96 108.525H56.82V110.055H57.96V108.525Z" fill="#FAFAFA"/>
<path d="M57.96 111.086H56.82V112.616H57.96V111.086Z" fill="#FAFAFA"/>
<path d="M57.96 118.773H56.82V120.303H57.96V118.773Z" fill="#FAFAFA"/>
<path d="M57.96 121.339H56.82V122.869H57.96V121.339Z" fill="#FAFAFA"/>
<path d="M57.96 123.9H56.82V125.43H57.96V123.9Z" fill="#FAFAFA"/>
<path d="M57.96 126.466H56.82V127.996H57.96V126.466Z" fill="#FAFAFA"/>
<path d="M57.96 129.027H56.82V130.557H57.96V129.027Z" fill="#FAFAFA"/>
<path d="M57.96 131.593H56.82V133.122H57.96V131.593Z" fill="#FAFAFA"/>
<path d="M57.96 134.153H56.82V135.683H57.96V134.153Z" fill="#FAFAFA"/>
<path d="M57.96 141.84H56.82V143.37H57.96V141.84Z" fill="#FAFAFA"/>
<path d="M57.96 144.407H56.82V145.937H57.96V144.407Z" fill="#FAFAFA"/>
<path d="M57.96 146.967H56.82V148.497H57.96V146.967Z" fill="#FAFAFA"/>
<path d="M38.996 90.5845H37.856V92.1144H38.996V90.5845Z" fill="#FAFAFA"/>
<path d="M38.996 93.145H37.856V94.675H38.996V93.145Z" fill="#FAFAFA"/>
<path d="M38.996 95.7112H37.856V97.2411H38.996V95.7112Z" fill="#FAFAFA"/>
<path d="M38.996 98.2717H37.856V99.8017H38.996V98.2717Z" fill="#FAFAFA"/>
<path d="M38.996 100.838H37.856V102.368H38.996V100.838Z" fill="#FAFAFA"/>
<path d="M38.996 103.398H37.856V104.928H38.996V103.398Z" fill="#FAFAFA"/>
<path d="M38.996 105.959H37.856V107.489H38.996V105.959Z" fill="#FAFAFA"/>
<path d="M38.996 108.525H37.856V110.055H38.996V108.525Z" fill="#FAFAFA"/>
<path d="M38.996 111.086H37.856V112.616H38.996V111.086Z" fill="#FAFAFA"/>
<path d="M38.996 113.652H37.856V115.182H38.996V113.652Z" fill="#FAFAFA"/>
<path d="M38.996 116.212H37.856V117.742H38.996V116.212Z" fill="#FAFAFA"/>
<path d="M38.996 118.773H37.856V120.303H38.996V118.773Z" fill="#FAFAFA"/>
<path d="M38.996 121.339H37.856V122.869H38.996V121.339Z" fill="#FAFAFA"/>
<path d="M38.996 123.9H37.856V125.43H38.996V123.9Z" fill="#FAFAFA"/>
<path d="M38.996 126.466H37.856V127.996H38.996V126.466Z" fill="#FAFAFA"/>
<path d="M38.996 129.027H37.856V130.557H38.996V129.027Z" fill="#FAFAFA"/>
<path d="M38.996 131.593H37.856V133.122H38.996V131.593Z" fill="#FAFAFA"/>
<path d="M38.996 134.153H37.856V135.683H38.996V134.153Z" fill="#FAFAFA"/>
<path d="M38.996 136.714H37.856V138.244H38.996V136.714Z" fill="#FAFAFA"/>
<path d="M38.996 139.28H37.856V140.81H38.996V139.28Z" fill="#FAFAFA"/>
<path d="M38.996 141.84H37.856V143.37H38.996V141.84Z" fill="#FAFAFA"/>
<path d="M38.996 144.407H37.856V145.937H38.996V144.407Z" fill="#FAFAFA"/>
<path d="M38.996 146.967H37.856V148.497H38.996V146.967Z" fill="#FAFAFA"/>
<path d="M37.188 90.5845H36.048V92.1144H37.188V90.5845Z" fill="#FAFAFA"/>
<path d="M37.188 93.145H36.048V94.675H37.188V93.145Z" fill="#FAFAFA"/>
<path d="M37.188 95.7112H36.048V97.2411H37.188V95.7112Z" fill="#FAFAFA"/>
<path d="M37.188 98.2717H36.048V99.8017H37.188V98.2717Z" fill="#FAFAFA"/>
<path d="M37.188 100.838H36.048V102.368H37.188V100.838Z" fill="#FAFAFA"/>
<path d="M37.188 103.398H36.048V104.928H37.188V103.398Z" fill="#FAFAFA"/>
<path d="M37.188 105.959H36.048V107.489H37.188V105.959Z" fill="#FAFAFA"/>
<path d="M37.188 108.525H36.048V110.055H37.188V108.525Z" fill="#FAFAFA"/>
<path d="M37.188 111.086H36.048V112.616H37.188V111.086Z" fill="#FAFAFA"/>
<path d="M37.188 113.652H36.048V115.182H37.188V113.652Z" fill="#FAFAFA"/>
<path d="M37.188 116.212H36.048V117.742H37.188V116.212Z" fill="#FAFAFA"/>
<path d="M37.188 118.773H36.048V120.303H37.188V118.773Z" fill="#FAFAFA"/>
<path d="M37.188 121.339H36.048V122.869H37.188V121.339Z" fill="#FAFAFA"/>
<path d="M37.188 123.9H36.048V125.43H37.188V123.9Z" fill="#FAFAFA"/>
<path d="M37.188 126.466H36.048V127.996H37.188V126.466Z" fill="#FAFAFA"/>
<path d="M37.188 129.027H36.048V130.557H37.188V129.027Z" fill="#FAFAFA"/>
<path d="M37.188 131.593H36.048V133.122H37.188V131.593Z" fill="#FAFAFA"/>
<path d="M37.188 134.153H36.048V135.683H37.188V134.153Z" fill="#FAFAFA"/>
<path d="M37.188 136.714H36.048V138.244H37.188V136.714Z" fill="#FAFAFA"/>
<path d="M35.38 90.5845H34.24V92.1144H35.38V90.5845Z" fill="#FAFAFA"/>
<path d="M35.38 93.145H34.24V94.675H35.38V93.145Z" fill="#FAFAFA"/>
<path d="M35.38 95.7112H34.24V97.2411H35.38V95.7112Z" fill="#FAFAFA"/>
<path d="M35.38 98.2717H34.24V99.8017H35.38V98.2717Z" fill="#FAFAFA"/>
<path d="M35.38 100.838H34.24V102.368H35.38V100.838Z" fill="#FAFAFA"/>
<path d="M35.38 103.398H34.24V104.928H35.38V103.398Z" fill="#FAFAFA"/>
<path d="M35.38 105.959H34.24V107.489H35.38V105.959Z" fill="#FAFAFA"/>
<path d="M35.38 108.525H34.24V110.055H35.38V108.525Z" fill="#FAFAFA"/>
<path d="M35.38 111.086H34.24V112.616H35.38V111.086Z" fill="#FAFAFA"/>
<path d="M35.38 113.652H34.24V115.182H35.38V113.652Z" fill="#FAFAFA"/>
<path d="M35.38 116.212H34.24V117.742H35.38V116.212Z" fill="#FAFAFA"/>
<path d="M35.38 118.773H34.24V120.303H35.38V118.773Z" fill="#FAFAFA"/>
<path d="M35.38 121.339H34.24V122.869H35.38V121.339Z" fill="#FAFAFA"/>
<path d="M35.38 123.9H34.24V125.43H35.38V123.9Z" fill="#FAFAFA"/>
<path d="M35.38 126.466H34.24V127.996H35.38V126.466Z" fill="#FAFAFA"/>
<path d="M35.38 129.027H34.24V130.557H35.38V129.027Z" fill="#FAFAFA"/>
<path d="M35.38 131.593H34.24V133.122H35.38V131.593Z" fill="#FAFAFA"/>
<path d="M35.38 134.153H34.24V135.683H35.38V134.153Z" fill="#FAFAFA"/>
<path d="M35.38 136.714H34.24V138.244H35.38V136.714Z" fill="#FAFAFA"/>
<path d="M33.568 90.5845H32.428V92.1144H33.568V90.5845Z" fill="#FAFAFA"/>
<path d="M33.568 93.145H32.428V94.675H33.568V93.145Z" fill="#FAFAFA"/>
<path d="M33.568 95.7112H32.428V97.2411H33.568V95.7112Z" fill="#FAFAFA"/>
<path d="M33.568 98.2717H32.428V99.8017H33.568V98.2717Z" fill="#FAFAFA"/>
<path d="M33.568 100.838H32.428V102.368H33.568V100.838Z" fill="#FAFAFA"/>
<path d="M33.568 103.398H32.428V104.928H33.568V103.398Z" fill="#FAFAFA"/>
<path d="M33.568 105.959H32.428V107.489H33.568V105.959Z" fill="#FAFAFA"/>
<path d="M33.568 108.525H32.428V110.055H33.568V108.525Z" fill="#FAFAFA"/>
<path d="M33.568 111.086H32.428V112.616H33.568V111.086Z" fill="#FAFAFA"/>
<path d="M33.568 113.652H32.428V115.182H33.568V113.652Z" fill="#FAFAFA"/>
<path d="M33.568 116.212H32.428V117.742H33.568V116.212Z" fill="#FAFAFA"/>
<path d="M33.568 118.773H32.428V120.303H33.568V118.773Z" fill="#FAFAFA"/>
<path d="M33.568 121.339H32.428V122.869H33.568V121.339Z" fill="#FAFAFA"/>
<path d="M33.568 123.9H32.428V125.43H33.568V123.9Z" fill="#FAFAFA"/>
<path d="M33.568 126.466H32.428V127.996H33.568V126.466Z" fill="#FAFAFA"/>
<path d="M31.76 90.5845H30.62V92.1144H31.76V90.5845Z" fill="#FAFAFA"/>
<path d="M31.76 93.145H30.62V94.675H31.76V93.145Z" fill="#FAFAFA"/>
<path d="M31.76 95.7112H30.62V97.2411H31.76V95.7112Z" fill="#FAFAFA"/>
<path d="M31.76 98.2717H30.62V99.8017H31.76V98.2717Z" fill="#FAFAFA"/>
<path d="M31.76 100.838H30.62V102.368H31.76V100.838Z" fill="#FAFAFA"/>
<path d="M31.76 103.398H30.62V104.928H31.76V103.398Z" fill="#FAFAFA"/>
<path d="M31.76 105.959H30.62V107.489H31.76V105.959Z" fill="#FAFAFA"/>
<path d="M31.76 108.525H30.62V110.055H31.76V108.525Z" fill="#FAFAFA"/>
<path d="M31.76 111.086H30.62V112.616H31.76V111.086Z" fill="#FAFAFA"/>
<path d="M31.76 113.652H30.62V115.182H31.76V113.652Z" fill="#FAFAFA"/>
<path d="M31.76 116.212H30.62V117.742H31.76V116.212Z" fill="#FAFAFA"/>
<path d="M31.76 118.773H30.62V120.303H31.76V118.773Z" fill="#FAFAFA"/>
<path d="M31.76 121.339H30.62V122.869H31.76V121.339Z" fill="#FAFAFA"/>
<path d="M29.952 90.5845H28.812V92.1144H29.952V90.5845Z" fill="#FAFAFA"/>
<path d="M29.952 93.145H28.812V94.675H29.952V93.145Z" fill="#FAFAFA"/>
<path d="M29.952 95.7112H28.812V97.2411H29.952V95.7112Z" fill="#FAFAFA"/>
<path d="M29.952 98.2717H28.812V99.8017H29.952V98.2717Z" fill="#FAFAFA"/>
<path d="M29.952 100.838H28.812V102.368H29.952V100.838Z" fill="#FAFAFA"/>
<path d="M29.952 103.398H28.812V104.928H29.952V103.398Z" fill="#FAFAFA"/>
<path d="M29.952 105.959H28.812V107.489H29.952V105.959Z" fill="#FAFAFA"/>
<path d="M29.952 108.525H28.812V110.055H29.952V108.525Z" fill="#FAFAFA"/>
<path d="M29.952 111.086H28.812V112.616H29.952V111.086Z" fill="#FAFAFA"/>
<path d="M29.952 113.652H28.812V115.182H29.952V113.652Z" fill="#FAFAFA"/>
<path d="M29.952 116.212H28.812V117.742H29.952V116.212Z" fill="#FAFAFA"/>
<path d="M29.952 118.773H28.812V120.303H29.952V118.773Z" fill="#FAFAFA"/>
<path d="M162.892 109.287H161.752V110.817H162.892V109.287Z" fill="#FAFAFA"/>
<path d="M162.892 111.854H161.752V113.383H162.892V111.854Z" fill="#FAFAFA"/>
<path d="M162.892 114.414H161.752V115.944H162.892V114.414Z" fill="#FAFAFA"/>
<path d="M162.892 116.975H161.752V118.505H162.892V116.975Z" fill="#FAFAFA"/>
<path d="M162.892 119.541H161.752V121.071H162.892V119.541Z" fill="#FAFAFA"/>
<path d="M162.892 122.102H161.752V123.632H162.892V122.102Z" fill="#FAFAFA"/>
<path d="M162.892 124.668H161.752V126.198H162.892V124.668Z" fill="#FAFAFA"/>
<path d="M162.892 127.228H161.752V128.758H162.892V127.228Z" fill="#FAFAFA"/>
<path d="M162.892 129.789H161.752V131.319H162.892V129.789Z" fill="#FAFAFA"/>
<path d="M162.892 132.355H161.752V133.885H162.892V132.355Z" fill="#FAFAFA"/>
<path d="M162.892 134.916H161.752V136.445H162.892V134.916Z" fill="#FAFAFA"/>
<path d="M162.892 137.481H161.752V139.011H162.892V137.481Z" fill="#FAFAFA"/>
<path d="M162.892 140.042H161.752V141.572H162.892V140.042Z" fill="#FAFAFA"/>
<path d="M162.892 142.608H161.752V144.138H162.892V142.608Z" fill="#FAFAFA"/>
<path d="M162.892 145.169H161.752V146.699H162.892V145.169Z" fill="#FAFAFA"/>
<path d="M162.892 147.729H161.752V149.259H162.892V147.729Z" fill="#FAFAFA"/>
<path d="M162.892 150.295H161.752V151.825H162.892V150.295Z" fill="#FAFAFA"/>
<path d="M162.892 152.856H161.752V154.386H162.892V152.856Z" fill="#FAFAFA"/>
<path d="M162.892 155.423H161.752V156.953H162.892V155.423Z" fill="#FAFAFA"/>
<path d="M162.892 157.983H161.752V159.513H162.892V157.983Z" fill="#FAFAFA"/>
<path d="M161.08 109.287H159.94V110.817H161.08V109.287Z" fill="#FAFAFA"/>
<path d="M161.08 111.854H159.94V113.383H161.08V111.854Z" fill="#FAFAFA"/>
<path d="M161.08 114.414H159.94V115.944H161.08V114.414Z" fill="#FAFAFA"/>
<path d="M161.08 116.975H159.94V118.505H161.08V116.975Z" fill="#FAFAFA"/>
<path d="M161.08 119.541H159.94V121.071H161.08V119.541Z" fill="#FAFAFA"/>
<path d="M161.08 122.102H159.94V123.632H161.08V122.102Z" fill="#FAFAFA"/>
<path d="M161.08 124.668H159.94V126.198H161.08V124.668Z" fill="#FAFAFA"/>
<path d="M161.08 127.228H159.94V128.758H161.08V127.228Z" fill="#FAFAFA"/>
<path d="M161.08 129.789H159.94V131.319H161.08V129.789Z" fill="#FAFAFA"/>
<path d="M161.08 132.355H159.94V133.885H161.08V132.355Z" fill="#FAFAFA"/>
<path d="M161.08 134.916H159.94V136.445H161.08V134.916Z" fill="#FAFAFA"/>
<path d="M161.08 137.481H159.94V139.011H161.08V137.481Z" fill="#FAFAFA"/>
<path d="M161.08 140.042H159.94V141.572H161.08V140.042Z" fill="#FAFAFA"/>
<path d="M161.08 142.608H159.94V144.138H161.08V142.608Z" fill="#FAFAFA"/>
<path d="M161.08 145.169H159.94V146.699H161.08V145.169Z" fill="#FAFAFA"/>
<path d="M161.08 147.729H159.94V149.259H161.08V147.729Z" fill="#FAFAFA"/>
<path d="M161.08 150.295H159.94V151.825H161.08V150.295Z" fill="#FAFAFA"/>
<path d="M161.08 152.856H159.94V154.386H161.08V152.856Z" fill="#FAFAFA"/>
<path d="M159.272 109.287H158.132V110.817H159.272V109.287Z" fill="#FAFAFA"/>
<path d="M159.272 111.854H158.132V113.383H159.272V111.854Z" fill="#FAFAFA"/>
<path d="M159.272 114.414H158.132V115.944H159.272V114.414Z" fill="#FAFAFA"/>
<path d="M159.272 116.975H158.132V118.505H159.272V116.975Z" fill="#FAFAFA"/>
<path d="M159.272 119.541H158.132V121.071H159.272V119.541Z" fill="#FAFAFA"/>
<path d="M159.272 122.102H158.132V123.632H159.272V122.102Z" fill="#FAFAFA"/>
<path d="M159.272 124.668H158.132V126.198H159.272V124.668Z" fill="#FAFAFA"/>
<path d="M159.272 127.228H158.132V128.758H159.272V127.228Z" fill="#FAFAFA"/>
<path d="M159.272 129.789H158.132V131.319H159.272V129.789Z" fill="#FAFAFA"/>
<path d="M159.272 132.355H158.132V133.885H159.272V132.355Z" fill="#FAFAFA"/>
<path d="M159.272 134.916H158.132V136.445H159.272V134.916Z" fill="#FAFAFA"/>
<path d="M159.272 137.481H158.132V139.011H159.272V137.481Z" fill="#FAFAFA"/>
<path d="M159.272 140.042H158.132V141.572H159.272V140.042Z" fill="#FAFAFA"/>
<path d="M159.272 142.608H158.132V144.138H159.272V142.608Z" fill="#FAFAFA"/>
<path d="M159.272 145.169H158.132V146.699H159.272V145.169Z" fill="#FAFAFA"/>
<path d="M159.272 147.729H158.132V149.259H159.272V147.729Z" fill="#FAFAFA"/>
<path d="M159.272 150.295H158.132V151.825H159.272V150.295Z" fill="#FAFAFA"/>
<path d="M159.272 152.856H158.132V154.386H159.272V152.856Z" fill="#FAFAFA"/>
<path d="M169.66 127.991H168.52V129.521H169.66V127.991Z" fill="#FAFAFA"/>
<path d="M169.66 130.556H168.52V132.086H169.66V130.556Z" fill="#FAFAFA"/>
<path d="M169.66 133.117H168.52V134.647H169.66V133.117Z" fill="#FAFAFA"/>
<path d="M169.66 135.683H168.52V137.213H169.66V135.683Z" fill="#FAFAFA"/>
<path d="M169.66 138.244H168.52V139.774H169.66V138.244Z" fill="#FAFAFA"/>
<path d="M169.66 140.81H168.52V142.34H169.66V140.81Z" fill="#FAFAFA"/>
<path d="M169.66 143.371H168.52V144.901H169.66V143.371Z" fill="#FAFAFA"/>
<path d="M169.66 145.931H168.52V147.461H169.66V145.931Z" fill="#FAFAFA"/>
<path d="M169.66 148.497H168.52V150.027H169.66V148.497Z" fill="#FAFAFA"/>
<path d="M169.66 151.058H168.52V152.588H169.66V151.058Z" fill="#FAFAFA"/>
<path d="M169.66 153.625H168.52V155.154H169.66V153.625Z" fill="#FAFAFA"/>
<path d="M169.66 156.185H168.52V157.715H169.66V156.185Z" fill="#FAFAFA"/>
<path d="M169.66 158.746H168.52V160.276H169.66V158.746Z" fill="#FAFAFA"/>
<path d="M167.848 127.991H166.708V129.521H167.848V127.991Z" fill="#FAFAFA"/>
<path d="M167.848 130.556H166.708V132.086H167.848V130.556Z" fill="#FAFAFA"/>
<path d="M167.848 133.117H166.708V134.647H167.848V133.117Z" fill="#FAFAFA"/>
<path d="M167.848 135.683H166.708V137.213H167.848V135.683Z" fill="#FAFAFA"/>
<path d="M167.848 138.244H166.708V139.774H167.848V138.244Z" fill="#FAFAFA"/>
<path d="M167.848 140.81H166.708V142.34H167.848V140.81Z" fill="#FAFAFA"/>
<path d="M167.848 143.371H166.708V144.901H167.848V143.371Z" fill="#FAFAFA"/>
<path d="M167.848 145.931H166.708V147.461H167.848V145.931Z" fill="#FAFAFA"/>
<path d="M167.848 148.497H166.708V150.027H167.848V148.497Z" fill="#FAFAFA"/>
<path d="M167.848 151.058H166.708V152.588H167.848V151.058Z" fill="#FAFAFA"/>
<path d="M167.848 153.625H166.708V155.154H167.848V153.625Z" fill="#FAFAFA"/>
<path d="M167.848 156.185H166.708V157.715H167.848V156.185Z" fill="#FAFAFA"/>
<path d="M167.848 158.746H166.708V160.276H167.848V158.746Z" fill="#FAFAFA"/>
<path d="M166.04 127.991H164.9V129.521H166.04V127.991Z" fill="#FAFAFA"/>
<path d="M166.04 130.556H164.9V132.086H166.04V130.556Z" fill="#FAFAFA"/>
<path d="M166.04 133.117H164.9V134.647H166.04V133.117Z" fill="#FAFAFA"/>
<path d="M166.04 135.683H164.9V137.213H166.04V135.683Z" fill="#FAFAFA"/>
<path d="M166.04 138.244H164.9V139.774H166.04V138.244Z" fill="#FAFAFA"/>
<path d="M166.04 140.81H164.9V142.34H166.04V140.81Z" fill="#FAFAFA"/>
<path d="M166.04 143.371H164.9V144.901H166.04V143.371Z" fill="#FAFAFA"/>
<path d="M166.04 145.931H164.9V147.461H166.04V145.931Z" fill="#FAFAFA"/>
<path d="M166.04 148.497H164.9V150.027H166.04V148.497Z" fill="#FAFAFA"/>
<path d="M166.04 151.058H164.9V152.588H166.04V151.058Z" fill="#FAFAFA"/>
<path d="M166.04 153.625H164.9V155.154H166.04V153.625Z" fill="#FAFAFA"/>
<path d="M166.04 156.185H164.9V157.715H166.04V156.185Z" fill="#FAFAFA"/>
<path d="M166.04 158.746H164.9V160.276H166.04V158.746Z" fill="#FAFAFA"/>
<path d="M166.04 161.312H164.9V162.841H166.04V161.312Z" fill="#FAFAFA"/>
<path d="M155.988 128.758H154.848V130.288H155.988V128.758Z" fill="#FAFAFA"/>
<path d="M155.988 131.319H154.848V132.849H155.988V131.319Z" fill="#FAFAFA"/>
<path d="M155.988 133.885H154.848V135.415H155.988V133.885Z" fill="#FAFAFA"/>
<path d="M155.988 136.446H154.848V137.975H155.988V136.446Z" fill="#FAFAFA"/>
<path d="M155.988 139.011H154.848V140.541H155.988V139.011Z" fill="#FAFAFA"/>
<path d="M155.988 141.572H154.848V143.102H155.988V141.572Z" fill="#FAFAFA"/>
<path d="M155.988 144.133H154.848V145.663H155.988V144.133Z" fill="#FAFAFA"/>
<path d="M155.988 146.699H154.848V148.229H155.988V146.699Z" fill="#FAFAFA"/>
<path d="M155.988 149.259H154.848V150.789H155.988V149.259Z" fill="#FAFAFA"/>
<path d="M155.988 151.826H154.848V153.356H155.988V151.826Z" fill="#FAFAFA"/>
<path d="M155.988 159.513H154.848V161.043H155.988V159.513Z" fill="#FAFAFA"/>
<path d="M154.18 128.758H153.04V130.288H154.18V128.758Z" fill="#FAFAFA"/>
<path d="M154.18 131.319H153.04V132.849H154.18V131.319Z" fill="#FAFAFA"/>
<path d="M154.18 133.885H153.04V135.415H154.18V133.885Z" fill="#FAFAFA"/>
<path d="M154.18 136.446H153.04V137.975H154.18V136.446Z" fill="#FAFAFA"/>
<path d="M154.18 139.011H153.04V140.541H154.18V139.011Z" fill="#FAFAFA"/>
<path d="M154.18 141.572H153.04V143.102H154.18V141.572Z" fill="#FAFAFA"/>
<path d="M154.18 144.133H153.04V145.663H154.18V144.133Z" fill="#FAFAFA"/>
<path d="M154.18 146.699H153.04V148.229H154.18V146.699Z" fill="#FAFAFA"/>
<path d="M154.18 149.259H153.04V150.789H154.18V149.259Z" fill="#FAFAFA"/>
<path d="M154.18 156.947H153.04V158.477H154.18V156.947Z" fill="#FAFAFA"/>
<path d="M154.18 159.513H153.04V161.043H154.18V159.513Z" fill="#FAFAFA"/>
<path d="M152.372 128.758H151.232V130.288H152.372V128.758Z" fill="#FAFAFA"/>
<path d="M152.372 131.319H151.232V132.849H152.372V131.319Z" fill="#FAFAFA"/>
<path d="M152.372 133.885H151.232V135.415H152.372V133.885Z" fill="#FAFAFA"/>
<path d="M152.372 136.446H151.232V137.975H152.372V136.446Z" fill="#FAFAFA"/>
<path d="M152.372 139.011H151.232V140.541H152.372V139.011Z" fill="#FAFAFA"/>
<path d="M152.372 141.572H151.232V143.102H152.372V141.572Z" fill="#FAFAFA"/>
<path d="M152.372 144.133H151.232V145.663H152.372V144.133Z" fill="#FAFAFA"/>
<path d="M152.372 146.699H151.232V148.229H152.372V146.699Z" fill="#FAFAFA"/>
<path d="M152.372 154.387H151.232V155.917H152.372V154.387Z" fill="#FAFAFA"/>
<path d="M152.372 156.947H151.232V158.477H152.372V156.947Z" fill="#FAFAFA"/>
<path d="M152.372 159.513H151.232V161.043H152.372V159.513Z" fill="#FAFAFA"/>
<path d="M135.552 89.8169H134.412V91.3469H135.552V89.8169Z" fill="#FAFAFA"/>
<path d="M135.552 92.3826H134.412V93.9125H135.552V92.3826Z" fill="#FAFAFA"/>
<path d="M135.552 94.9434H134.412V96.4733H135.552V94.9434Z" fill="#FAFAFA"/>
<path d="M135.552 97.5095H134.412V99.0395H135.552V97.5095Z" fill="#FAFAFA"/>
<path d="M135.552 100.07H134.412V101.6H135.552V100.07Z" fill="#FAFAFA"/>
<path d="M135.552 102.636H134.412V104.166H135.552V102.636Z" fill="#FAFAFA"/>
<path d="M135.552 105.197H134.412V106.727H135.552V105.197Z" fill="#FAFAFA"/>
<path d="M135.552 107.758H134.412V109.288H135.552V107.758Z" fill="#FAFAFA"/>
<path d="M135.552 110.324H134.412V111.854H135.552V110.324Z" fill="#FAFAFA"/>
<path d="M135.552 112.884H134.412V114.414H135.552V112.884Z" fill="#FAFAFA"/>
<path d="M135.552 115.45H134.412V116.98H135.552V115.45Z" fill="#FAFAFA"/>
<path d="M135.552 118.011H134.412V119.541H135.552V118.011Z" fill="#FAFAFA"/>
<path d="M135.552 120.572H134.412V122.102H135.552V120.572Z" fill="#FAFAFA"/>
<path d="M135.552 123.137H134.412V124.667H135.552V123.137Z" fill="#FAFAFA"/>
<path d="M135.552 125.698H134.412V127.228H135.552V125.698Z" fill="#FAFAFA"/>
<path d="M135.552 128.264H134.412V129.794H135.552V128.264Z" fill="#FAFAFA"/>
<path d="M135.552 130.825H134.412V132.355H135.552V130.825Z" fill="#FAFAFA"/>
<path d="M135.552 135.952H134.412V137.482H135.552V135.952Z" fill="#FAFAFA"/>
<path d="M135.552 138.512H134.412V140.042H135.552V138.512Z" fill="#FAFAFA"/>
<path d="M135.552 141.078H134.412V142.608H135.552V141.078Z" fill="#FAFAFA"/>
<path d="M135.552 143.639H134.412V145.169H135.552V143.639Z" fill="#FAFAFA"/>
<path d="M135.552 146.205H134.412V147.735H135.552V146.205Z" fill="#FAFAFA"/>
<path d="M133.744 89.8169H132.604V91.3469H133.744V89.8169Z" fill="#FAFAFA"/>
<path d="M133.744 92.3826H132.604V93.9125H133.744V92.3826Z" fill="#FAFAFA"/>
<path d="M133.744 94.9434H132.604V96.4733H133.744V94.9434Z" fill="#FAFAFA"/>
<path d="M133.744 97.5095H132.604V99.0395H133.744V97.5095Z" fill="#FAFAFA"/>
<path d="M133.744 100.07H132.604V101.6H133.744V100.07Z" fill="#FAFAFA"/>
<path d="M133.744 102.636H132.604V104.166H133.744V102.636Z" fill="#FAFAFA"/>
<path d="M133.744 105.197H132.604V106.727H133.744V105.197Z" fill="#FAFAFA"/>
<path d="M133.744 107.758H132.604V109.288H133.744V107.758Z" fill="#FAFAFA"/>
<path d="M133.744 110.324H132.604V111.854H133.744V110.324Z" fill="#FAFAFA"/>
<path d="M133.744 112.884H132.604V114.414H133.744V112.884Z" fill="#FAFAFA"/>
<path d="M133.744 115.45H132.604V116.98H133.744V115.45Z" fill="#FAFAFA"/>
<path d="M133.744 118.011H132.604V119.541H133.744V118.011Z" fill="#FAFAFA"/>
<path d="M133.744 120.572H132.604V122.102H133.744V120.572Z" fill="#FAFAFA"/>
<path d="M133.744 123.137H132.604V124.667H133.744V123.137Z" fill="#FAFAFA"/>
<path d="M133.744 125.698H132.604V127.228H133.744V125.698Z" fill="#FAFAFA"/>
<path d="M133.744 128.264H132.604V129.794H133.744V128.264Z" fill="#FAFAFA"/>
<path d="M133.744 143.639H132.604V145.169H133.744V143.639Z" fill="#FAFAFA"/>
<path d="M133.744 146.205H132.604V147.735H133.744V146.205Z" fill="#FAFAFA"/>
<path d="M131.936 89.8169H130.796V91.3469H131.936V89.8169Z" fill="#FAFAFA"/>
<path d="M131.936 92.3826H130.796V93.9125H131.936V92.3826Z" fill="#FAFAFA"/>
<path d="M131.936 94.9434H130.796V96.4733H131.936V94.9434Z" fill="#FAFAFA"/>
<path d="M131.936 97.5095H130.796V99.0395H131.936V97.5095Z" fill="#FAFAFA"/>
<path d="M131.936 100.07H130.796V101.6H131.936V100.07Z" fill="#FAFAFA"/>
<path d="M131.936 102.636H130.796V104.166H131.936V102.636Z" fill="#FAFAFA"/>
<path d="M131.936 105.197H130.796V106.727H131.936V105.197Z" fill="#FAFAFA"/>
<path d="M131.936 107.758H130.796V109.288H131.936V107.758Z" fill="#FAFAFA"/>
<path d="M131.936 110.324H130.796V111.854H131.936V110.324Z" fill="#FAFAFA"/>
<path d="M131.936 112.884H130.796V114.414H131.936V112.884Z" fill="#FAFAFA"/>
<path d="M131.936 115.45H130.796V116.98H131.936V115.45Z" fill="#FAFAFA"/>
<path d="M131.936 118.011H130.796V119.541H131.936V118.011Z" fill="#FAFAFA"/>
<path d="M131.936 120.572H130.796V122.102H131.936V120.572Z" fill="#FAFAFA"/>
<path d="M131.936 123.137H130.796V124.667H131.936V123.137Z" fill="#FAFAFA"/>
<path d="M131.936 125.698H130.796V127.228H131.936V125.698Z" fill="#FAFAFA"/>
<path d="M131.936 128.264H130.796V129.794H131.936V128.264Z" fill="#FAFAFA"/>
<path d="M131.936 133.391H130.796V134.921H131.936V133.391Z" fill="#FAFAFA"/>
<path d="M131.936 135.952H130.796V137.482H131.936V135.952Z" fill="#FAFAFA"/>
<path d="M131.936 138.512H130.796V140.042H131.936V138.512Z" fill="#FAFAFA"/>
<path d="M131.936 141.078H130.796V142.608H131.936V141.078Z" fill="#FAFAFA"/>
<path d="M131.936 146.205H130.796V147.735H131.936V146.205Z" fill="#FAFAFA"/>
<path d="M142.12 122.102H140.98V123.632H142.12V122.102Z" fill="#FAFAFA"/>
<path d="M142.12 124.668H140.98V126.198H142.12V124.668Z" fill="#FAFAFA"/>
<path d="M142.12 127.228H140.98V128.758H142.12V127.228Z" fill="#FAFAFA"/>
<path d="M142.12 129.789H140.98V131.319H142.12V129.789Z" fill="#FAFAFA"/>
<path d="M142.12 132.355H140.98V133.885H142.12V132.355Z" fill="#FAFAFA"/>
<path d="M142.12 134.916H140.98V136.445H142.12V134.916Z" fill="#FAFAFA"/>
<path d="M142.12 137.481H140.98V139.011H142.12V137.481Z" fill="#FAFAFA"/>
<path d="M142.12 142.608H140.98V144.138H142.12V142.608Z" fill="#FAFAFA"/>
<path d="M142.12 145.169H140.98V146.699H142.12V145.169Z" fill="#FAFAFA"/>
<path d="M142.12 147.729H140.98V149.259H142.12V147.729Z" fill="#FAFAFA"/>
<path d="M142.12 150.295H140.98V151.825H142.12V150.295Z" fill="#FAFAFA"/>
<path d="M142.12 152.856H140.98V154.386H142.12V152.856Z" fill="#FAFAFA"/>
<path d="M142.12 155.423H140.98V156.953H142.12V155.423Z" fill="#FAFAFA"/>
<path d="M142.12 157.983H140.98V159.513H142.12V157.983Z" fill="#FAFAFA"/>
<path d="M142.12 160.549H140.98V162.079H142.12V160.549Z" fill="#FAFAFA"/>
<path d="M140.308 122.102H139.168V123.632H140.308V122.102Z" fill="#FAFAFA"/>
<path d="M140.308 124.668H139.168V126.198H140.308V124.668Z" fill="#FAFAFA"/>
<path d="M140.308 127.228H139.168V128.758H140.308V127.228Z" fill="#FAFAFA"/>
<path d="M140.308 129.789H139.168V131.319H140.308V129.789Z" fill="#FAFAFA"/>
<path d="M140.308 132.355H139.168V133.885H140.308V132.355Z" fill="#FAFAFA"/>
<path d="M140.308 134.916H139.168V136.445H140.308V134.916Z" fill="#FAFAFA"/>
<path d="M140.308 142.608H139.168V144.138H140.308V142.608Z" fill="#FAFAFA"/>
<path d="M140.308 145.169H139.168V146.699H140.308V145.169Z" fill="#FAFAFA"/>
<path d="M140.308 147.729H139.168V149.259H140.308V147.729Z" fill="#FAFAFA"/>
<path d="M140.308 150.295H139.168V151.825H140.308V150.295Z" fill="#FAFAFA"/>
<path d="M140.308 152.856H139.168V154.386H140.308V152.856Z" fill="#FAFAFA"/>
<path d="M140.308 155.423H139.168V156.953H140.308V155.423Z" fill="#FAFAFA"/>
<path d="M140.308 157.983H139.168V159.513H140.308V157.983Z" fill="#FAFAFA"/>
<path d="M140.308 160.549H139.168V162.079H140.308V160.549Z" fill="#FAFAFA"/>
<path d="M138.5 122.102H137.36V123.632H138.5V122.102Z" fill="#FAFAFA"/>
<path d="M138.5 124.668H137.36V126.198H138.5V124.668Z" fill="#FAFAFA"/>
<path d="M138.5 127.228H137.36V128.758H138.5V127.228Z" fill="#FAFAFA"/>
<path d="M138.5 129.789H137.36V131.319H138.5V129.789Z" fill="#FAFAFA"/>
<path d="M138.5 132.355H137.36V133.885H138.5V132.355Z" fill="#FAFAFA"/>
<path d="M138.5 134.916H137.36V136.445H138.5V134.916Z" fill="#FAFAFA"/>
<path d="M138.5 140.042H137.36V141.572H138.5V140.042Z" fill="#FAFAFA"/>
<path d="M138.5 142.608H137.36V144.138H138.5V142.608Z" fill="#FAFAFA"/>
<path d="M138.5 145.169H137.36V146.699H138.5V145.169Z" fill="#FAFAFA"/>
<path d="M138.5 147.729H137.36V149.259H138.5V147.729Z" fill="#FAFAFA"/>
<path d="M138.5 150.295H137.36V151.825H138.5V150.295Z" fill="#FAFAFA"/>
<path d="M138.5 152.856H137.36V154.386H138.5V152.856Z" fill="#FAFAFA"/>
<path d="M138.5 155.423H137.36V156.953H138.5V155.423Z" fill="#FAFAFA"/>
<path d="M138.5 157.983H137.36V159.513H138.5V157.983Z" fill="#FAFAFA"/>
<path d="M138.5 160.549H137.36V162.079H138.5V160.549Z" fill="#FAFAFA"/>
<path d="M100.376 107.758H99.236V109.288H100.376V107.758Z" fill="#FAFAFA"/>
<path d="M100.376 110.324H99.236V111.854H100.376V110.324Z" fill="#FAFAFA"/>
<path d="M100.376 112.884H99.236V114.414H100.376V112.884Z" fill="#FAFAFA"/>
<path d="M100.376 115.45H99.236V116.98H100.376V115.45Z" fill="#FAFAFA"/>
<path d="M100.376 118.011H99.236V119.541H100.376V118.011Z" fill="#FAFAFA"/>
<path d="M100.376 120.572H99.236V122.102H100.376V120.572Z" fill="#FAFAFA"/>
<path d="M100.376 123.137H99.236V124.667H100.376V123.137Z" fill="#FAFAFA"/>
<path d="M100.376 125.698H99.236V127.228H100.376V125.698Z" fill="#FAFAFA"/>
<path d="M100.376 128.264H99.236V129.794H100.376V128.264Z" fill="#FAFAFA"/>
<path d="M100.376 130.825H99.236V132.355H100.376V130.825Z" fill="#FAFAFA"/>
<path d="M100.376 133.391H99.236V134.921H100.376V133.391Z" fill="#FAFAFA"/>
<path d="M100.376 135.952H99.236V137.482H100.376V135.952Z" fill="#FAFAFA"/>
<path d="M100.376 138.512H99.236V140.042H100.376V138.512Z" fill="#FAFAFA"/>
<path d="M100.376 143.639H99.236V145.169H100.376V143.639Z" fill="#FAFAFA"/>
<path d="M100.376 146.205H99.236V147.735H100.376V146.205Z" fill="#FAFAFA"/>
<path d="M100.376 148.766H99.236V150.296H100.376V148.766Z" fill="#FAFAFA"/>
<path d="M100.376 151.327H99.236V152.857H100.376V151.327Z" fill="#FAFAFA"/>
<path d="M100.376 156.453H99.236V157.983H100.376V156.453Z" fill="#FAFAFA"/>
<path d="M100.376 159.02H99.236V160.549H100.376V159.02Z" fill="#FAFAFA"/>
<path d="M100.376 161.58H99.236V163.11H100.376V161.58Z" fill="#FAFAFA"/>
<path d="M98.564 107.758H97.424V109.288H98.564V107.758Z" fill="#FAFAFA"/>
<path d="M98.564 110.324H97.424V111.854H98.564V110.324Z" fill="#FAFAFA"/>
<path d="M98.564 112.884H97.424V114.414H98.564V112.884Z" fill="#FAFAFA"/>
<path d="M98.564 115.45H97.424V116.98H98.564V115.45Z" fill="#FAFAFA"/>
<path d="M98.564 118.011H97.424V119.541H98.564V118.011Z" fill="#FAFAFA"/>
<path d="M98.564 120.572H97.424V122.102H98.564V120.572Z" fill="#FAFAFA"/>
<path d="M98.564 123.137H97.424V124.667H98.564V123.137Z" fill="#FAFAFA"/>
<path d="M98.564 125.698H97.424V127.228H98.564V125.698Z" fill="#FAFAFA"/>
<path d="M98.564 128.264H97.424V129.794H98.564V128.264Z" fill="#FAFAFA"/>
<path d="M98.564 130.825H97.424V132.355H98.564V130.825Z" fill="#FAFAFA"/>
<path d="M98.564 133.391H97.424V134.921H98.564V133.391Z" fill="#FAFAFA"/>
<path d="M98.564 135.952H97.424V137.482H98.564V135.952Z" fill="#FAFAFA"/>
<path d="M98.564 138.512H97.424V140.042H98.564V138.512Z" fill="#FAFAFA"/>
<path d="M98.564 146.205H97.424V147.735H98.564V146.205Z" fill="#FAFAFA"/>
<path d="M98.564 148.766H97.424V150.296H98.564V148.766Z" fill="#FAFAFA"/>
<path d="M98.564 153.892H97.424V155.422H98.564V153.892Z" fill="#FAFAFA"/>
<path d="M98.564 156.453H97.424V157.983H98.564V156.453Z" fill="#FAFAFA"/>
<path d="M98.564 159.02H97.424V160.549H98.564V159.02Z" fill="#FAFAFA"/>
<path d="M98.564 161.58H97.424V163.11H98.564V161.58Z" fill="#FAFAFA"/>
<path d="M96.756 107.758H95.616V109.288H96.756V107.758Z" fill="#FAFAFA"/>
<path d="M96.756 110.324H95.616V111.854H96.756V110.324Z" fill="#FAFAFA"/>
<path d="M96.756 112.884H95.616V114.414H96.756V112.884Z" fill="#FAFAFA"/>
<path d="M96.756 115.45H95.616V116.98H96.756V115.45Z" fill="#FAFAFA"/>
<path d="M96.756 118.011H95.616V119.541H96.756V118.011Z" fill="#FAFAFA"/>
<path d="M96.756 120.572H95.616V122.102H96.756V120.572Z" fill="#FAFAFA"/>
<path d="M96.756 123.137H95.616V124.667H96.756V123.137Z" fill="#FAFAFA"/>
<path d="M96.756 125.698H95.616V127.228H96.756V125.698Z" fill="#FAFAFA"/>
<path d="M96.756 128.264H95.616V129.794H96.756V128.264Z" fill="#FAFAFA"/>
<path d="M96.756 130.825H95.616V132.355H96.756V130.825Z" fill="#FAFAFA"/>
<path d="M96.756 133.391H95.616V134.921H96.756V133.391Z" fill="#FAFAFA"/>
<path d="M96.756 135.952H95.616V137.482H96.756V135.952Z" fill="#FAFAFA"/>
<path d="M96.756 138.512H95.616V140.042H96.756V138.512Z" fill="#FAFAFA"/>
<path d="M96.756 141.078H95.616V142.608H96.756V141.078Z" fill="#FAFAFA"/>
<path d="M96.756 146.205H95.616V147.735H96.756V146.205Z" fill="#FAFAFA"/>
<path d="M96.756 151.327H95.616V152.857H96.756V151.327Z" fill="#FAFAFA"/>
<path d="M96.756 153.892H95.616V155.422H96.756V153.892Z" fill="#FAFAFA"/>
<path d="M96.756 156.453H95.616V157.983H96.756V156.453Z" fill="#FAFAFA"/>
<path d="M96.756 159.02H95.616V160.549H96.756V159.02Z" fill="#FAFAFA"/>
<path d="M96.756 161.58H95.616V163.11H96.756V161.58Z" fill="#FAFAFA"/>
<path d="M107.744 122.375H106.604V123.905H107.744V122.375Z" fill="#FAFAFA"/>
<path d="M107.744 124.936H106.604V126.466H107.744V124.936Z" fill="#FAFAFA"/>
<path d="M107.744 127.497H106.604V129.027H107.744V127.497Z" fill="#FAFAFA"/>
<path d="M107.744 130.062H106.604V131.592H107.744V130.062Z" fill="#FAFAFA"/>
<path d="M107.744 132.623H106.604V134.153H107.744V132.623Z" fill="#FAFAFA"/>
<path d="M107.744 135.189H106.604V136.719H107.744V135.189Z" fill="#FAFAFA"/>
<path d="M107.744 142.877H106.604V144.407H107.744V142.877Z" fill="#FAFAFA"/>
<path d="M107.744 145.438H106.604V146.967H107.744V145.438Z" fill="#FAFAFA"/>
<path d="M107.744 148.003H106.604V149.533H107.744V148.003Z" fill="#FAFAFA"/>
<path d="M107.744 150.564H106.604V152.094H107.744V150.564Z" fill="#FAFAFA"/>
<path d="M107.744 153.13H106.604V154.66H107.744V153.13Z" fill="#FAFAFA"/>
<path d="M107.744 155.69H106.604V157.22H107.744V155.69Z" fill="#FAFAFA"/>
<path d="M107.744 158.251H106.604V159.781H107.744V158.251Z" fill="#FAFAFA"/>
<path d="M105.936 122.375H104.796V123.905H105.936V122.375Z" fill="#FAFAFA"/>
<path d="M105.936 124.936H104.796V126.466H105.936V124.936Z" fill="#FAFAFA"/>
<path d="M105.936 127.497H104.796V129.027H105.936V127.497Z" fill="#FAFAFA"/>
<path d="M105.936 130.062H104.796V131.592H105.936V130.062Z" fill="#FAFAFA"/>
<path d="M105.936 132.623H104.796V134.153H105.936V132.623Z" fill="#FAFAFA"/>
<path d="M105.936 135.189H104.796V136.719H105.936V135.189Z" fill="#FAFAFA"/>
<path d="M105.936 142.877H104.796V144.407H105.936V142.877Z" fill="#FAFAFA"/>
<path d="M105.936 145.438H104.796V146.967H105.936V145.438Z" fill="#FAFAFA"/>
<path d="M105.936 148.003H104.796V149.533H105.936V148.003Z" fill="#FAFAFA"/>
<path d="M105.936 150.564H104.796V152.094H105.936V150.564Z" fill="#FAFAFA"/>
<path d="M105.936 153.13H104.796V154.66H105.936V153.13Z" fill="#FAFAFA"/>
<path d="M105.936 155.69H104.796V157.22H105.936V155.69Z" fill="#FAFAFA"/>
<path d="M105.936 160.818H104.796V162.348H105.936V160.818Z" fill="#FAFAFA"/>
<path d="M45.832 111.086H44.692V112.616H45.832V111.086Z" fill="#FAFAFA"/>
<path d="M45.832 113.652H44.692V115.182H45.832V113.652Z" fill="#FAFAFA"/>
<path d="M45.832 116.212H44.692V117.742H45.832V116.212Z" fill="#FAFAFA"/>
<path d="M45.832 118.773H44.692V120.303H45.832V118.773Z" fill="#FAFAFA"/>
<path d="M45.832 121.339H44.692V122.869H45.832V121.339Z" fill="#FAFAFA"/>
<path d="M45.832 123.9H44.692V125.43H45.832V123.9Z" fill="#FAFAFA"/>
<path d="M45.832 126.466H44.692V127.996H45.832V126.466Z" fill="#FAFAFA"/>
<path d="M45.832 129.027H44.692V130.557H45.832V129.027Z" fill="#FAFAFA"/>
<path d="M45.832 131.593H44.692V133.122H45.832V131.593Z" fill="#FAFAFA"/>
<path d="M45.832 134.153H44.692V135.683H45.832V134.153Z" fill="#FAFAFA"/>
<path d="M45.832 136.714H44.692V138.244H45.832V136.714Z" fill="#FAFAFA"/>
<path d="M45.832 141.84H44.692V143.37H45.832V141.84Z" fill="#FAFAFA"/>
<path d="M45.832 144.407H44.692V145.937H45.832V144.407Z" fill="#FAFAFA"/>
<path d="M45.832 146.967H44.692V148.497H45.832V146.967Z" fill="#FAFAFA"/>
<path d="M45.832 149.528H44.692V151.058H45.832V149.528Z" fill="#FAFAFA"/>
<path d="M45.832 152.094H44.692V153.624H45.832V152.094Z" fill="#FAFAFA"/>
<path d="M45.832 154.654H44.692V156.184H45.832V154.654Z" fill="#FAFAFA"/>
<path d="M45.832 157.221H44.692V158.751H45.832V157.221Z" fill="#FAFAFA"/>
<path d="M45.832 159.782H44.692V161.312H45.832V159.782Z" fill="#FAFAFA"/>
<path d="M44.024 111.086H42.884V112.616H44.024V111.086Z" fill="#FAFAFA"/>
<path d="M44.024 113.652H42.884V115.182H44.024V113.652Z" fill="#FAFAFA"/>
<path d="M44.024 116.212H42.884V117.742H44.024V116.212Z" fill="#FAFAFA"/>
<path d="M44.024 118.773H42.884V120.303H44.024V118.773Z" fill="#FAFAFA"/>
<path d="M44.024 121.339H42.884V122.869H44.024V121.339Z" fill="#FAFAFA"/>
<path d="M44.024 123.9H42.884V125.43H44.024V123.9Z" fill="#FAFAFA"/>
<path d="M44.024 126.466H42.884V127.996H44.024V126.466Z" fill="#FAFAFA"/>
<path d="M44.024 129.027H42.884V130.557H44.024V129.027Z" fill="#FAFAFA"/>
<path d="M44.024 131.593H42.884V133.122H44.024V131.593Z" fill="#FAFAFA"/>
<path d="M44.024 134.153H42.884V135.683H44.024V134.153Z" fill="#FAFAFA"/>
<path d="M44.024 136.714H42.884V138.244H44.024V136.714Z" fill="#FAFAFA"/>
<path d="M44.024 139.28H42.884V140.81H44.024V139.28Z" fill="#FAFAFA"/>
<path d="M44.024 141.84H42.884V143.37H44.024V141.84Z" fill="#FAFAFA"/>
<path d="M44.024 144.407H42.884V145.937H44.024V144.407Z" fill="#FAFAFA"/>
<path d="M44.024 146.967H42.884V148.497H44.024V146.967Z" fill="#FAFAFA"/>
<path d="M44.024 149.528H42.884V151.058H44.024V149.528Z" fill="#FAFAFA"/>
<path d="M44.024 152.094H42.884V153.624H44.024V152.094Z" fill="#FAFAFA"/>
<path d="M44.024 154.654H42.884V156.184H44.024V154.654Z" fill="#FAFAFA"/>
<path d="M44.024 157.221H42.884V158.751H44.024V157.221Z" fill="#FAFAFA"/>
<path d="M44.024 159.782H42.884V161.312H44.024V159.782Z" fill="#FAFAFA"/>
<path d="M54.744 121.071H53.604V122.601H54.744V121.071Z" fill="#FAFAFA"/>
<path d="M54.744 123.631H53.604V125.161H54.744V123.631Z" fill="#FAFAFA"/>
<path d="M54.744 126.192H53.604V127.722H54.744V126.192Z" fill="#FAFAFA"/>
<path d="M54.744 128.758H53.604V130.288H54.744V128.758Z" fill="#FAFAFA"/>
<path d="M54.744 131.319H53.604V132.849H54.744V131.319Z" fill="#FAFAFA"/>
<path d="M54.744 133.885H53.604V135.415H54.744V133.885Z" fill="#FAFAFA"/>
<path d="M54.744 136.446H53.604V137.975H54.744V136.446Z" fill="#FAFAFA"/>
<path d="M54.744 139.011H53.604V140.541H54.744V139.011Z" fill="#FAFAFA"/>
<path d="M54.744 141.572H53.604V143.102H54.744V141.572Z" fill="#FAFAFA"/>
<path d="M54.744 144.133H53.604V145.663H54.744V144.133Z" fill="#FAFAFA"/>
<path d="M52.936 121.071H51.796V122.601H52.936V121.071Z" fill="#FAFAFA"/>
<path d="M52.936 123.631H51.796V125.161H52.936V123.631Z" fill="#FAFAFA"/>
<path d="M52.936 126.192H51.796V127.722H52.936V126.192Z" fill="#FAFAFA"/>
<path d="M52.936 128.758H51.796V130.288H52.936V128.758Z" fill="#FAFAFA"/>
<path d="M52.936 131.319H51.796V132.849H52.936V131.319Z" fill="#FAFAFA"/>
<path d="M52.936 133.885H51.796V135.415H52.936V133.885Z" fill="#FAFAFA"/>
<path d="M52.936 136.446H51.796V137.975H52.936V136.446Z" fill="#FAFAFA"/>
<path d="M52.936 139.011H51.796V140.541H52.936V139.011Z" fill="#FAFAFA"/>
<path d="M52.936 141.572H51.796V143.102H52.936V141.572Z" fill="#FAFAFA"/>
<path d="M100 200C142.833 200 177.556 197.279 177.556 193.923C177.556 190.567 142.833 187.846 100 187.846C57.167 187.846 22.444 190.567 22.444 193.923C22.444 197.279 57.167 200 100 200Z" fill="#F5F5F5"/>
<path d="M122.508 12.8145C122.508 12.8145 122.652 22.5847 125.856 23.4329C129.06 24.2811 133.456 12.8145 133.456 12.8145C133.456 12.8145 130.772 24.1952 131.652 25.9399C132.532 27.6846 143.924 20.883 143.924 20.883C143.924 20.883 137.032 31.7805 137.788 33.6594C138.544 35.5383 143.924 34.6901 143.924 34.6901C143.924 34.6901 138.324 35.7638 138.12 39.3605C137.916 42.9573 149.94 47.8531 149.94 47.8531C149.94 47.8531 138.616 47.0049 137.788 49.5549C136.96 52.1048 140.444 57.9133 140.444 57.9133C140.444 57.9133 137.328 53.0013 134.312 53.8012C131.296 54.6011 135.112 72.9068 135.112 72.9068C135.112 72.9068 127.98 60.8605 126.312 60.8336C124.644 60.8068 124.104 70.6146 124.104 70.6146C124.104 70.6146 123.428 60.9517 122.052 61C120.676 61.0483 118.7 72.9068 118.7 72.9068C118.7 72.9068 120.048 60.2431 118.7 59.4862C117.352 58.7292 108.204 74.265 108.204 74.265C108.204 74.265 113.284 57.1939 112.708 55.825C112.132 54.4561 103.436 59.454 103.436 59.454C103.436 59.454 110.4 52.0994 109.76 49.1308C109.12 46.1621 95.36 45.942 95.36 45.942C95.36 45.942 106.96 43.1827 108.204 41.481C109.448 39.7793 101.352 29.805 101.352 29.805C101.352 29.805 110.048 32.9884 111.092 32.1402C112.136 31.292 108.06 18.9719 106.536 15.9978C106.536 15.9978 113.24 26.5357 115.296 25.9399C117.352 25.344 117.06 15.1496 117.06 15.1496C117.06 15.1496 119.412 21.3071 120.992 21.3071C122.572 21.3071 122.508 12.8145 122.508 12.8145Z" fill="#FFC727"/>
<path opacity="0.8" d="M122.508 12.8145C122.508 12.8145 122.652 22.5847 125.856 23.4329C129.06 24.2811 133.456 12.8145 133.456 12.8145C133.456 12.8145 130.772 24.1952 131.652 25.9399C132.532 27.6846 143.924 20.883 143.924 20.883C143.924 20.883 137.032 31.7805 137.788 33.6594C138.544 35.5383 143.924 34.6901 143.924 34.6901C143.924 34.6901 138.324 35.7638 138.12 39.3605C137.916 42.9573 149.94 47.8531 149.94 47.8531C149.94 47.8531 138.616 47.0049 137.788 49.5549C136.96 52.1048 140.444 57.9133 140.444 57.9133C140.444 57.9133 137.328 53.0013 134.312 53.8012C131.296 54.6011 135.112 72.9068 135.112 72.9068C135.112 72.9068 127.98 60.8605 126.312 60.8336C124.644 60.8068 124.104 70.6146 124.104 70.6146C124.104 70.6146 123.428 60.9517 122.052 61C120.676 61.0483 118.7 72.9068 118.7 72.9068C118.7 72.9068 120.048 60.2431 118.7 59.4862C117.352 58.7292 108.204 74.265 108.204 74.265C108.204 74.265 113.284 57.1939 112.708 55.825C112.132 54.4561 103.436 59.454 103.436 59.454C103.436 59.454 110.4 52.0994 109.76 49.1308C109.12 46.1621 95.36 45.942 95.36 45.942C95.36 45.942 106.96 43.1827 108.204 41.481C109.448 39.7793 101.352 29.805 101.352 29.805C101.352 29.805 110.048 32.9884 111.092 32.1402C112.136 31.292 108.06 18.9719 106.536 15.9978C106.536 15.9978 113.24 26.5357 115.296 25.9399C117.352 25.344 117.06 15.1496 117.06 15.1496C117.06 15.1496 119.412 21.3071 120.992 21.3071C122.572 21.3071 122.508 12.8145 122.508 12.8145Z" fill="white"/>
<path opacity="0.4" d="M135.962 45.3082C137.508 36.516 133.451 27.7063 126.899 25.6311C120.348 23.556 113.784 29.0012 112.238 37.7934C110.691 46.5856 114.749 55.3954 121.3 57.4705C127.851 59.5457 134.416 54.1004 135.962 45.3082Z" fill="white"/>
<path d="M177.556 159.137H19.9V186.778H177.556V159.137Z" fill="#263238"/>
<path opacity="0.6" d="M177.556 159.137H19.9V186.778H177.556V159.137Z" fill="white"/>
<path opacity="0.2" d="M36.832 162.722H22.444V168.692H36.832V162.722Z" fill="white"/>
<path opacity="0.2" d="M51.9 162.722H37.512V168.692H51.9V162.722Z" fill="white"/>
<path opacity="0.2" d="M87.376 171.822H72.988V177.791H87.376V171.822Z" fill="white"/>
<path opacity="0.2" d="M114.128 161.998H99.74V167.967H114.128V161.998Z" fill="white"/>
<path opacity="0.2" d="M122.036 169.24H107.648V175.209H122.036V169.24Z" fill="white"/>
<path opacity="0.2" d="M174.572 178.999H160.184V184.969H174.572V178.999Z" fill="white"/>
<path opacity="0.2" d="M159.144 179.096H144.756V185.065H159.144V179.096Z" fill="white"/>
<path opacity="0.2" d="M166.336 171.822H151.948V177.791H166.336V171.822Z" fill="white"/>
<path opacity="0.2" d="M44.024 169.24H29.636V175.209H44.024V169.24Z" fill="white"/>
<path opacity="0.2" d="M81.208 178.999H66.82V184.969H81.208V178.999Z" fill="white"/>
<path d="M178.36 155.202H19.168V160.924H178.36V155.202Z" fill="#263238"/>
<path opacity="0.7" d="M178.36 155.202H19.168V160.924H178.36V155.202Z" fill="white"/>
<path d="M56.8 184.733H55.652V192.249H56.8V184.733Z" fill="#FFC727"/>
<path d="M88.292 184.733H87.144V192.249H88.292V184.733Z" fill="#FFC727"/>
<path d="M101.752 133.171H96.408V192.281H101.752V133.171Z" fill="#FFC727"/>
<path opacity="0.6" d="M56.8 184.733H55.652V192.249H56.8V184.733Z" fill="white"/>
<path opacity="0.6" d="M88.292 184.733H87.144V192.249H88.292V184.733Z" fill="white"/>
<path opacity="0.6" d="M101.752 133.171H96.408V192.281H101.752V133.171Z" fill="white"/>
<path d="M109.032 193.559H49.196L50.892 190.944H107.332L109.032 193.559Z" fill="#FFC727"/>
<path opacity="0.2" d="M109.032 193.559H91.66L93.36 190.944H107.332L109.032 193.559Z" fill="white"/>
<path d="M72.94 128.898L54.3 186.44C54.2386 186.632 54.2136 186.842 54.2273 187.051C54.241 187.259 54.2929 187.46 54.3785 187.635C54.4641 187.81 54.5806 187.953 54.7177 188.053C54.8548 188.153 55.0081 188.206 55.164 188.206H87.116C87.3495 188.206 87.578 188.115 87.7734 187.943C87.9688 187.772 88.1226 187.527 88.216 187.24L106.856 129.698C106.919 129.505 106.944 129.295 106.931 129.086C106.918 128.877 106.866 128.676 106.78 128.501C106.695 128.325 106.578 128.181 106.44 128.082C106.302 127.983 106.148 127.931 105.992 127.931H74.04C73.8065 127.931 73.578 128.023 73.3827 128.194C73.1873 128.366 73.0334 128.61 72.94 128.898Z" fill="#FFC727"/>
<path opacity="0.7" d="M72.94 128.898L54.3 186.44C54.2386 186.632 54.2136 186.842 54.2273 187.051C54.241 187.259 54.2929 187.46 54.3785 187.635C54.4641 187.81 54.5806 187.953 54.7177 188.053C54.8548 188.153 55.0081 188.206 55.164 188.206H87.116C87.3495 188.206 87.578 188.115 87.7734 187.943C87.9688 187.772 88.1226 187.527 88.216 187.24L106.856 129.698C106.919 129.505 106.944 129.295 106.931 129.086C106.918 128.877 106.866 128.676 106.78 128.501C106.695 128.325 106.578 128.181 106.44 128.082C106.302 127.983 106.148 127.931 105.992 127.931H74.04C73.8065 127.931 73.578 128.023 73.3827 128.194C73.1873 128.366 73.0334 128.61 72.94 128.898Z" fill="white"/>
<path opacity="0.2" d="M83.896 164.983L89.536 147.568H77.172L71.528 164.983H83.896Z" fill="black"/>
<path opacity="0.2" d="M56.292 185.485C56.1971 185.485 56.1043 185.523 56.0253 185.593C55.9464 185.664 55.8849 185.765 55.8485 185.883C55.8122 186 55.8027 186.13 55.8212 186.255C55.8398 186.38 55.8855 186.494 55.9526 186.585C56.0197 186.675 56.1053 186.736 56.1984 186.761C56.2915 186.786 56.388 186.773 56.4757 186.724C56.5634 186.675 56.6384 186.593 56.6911 186.487C56.7439 186.381 56.772 186.256 56.772 186.129C56.772 185.958 56.7214 185.794 56.6314 185.674C56.5414 185.553 56.4193 185.485 56.292 185.485Z" fill="black"/>
<path opacity="0.2" d="M86.08 185.485C85.9852 185.486 85.8928 185.525 85.8144 185.596C85.736 185.667 85.6751 185.768 85.6394 185.886C85.6037 186.004 85.5947 186.133 85.6137 186.258C85.6327 186.383 85.6787 186.497 85.746 186.586C85.8133 186.676 85.8988 186.737 85.9918 186.761C86.0848 186.786 86.1811 186.773 86.2686 186.724C86.3561 186.675 86.4308 186.592 86.4834 186.486C86.5359 186.381 86.564 186.256 86.564 186.129C86.564 186.044 86.5515 185.96 86.5271 185.881C86.5027 185.803 86.467 185.732 86.422 185.672C86.377 185.612 86.3236 185.564 86.2649 185.532C86.2062 185.5 86.1434 185.484 86.08 185.485Z" fill="black"/>
<path opacity="0.2" d="M74.528 129.547C74.4331 129.547 74.3403 129.585 74.2613 129.656C74.1824 129.727 74.1209 129.827 74.0845 129.945C74.0482 130.063 74.0387 130.192 74.0572 130.317C74.0757 130.442 74.1215 130.557 74.1886 130.647C74.2557 130.737 74.3413 130.799 74.4344 130.823C74.5275 130.848 74.624 130.835 74.7117 130.787C74.7994 130.738 74.8744 130.655 74.9271 130.549C74.9799 130.444 75.008 130.319 75.008 130.192C75.007 130.021 74.9561 129.858 74.8663 129.738C74.7765 129.617 74.655 129.549 74.528 129.547Z" fill="black"/>
<path opacity="0.2" d="M104.316 129.547C104.221 129.547 104.128 129.585 104.049 129.656C103.97 129.727 103.909 129.827 103.873 129.945C103.836 130.063 103.827 130.192 103.845 130.317C103.864 130.442 103.909 130.557 103.977 130.647C104.044 130.737 104.129 130.799 104.222 130.823C104.315 130.848 104.412 130.835 104.5 130.787C104.587 130.738 104.662 130.655 104.715 130.549C104.768 130.444 104.796 130.319 104.796 130.192C104.796 130.021 104.745 129.857 104.655 129.736C104.565 129.615 104.443 129.547 104.316 129.547Z" fill="black"/>
<path d="M109.34 184.733H108.192V192.249H109.34V184.733Z" fill="#FFC727"/>
<path d="M140.828 184.733H139.68V192.249H140.828V184.733Z" fill="#FFC727"/>
<path d="M154.292 133.171H148.948V192.281H154.292V133.171Z" fill="#FFC727"/>
<path opacity="0.6" d="M109.34 184.733H108.192V192.249H109.34V184.733Z" fill="white"/>
<path opacity="0.6" d="M140.828 184.733H139.68V192.249H140.828V184.733Z" fill="white"/>
<path opacity="0.6" d="M154.292 133.171H148.948V192.281H154.292V133.171Z" fill="white"/>
<path d="M166.392 107.043L139.936 188.711H100.796L127.252 107.043H166.392Z" fill="#263238"/>
<path opacity="0.6" d="M166.392 107.043L139.936 188.711H100.796L127.252 107.043H166.392Z" fill="white"/>
<path d="M150.144 154.295H141.324L137.872 164.957H146.692L150.144 154.295Z" fill="#263238"/>
<path d="M134.068 176.702H142.888L146.34 166.041H137.52L134.068 176.702Z" fill="#263238"/>
<path d="M140.532 154.295H131.712L128.26 164.957H137.08L140.532 154.295Z" fill="#263238"/>
<path d="M161.56 119.052H152.74L149.288 129.714H158.108L161.56 119.052Z" fill="#263238"/>
<path d="M124.452 176.702H133.272L136.728 166.041H127.908L124.452 176.702Z" fill="#263238"/>
<path d="M153.952 142.549H145.128L141.676 153.211H150.496L153.952 142.549Z" fill="#263238"/>
<path d="M157.756 130.803H148.936L145.48 141.459H154.3L157.756 130.803Z" fill="#263238"/>
<path d="M121.66 153.211L125.112 142.549H116.544L113.092 153.211H121.66Z" fill="#263238"/>
<path d="M117.852 164.957L121.308 154.295H112.74L109.284 164.957H117.852Z" fill="#263238"/>
<path d="M132.724 119.052H124.152L120.7 129.714H129.272L132.724 119.052Z" fill="#263238"/>
<path d="M114.048 176.702L117.504 166.041H108.932L105.48 176.702H114.048Z" fill="#263238"/>
<path d="M125.464 141.459L128.92 130.803H120.348L116.896 141.459H125.464Z" fill="#263238"/>
<path d="M165.1 108.133H156.28L153.092 117.968H161.912L165.1 108.133Z" fill="#263238"/>
<path d="M142.536 177.787H133.716L130.528 187.627H139.348L142.536 177.787Z" fill="#263238"/>
<path d="M113.696 177.787H105.128L101.94 187.627H110.508L113.696 177.787Z" fill="#263238"/>
<path d="M133.076 117.968L136.26 108.133H127.692L124.504 117.968H133.076Z" fill="#263238"/>
<path d="M134.724 142.549H125.904L122.452 153.211H131.272L134.724 142.549Z" fill="#263238"/>
<path d="M130.92 154.295H122.1L118.648 164.957H127.468L130.92 154.295Z" fill="#263238"/>
<path d="M155.488 108.133H146.668L143.48 117.968H152.3L155.488 108.133Z" fill="#263238"/>
<path d="M132.924 177.787H124.1L120.916 187.627H129.736L132.924 177.787Z" fill="#263238"/>
<path d="M151.948 119.052H143.128L139.676 129.714H148.496L151.948 119.052Z" fill="#263238"/>
<path d="M148.144 130.803H139.324L135.868 141.459H144.688L148.144 130.803Z" fill="#263238"/>
<path d="M114.84 176.702H123.66L127.116 166.041H118.296L114.84 176.702Z" fill="#263238"/>
<path d="M120.124 187.627L123.308 177.787H114.488L111.304 187.627H120.124Z" fill="#263238"/>
<path d="M145.876 108.133H137.056L133.868 117.968H142.688L145.876 108.133Z" fill="#263238"/>
<path d="M144.336 142.549H135.516L132.064 153.211H140.884L144.336 142.549Z" fill="#263238"/>
<path d="M142.336 119.052H133.516L130.064 129.714H138.884L142.336 119.052Z" fill="#263238"/>
<path d="M138.532 130.803H129.712L126.256 141.459H135.076L138.532 130.803Z" fill="#263238"/>
<g opacity="0.1">
<path d="M152.504 107.043L117.46 137.283L127.252 107.043H152.504Z" fill="white"/>
<path d="M163.72 107.043L113.108 150.714L115.492 143.354L157.576 107.043H163.72Z" fill="white"/>
<path d="M164.12 114.06L162.924 117.742L108.604 164.607L109.8 160.919L164.12 114.06Z" fill="white"/>
</g>
<g opacity="0.1">
<path d="M141.96 182.468L139.936 188.711H134.72L141.96 182.468Z" fill="white"/>
<path d="M145.396 171.854L143.512 177.674L130.72 188.711H125.86L145.396 171.854Z" fill="white"/>
<path d="M148.944 160.903L148.004 163.802L119.132 188.711H116.708L148.944 160.903Z" fill="white"/>
</g>
<path d="M163.192 193.559H103.352L105.052 190.944H161.492L163.192 193.559Z" fill="#FFC727"/>
<path opacity="0.2" d="M163.192 193.559H145.82L147.52 190.944H161.492L163.192 193.559Z" fill="white"/>
<path d="M88.848 179.789H79.88V180.675H80.96L83.176 184.374H83.576L81.356 180.675H88.848V179.789Z" fill="#263238"/>
<path opacity="0.2" d="M88.848 179.789H79.88V180.675H80.96L83.176 184.374H83.576L81.356 180.675H88.848V179.789Z" fill="white"/>
<path d="M100.868 176.546C100.399 174.691 99.4124 173.152 98.116 172.251H84.636L82.932 173.325L85.556 183.777H99.032L100.74 182.703C101.328 180.737 101.374 178.553 100.868 176.546Z" fill="#263238"/>
<path d="M99.08 183.772H77.388V195.577H99.08V183.772Z" fill="#263238"/>
<path opacity="0.2" d="M99.08 183.772H85.6V195.577H99.08V183.772Z" fill="white"/>
<path opacity="0.2" d="M100.74 182.687H87.264C87.8495 180.726 87.8949 178.548 87.392 176.546C86.9217 174.69 85.9339 173.151 84.636 172.251H98.116C99.4124 173.152 100.399 174.691 100.868 176.546C101.371 178.548 101.326 180.726 100.74 182.687Z" fill="white"/>
<path opacity="0.1" d="M100.74 182.688L99.032 183.772H85.556L87.264 182.688H100.74Z" fill="white"/>
<path opacity="0.2" d="M91.22 176.702C92.5374 177.542 93.9608 178.043 95.416 178.178C97.58 178.286 98.216 176.702 98.216 176.702L97.916 175.462C97.916 175.462 97.396 176.6 95.84 176.825C94.284 177.051 90.964 175.419 90.964 175.419L91.22 176.702Z" fill="black"/>
<path d="M90.96 175.419C90.96 175.419 93.096 174.002 95.02 174.249C96.0446 174.321 97.0392 174.738 97.912 175.462L98.212 176.702C98.212 176.702 95.316 174.297 91.22 176.702L90.96 175.419Z" fill="#263238"/>
<path d="M48.759 59.4348L48 139.373L87.1368 140.042L87.8958 60.104L48.759 59.4348Z" fill="#263238"/>
<path opacity="0.6" d="M48.759 59.4348L48 139.373L87.1368 140.042L87.8958 60.104L48.759 59.4348Z" fill="white"/>
<path d="M77.6989 106.181L77.5998 116.616L86.4191 116.767L86.5181 106.332L77.6989 106.181Z" fill="#263238"/>
<path d="M77.5888 117.681L77.4897 128.116L86.309 128.267L86.408 117.832L77.5888 117.681Z" fill="#263238"/>
<path d="M68.0844 106.017L67.9854 116.452L76.8046 116.603L76.9037 106.168L68.0844 106.017Z" fill="#263238"/>
<path d="M78.0251 71.6853L77.9261 82.1204L86.7453 82.2712L86.8444 71.8361L78.0251 71.6853Z" fill="#263238"/>
<path d="M67.9783 117.512L67.8793 127.947L76.6986 128.098L76.7976 117.663L67.9783 117.512Z" fill="#263238"/>
<path d="M77.8049 94.686L77.7059 105.121L86.5252 105.272L86.6242 94.8368L77.8049 94.686Z" fill="#263238"/>
<path d="M77.915 83.1858L77.8159 93.6208L86.6352 93.7717L86.7343 83.3366L77.915 83.1858Z" fill="#263238"/>
<path d="M49.2232 94.1904L49.1241 104.625L57.6914 104.772L57.7905 94.3369L49.2232 94.1904Z" fill="#263238"/>
<path d="M49.1131 105.691L49.014 116.126L57.5813 116.272L57.6804 105.837L49.1131 105.691Z" fill="#263238"/>
<path d="M49.4433 71.2002L49.3443 81.6353L57.9116 81.7818L58.0106 71.3467L49.4433 71.2002Z" fill="#263238"/>
<path d="M49.003 117.191L48.9039 127.626L57.4712 127.772L57.5703 117.337L49.003 117.191Z" fill="#263238"/>
<path d="M49.3333 82.6953L49.2342 93.1304L57.8015 93.2769L57.9006 82.8418L49.3333 82.6953Z" fill="#263238"/>
<path d="M78.1273 60.9954L78.0359 70.6252L86.8552 70.7761L86.9466 61.1462L78.1273 60.9954Z" fill="#263238"/>
<path d="M77.4789 129.177L77.3875 138.806L86.2068 138.957L86.2982 129.327L77.4789 129.177Z" fill="#263238"/>
<path d="M48.8932 128.686L48.8018 138.316L57.3691 138.462L57.4605 128.833L48.8932 128.686Z" fill="#263238"/>
<path d="M49.5456 60.5049L49.4541 70.1348L58.0214 70.2813L58.1129 60.6514L49.5456 60.5049Z" fill="#263238"/>
<path d="M58.584 94.3577L58.485 104.793L67.3042 104.944L67.4033 94.5085L58.584 94.3577Z" fill="#263238"/>
<path d="M58.4779 105.853L58.3789 116.288L67.1982 116.439L67.2972 106.004L58.4779 105.853Z" fill="#263238"/>
<path d="M68.5128 60.831L68.4214 70.4609L77.2407 70.6117L77.3321 60.9819L68.5128 60.831Z" fill="#263238"/>
<path d="M67.8685 129.013L67.777 138.643L76.5963 138.793L76.6877 129.163L67.8685 129.013Z" fill="#263238"/>
<path d="M68.4147 71.5212L68.3156 81.9563L77.1349 82.1071L77.2339 71.672L68.4147 71.5212Z" fill="#263238"/>
<path d="M68.3046 83.0215L68.2055 93.4565L77.0248 93.6074L77.1239 83.1723L68.3046 83.0215Z" fill="#263238"/>
<path d="M58.3639 117.348L58.2648 127.783L67.0841 127.934L67.1832 117.498L58.3639 117.348Z" fill="#263238"/>
<path d="M58.258 128.848L58.1666 138.478L66.9858 138.629L67.0773 128.999L58.258 128.848Z" fill="#263238"/>
<path d="M58.9064 60.667L58.815 70.2969L67.6343 70.4477L67.7257 60.8178L58.9064 60.667Z" fill="#263238"/>
<path d="M68.1985 94.5217L68.0994 104.957L76.9187 105.108L77.0178 94.6725L68.1985 94.5217Z" fill="#263238"/>
<path d="M58.8002 71.3569L58.7011 81.792L67.5204 81.9428L67.6195 71.5077L58.8002 71.3569Z" fill="#263238"/>
<path d="M58.6941 82.852L58.5951 93.2871L67.4143 93.4379L67.5134 83.0029L58.6941 82.852Z" fill="#263238"/>
<g opacity="0.1">
<path d="M74.012 59.8618L48.48 89.0276L48.764 59.4324L74.012 59.8618Z" fill="white"/>
<path d="M85.228 60.0551L48.356 102.175L48.424 94.9703L79.084 59.9478L85.228 60.0551Z" fill="white"/>
<path d="M87.832 66.9641L87.796 70.577L48.224 115.772L48.26 112.165L87.832 66.9641Z" fill="white"/>
</g>
<g opacity="0.1">
<path d="M87.196 133.923L87.136 140.037L81.924 139.946L87.196 133.923Z" fill="white"/>
<path d="M87.296 123.54L87.24 129.23L77.924 139.881L73.064 139.795L87.296 123.54Z" fill="white"/>
<path d="M87.396 112.814L87.368 115.654L66.336 139.683L63.912 139.64L87.396 112.814Z" fill="white"/>
</g>
<path d="M46.336 84.4753C46.336 84.4753 41.508 87.3473 39.936 84.7759C38.364 82.2045 46.916 68.6335 46.916 68.6335C46.916 68.6335 47.056 64.6449 47.48 63.9417C47.8835 63.3907 48.3492 62.9287 48.86 62.5728L49.176 70.4158L48.288 70.5285C48.288 70.5285 43.712 78.7957 43.796 79.5096C43.88 80.2236 46.332 78.7259 46.332 78.7259L46.336 84.4753Z" fill="#E4897B"/>
<path d="M57.532 105.079C57.532 105.079 61.532 93.6283 61.236 90.9227C60.94 88.2171 54.212 99.9575 54.212 99.9575L53.672 103.978L57.532 105.079Z" fill="#FFC727"/>
<path opacity="0.4" d="M57.532 105.079C57.532 105.079 61.532 93.6283 61.236 90.9227C60.94 88.2171 54.212 99.9575 54.212 99.9575L53.672 103.978L57.532 105.079Z" fill="white"/>
<path opacity="0.2" d="M57.26 104.778C57.26 104.778 61.26 93.3276 60.96 90.6167C60.66 87.9057 53.936 99.6515 53.936 99.6515L53.396 103.672L57.26 104.778Z" fill="black"/>
<path d="M64.04 191.835L67.184 192.275L67.34 189.833L67.772 183.187L64.628 182.736L64.152 190.085L64.04 191.835Z" fill="#E4897B"/>
<path d="M36.744 191.298H39.788L39.936 190.38L39.956 190.262L40.904 184.363L40.924 184.244L41.288 181.984H38.24L36.744 191.298Z" fill="#E4897B"/>
<path opacity="0.2" d="M64.628 182.736L64.152 190.085L67.34 189.833L67.772 183.187L64.628 182.736Z" fill="black"/>
<path opacity="0.2" d="M36.832 190.783H36.836L39.952 190.263H39.956L40.88 184.572H40.876L37.78 184.9L36.86 190.606L36.832 190.783Z" fill="black"/>
<path d="M40.208 191.052H36.508C36.4475 191.052 36.3891 191.081 36.3425 191.133C36.2959 191.185 36.2639 191.256 36.252 191.336L35.648 194.97C35.6242 195.128 35.6473 195.291 35.7124 195.426C35.7775 195.56 35.8793 195.655 35.996 195.69H36.096C37.296 195.663 38.164 195.566 39.668 195.566C40.592 195.566 43.384 195.695 44.664 195.695C45.944 195.695 46.108 193.999 45.584 193.843C43.236 193.156 41.472 192.206 40.72 191.304C40.5795 191.135 40.3964 191.045 40.208 191.052Z" fill="#263238"/>
<path d="M67.516 190.923H63.816C63.7555 190.923 63.697 190.951 63.6498 191.002C63.6026 191.052 63.5695 191.123 63.556 191.202L62.956 194.842C62.9437 194.919 62.943 194.999 62.9538 195.077C62.9647 195.155 62.9869 195.23 63.0193 195.296C63.0516 195.362 63.0934 195.419 63.1423 195.464C63.1912 195.509 63.2461 195.54 63.304 195.556C63.3372 195.561 63.3708 195.561 63.404 195.556C64.604 195.529 65.472 195.432 66.972 195.432C67.9 195.432 70.692 195.561 71.968 195.561C73.244 195.561 73.416 193.865 72.892 193.709C70.544 193.022 68.78 192.072 68.028 191.17C67.8869 191.003 67.7038 190.915 67.516 190.923Z" fill="#263238"/>
<path d="M68.06 188.179L63.564 188.373C65.2 148.057 65.964 146.001 51.38 126.96C51.04 132.72 50.656 138.695 50.28 143.676C50.044 146.758 49.976 149.447 49.592 151.423C46.996 164.774 40.752 188.41 40.752 188.41L36.352 188.673C36.352 188.673 41.84 156.281 42.404 145.727C43.144 131.877 36.728 115.923 42.968 100.929L57.524 104.73L57.42 109.561C71.328 136.816 73.872 142.71 68.06 188.179Z" fill="#FFC727"/>
<path opacity="0.4" d="M68.06 188.179L63.564 188.373C65.2 148.057 65.964 146.001 51.38 126.96C51.04 132.72 50.656 138.695 50.28 143.676C50.044 146.758 49.976 149.447 49.592 151.423C46.996 164.774 40.752 188.41 40.752 188.41L36.352 188.673C36.352 188.673 41.84 156.281 42.404 145.727C43.144 131.877 36.728 115.923 42.968 100.929L57.524 104.73L57.42 109.561C71.328 136.816 73.872 142.71 68.06 188.179Z" fill="white"/>
<path d="M65.2 90.2677C65.2 90.2677 73.48 92.2755 75.06 91.9319C76.64 91.5883 85 82.7253 85 82.7253C85 82.7253 87.76 82.5213 87.904 81.2652C88.048 80.009 88.424 77.7597 87.632 77.8348C86.84 77.91 84.528 79.2896 84.528 79.2896L84.228 80.3203C84.228 80.3203 75.028 87.7876 74.664 87.9487C74.3 88.1097 66.376 85.2001 66.376 85.2001L65.2 90.2677Z" fill="#E4897B"/>
<path d="M50.212 75.6926C47.492 75.6926 45.152 78.0493 42.664 79.7242L44.456 85.7152L50.168 85.232L50.212 75.6926Z" fill="#FFC727"/>
<path d="M63.916 74.8125C63.8292 74.9513 63.7371 75.0839 63.64 75.2098C63.0919 75.9283 62.3947 76.4073 61.64 76.5841C61.4483 76.6277 61.2544 76.6528 61.06 76.6592C60.3092 76.696 59.5701 76.4007 58.9565 75.8188C58.3429 75.2368 57.8888 74.4004 57.664 73.4383C57.04 70.9581 57.776 69.0524 58.832 65.6919C59.068 64.9012 59.451 64.205 59.9446 63.6697C60.4382 63.1343 61.0257 62.7778 61.6512 62.634C62.2767 62.4902 62.9192 62.5641 63.5174 62.8485C64.1156 63.1329 64.6494 63.6184 65.068 64.2585C66.964 67.1413 65.516 72.2197 63.916 74.8125Z" fill="#E4897B"/>
<path opacity="0.2" d="M61.628 76.584C61.4363 76.6276 61.2424 76.6527 61.048 76.6591C60.5332 76.6804 60.0214 76.5468 59.55 76.2682C59.0787 75.9895 58.6598 75.5728 58.324 75.0486C58.5767 74.7279 58.859 74.4519 59.164 74.2273C60.1374 74.6779 60.993 75.4962 61.628 76.584Z" fill="black"/>
<path d="M66.44 65.9977C66.296 65.9977 65.184 67.27 65.112 67.7424C64.7595 69.2979 63.9688 70.6076 62.908 71.3928C61.964 71.9672 60.508 74.6943 60.508 74.6943C60.508 74.6943 58.94 72.9281 57.308 72.8906C56.7399 71.2787 56.4429 69.5189 56.4381 67.7358C56.4333 65.9528 56.7207 64.1901 57.28 62.5728L66.44 65.9977Z" fill="#263238"/>
<path opacity="0.2" d="M66.44 65.9977C66.296 65.9977 65.184 67.27 65.112 67.7424C64.7595 69.2979 63.9688 70.6076 62.908 71.3928C61.964 71.9672 60.508 74.6943 60.508 74.6943C60.508 74.6943 58.94 72.9281 57.308 72.8906C56.7399 71.2787 56.4429 69.5189 56.4381 67.7358C56.4333 65.9528 56.7207 64.1901 57.28 62.5728L66.44 65.9977Z" fill="white"/>
<path d="M62.208 70.2924C62.1431 70.6299 62.1346 70.9825 62.183 71.3249C62.2314 71.6673 62.3356 71.9912 62.488 72.2733C62.888 72.8799 63.552 72.1606 63.836 71.1299C64.088 70.2173 64.2 68.7678 63.608 68.5853C63.016 68.4028 62.356 69.2993 62.208 70.2924Z" fill="#E4897B"/>
<path d="M64.452 67.1357C64.452 67.1357 64.744 75.8109 59.772 75.886V76.2296C59.772 76.2296 64.236 76.7664 65.276 67.796L64.452 67.1357Z" fill="#263238"/>
<path d="M56.676 64.9563C56.8002 65.2924 56.9732 65.5918 57.1847 65.837C57.3963 66.0822 57.6422 66.2683 57.908 66.3843C58.868 66.862 63.44 65.2677 63.44 65.2677L64.26 66.089C64.26 66.089 59.66 68.1236 57.908 67.7854C56.156 67.4472 56.436 65.7025 56.436 65.7025L56.676 64.9563Z" fill="white"/>
<path d="M54.212 76.6592C54.876 78.9138 59.772 79.5097 59.772 79.5097C59.7162 78.9342 59.7162 78.3513 59.772 77.7758C59.8498 77.1609 60.0185 76.5732 60.268 76.0472C60.3995 75.7494 60.5424 75.4609 60.696 75.1829L57.496 72.9067C56.76 74.6944 56 75.6929 54.212 76.6592Z" fill="#E4897B"/>
<path d="M67.424 68.5584C67.4911 68.7575 67.5113 68.9792 67.482 69.194C67.4527 69.4089 67.3753 69.6067 67.26 69.7609C66.86 70.2441 65.964 69.7609 65.964 69.7609C65.964 69.7609 62.908 63.2492 56.804 63.4639C56.804 63.4639 56.356 62.6211 56.448 62.0521C56.54 61.483 57.42 61.0912 57.42 61.0912C58.7214 59.416 60.3798 58.3276 62.164 57.9776C65.04 57.4837 68.024 61.5904 68.164 62.5996C68.304 63.6089 67.596 64.8597 67.596 64.8597C67.7287 66.0954 67.6702 67.3545 67.424 68.5584Z" fill="#FFC727"/>
<path opacity="0.2" d="M67.424 68.5585C64.508 61.8911 57.424 61.0912 57.424 61.0912C57.9057 60.4677 58.4431 59.9267 59.024 59.4807C59.08 60.3074 59.788 60.6456 60.36 60.7208C61.16 60.8281 64.416 59.6203 65.984 61.1073C66.4413 61.538 66.8231 62.0974 67.1029 62.7464C67.3827 63.3953 67.5537 64.1184 67.604 64.8651C67.7335 66.0997 67.6723 67.357 67.424 68.5585Z" fill="black"/>
<path opacity="0.2" d="M51.38 126.933C51.04 132.693 50.656 138.684 50.28 143.66C49.732 136.472 49.056 131.346 49.056 131.346C49.056 131.346 48.428 130.653 46.692 126.933C44.956 123.213 46.692 116.277 46.692 116.277C46.636 122.724 51.38 126.933 51.38 126.933Z" fill="black"/>
<path d="M68.56 187.53L68.344 189.221H63.064V187.659L68.56 187.53Z" fill="#FFC727"/>
<path d="M41.272 188.18L40.764 189.742H35.96L36.048 188.18H41.272Z" fill="#FFC727"/>
<path d="M64.672 82.0112C67.24 84.078 69.272 86.0535 69.272 86.0535L67.42 91.352L60.024 89.6181C60.5626 87.9081 61.2089 86.2631 61.956 84.7007C63.244 81.9898 64.672 82.0112 64.672 82.0112Z" fill="#FFC727"/>
<path opacity="0.4" d="M68.56 187.53L68.344 189.221H63.064V187.659L68.56 187.53Z" fill="white"/>
<path opacity="0.4" d="M41.272 188.18L40.764 189.742H35.96L36.048 188.18H41.272Z" fill="white"/>
<path d="M42.468 101.482L47.492 102.76L47.184 104.44L41.916 103.033L42.468 101.482Z" fill="#263238"/>
<path d="M48.324 102.969L54.504 104.548L54.392 106.362L48.052 104.671L48.324 102.969Z" fill="#263238"/>
<path d="M57.824 105.39L57.808 107.28L55.272 106.598L55.348 104.757L57.824 105.39Z" fill="#263238"/>
<path d="M42.984 100.924C42.984 100.924 46.22 80.3688 49.524 75.9185C49.524 75.9185 57.924 73.8732 64.672 82.0061C64.672 82.0061 58.952 95.1745 57.54 104.725L42.984 100.924Z" fill="#FFC727"/>
<path d="M48.324 103.452H48.256L47.456 103.211C47.406 103.194 47.36 103.161 47.3222 103.114C47.2844 103.067 47.2561 103.008 47.24 102.942C47.2236 102.877 47.2205 102.806 47.2311 102.738C47.2416 102.67 47.2654 102.607 47.3 102.556L47.876 101.665C47.9115 101.61 47.9574 101.569 48.0088 101.546C48.0602 101.524 48.1152 101.52 48.168 101.536C48.2209 101.551 48.2695 101.585 48.3084 101.636C48.3473 101.686 48.3749 101.75 48.388 101.82L48.62 102.958C48.6308 103.018 48.6315 103.079 48.6222 103.139C48.6128 103.199 48.5936 103.255 48.566 103.303C48.5384 103.352 48.503 103.391 48.4625 103.419C48.422 103.446 48.3774 103.462 48.332 103.463L48.324 103.452ZM48.092 101.783C48.0647 101.784 48.0389 101.799 48.02 101.826L47.44 102.722C47.4312 102.742 47.4265 102.764 47.4265 102.787C47.4265 102.809 47.4312 102.832 47.44 102.851C47.4442 102.873 47.4528 102.892 47.4648 102.907C47.4768 102.922 47.4918 102.933 47.508 102.937L48.308 103.179C48.3243 103.187 48.3421 103.187 48.3587 103.18C48.3753 103.174 48.3898 103.16 48.4 103.141C48.4124 103.126 48.4212 103.106 48.4255 103.084C48.4298 103.062 48.4292 103.039 48.424 103.017L48.196 101.879C48.1917 101.857 48.1827 101.836 48.1699 101.82C48.1572 101.804 48.1412 101.793 48.124 101.788L48.092 101.783Z" fill="white"/>
<path d="M53.412 83.9117C53.3708 83.9118 53.33 83.9009 53.292 83.8795L52.532 83.4285C52.4854 83.4002 52.445 83.3561 52.4149 83.3006C52.3847 83.2451 52.3658 83.1801 52.36 83.1118C52.3521 83.043 52.3583 82.9727 52.3781 82.9083C52.3978 82.844 52.4303 82.7881 52.472 82.7468L53.172 82.0221C53.2142 81.9765 53.2651 81.9478 53.3188 81.9392C53.3726 81.9307 53.4271 81.9426 53.476 81.9737C53.5257 82.0023 53.5683 82.0493 53.5987 82.1092C53.6292 82.1691 53.6463 82.2395 53.648 82.3119L53.708 83.4876C53.7119 83.5566 53.7021 83.6257 53.6796 83.6879C53.6571 83.7501 53.6227 83.8032 53.58 83.8419C53.531 83.8888 53.4721 83.9132 53.412 83.9117ZM53.352 82.2046C53.3303 82.2037 53.309 82.2132 53.292 82.2314L52.596 82.9561C52.5827 82.9711 52.5721 82.9901 52.5651 83.0115C52.5582 83.033 52.5551 83.0563 52.556 83.0796C52.5588 83.102 52.5657 83.1232 52.5762 83.141C52.5867 83.1588 52.6004 83.1728 52.616 83.1816L53.372 83.6325C53.3868 83.6429 53.4033 83.6483 53.42 83.6483C53.4367 83.6483 53.4532 83.6429 53.468 83.6325C53.4819 83.6194 53.4929 83.6015 53.4999 83.5807C53.5069 83.56 53.5097 83.5371 53.508 83.5144L53.452 82.3388C53.4502 82.3146 53.4437 82.2915 53.4332 82.2717C53.4226 82.252 53.4085 82.2362 53.392 82.226L53.352 82.2046Z" fill="white"/>
<path d="M52.648 83.042C52.648 83.042 50.292 88.9202 47.796 100.983L48.756 101.364C48.756 101.364 51.28 88.8021 53.396 83.509L52.648 83.042Z" fill="#263238"/>
<path d="M48.052 102.169C48.0261 102.163 48.0031 102.143 47.9881 102.113C47.9731 102.084 47.9673 102.048 47.972 102.013L48.092 101.257C48.0978 101.221 48.1135 101.19 48.1359 101.17C48.1583 101.15 48.1855 101.143 48.212 101.149C48.2249 101.153 48.2371 101.16 48.2479 101.17C48.2587 101.181 48.2679 101.193 48.275 101.208C48.2821 101.223 48.2869 101.24 48.2891 101.258C48.2913 101.275 48.291 101.293 48.288 101.31L48.168 102.067C48.1623 102.101 48.147 102.131 48.1253 102.15C48.1037 102.169 48.0774 102.176 48.052 102.169Z" fill="white"/>
<path d="M48.8 101.498L47.788 101.117C47.7624 101.107 47.7406 101.084 47.7272 101.053C47.7138 101.022 47.7098 100.985 47.716 100.95C47.7197 100.933 47.7258 100.918 47.734 100.904C47.7423 100.89 47.7524 100.879 47.7639 100.87C47.7754 100.862 47.7881 100.856 47.8011 100.855C47.8142 100.853 47.8274 100.854 47.84 100.859L48.856 101.24C48.8791 101.249 48.899 101.269 48.9121 101.296C48.9251 101.324 48.9304 101.356 48.927 101.388C48.9236 101.42 48.9117 101.449 48.8935 101.471C48.8753 101.492 48.8521 101.503 48.828 101.503L48.8 101.498Z" fill="white"/>
<path d="M53.396 82.3871C55.5132 80.263 57.9496 78.7828 60.536 78.0496L61.628 78.8226C61.628 78.8226 58.732 79.4185 53.46 83.4286L53.396 82.3871Z" fill="#263238"/>
<path d="M52.648 82.9239L53.244 82.3871C53.244 82.3871 53.308 76.9329 53.708 75.6768L53.032 75.709C52.7069 78.0877 52.5781 80.5073 52.648 82.9239Z" fill="#263238"/>
<path d="M83.664 80.3901L84.808 83.4823L85.124 83.1011C85.124 83.1011 87.956 82.9347 88.136 82.4891C88.316 82.0436 89.004 77.5718 88.536 77.3249C88.068 77.0779 84.508 78.7367 84.372 78.7797C84.236 78.8226 84.068 80.0627 84.068 80.0627L83.664 80.3901Z" fill="#FFC727"/>
<path d="M46.504 68.6338L48.16 71.2535L48.408 70.7166L49.208 70.3946L48.892 62.5515C48.892 62.5515 47.36 63.7808 47.292 63.9204C47.224 64.06 46.828 68.5371 46.828 68.5371L46.504 68.6338Z" fill="#FFC727"/>
</svg>
