<svg width="200" height="200" viewBox="0 0 200 200" fill="none" xmlns="http://www.w3.org/2000/svg">
<path d="M28.6887 105.891C-9.5629 127.419 -9.5629 162.326 28.6887 183.854C66.9403 205.382 128.961 205.382 167.213 183.854C205.465 162.326 205.465 127.419 167.213 105.891C128.961 84.3632 66.9403 84.3632 28.6887 105.891Z" fill="#FAFAFA"/>
<path d="M90.7098 130.309L9.59608 175.961C8.87928 176.362 7.63151 176.315 6.80851 175.849L1.47674 172.847C0.649325 172.381 0.560831 171.678 1.27763 171.277L82.3869 125.625C83.1037 125.224 84.3515 125.271 85.1745 125.737L90.5062 128.739C91.3337 129.205 91.4221 129.908 90.7053 130.309H90.7098Z" fill="#E0E0E0"/>
<path d="M145.386 181.931C163.078 181.931 177.421 173.859 177.421 163.901C177.421 153.944 163.078 145.872 145.386 145.872C127.693 145.872 113.351 153.944 113.351 163.901C113.351 173.859 127.693 181.931 145.386 181.931Z" fill="#E0E0E0"/>
<path d="M68.188 186.115L129.811 151.418C130.616 150.965 130.616 150.228 129.811 149.775L98.5105 132.177C97.7052 131.724 96.3999 131.724 95.5946 132.177L33.9718 166.873C33.1665 167.326 33.1665 168.063 33.9718 168.516L65.2721 186.115C66.0774 186.567 67.3827 186.567 68.188 186.115Z" fill="#E0E0E0"/>
<path d="M162.952 151.496L170.014 155.473C169.921 153.015 169.7 149.361 170.049 146.898C172.182 131.849 178.195 126.885 181.058 119.561C184.071 111.848 180.394 109.364 175.624 110.753C171.368 111.991 165.213 118.129 163.275 129.36C161.987 136.831 162.213 144.949 162.952 151.501V151.496Z" fill="#407BFF"/>
<path opacity="0.65" d="M162.952 151.496L170.014 155.473C169.921 153.015 169.7 149.361 170.049 146.898C172.182 131.849 178.195 126.885 181.058 119.561C184.071 111.848 180.394 109.364 175.624 110.753C171.368 111.991 165.213 118.129 163.275 129.36C161.987 136.831 162.213 144.949 162.952 151.501V151.496Z" fill="white"/>
<path d="M166.695 153.605L167.403 154.002C164.877 136.456 171.031 121.238 177.107 114.954C177.222 114.833 177.217 114.643 177.093 114.527C176.965 114.415 176.77 114.419 176.655 114.54C170.584 120.829 164.434 136.149 166.695 153.605Z" fill="white"/>
<path d="M168.031 154.356L172.005 156.594C174.12 150.53 176.288 148.097 178.983 144.112C181.438 140.48 184.292 138.233 185.81 135.679C187.155 133.419 188.164 130.581 186.168 128.864C182.991 126.129 178.845 129.024 175.992 132.151C173.527 134.855 168.571 142.05 168.027 154.36L168.031 154.356Z" fill="#407BFF"/>
<path opacity="0.3" d="M168.031 154.356L172.005 156.594C174.12 150.53 176.288 148.097 178.983 144.112C181.438 140.48 184.292 138.233 185.81 135.679C187.155 133.419 188.164 130.581 186.168 128.864C182.991 126.129 178.845 129.024 175.992 132.151C173.527 134.855 168.571 142.05 168.027 154.36L168.031 154.356Z" fill="white"/>
<path d="M169.66 155.274L170.239 155.602C171.908 146.009 178.593 134.907 182.748 132.289C182.894 132.198 182.938 132.004 182.841 131.862C182.748 131.715 182.553 131.676 182.403 131.771C178.102 134.488 171.434 145.535 169.66 155.279V155.274Z" fill="white"/>
<path d="M81.4002 0.327128L6.92357 42.1921C6.15367 42.6235 5.52979 43.6759 5.52979 44.5429V170.552C5.52979 171.419 6.15367 172.467 6.92357 172.898L7.20675 173.054C7.97665 173.485 9.22441 173.481 9.99431 173.049L84.471 131.128C85.2409 130.697 85.8647 129.64 85.8647 128.778V2.82454C85.8647 1.95756 85.2409 0.909425 84.471 0.478094L84.1878 0.322815C83.4179 -0.108517 82.1701 -0.104203 81.4002 0.327128Z" fill="#407BFF"/>
<path opacity="0.45" d="M81.4002 0.327128L6.92357 42.1921C6.15367 42.6235 5.52979 43.6759 5.52979 44.5429V170.552C5.52979 171.419 6.15367 172.467 6.92357 172.898L7.20675 173.054C7.97665 173.485 9.22441 173.481 9.99431 173.049L84.471 131.128C85.2409 130.697 85.8647 129.64 85.8647 128.778V2.82454C85.8647 1.95756 85.2409 0.909425 84.471 0.478094L84.1878 0.322815C83.4179 -0.108517 82.1701 -0.104203 81.4002 0.327128Z" fill="black"/>
<path d="M85.8691 128.877C85.8691 130.072 85.0108 130.831 83.9444 131.426L10.5297 172.743C9.47219 173.339 8.60495 172.86 8.60495 171.661V46.8465C8.60495 45.5137 9.33503 44.28 10.5208 43.6115L83.94 2.27702C84.794 1.79393 85.8647 2.39779 85.8647 3.35966V128.877H85.8691Z" fill="#407BFF"/>
<path opacity="0.3" d="M85.8691 128.877C85.8691 130.072 85.0108 130.831 83.9444 131.426L10.5297 172.743C9.47219 173.339 8.60495 172.86 8.60495 171.661V46.8465C8.60495 45.5137 9.33503 44.28 10.5208 43.6115L83.94 2.27702C84.794 1.79393 85.8647 2.39779 85.8647 3.35966V128.877H85.8691Z" fill="black"/>
<path d="M85.8692 2.82468V3.35953C85.8692 2.39766 84.7984 1.79811 83.94 2.27689L10.5209 43.6114C9.92352 43.9392 9.45008 44.4179 9.12265 44.9744C9.1138 44.9916 9.10495 45.0002 9.10052 45.0175L5.92358 43.2275C6.18022 42.7918 6.52977 42.4123 6.92799 42.1923L81.4002 0.327275C82.1701 -0.10837 83.4223 -0.10837 84.1878 0.322961L84.471 0.482554C85.2409 0.909572 85.8692 1.96202 85.8692 2.829V2.82468Z" fill="#407BFF"/>
<path opacity="0.2" d="M85.8692 2.82468V3.35953C85.8692 2.39766 84.7984 1.79811 83.94 2.27689L10.5209 43.6114C9.92352 43.9392 9.45008 44.4179 9.12265 44.9744C9.1138 44.9916 9.10495 45.0002 9.10052 45.0175L5.92358 43.2275C6.18022 42.7918 6.52977 42.4123 6.92799 42.1923L81.4002 0.327275C82.1701 -0.10837 83.4223 -0.10837 84.1878 0.322961L84.471 0.482554C85.2409 0.909572 85.8692 1.96202 85.8692 2.829V2.82468Z" fill="black"/>
<path opacity="0.25" d="M84.0506 123.377C84.0506 124.607 83.1657 125.392 82.0683 126.004L12.6801 165.057C11.5872 165.674 10.6978 165.173 10.6978 163.94V53.769C10.6978 52.3931 11.45 51.125 12.6712 50.4348L82.0683 11.3649C82.9488 10.8688 84.0506 11.4899 84.0506 12.482V123.377Z" fill="black"/>
<path d="M12.4766 51.9015L81.6082 12.9912C81.9356 12.8057 82.4665 12.8057 82.794 12.9912L83.4621 13.3664C83.7895 13.5519 84.055 13.9962 84.055 14.3671V125.081C84.055 125.448 83.7895 125.896 83.4621 126.082L14.3261 164.988C13.9987 165.173 13.4677 165.173 13.1447 164.988L12.4766 164.613C12.1491 164.427 11.8837 163.983 11.8837 163.612V52.8979C11.8837 52.5313 12.1491 52.0827 12.4766 51.8972V51.9015Z" fill="#F5F5F5"/>
<path d="M14.1844 165.053C14.118 165.079 14.0428 165.096 13.9676 165.109C13.9322 165.113 13.8879 165.117 13.8525 165.122C13.7331 165.13 13.6092 165.126 13.4941 165.109C13.4145 165.096 13.3437 165.079 13.2773 165.053C13.2331 165.036 13.1844 165.014 13.1446 164.992L12.4809 164.621C12.1534 164.436 11.888 163.992 11.888 163.621V52.9024C11.888 52.7169 11.9499 52.5099 12.0605 52.333L13.91 53.3725C13.8039 53.5537 13.7375 53.7607 13.7375 53.9419V164.656C13.7375 164.971 13.9277 165.126 14.1888 165.053H14.1844Z" fill="#E0E0E0"/>
<path d="M83.4621 13.3664L82.794 12.9912C82.4666 12.8057 81.9356 12.8057 81.6126 12.9912L12.4766 51.9015C12.1491 52.087 11.8837 52.5313 11.8837 52.9022V67.8392L13.7332 68.8874L84.0506 29.3084V14.3628C84.0506 13.9962 83.7851 13.5476 83.4577 13.3621L83.4621 13.3664Z" fill="#407BFF"/>
<path opacity="0.4" d="M83.4621 13.3664L82.794 12.9912C82.4666 12.8057 81.9356 12.8057 81.6126 12.9912L12.4766 51.9015C12.1491 52.087 11.8837 52.5313 11.8837 52.9022V67.8392L13.7332 68.8874L84.0506 29.3084V14.3628C84.0506 13.9962 83.7851 13.5476 83.4577 13.3621L83.4621 13.3664Z" fill="white"/>
<path d="M84.0285 14.1903C83.9577 13.953 83.7276 13.8797 83.4577 14.0307L14.3261 52.941C14.1624 53.0359 14.0119 53.1912 13.9057 53.3724L12.0562 52.3329C12.1624 52.1517 12.3128 51.9921 12.4766 51.9015L81.6126 12.9912C81.9356 12.8057 82.471 12.8057 82.794 12.9912L83.4621 13.3664C83.7409 13.526 83.971 13.8668 84.0329 14.1903H84.0285Z" fill="#407BFF"/>
<path opacity="0.6" d="M84.0285 14.1903C83.9577 13.953 83.7276 13.8797 83.4577 14.0307L14.3261 52.941C14.1624 53.0359 14.0119 53.1912 13.9057 53.3724L12.0562 52.3329C12.1624 52.1517 12.3128 51.9921 12.4766 51.9015L81.6126 12.9912C81.9356 12.8057 82.471 12.8057 82.794 12.9912L83.4621 13.3664C83.7409 13.526 83.971 13.8668 84.0329 14.1903H84.0285Z" fill="white"/>
<path d="M11.8836 52.9023V67.8436L13.7332 68.8831V53.9375C13.7332 53.7563 13.7995 53.5493 13.9057 53.3681L12.0562 52.3286C11.9456 52.5055 11.8836 52.7125 11.8836 52.898V52.9023Z" fill="#407BFF"/>
<path d="M27.7551 73.3988L70.1039 49.4987C70.2898 49.3952 70.4402 49.4772 70.4402 49.6885V50.1155C70.4402 50.3269 70.2898 50.5814 70.1039 50.6849L27.7507 74.585C27.5648 74.6885 27.4144 74.6065 27.4144 74.3952V73.9682C27.4144 73.7568 27.5648 73.5023 27.7507 73.3988H27.7551Z" fill="#407BFF"/>
<path d="M29.4763 91.1227V91.7266C29.4763 92.0544 29.7108 92.1838 30.0028 92.0242L57.9139 76.3367C58.2059 76.1728 58.4404 75.776 58.4404 75.4481V74.8443C58.4404 74.5165 58.2059 74.3871 57.9139 74.5467L30.0028 90.2385C29.7108 90.4024 29.4763 90.7992 29.4763 91.127V91.1227Z" fill="#E0E0E0"/>
<path d="M29.4763 94.9225V95.5264C29.4763 95.8542 29.7108 95.9836 30.0028 95.824L77.9401 68.8572C78.2321 68.6933 78.4666 68.2965 78.4666 67.9686V67.3648C78.4666 67.037 78.2321 66.9076 77.9401 67.0672L30.0028 94.034C29.7108 94.1979 29.4763 94.5947 29.4763 94.9225Z" fill="#E0E0E0"/>
<path d="M29.4763 98.5373V99.1412C29.4763 99.469 29.7108 99.5984 30.0028 99.4388L77.9401 72.4719C78.2321 72.308 78.4666 71.9112 78.4666 71.5834V70.9795C78.4666 70.6517 78.2321 70.5223 77.9401 70.6819L30.0028 97.6487C29.7108 97.8126 29.4763 98.2095 29.4763 98.5373Z" fill="#E0E0E0"/>
<path d="M18.596 106.09C18.5473 106.09 18.5031 106.077 18.4588 106.055C18.3747 106.008 18.3216 105.921 18.3216 105.826V97.1006C18.3216 97.0057 18.3747 96.9195 18.4588 96.872L26.1578 92.5414C26.2419 92.494 26.3436 92.494 26.4277 92.5414C26.5118 92.5889 26.5649 92.6752 26.5649 92.77V101.496C26.5649 101.591 26.5118 101.677 26.4277 101.724L18.7331 106.055C18.6933 106.081 18.6446 106.09 18.596 106.09ZM18.8659 97.2516V105.369L26.0206 101.341V93.2229L18.8659 97.2516Z" fill="#455A64"/>
<path d="M22.3481 102.009L20.5561 100.332L21.1535 99.0936L22.1756 100.051L26.587 90.9458L27.3569 91.6704L22.3481 102.009Z" fill="#407BFF"/>
<path d="M29.4763 104.783V105.387C29.4763 105.715 29.7108 105.844 30.0028 105.684L57.9139 89.9968C58.2059 89.8329 58.4404 89.4361 58.4404 89.1083V88.5044C58.4404 88.1766 58.2059 88.0472 57.9139 88.2068L30.0028 103.899C29.7108 104.063 29.4763 104.459 29.4763 104.787V104.783Z" fill="#E0E0E0"/>
<path d="M29.4763 108.583V109.187C29.4763 109.515 29.7108 109.644 30.0028 109.485L77.9401 82.5178C78.2321 82.3539 78.4666 81.9571 78.4666 81.6293V81.0254C78.4666 80.6976 78.2321 80.5682 77.9401 80.7278L30.0028 107.695C29.7108 107.859 29.4763 108.255 29.4763 108.583Z" fill="#E0E0E0"/>
<path d="M29.4763 112.202V112.806C29.4763 113.134 29.7108 113.263 30.0028 113.103L77.9401 86.1365C78.2321 85.9726 78.4666 85.5758 78.4666 85.2479V84.6441C78.4666 84.3163 78.2321 84.1869 77.9401 84.3465L30.0028 111.313C29.7108 111.477 29.4763 111.874 29.4763 112.202Z" fill="#E0E0E0"/>
<path d="M18.596 119.75C18.5473 119.75 18.5031 119.737 18.4588 119.716C18.3747 119.668 18.3216 119.582 18.3216 119.487V110.761C18.3216 110.666 18.3747 110.58 18.4588 110.533L26.1578 106.202C26.2419 106.155 26.3436 106.155 26.4277 106.202C26.5118 106.25 26.5649 106.336 26.5649 106.431V115.157C26.5649 115.251 26.5118 115.338 26.4277 115.385L18.7331 119.716C18.6933 119.742 18.6446 119.75 18.596 119.75ZM18.8659 110.912V119.03L26.0206 115.001V106.884L18.8659 110.912Z" fill="#455A64"/>
<path d="M22.3481 115.67L20.5561 113.992L21.1535 112.754L22.1756 113.711L26.587 104.61L27.3569 105.331L22.3481 115.67Z" fill="#407BFF"/>
<path d="M29.4763 118.447V119.051C29.4763 119.379 29.7108 119.509 30.0028 119.349L57.9139 103.661C58.2059 103.497 58.4404 103.101 58.4404 102.773V102.169C58.4404 101.841 58.2059 101.712 57.9139 101.871L30.0028 117.563C29.7108 117.727 29.4763 118.124 29.4763 118.452V118.447Z" fill="#E0E0E0"/>
<path d="M29.4763 122.243V122.847C29.4763 123.175 29.7108 123.304 30.0028 123.144L77.9401 96.1775C78.2321 96.0136 78.4666 95.6168 78.4666 95.289V94.6851C78.4666 94.3573 78.2321 94.2279 77.9401 94.3875L30.0028 121.354C29.7108 121.518 29.4763 121.915 29.4763 122.243Z" fill="#E0E0E0"/>
<path d="M29.4763 125.862V126.466C29.4763 126.794 29.7108 126.923 30.0028 126.763L77.9401 99.7966C78.2321 99.6327 78.4666 99.2359 78.4666 98.9081V98.3042C78.4666 97.9764 78.2321 97.847 77.9401 98.0066L30.0028 124.973C29.7108 125.137 29.4763 125.534 29.4763 125.862Z" fill="#E0E0E0"/>
<path d="M18.596 133.41C18.5473 133.41 18.5031 133.397 18.4588 133.376C18.3747 133.328 18.3216 133.242 18.3216 133.147V124.421C18.3216 124.327 18.3747 124.24 18.4588 124.193L26.1578 119.862C26.2419 119.815 26.3436 119.815 26.4277 119.862C26.5118 119.91 26.5649 119.996 26.5649 120.091V128.817C26.5649 128.912 26.5118 128.998 26.4277 129.045L18.7331 133.376C18.6933 133.397 18.6446 133.41 18.596 133.41ZM18.8659 124.572V132.69L26.0206 128.661V120.544L18.8659 124.572Z" fill="#455A64"/>
<path d="M22.3481 129.335L20.5561 127.652L21.1535 126.419L22.1756 127.372L26.587 118.271L27.3569 118.996L22.3481 129.335Z" fill="#407BFF"/>
<path d="M29.4763 132.108V132.711C29.4763 133.039 29.7108 133.169 30.0028 133.009L57.9139 117.322C58.2059 117.158 58.4404 116.761 58.4404 116.433V115.829C58.4404 115.501 58.2059 115.372 57.9139 115.532L30.0028 131.223C29.7108 131.387 29.4763 131.784 29.4763 132.112V132.108Z" fill="#E0E0E0"/>
<path d="M29.4763 135.908V136.512C29.4763 136.84 29.7108 136.969 30.0028 136.809L77.9401 109.843C78.2321 109.679 78.4666 109.282 78.4666 108.954V108.35C78.4666 108.022 78.2321 107.893 77.9401 108.053L30.0028 135.019C29.7108 135.183 29.4763 135.58 29.4763 135.908Z" fill="#E0E0E0"/>
<path d="M29.4763 139.522V140.126C29.4763 140.454 29.7108 140.583 30.0028 140.424L77.9401 113.457C78.2321 113.293 78.4666 112.896 78.4666 112.568V111.964C78.4666 111.637 78.2321 111.507 77.9401 111.667L30.0028 138.634C29.7108 138.798 29.4763 139.194 29.4763 139.522Z" fill="#E0E0E0"/>
<path d="M18.596 147.075C18.5473 147.075 18.5031 147.062 18.4588 147.04C18.3747 146.993 18.3216 146.907 18.3216 146.812V138.086C18.3216 137.991 18.3747 137.905 18.4588 137.857L26.1578 133.527C26.2419 133.479 26.3436 133.479 26.4277 133.527C26.5118 133.574 26.5649 133.661 26.5649 133.755V142.481C26.5649 142.576 26.5118 142.662 26.4277 142.71L18.7331 147.04C18.6933 147.066 18.6446 147.075 18.596 147.075ZM18.8659 138.237V146.355L26.0206 142.326V134.208L18.8659 138.237Z" fill="#455A64"/>
<path d="M22.3481 142.994L20.5561 141.316L21.1535 140.079L22.1756 141.036L26.587 131.931L27.3569 132.655L22.3481 142.994Z" fill="#407BFF"/>
<path d="M18.3261 84.2903V84.8941C18.3261 85.222 18.5606 85.3514 18.8526 85.1918L77.9401 51.9275C78.2321 51.7636 78.4666 51.3668 78.4666 51.039V50.4351C78.4666 50.1073 78.2321 49.9779 77.9401 50.1375L18.8482 83.4061C18.5561 83.57 18.3216 83.9668 18.3216 84.2946L18.3261 84.2903Z" fill="#E0E0E0"/>
<path d="M18.3261 88.1292V88.733C18.3261 89.0608 18.5606 89.1902 18.8526 89.0306L77.9401 55.7664C78.2322 55.6025 78.4667 55.2056 78.4667 54.8778V54.274C78.4667 53.9462 78.2322 53.8168 77.9401 53.9763L18.8482 87.2406C18.5562 87.4045 18.3216 87.8013 18.3216 88.1292H18.3261Z" fill="#E0E0E0"/>
<path d="M18.3261 91.968V92.5719C18.3261 92.8997 18.5606 93.0291 18.8526 92.8695L77.9401 59.6052C78.2322 59.4413 78.4667 59.0445 78.4667 58.7167V58.1128C78.4667 57.785 78.2322 57.6556 77.9401 57.8152L18.8482 91.0795C18.5562 91.2434 18.3216 91.6402 18.3216 91.968H18.3261Z" fill="#E0E0E0"/>
<path d="M18.3261 152.173V152.777C18.3261 153.105 18.5606 153.234 18.8526 153.075L77.9401 119.81C78.2321 119.646 78.4666 119.25 78.4666 118.922V118.318C78.4666 117.99 78.2321 117.861 77.9401 118.02L18.8482 151.285C18.5561 151.448 18.3216 151.845 18.3216 152.173H18.3261Z" fill="#E0E0E0"/>
<path d="M18.3261 156.008V156.612C18.3261 156.94 18.5606 157.069 18.8526 156.91L77.9401 123.645C78.2322 123.481 78.4667 123.085 78.4667 122.757V122.153C78.4667 121.825 78.2322 121.696 77.9401 121.855L18.8482 155.12C18.5562 155.283 18.3216 155.68 18.3216 156.008H18.3261Z" fill="#E0E0E0"/>
<path d="M18.9544 58.0786L43.1619 44.4442C43.5115 44.2458 43.7947 44.4054 43.7947 44.7979V44.9791C43.7947 45.3716 43.5115 45.8504 43.1619 46.0445L18.9544 59.6789C18.6048 59.8773 18.3216 59.7177 18.3216 59.3252V59.144C18.3216 58.7515 18.6048 58.2727 18.9544 58.0786Z" fill="#FAFAFA"/>
<path d="M18.9544 61.3048L33.3568 53.2001C33.7063 53.0017 33.9895 53.1613 33.9895 53.5538V53.7349C33.9895 54.1275 33.7063 54.6062 33.3568 54.8003L18.9544 62.905C18.6048 63.1035 18.3216 62.9439 18.3216 62.5514V62.3702C18.3216 61.9777 18.6048 61.4989 18.9544 61.3048Z" fill="#FAFAFA"/>
<path d="M67.3828 30.6156L78.1481 24.5511C78.3206 24.4519 78.4622 24.5338 78.4622 24.7279V25.1291C78.4622 25.3232 78.3206 25.5647 78.1481 25.6596L67.3828 31.7241C67.2102 31.8233 67.0686 31.7414 67.0686 31.5473V31.1461C67.0686 30.952 67.2102 30.7105 67.3828 30.6156Z" fill="#407BFF"/>
<path d="M67.3828 35.4549L78.1481 29.3904C78.3206 29.2912 78.4622 29.3732 78.4622 29.5673V29.9684C78.4622 30.1625 78.3206 30.4041 78.1481 30.499L67.3828 36.5635C67.2102 36.6627 67.0686 36.5807 67.0686 36.3866V35.9855C67.0686 35.7914 67.2102 35.5498 67.3828 35.4549Z" fill="#407BFF"/>
<path d="M69.6039 31.7716L78.1481 26.9622C78.3206 26.863 78.4622 26.945 78.4622 27.1391V27.5402C78.4622 27.7343 78.3206 27.9758 78.1481 28.0707L69.6039 32.8801C69.4314 32.9793 69.2898 32.8973 69.2898 32.7032V32.3021C69.2898 32.108 69.4314 31.8664 69.6039 31.7716Z" fill="#407BFF"/>
<path d="M28.5781 71.4842C28.525 71.5144 28.4807 71.5101 28.4453 71.4756C28.4055 71.4411 28.3878 71.385 28.3878 71.303V64.4017C28.3878 64.3241 28.4055 64.2465 28.4453 64.1688C28.4852 64.0912 28.5294 64.0351 28.5781 64.0092L29.1533 63.6857C29.2064 63.6555 29.2506 63.6598 29.2905 63.6943C29.3303 63.7289 29.348 63.7849 29.348 63.8669V70.7682C29.348 70.8458 29.3303 70.9235 29.2905 71.0054C29.2506 71.083 29.2064 71.1391 29.1533 71.165L28.5781 71.4885V71.4842Z" fill="#455A64"/>
<path d="M33.6886 68.6071C33.609 68.6546 33.547 68.6546 33.5028 68.6158C33.4585 68.577 33.4275 68.5425 33.4098 68.5166L31.4187 65.1953V69.5949C31.4187 69.6725 31.401 69.7502 31.3612 69.8321C31.3258 69.9098 31.2771 69.9658 31.2285 69.9917L30.6533 70.3152C30.6002 70.3454 30.5559 70.3411 30.5161 70.3066C30.4807 70.2721 30.4586 70.216 30.4586 70.1341V63.2328C30.4586 63.1551 30.4763 63.0775 30.5161 62.9998C30.5559 62.9222 30.6002 62.8661 30.6533 62.8403L31.1533 62.5599C31.2329 62.5124 31.2948 62.5124 31.3391 62.5513C31.3833 62.5901 31.4143 62.6246 31.432 62.6505L33.4231 65.9717V61.5721C33.4231 61.4945 33.4408 61.4169 33.4806 61.3392C33.5205 61.2616 33.5647 61.2055 33.6134 61.1796L34.1886 60.8561C34.2417 60.8259 34.2859 60.8302 34.3258 60.8648C34.3656 60.8993 34.3833 60.9553 34.3833 61.0373V67.9386C34.3833 68.0162 34.3656 68.0939 34.3258 68.1758C34.2859 68.2535 34.2417 68.3095 34.1886 68.3354L33.6886 68.6158V68.6071Z" fill="#455A64"/>
<path d="M37.1974 59.0489C37.516 58.8721 37.7947 58.7772 38.0381 58.7686C38.2815 58.7599 38.4806 58.8074 38.6443 58.9109C38.808 59.0144 38.9275 59.1568 39.0115 59.3379C39.0956 59.5234 39.1399 59.7175 39.1487 59.9159C39.1531 59.9979 39.1354 60.0798 39.0956 60.1531C39.0558 60.2308 39.0071 60.2825 38.9584 60.3127L38.4584 60.5931C38.3788 60.6405 38.3169 60.6492 38.277 60.6276C38.2372 60.606 38.2018 60.5629 38.1664 60.5025C38.0956 60.3645 37.985 60.2696 37.8434 60.2222C37.6974 60.1704 37.485 60.2265 37.2018 60.3861C37.0779 60.4551 36.9629 60.5413 36.8479 60.6449C36.7372 60.7484 36.6399 60.8562 36.5558 60.9813C36.4718 61.1021 36.4054 61.2315 36.3611 61.3652C36.3125 61.4989 36.2903 61.6326 36.2903 61.7706C36.2903 61.9345 36.3125 62.0553 36.3567 62.133C36.401 62.2106 36.4762 62.258 36.5868 62.271C36.693 62.2839 36.8346 62.2753 37.0116 62.2408C37.1886 62.2063 37.4054 62.1588 37.6664 62.0985C37.9496 62.0294 38.1974 61.9992 38.4009 62.0079C38.6089 62.0165 38.777 62.0726 38.9053 62.1718C39.0337 62.271 39.1354 62.4176 39.1974 62.6117C39.2593 62.8015 39.2947 63.0474 39.2947 63.3364C39.2947 63.6556 39.246 63.9791 39.1531 64.3069C39.0558 64.6347 38.923 64.9452 38.7461 65.2385C38.5691 65.5318 38.3523 65.8122 38.1 66.0667C37.8434 66.3255 37.5558 66.5455 37.2372 66.7223C36.9717 66.8733 36.7195 66.9682 36.4762 67.007C36.2328 67.0458 36.0204 67.0286 35.8302 66.9509C35.6443 66.8733 35.4939 66.7396 35.3789 66.5498C35.2638 66.36 35.2019 66.1098 35.1886 65.8036C35.1842 65.7216 35.2019 65.6397 35.2417 65.5664C35.2815 65.4887 35.3302 65.437 35.3833 65.4068L35.8788 65.1264C35.9585 65.079 36.0204 65.066 36.0647 65.0876C36.1089 65.1048 36.1443 65.148 36.1709 65.2213C36.2018 65.2946 36.2461 65.3636 36.2903 65.4326C36.339 65.4973 36.401 65.5448 36.4806 65.5707C36.5602 65.5965 36.662 65.5965 36.7815 65.575C36.901 65.5534 37.0514 65.493 37.2328 65.3895C37.3744 65.3076 37.5116 65.217 37.6443 65.1091C37.777 65.0013 37.8921 64.8848 37.9939 64.7511C38.0956 64.6217 38.1753 64.4837 38.2372 64.3371C38.2992 64.1904 38.3301 64.0394 38.3301 63.8755C38.3301 63.7116 38.2947 63.6081 38.2328 63.5477C38.1664 63.4873 38.0646 63.4571 37.9319 63.4615C37.7947 63.4658 37.631 63.4916 37.4319 63.5391C37.2328 63.5865 37.0027 63.634 36.7417 63.6814C36.5027 63.7289 36.2992 63.7461 36.1178 63.7289C35.9408 63.7116 35.7948 63.6512 35.6753 63.5434C35.5603 63.4399 35.4718 63.2846 35.4143 63.0862C35.3567 62.8878 35.3302 62.629 35.3302 62.3055C35.3302 61.982 35.3789 61.6628 35.4718 61.3393C35.5691 61.0158 35.6974 60.7096 35.8611 60.4249C36.0293 60.1402 36.224 59.8771 36.4541 59.6355C36.6841 59.394 36.9319 59.1999 37.1974 59.0533V59.0489Z" fill="#455A64"/>
<path d="M43.9495 55.3522C44.0026 55.322 44.0469 55.3263 44.0867 55.3609C44.1221 55.3954 44.1442 55.4514 44.1442 55.5334V59.9114C44.1442 60.3513 44.1 60.7741 44.0159 61.1795C43.9318 61.585 43.8035 61.9602 43.6309 62.3139C43.4584 62.6676 43.246 62.9825 42.9894 63.2671C42.7327 63.5518 42.4363 63.7891 42.1 63.9745C41.7593 64.1686 41.4584 64.2635 41.2062 64.2678C40.954 64.2678 40.7416 64.1945 40.569 64.0349C40.4009 63.8753 40.2726 63.6381 40.1885 63.3318C40.1044 63.0213 40.0646 62.646 40.0646 62.2061V57.8281C40.0646 57.7504 40.0823 57.6728 40.1221 57.5951C40.1575 57.5175 40.2062 57.4614 40.2593 57.4356L40.8345 57.1121C40.8876 57.0819 40.9319 57.0862 40.9717 57.1207C41.0071 57.1552 41.0292 57.2113 41.0292 57.2932V61.6195C41.0292 61.9128 41.0558 62.1457 41.1089 62.3225C41.1619 62.4994 41.2327 62.6288 41.3301 62.7064C41.4274 62.7841 41.538 62.8186 41.6708 62.8013C41.8035 62.7884 41.9495 62.7366 42.1044 62.646C42.2593 62.5598 42.4053 62.4476 42.5425 62.3096C42.6796 62.1716 42.7947 62.012 42.8876 61.8265C42.9805 61.641 43.0557 61.4297 43.1132 61.1924C43.1663 60.9552 43.1973 60.6921 43.1973 60.3988V56.0725C43.1973 55.9949 43.215 55.9173 43.2548 55.8396C43.2902 55.762 43.3389 55.7059 43.3876 55.68L43.9584 55.3609L43.9495 55.3522Z" fill="#455A64"/>
<path d="M47.2459 53.4976C47.8388 53.1655 48.2901 53.1181 48.5999 53.3553C48.9096 53.5968 49.0645 54.0799 49.0645 54.8132C49.0645 55.3351 48.9848 55.8225 48.8255 56.2754C48.6662 56.7326 48.4317 57.1338 48.1264 57.4875L49.1087 59.5751C49.122 59.6096 49.1308 59.6441 49.1308 59.6786C49.1308 59.7433 49.1131 59.808 49.0866 59.8684C49.0556 59.9331 49.0202 59.9762 48.976 60.0021L48.3698 60.3429C48.2769 60.3946 48.2061 60.4033 48.1574 60.3601C48.1132 60.317 48.0822 60.2739 48.0601 60.2264L47.1264 58.2639L46.1796 58.7944V61.2832C46.1796 61.3608 46.1619 61.4385 46.122 61.5204C46.0866 61.598 46.038 61.6541 45.9849 61.68L45.4097 62.0035C45.3566 62.0337 45.3123 62.0294 45.2725 61.9949C45.2371 61.9604 45.215 61.9043 45.215 61.8223V54.921C45.215 54.8434 45.2327 54.7658 45.2725 54.6881C45.3123 54.6105 45.3566 54.5544 45.4097 54.5285L47.2459 53.4933V53.4976ZM46.1796 57.4616L47.2105 56.8793C47.4804 56.7283 47.6972 56.5342 47.8565 56.3013C48.0202 56.0684 48.0999 55.7535 48.0999 55.3524C48.0999 54.9512 48.0202 54.7312 47.8565 54.6881C47.6972 54.645 47.4804 54.6967 47.2105 54.8477L46.1796 55.43V57.4616Z" fill="#455A64"/>
<path d="M52.3255 50.6374C52.4007 50.5943 52.4582 50.5943 52.498 50.6331C52.5379 50.6719 52.5688 50.7452 52.5998 50.8488L54.3431 56.62C54.3431 56.62 54.352 56.6631 54.352 56.689C54.352 56.7666 54.3343 56.8443 54.2945 56.9262C54.2546 57.0039 54.2104 57.0599 54.1573 57.0858L53.644 57.3748C53.5511 57.4266 53.4847 57.4352 53.4449 57.3964C53.4051 57.3575 53.383 57.3144 53.3653 57.2626L53.06 56.249L50.8122 57.5128L50.5069 58.8715C50.4936 58.9362 50.4671 59.0095 50.4273 59.0915C50.3874 59.1734 50.3211 59.2425 50.2282 59.2942L49.7149 59.5832C49.6618 59.6134 49.6175 59.6091 49.5777 59.5746C49.5379 59.5401 49.5202 59.484 49.5202 59.4021C49.5202 59.3719 49.5202 59.346 49.5291 59.3244L51.2724 51.5906C51.2989 51.4526 51.3343 51.3448 51.3697 51.2628C51.4096 51.1809 51.4671 51.1205 51.5423 51.0774L52.3255 50.6374ZM52.7148 55.106L51.9317 52.5008L51.1485 55.9859L52.7148 55.106Z" fill="#455A64"/>
<path d="M58.228 54.7961C58.1484 54.8436 58.0864 54.8436 58.0422 54.8047C57.9979 54.7659 57.967 54.7314 57.9493 54.7055L55.9581 51.3843V55.7839C55.9581 55.8615 55.9405 55.9391 55.9006 56.0211C55.8652 56.0987 55.8166 56.1548 55.7679 56.1807L55.1927 56.5042C55.1396 56.5344 55.0953 56.5301 55.0555 56.4956C55.0201 56.4611 54.998 56.405 54.998 56.323V49.4217C54.998 49.3441 55.0157 49.2664 55.0555 49.1888C55.0953 49.1112 55.1396 49.0551 55.1927 49.0292L55.6927 48.7489C55.7723 48.7014 55.8343 48.7014 55.8785 48.7402C55.9228 48.779 55.9537 48.8135 55.9714 48.8394L57.9625 52.1607V47.7611C57.9625 47.6835 57.9802 47.6058 58.0201 47.5282C58.0599 47.4505 58.1041 47.3945 58.1572 47.3686L58.7324 47.0451C58.7855 47.0149 58.8298 47.0192 58.8696 47.0537C58.9094 47.0882 58.9271 47.1443 58.9271 47.2263V54.1276C58.9271 54.2052 58.9094 54.2828 58.8696 54.3648C58.8298 54.4467 58.7855 54.4985 58.7324 54.5244L58.2324 54.8047L58.228 54.7961Z" fill="#455A64"/>
<path d="M63.0864 49.6891C63.0952 49.5899 63.1218 49.508 63.1616 49.4389C63.2014 49.3699 63.2457 49.3225 63.2943 49.2966L63.8696 48.9731C63.9227 48.9429 63.9669 48.9429 64.0067 48.9731C64.0465 49.0033 64.0642 49.0637 64.0598 49.15C64.0465 49.4519 63.9979 49.7711 63.9138 50.1075C63.8297 50.4483 63.7014 50.7804 63.5333 51.1125C63.3607 51.4446 63.1483 51.7595 62.8873 52.0528C62.6262 52.3504 62.3121 52.6006 61.9404 52.812C61.613 52.9974 61.3253 53.0837 61.0731 53.0837C60.8209 53.0794 60.6085 52.9974 60.4316 52.8335C60.2546 52.6739 60.1174 52.4367 60.0201 52.1304C59.9227 51.8199 59.8652 51.4576 59.8475 51.0435C59.8387 50.7804 59.8342 50.4828 59.8342 50.155C59.8342 49.8271 59.8387 49.5252 59.8475 49.2492C59.8652 48.8092 59.9227 48.3822 60.0201 47.9638C60.1174 47.5454 60.2546 47.1572 60.4316 46.7992C60.6085 46.4412 60.8209 46.1177 61.0731 45.8287C61.3253 45.5397 61.613 45.3068 61.9404 45.1213C62.3121 44.9143 62.6262 44.8108 62.8873 44.8151C63.1483 44.8151 63.3651 44.8884 63.5333 45.0264C63.7058 45.1645 63.8297 45.3586 63.9138 45.6087C63.9979 45.8589 64.0465 46.122 64.0598 46.3981C64.0642 46.48 64.0465 46.562 64.0067 46.6353C63.9669 46.7129 63.9182 46.7647 63.8696 46.7949L63.2943 47.1184C63.2457 47.1443 63.2014 47.1486 63.1572 47.127C63.1129 47.1054 63.0908 47.0494 63.0775 46.9631C63.0643 46.8294 63.0289 46.7086 62.9802 46.6008C62.9271 46.4929 62.8563 46.4153 62.7678 46.3592C62.6793 46.3032 62.5643 46.2816 62.4271 46.2902C62.2899 46.2989 62.1262 46.3549 61.9448 46.4628C61.759 46.5663 61.5997 46.7 61.4625 46.8639C61.3254 47.0278 61.2103 47.2046 61.1174 47.3987C61.0245 47.5928 60.9537 47.8042 60.905 48.0328C60.8563 48.2614 60.8254 48.4857 60.8165 48.7143C60.8077 48.9904 60.8032 49.2923 60.8032 49.6201C60.8032 49.9479 60.8077 50.2455 60.8165 50.5086C60.8254 50.7329 60.8563 50.927 60.905 51.0953C60.9537 51.2635 61.0245 51.3929 61.1174 51.4835C61.2103 51.574 61.3254 51.6215 61.4625 51.6301C61.5997 51.6387 61.7634 51.5913 61.9448 51.4878C62.1306 51.3842 62.2899 51.2592 62.4271 51.1125C62.5643 50.9659 62.6793 50.8149 62.7722 50.6553C62.8652 50.4957 62.9359 50.3361 62.989 50.1679C63.0421 50.004 63.0731 49.8444 63.0864 49.6934V49.6891Z" fill="#455A64"/>
<path d="M68.2102 47.8428C68.2633 47.8126 68.3075 47.8169 68.3429 47.8514C68.3827 47.8859 68.4004 47.942 68.4004 48.0239V48.7831C68.4004 48.8607 68.3827 48.9383 68.3429 49.0203C68.3075 49.0979 68.2588 49.154 68.2102 49.1799L65.0863 50.9397C65.0332 50.9699 64.989 50.9656 64.9492 50.9311C64.9093 50.8966 64.8916 50.8405 64.8916 50.7586V43.8573C64.8916 43.7796 64.9093 43.702 64.9492 43.6243C64.989 43.5467 65.0332 43.4906 65.0863 43.4648L68.1526 41.7394C68.2057 41.7092 68.25 41.7136 68.2898 41.7481C68.3252 41.7826 68.3473 41.8386 68.3473 41.9206V42.6797C68.3473 42.7574 68.3296 42.835 68.2898 42.917C68.25 42.9946 68.2057 43.0507 68.1526 43.0766L65.8518 44.3705V46.07L67.9933 44.8623C68.0464 44.8321 68.0907 44.8364 68.1305 44.8709C68.1703 44.9054 68.188 44.9615 68.188 45.0434V45.8026C68.188 45.8802 68.1703 45.9578 68.1305 46.0355C68.0951 46.1131 68.0464 46.1692 67.9933 46.1994L65.8518 47.4071V49.1799L68.2057 47.8557L68.2102 47.8428Z" fill="#455A64"/>
<g opacity="0.25">
<path d="M68.0597 17.8609V23.6537C68.0597 25.1202 67.0332 26.8542 65.7279 27.5875L54.2236 34.0617C53.6529 34.3809 53.3299 35.0193 52.9892 35.6922C52.7369 36.1882 52.4759 36.6929 52.0998 37.1069C51.206 38.0947 49.2591 39.1256 47.883 39.5526C47.4184 39.6992 46.9583 39.8028 46.5025 39.8631C46.33 39.8933 46.1353 39.9149 45.9362 39.9365C44.6796 40.1004 43.1176 40.3074 42.2017 40.825L28.7373 48.3992C28.3303 48.6278 27.932 48.7443 27.5648 48.7443C27.2816 48.7443 27.0161 48.6796 26.7772 48.5458C26.2285 48.2353 25.9232 47.6185 25.9232 46.8205V41.0277C25.9232 39.5612 26.9453 37.8273 28.2551 37.094L32.7771 34.5491C32.7771 34.5491 32.8169 34.5319 32.839 34.5276C33.0559 34.4327 33.3125 34.519 33.4364 34.726C33.5559 34.9287 33.4983 35.1918 33.3125 35.3255C33.2992 35.3428 33.2771 35.3601 33.2594 35.3687L28.7373 37.9135C27.7374 38.4786 26.8878 39.9063 26.8878 41.0321V46.8248C26.8878 47.2734 27.025 47.6012 27.2595 47.7349C27.494 47.873 27.8568 47.8169 28.2551 47.5926L41.7194 40.0141C42.7991 39.4059 44.4716 39.186 45.8079 39.0134C46.007 38.9919 46.1928 38.9617 46.3698 38.9401C46.7636 38.884 47.1795 38.7934 47.5954 38.664C48.8167 38.2888 50.6308 37.3226 51.3786 36.4945C51.675 36.1753 51.8918 35.7353 52.1263 35.2824C52.5157 34.5103 52.9228 33.7167 53.7414 33.2552L65.2456 26.7809C66.2456 26.2158 67.0951 24.7881 67.0951 23.6623V17.8696C67.0951 17.4253 66.9579 17.0932 66.7234 16.9638C66.4889 16.8257 66.1217 16.8818 65.7279 17.1061L61.8076 19.3102C61.6793 19.0212 61.5067 18.7452 61.3164 18.4993L65.2456 16.2866C65.9535 15.8811 66.6526 15.8337 67.2057 16.1399C67.7544 16.4505 68.0597 17.0673 68.0597 17.8653V17.8609Z" fill="black"/>
</g>
<path d="M59.666 17.9688C59.9757 17.792 60.4049 17.8135 60.8784 18.081C61.8209 18.6115 62.5863 19.9055 62.5863 20.9666C62.5863 21.5014 62.3916 21.8767 62.0775 22.0492L34.7815 37.4132L32.3656 33.3285L59.6616 17.9645L59.666 17.9688Z" fill="#37474F"/>
<path d="M33.5868 35.3857L62.0952 19.3402C61.7854 18.814 61.3563 18.3525 60.8828 18.085C60.8253 18.0549 60.7722 18.0376 60.7191 18.0117L32.6532 33.8071L33.5868 35.3857Z" fill="#455A64"/>
<path d="M33.5868 33.4492C32.6443 32.9186 31.8788 33.3499 31.8788 34.411C31.8788 35.4721 32.6443 36.7661 33.5868 37.2966C34.5292 37.8272 35.2947 37.3958 35.2947 36.3348C35.2947 35.2737 34.5292 33.9797 33.5868 33.4492Z" fill="#263238"/>
<path d="M68.5464 18.2748V24.0676C68.5464 25.5341 67.5199 27.2681 66.2146 28.0014L54.7103 34.4756C54.1396 34.7948 53.8165 35.4332 53.4758 36.1061C53.2236 36.6021 52.9626 37.1068 52.5865 37.5208C51.6927 38.5086 49.7458 39.5395 48.3697 39.9665C47.9051 40.1131 47.445 40.2167 46.9892 40.277C46.8167 40.3072 46.622 40.3288 46.4229 40.3504C45.1663 40.5143 43.6043 40.7213 42.6884 41.2389L29.224 48.8131C28.817 49.0417 28.4187 49.1582 28.0515 49.1582C27.7683 49.1582 27.5028 49.0934 27.2639 48.9597C26.7152 48.6492 26.4099 48.0324 26.4099 47.2344V41.4416C26.4099 39.9751 27.432 38.2412 28.7417 37.5079L33.2638 34.963C33.2638 34.963 33.3036 34.9458 33.3257 34.9415C33.5426 34.8466 33.7992 34.9329 33.9231 35.1399C34.0425 35.3426 33.985 35.6057 33.7992 35.7351C33.7859 35.7524 33.7638 35.7696 33.7461 35.7783L29.224 38.3231C28.2241 38.8882 27.3745 40.3159 27.3745 41.4416V47.2344C27.3745 47.683 27.5117 48.0108 27.7462 48.1402C27.9807 48.2782 28.3435 48.2222 28.7417 47.9979L42.2061 40.4194C43.2858 39.8112 44.9583 39.5912 46.2946 39.4187C46.4937 39.3971 46.6795 39.3669 46.8521 39.3454C47.2459 39.2893 47.6618 39.1987 48.0777 39.0693C49.2989 38.6941 51.1131 37.7279 51.8608 36.8997C52.1573 36.5805 52.3741 36.1406 52.6086 35.6877C52.998 34.9156 53.4051 34.1219 54.2236 33.6604L65.7279 27.1861C66.7278 26.6211 67.5774 25.1934 67.5774 24.0676V18.2748C67.5774 17.8306 67.4402 17.4984 67.2057 17.369C66.9712 17.231 66.6039 17.2871 66.2101 17.5114L62.2899 19.7155C62.1615 19.4265 61.989 19.1504 61.7987 18.9046L65.7279 16.6919C66.4358 16.2864 67.1349 16.239 67.688 16.5452C68.2367 16.8558 68.542 17.4726 68.542 18.2705L68.5464 18.2748Z" fill="#455A64"/>
<path d="M38.8257 159.79L96.7937 127.264L125.78 143.525L67.8075 176.052L38.8257 159.79Z" fill="#407BFF"/>
<path opacity="0.7" d="M38.8257 159.79L96.7937 127.264L125.78 143.525L67.8075 176.052L38.8257 159.79Z" fill="white"/>
<path d="M96.7937 128.972L41.8743 159.786L67.8075 174.34L122.727 143.525L96.7937 128.972ZM67.8075 173.481L43.4008 159.786L96.7937 129.826L121.2 143.521L67.8075 173.481Z" fill="#407BFF"/>
<path d="M71.4932 157.867C68.9004 156.413 67.4712 154.42 67.4712 152.264C67.4712 149.909 69.2145 147.579 72.2587 145.876C78.2188 142.533 87.5726 142.339 93.1124 145.449C95.7052 146.902 97.1344 148.895 97.1344 151.052C97.1344 153.407 95.3911 155.736 92.3469 157.44C89.223 159.191 85.17 160.079 81.2187 160.079C77.6303 160.079 74.1304 159.346 71.4932 157.867ZM72.5154 146.311C69.6393 147.925 67.9889 150.094 67.9889 152.264C67.9889 154.235 69.3251 156.068 71.7543 157.431C77.148 160.459 86.2718 160.265 92.0903 157.004C94.9663 155.391 96.6167 153.221 96.6167 151.052C96.6167 149.08 95.2805 147.247 92.8513 145.884C90.285 144.444 86.8779 143.732 83.3869 143.732C79.5329 143.732 75.5684 144.599 72.5198 146.311H72.5154Z" fill="#407BFF"/>
<g opacity="0.5">
<path d="M72.4313 156.288C70.4402 155.171 69.3473 153.743 69.3473 152.264C69.3473 150.581 70.7499 148.826 73.1968 147.454C75.918 145.927 79.6303 145.052 83.3869 145.052C86.7851 145.052 89.9045 145.755 92.1743 147.027C94.1655 148.144 95.2584 149.572 95.2584 151.052C95.2584 152.734 93.8557 154.489 91.4089 155.861C88.6877 157.388 84.9753 158.263 81.2232 158.263C77.825 158.263 74.7012 157.56 72.4357 156.288H72.4313Z" fill="#407BFF"/>
</g>
<path opacity="0.5" d="M69.2057 169.543C68.4358 169.111 67.1792 169.116 66.4093 169.543L64.7544 170.47L48.8609 161.611L50.7768 160.537C51.0998 160.355 51.2812 160.127 51.2812 159.898C51.2812 159.67 51.1042 159.445 50.7768 159.264L48.8653 158.19L66.3164 148.343L65.9757 149.067C65.5465 149.973 65.3297 150.909 65.3297 151.845C65.3297 154.606 68.1747 157.435 70.9933 159.018C73.5109 160.429 77.9135 161.856 82.0816 161.856C83.232 161.856 84.3869 161.783 85.5196 161.641L86.7983 161.481L70.865 170.474L69.2101 169.543H69.2057Z" fill="#407BFF"/>
<g opacity="0.4">
<path d="M61.5067 163.655C60.843 163.284 60.4802 162.766 60.4802 162.197C60.4802 161.584 60.9182 160.985 61.6837 160.558C63.1084 159.755 65.3518 159.712 66.6836 160.459C67.3429 160.83 67.7101 161.347 67.7101 161.916C67.7101 162.529 67.2721 163.129 66.5066 163.556C65.7588 163.974 64.7898 164.185 63.8474 164.185C62.9845 164.185 62.1439 164.008 61.5111 163.655H61.5067Z" fill="white"/>
</g>
<path opacity="0.5" d="M98.5813 154.239C99.0016 153.342 99.2494 151.815 99.2494 150.853C99.2494 148.559 97.3911 146.35 93.7185 144.288C90.7805 142.641 86.2718 141.532 82.4975 141.532C81.3427 141.532 80.1834 141.605 79.0551 141.743L77.7631 141.907L93.6964 132.996L95.3513 133.928C96.1079 134.35 97.3866 134.35 98.1433 133.928L99.7981 132.996L115.665 141.778L113.749 142.856C113.426 143.037 113.249 143.262 113.249 143.49C113.249 143.719 113.426 143.948 113.749 144.129L115.665 145.203L98.2494 154.951L98.5857 154.235L98.5813 154.239Z" fill="#407BFF"/>
<g opacity="0.4">
<path d="M97.9884 143.266C97.3247 142.895 96.9619 142.378 96.9619 141.808C96.9619 141.196 97.3999 140.596 98.1654 140.169C99.5901 139.367 101.833 139.324 103.165 140.07C103.829 140.441 104.192 140.958 104.192 141.528C104.192 142.14 103.754 142.74 102.988 143.167C102.241 143.585 101.272 143.797 100.329 143.797C99.4662 143.797 98.6255 143.62 97.9928 143.266H97.9884Z" fill="white"/>
</g>
<path d="M38.8257 159.791V166.636L67.8075 182.901V176.052L38.8257 159.791Z" fill="#407BFF"/>
<g opacity="0.2">
<path d="M38.8257 159.791V166.636L67.8075 182.901V176.052L38.8257 159.791Z" fill="white"/>
</g>
<g opacity="0.1">
<path d="M67.8075 177.578L58.6572 172.631L67.8075 177.992V177.578Z" fill="black"/>
<path d="M38.8257 163.043L41.8743 164.928L38.8257 163.388V163.043Z" fill="black"/>
<path d="M38.8257 164.673L54.0776 173.485L38.8257 165.178V164.673Z" fill="black"/>
<path d="M67.8075 179.209L52.5555 170.919L67.8075 179.748V179.209Z" fill="black"/>
</g>
<path d="M67.8075 182.901L125.78 150.374V143.525L67.8075 176.052V182.901Z" fill="#407BFF"/>
<g opacity="0.2">
<path d="M67.8075 182.901L125.78 150.374V143.525L67.8075 176.052V182.901Z" fill="black"/>
</g>
<g opacity="0.3">
<path d="M67.8075 177.579L70.865 176.052L67.8075 177.993V177.579Z" fill="black"/>
</g>
<g opacity="0.3">
<path d="M67.8075 179.209L83.1479 170.875L67.8075 179.748V179.209Z" fill="black"/>
</g>
<g opacity="0.3">
<path d="M125.78 146.747L115.099 152.94L125.78 147.152V146.747Z" fill="black"/>
</g>
<g opacity="0.3">
<path d="M125.78 148.472L119.678 152.087L125.78 148.856V148.472Z" fill="black"/>
</g>
<path d="M62.7589 145.225L92.754 162.055L101.904 156.922L71.9136 140.087L62.7589 145.225Z" fill="#FAFAFA"/>
<path d="M101.904 156.922V164.371L92.754 169.508V162.055L101.904 156.922Z" fill="#E0E0E0"/>
<path d="M92.754 169.509L92.2186 169.207L92.754 168.905V169.509Z" fill="#E0E0E0"/>
<path d="M62.7589 145.225V146.359L63.7722 145.79L62.7589 145.225Z" fill="#E0E0E0"/>
<g opacity="0.3">
<path d="M92.2186 169.202V162.357L92.754 162.055V168.9L92.2186 169.202Z" fill="black"/>
</g>
<g style="mix-blend-mode:multiply" opacity="0.2">
<path d="M92.2186 162.357L63.2368 146.091L63.7722 145.79L92.754 162.055L92.2186 162.357Z" fill="black"/>
</g>
<path d="M63.7456 144.668L93.7451 161.499L94.5018 161.072L64.5111 144.246L63.7456 144.668Z" fill="#455A64"/>
<path d="M70.157 141.075L100.152 157.906L100.913 157.479L70.9181 140.648L70.157 141.075Z" fill="#455A64"/>
<path d="M93.7451 161.499V168.952L94.5018 168.525V161.072L93.7451 161.499Z" fill="#263238"/>
<path d="M100.152 157.906V165.355L100.918 164.928L100.913 157.479L100.152 157.906Z" fill="#263238"/>
<path opacity="0.2" d="M64.865 174.404L122.838 141.877L96.7937 127.264L38.8257 159.79L64.865 174.404Z" fill="black"/>
<path opacity="0.2" d="M38.8257 163.828L64.865 178.441V174.4L38.8257 159.791V163.828Z" fill="black"/>
<path d="M33.9187 151L91.8912 118.473L120.873 134.734L62.9049 167.261L33.9187 151Z" fill="#407BFF"/>
<path opacity="0.7" d="M33.9187 151L91.8912 118.473L120.873 134.734L62.9049 167.261L33.9187 151Z" fill="white"/>
<path d="M91.8912 120.186L36.9717 151L62.9049 165.553L117.824 134.739L91.8912 120.186ZM62.9049 164.695L38.4983 151L91.8912 121.04L116.298 134.734L62.9049 164.695Z" fill="#407BFF"/>
<path d="M66.5907 149.081C63.9978 147.627 62.5687 145.634 62.5687 143.478C62.5687 141.123 64.312 138.793 67.3562 137.09C73.3163 133.747 82.6701 133.553 88.2098 136.663C90.8027 138.116 92.2319 140.109 92.2319 142.266C92.2319 144.621 90.4886 146.95 87.4444 148.654C84.3205 150.405 80.2675 151.293 76.3162 151.293C72.7278 151.293 69.2278 150.56 66.5907 149.081ZM67.6128 137.525C64.7368 139.138 63.0864 141.308 63.0864 143.478C63.0864 145.449 64.4226 147.282 66.8518 148.645C72.2455 151.673 81.3692 151.479 87.1877 148.218C90.0638 146.605 91.7142 144.435 91.7142 142.266C91.7142 140.294 90.3779 138.461 87.9488 137.098C85.3824 135.658 81.9754 134.946 78.4843 134.946C74.6304 134.946 70.6659 135.813 67.6173 137.525H67.6128Z" fill="#407BFF"/>
<g opacity="0.5">
<path d="M67.5288 147.497C65.5376 146.38 64.4447 144.953 64.4447 143.473C64.4447 141.791 65.8474 140.035 68.2942 138.664C71.0154 137.137 74.7277 136.261 78.4843 136.261C81.8825 136.261 85.0019 136.964 87.2718 138.237C89.2629 139.354 90.3558 140.782 90.3558 142.261C90.3558 143.943 88.9532 145.699 86.5063 147.07C83.7851 148.597 80.0728 149.473 76.3206 149.473C72.9225 149.473 69.7986 148.77 67.5332 147.497H67.5288Z" fill="#407BFF"/>
</g>
<path opacity="0.5" d="M64.3031 160.752C63.5332 160.321 62.2766 160.325 61.5067 160.752L59.8519 161.68L43.9583 152.82L45.8742 151.746C46.1972 151.565 46.3787 151.336 46.3787 151.108C46.3787 150.879 46.2017 150.655 45.8742 150.474L43.9628 149.4L61.4138 139.552L61.0731 140.277C60.6439 141.183 60.4271 142.119 60.4271 143.055C60.4271 145.815 63.2722 148.645 66.0907 150.228C68.6084 151.638 73.011 153.066 77.179 153.066C78.3295 153.066 79.4843 152.993 80.617 152.85L81.8958 152.691L65.9624 161.684L64.3076 160.752H64.3031Z" fill="#407BFF"/>
<g opacity="0.4">
<path d="M56.6041 154.864C55.9404 154.493 55.5776 153.976 55.5776 153.406C55.5776 152.794 56.0157 152.194 56.7811 151.767C58.2059 150.965 60.4492 150.922 61.781 151.668C62.4403 152.039 62.8076 152.557 62.8076 153.126C62.8076 153.738 62.3695 154.338 61.6041 154.765C60.8563 155.183 59.8873 155.395 58.9448 155.395C58.082 155.395 57.2413 155.218 56.6086 154.864H56.6041Z" fill="white"/>
</g>
<path opacity="0.5" d="M93.6787 145.449C94.0991 144.551 94.3469 143.025 94.3469 142.063C94.3469 139.768 92.4885 137.56 88.816 135.498C85.878 133.85 81.3692 132.742 77.5949 132.742C76.4401 132.742 75.2808 132.815 74.1525 132.953L72.8605 133.117L88.7939 124.206L90.4487 125.137C91.2053 125.56 92.4841 125.56 93.2407 125.137L94.8955 124.206L110.763 132.987L108.847 134.066C108.524 134.247 108.347 134.471 108.347 134.7C108.347 134.928 108.524 135.157 108.847 135.338L110.763 136.412L93.3469 146.16L93.6832 145.444L93.6787 145.449Z" fill="#407BFF"/>
<g opacity="0.4">
<path d="M93.0858 134.479C92.4221 134.108 92.0593 133.591 92.0593 133.022C92.0593 132.409 92.4973 131.81 93.2628 131.382C94.6876 130.58 96.9309 130.537 98.2627 131.283C98.9264 131.654 99.2893 132.172 99.2893 132.741C99.2893 133.354 98.8512 133.953 98.0857 134.38C97.338 134.799 96.369 135.01 95.4265 135.01C94.5637 135.01 93.723 134.833 93.0903 134.479H93.0858Z" fill="white"/>
</g>
<path d="M33.9187 151V157.85L62.9049 174.111V167.261L33.9187 151Z" fill="#407BFF"/>
<g opacity="0.2">
<path d="M33.9187 151V157.85L62.9049 174.111V167.261L33.9187 151Z" fill="white"/>
</g>
<g opacity="0.1">
<path d="M62.9049 168.788L53.7502 163.84L62.9049 169.206V168.788Z" fill="black"/>
<path d="M33.9187 154.252L36.9717 156.137L33.9231 154.598L33.9187 154.252Z" fill="black"/>
<path d="M33.9186 155.882L49.1706 164.694L33.9186 156.387V155.882Z" fill="black"/>
<path d="M62.9049 170.419L47.6485 162.128L62.9049 170.958V170.419Z" fill="black"/>
</g>
<path d="M62.9049 174.111L120.873 141.584V134.734L62.9049 167.261V174.111Z" fill="#407BFF"/>
<g opacity="0.2">
<path d="M62.9049 174.111L120.873 141.584V134.734L62.9049 167.261V174.111Z" fill="black"/>
</g>
<g opacity="0.3">
<path d="M62.9049 168.788L65.958 167.261L62.9049 169.206V168.788Z" fill="black"/>
</g>
<g opacity="0.3">
<path d="M62.9049 170.418L78.2454 162.089L62.9049 170.958V170.418Z" fill="black"/>
</g>
<g opacity="0.3">
<path d="M120.873 137.96L110.196 144.154L120.873 138.362V137.96Z" fill="black"/>
</g>
<g opacity="0.3">
<path d="M120.873 139.682L114.771 143.296L120.873 140.066V139.682Z" fill="black"/>
</g>
<path d="M57.8563 136.434L87.847 153.265L97.0017 148.132L67.0066 131.297L57.8563 136.434Z" fill="#FAFAFA"/>
<path d="M97.0017 148.131V155.585L87.847 160.718V153.264L97.0017 148.131Z" fill="#E0E0E0"/>
<path d="M87.847 160.718L87.3116 160.416L87.847 160.114V160.718Z" fill="#E0E0E0"/>
<path d="M57.8563 136.434V137.568L58.8652 136.999L57.8563 136.434Z" fill="#E0E0E0"/>
<g opacity="0.3">
<path d="M87.3116 160.412V153.571L87.847 153.265V160.114L87.3116 160.412Z" fill="black"/>
</g>
<g style="mix-blend-mode:multiply" opacity="0.2">
<path d="M87.3116 153.571L58.3298 137.301L58.8652 136.999L87.847 153.265L87.3116 153.571Z" fill="black"/>
</g>
<path d="M58.8386 135.882L88.8381 152.713L89.5991 152.281L59.6041 135.455L58.8386 135.882Z" fill="#455A64"/>
<path d="M65.25 132.284L95.2495 149.115L96.0106 148.688L66.0155 131.857L65.25 132.284Z" fill="#455A64"/>
<path d="M88.8381 152.713V160.162L89.5992 159.735V152.281L88.8381 152.713Z" fill="#263238"/>
<path d="M95.2495 149.115V156.564L96.015 156.137L96.0106 148.688L95.2495 149.115Z" fill="#263238"/>
<path d="M102.311 69.3874C102.333 68.8138 102.192 68.4558 101.931 68.3177C101.931 68.3134 101.935 68.3134 101.935 68.3134L101.9 68.2919C101.621 68.1711 99.7715 67.0971 99.506 66.959C99.506 66.9547 99.5104 66.9547 99.5104 66.9547L99.475 66.9332C99.1962 66.8124 98.7847 66.9288 98.2892 67.2955C93.3512 70.979 86.5593 71.8762 81.3912 69.6592C80.6789 69.1459 80.0196 68.5593 79.4311 67.8907C79.4001 67.8562 79.3736 67.8217 79.3426 67.7915H79.3382C79.17 67.6103 79.0063 67.4766 78.8382 67.3904C78.8382 67.3904 76.5816 66.1136 76.4179 66.0274L76.3338 65.9799C75.7807 65.7254 75.2719 65.9842 74.94 66.7865C70.2542 78.1391 60.2677 89.6427 53.6041 92.5197C53.1085 92.7354 52.6483 93.0675 52.2944 93.473C51.8253 94.0035 51.5333 94.6548 51.5554 95.332C51.5554 109.928 59.7588 133.25 75.2984 141.044C76.2187 141.631 77.1701 142.162 78.1479 142.627C99.5281 121.13 102.316 86.6924 102.316 69.3961L102.311 69.3874Z" fill="#407BFF"/>
<path opacity="0.4" d="M101.9 68.2878C101.621 68.167 101.21 68.2835 100.714 68.6501C94.9663 72.9376 86.6966 73.4552 81.4091 69.6594C86.5771 71.8679 93.3646 70.975 98.2937 67.2871C98.7893 66.9205 99.2008 66.804 99.4796 66.9248L99.5149 66.9464C99.5149 66.9464 99.5105 66.9464 99.5105 66.9507C99.7716 67.0887 101.621 68.1584 101.9 68.2835V68.2878Z" fill="white"/>
<path d="M78.7498 67.3346C78.1967 67.0801 77.6879 67.3389 77.356 68.1411C72.6703 79.4981 62.6837 90.9974 56.0201 93.8744C55.5245 94.09 55.0644 94.4222 54.7104 94.8276C54.5157 95.0562 54.3476 95.2978 54.2192 95.5609L51.8033 94.2022C51.9272 93.9391 52.0909 93.6889 52.2856 93.4689C52.644 93.0635 53.1042 92.7313 53.5954 92.5157C60.2545 89.6387 70.2411 78.1351 74.9313 66.7825C75.2631 65.9802 75.772 65.7171 76.3251 65.9759L76.4091 66.0233C76.4888 66.0621 76.9622 66.3296 77.4843 66.6229C77.9976 66.9119 78.5463 67.2267 78.7498 67.3389V67.3346Z" fill="#407BFF"/>
<path opacity="0.4" d="M78.7498 67.3346C78.1967 67.0801 77.6879 67.3389 77.356 68.1411C72.6703 79.4981 62.6837 90.9974 56.0201 93.8744C55.5245 94.09 55.0644 94.4222 54.7104 94.8276C54.5157 95.0562 54.3476 95.2978 54.2192 95.5609L51.8033 94.2022C51.9272 93.9391 52.0909 93.6889 52.2856 93.4689C52.644 93.0635 53.1042 92.7313 53.5954 92.5157C60.2545 89.6387 70.2411 78.1351 74.9313 66.7825C75.2631 65.9802 75.772 65.7171 76.3251 65.9759L76.4091 66.0233C76.4888 66.0621 76.9622 66.3296 77.4843 66.6229C77.9976 66.9119 78.5463 67.2267 78.7498 67.3389V67.3346Z" fill="white"/>
<path opacity="0.3" d="M75.2631 141.014C59.7412 133.216 51.5511 109.907 51.5511 95.3235C51.5378 94.9267 51.6396 94.5514 51.8077 94.1978L54.2236 95.5564C54.0511 95.9101 53.9626 96.2897 53.9714 96.6822C53.9714 110.498 61.3032 132.125 75.2631 141.014Z" fill="black"/>
<path d="M102.311 69.3874C102.311 86.6838 99.5238 121.126 78.1436 142.619C62.3209 135.049 53.9715 111.416 53.9715 96.6864C53.9493 96.0049 54.2414 95.3535 54.7104 94.8273C55.0688 94.4219 55.5289 94.0897 56.0201 93.8741C62.6793 90.9971 72.6658 79.4935 77.356 68.1409C77.6879 67.3386 78.1967 67.0755 78.7498 67.3343L78.8339 67.3817C79.002 67.468 79.1657 67.6017 79.3339 67.7828H79.3383C79.3693 67.813 79.3958 67.8476 79.4268 67.8821C84.4001 73.5239 94.1787 73.5196 100.705 68.6498C101.201 68.2832 101.612 68.1667 101.891 68.2875L101.926 68.3091C101.926 68.3091 101.922 68.3091 101.922 68.3134C102.183 68.4514 102.329 68.8094 102.302 69.3831L102.311 69.3874Z" fill="#407BFF"/>
<path opacity="0.1" d="M102.311 69.3874C102.311 86.6838 99.5238 121.126 78.1436 142.619C62.3209 135.049 53.9715 111.416 53.9715 96.6864C53.9493 96.0049 54.2414 95.3535 54.7104 94.8273C55.0688 94.4219 55.5289 94.0897 56.0201 93.8741C62.6793 90.9971 72.6658 79.4935 77.356 68.1409C77.6879 67.3386 78.1967 67.0755 78.7498 67.3343L78.8339 67.3817C79.002 67.468 79.1657 67.6017 79.3339 67.7828H79.3383C79.3693 67.813 79.3958 67.8476 79.4268 67.8821C84.4001 73.5239 94.1787 73.5196 100.705 68.6498C101.201 68.2832 101.612 68.1667 101.891 68.2875L101.926 68.3091C101.926 68.3091 101.922 68.3091 101.922 68.3134C102.183 68.4514 102.329 68.8094 102.302 69.3831L102.311 69.3874Z" fill="white"/>
<path d="M78.7542 67.3344C78.2011 67.0799 77.6923 67.3387 77.3604 68.141C72.6747 79.4936 62.6881 90.9972 56.0245 93.8742C55.5289 94.0899 55.0688 94.422 54.7148 94.8275C54.2458 95.358 53.9538 96.0093 53.9759 96.6865C53.9759 111.416 62.3253 135.049 78.148 142.619C88.7806 102.548 78.7586 67.3344 78.7586 67.3344H78.7542Z" fill="#407BFF"/>
<path opacity="0.05" d="M78.7542 67.3344C78.2011 67.0799 77.6923 67.3387 77.3604 68.141C72.6747 79.4936 62.6881 90.9972 56.0245 93.8742C55.5289 94.0899 55.0688 94.422 54.7148 94.8275C54.2458 95.358 53.9538 96.0093 53.9759 96.6865C53.9759 111.416 62.3253 135.049 78.148 142.619C88.7806 102.548 78.7586 67.3344 78.7586 67.3344H78.7542Z" fill="black"/>
<path opacity="0.4" d="M86.8205 75.12C92.1567 76.4485 96.8867 74.1668 99.5902 72.8081C99.5902 72.8081 100.219 103.333 89.4355 123.075C93.6876 107.655 94.7319 103.243 95.0372 91.8126C95.3336 80.5764 90.8647 77.9194 86.8205 75.1157V75.12Z" fill="white"/>
<path d="M79.6038 118.192L68.8606 111.377L72.0685 106.568L77.4711 109.997L88.7762 89.6855L93.9487 92.4202L79.6038 118.192Z" fill="white"/>
<path d="M82.9843 100.094L77.4711 109.997L72.0685 106.568L68.8606 111.373L79.6038 118.192L82.8073 112.434C83.0329 108.108 83.0727 103.976 82.9843 100.089V100.094Z" fill="#F0F0F0"/>
<path d="M138.55 162.24L136.899 161.472L138.523 161.023L138.55 162.24Z" fill="#263238"/>
<path d="M122.236 165.268C122.236 165.268 141.612 156.697 141.864 157.957C141.917 158.233 141.912 158.487 141.859 158.716C141.877 158.695 141.895 158.673 141.912 158.647L141.572 161.002C141.572 161.002 140.191 162.154 138.554 162.24C138.554 162.128 138.536 161.425 138.528 161.028C138.001 161.244 137.461 161.502 136.82 161.917C135.581 162.719 134.789 164.112 133.475 165.734C132.519 166.916 130.806 167.476 128.262 167.839C125.528 168.231 123.107 167.74 122.422 167.036C121.877 166.476 122.138 165.436 122.236 165.272V165.268Z" fill="#263238"/>
<path d="M122.771 164.828C122.957 164.638 123.643 163.896 124.576 163.09C125.391 162.382 126.342 161.494 127.364 160.769C127.771 160.48 128.399 160.019 128.749 159.652C129.085 159.298 129.408 158.936 129.709 158.552C130.638 157.362 131.391 156.059 132.028 154.705C132.329 154.062 132.705 153.385 132.833 152.686C132.97 151.948 133.045 151.202 133.05 150.452C133.05 147.074 132.97 146.539 132.939 143.969L141.156 144.176C140.895 145.603 140.501 147.549 140.368 149.171C140.169 151.634 140.103 152.181 141.12 154.631C141.421 155.352 141.864 156.046 141.904 156.818C141.974 158.078 140.952 159.173 139.811 159.794C138.864 160.312 137.767 160.536 136.846 161.088C135.877 161.666 135.129 162.533 134.444 163.392C133.793 164.202 133.275 165.156 132.364 165.729C131.351 166.363 130.382 166.566 129.205 166.803C127.851 167.075 126.112 167.118 124.953 167.036C122.935 166.898 121.426 166.2 122.776 164.819L122.771 164.828Z" fill="#FFBDA7"/>
<path d="M130.329 160.925C128.908 160.217 127.63 160.519 127.311 160.679C125.886 161.779 124.705 162.758 123.873 163.444C122.864 164.276 121.979 165.031 122.023 165.976C122.094 167.455 128.068 167.861 131.391 166.437C133.125 165.842 133.736 164.436 133.736 164.436C133.736 164.436 133.227 162.37 130.329 160.925ZM141.638 155.533C141.12 154.584 140.926 154.101 140.926 154.101C139.771 154.714 137.775 157.517 138.718 160.317C139.771 160.045 140.797 159.648 141.629 158.384C142.258 157.427 142.156 156.482 141.638 155.533Z" fill="#37474F"/>
<path d="M156.74 156.633C156.2 157.483 156.881 160.666 156.749 162.939C156.629 165.001 156.054 168.598 156.691 170.634C157.443 173.045 158.983 175.844 161.877 173.567C163.669 172.156 164.704 170.341 164.961 167.369C165.138 165.303 164.315 162.452 163.607 159.924C162.779 156.969 162.47 155.391 162.47 155.391L156.744 156.629L156.74 156.633Z" fill="#263238"/>
<path d="M162.54 141.364C162.753 146.177 162.169 149.559 162.133 152.643C162.169 154.079 162.266 155.291 162.594 156.805C163.014 158.772 163.735 161.507 164.036 162.784C164.456 164.565 164.775 165.687 164.133 167.688C164.085 167.843 164.009 167.994 163.921 168.141C163.023 169.789 160.74 171.031 160.005 170.832C159.802 171.156 159.284 171.354 158.718 171.264C158.638 171.251 158.554 171.233 158.474 171.208C158.395 171.182 158.31 171.152 158.231 171.113C157.744 170.884 157.284 170.414 157.014 169.599C156.97 169.465 156.93 169.318 156.895 169.163C156.364 166.683 156.642 165.022 156.656 164.047C156.673 162.71 156.642 161.416 156.541 159.609C156.439 157.802 156.133 152.276 155.479 149.563C154.992 147.67 154.386 145.298 153.744 142.766L162.536 141.364H162.54Z" fill="#FFBDA7"/>
<path d="M164.478 165.104C162.678 164.345 157.452 164.237 156.62 166.67C156.598 168.96 156.585 170.513 158.098 172.506C160.107 175.154 162.726 172.346 163.735 170.565C164.74 168.783 164.726 166.338 164.483 165.104H164.478Z" fill="#37474F"/>
<path d="M155.731 78.4799C158.275 82.845 160.328 86.5242 160.992 98.058C161.74 111.071 161.629 116.027 161.695 117.597C161.762 119.167 162.819 122.049 163.717 129.782C164.616 137.516 163.669 156.266 163.669 156.266C163.669 156.266 163.032 157.53 159.943 157.815C157.094 158.078 155.417 157.12 155.417 157.12C155.417 157.12 150.886 132.5 149.766 127.846C148.647 123.192 145.386 107.884 145.386 107.884L144.315 122.493C144.315 122.493 145.218 126.759 144.399 133.552C143.581 140.346 141.479 153.186 141.479 153.186C141.479 153.186 140.266 154.36 136.541 154.291C132.576 154.217 131.749 153.161 131.749 153.161C131.749 153.161 130.86 125.547 130.802 117.852C130.745 110.157 130.276 90.1819 132.718 78.7732L155.731 78.4756V78.4799Z" fill="#455A64"/>
<path d="M134.337 89.8115C135.572 92.9818 140.001 95.173 141.943 95.6043L144.311 107.729V122.498L145.386 107.889L142.727 93.1112C142.727 93.1112 137.346 92.7791 134.337 89.8115ZM152.713 88.1337C153.041 89.3802 153.337 90.6354 153.656 91.8862C153.965 93.1414 154.275 94.3966 154.611 95.6604C154.633 94.3535 154.501 93.0551 154.315 91.7698C154.129 90.4801 153.868 89.2034 153.549 87.9396C153.218 86.6801 152.837 85.4249 152.359 84.2042C151.881 82.9836 151.324 81.7845 150.585 80.6846C151.001 81.9268 151.372 83.1604 151.722 84.3983C152.067 85.6406 152.403 86.8828 152.718 88.1337H152.713ZM154.979 85.7139C155.421 86.4644 155.841 87.2235 156.266 87.9827L157.523 90.3033C157.439 89.419 157.195 88.5564 156.881 87.7239C156.572 86.8871 156.169 86.0892 155.731 85.3171C155.275 84.5493 154.78 83.8031 154.218 83.1043C153.66 82.4013 153.054 81.737 152.364 81.1418C152.771 81.9397 153.218 82.6989 153.66 83.4537C154.098 84.2129 154.549 84.9591 154.979 85.7139ZM153.226 120.859C152.421 116.878 151.837 112.853 151.262 108.825C150.7 104.796 150.142 100.759 149.527 96.7301C149.815 100.793 150.151 104.852 150.603 108.902C151.045 112.952 151.594 116.998 152.386 121.014C153.235 125.017 154.089 128.989 154.992 132.971C155.886 136.947 156.833 140.916 157.837 144.875C157.16 140.855 156.434 136.844 155.647 132.841C154.877 128.843 154.049 124.836 153.226 120.859ZM134.652 107.703L135.267 97.0881C134.722 100.599 134.306 104.127 133.988 107.66C133.683 111.201 133.395 114.725 133.408 118.314C133.559 121.881 133.66 135.998 134.121 139.518C134.439 135.576 134.337 125.176 134.337 125.176C134.231 123.412 134.315 120.044 134.267 118.292C134.222 116.545 134.32 114.773 134.39 113.009C134.461 111.24 134.567 109.472 134.656 107.703H134.652Z" fill="#37474F"/>
<path d="M118.669 19.7026C122.846 20.7939 126.634 24.5767 128.59 28.4328C137.271 28.6312 147.895 32.2803 157.633 37.9997L167.434 9.72595C151.138 5.4989 134.877 7.00425 118.674 19.7026H118.669Z" fill="#407BFF"/>
<path d="M199.996 46.484C195.996 44.8838 190.629 45.6516 186.677 47.5624C179.651 42.5891 168.934 39.2075 157.633 37.9954L167.43 9.72168C183.014 15.9932 195.013 26.8067 199.991 46.484H199.996Z" fill="#407BFF"/>
<path opacity="0.25" d="M199.996 46.484C195.996 44.8838 190.629 45.6516 186.677 47.5624C179.651 42.5891 168.934 39.2075 157.633 37.9954L167.43 9.72168C183.014 15.9932 195.013 26.8067 199.991 46.484H199.996Z" fill="black"/>
<path d="M128.59 28.4329C137.267 28.6313 147.899 32.2804 157.633 37.9998L167.43 9.73039C156.063 8.34582 139.315 15.2212 128.59 28.4372V28.4329Z" fill="#407BFF"/>
<path opacity="0.15" d="M128.59 28.4329C137.267 28.6313 147.899 32.2804 157.633 37.9998L167.43 9.73039C156.063 8.34582 139.315 15.2212 128.59 28.4372V28.4329Z" fill="black"/>
<path opacity="0.15" d="M199.996 46.484C195.013 26.8067 183.018 15.9975 167.434 9.72168C177.332 15.3419 186.372 30.7103 186.682 47.5624C190.633 45.6516 196 44.8838 200 46.484H199.996Z" fill="black"/>
<path d="M149.465 50.2278C148.873 50.8403 148.687 51.483 147.731 51.1854C146.912 50.9309 146.311 50.3184 145.647 49.8138C144.78 49.1581 143.93 48.4853 143.094 47.7908C141.452 46.4235 139.873 44.9785 138.373 43.4646C137.514 42.5976 136.492 41.6314 135.97 40.5229C135.466 39.4446 135.125 38.2455 135.236 37.0507C135.466 34.5921 137.028 31.3959 141.665 30.4815C145.527 29.718 152.908 30.5419 153.85 35.4289C153.899 35.6834 154.474 36.0284 154.638 36.257C154.926 36.6582 155.164 37.0938 155.35 37.551C155.726 38.4611 155.895 39.4532 155.824 40.4323C155.664 42.6882 154.328 44.6896 152.877 46.458C151.802 47.7693 150.642 49.0115 149.465 50.2322V50.2278Z" fill="#263238"/>
<path d="M129.461 59.2559C125.908 63.2198 122.754 66.3944 122.754 66.3944C122.762 66.3815 121.714 65.5404 121.656 65.4886C120.488 64.5138 119.333 63.5217 118.227 62.4822C116.962 61.2961 115.802 60.0409 115.378 58.3113C115.285 57.936 115.245 57.5478 115.209 57.1639C115.099 56.0554 114.988 54.9512 114.882 53.8427C114.829 53.3121 114.696 52.7342 114.723 52.2036C114.74 51.8672 114.922 51.4617 114.855 51.121C114.78 50.7155 114.249 50.5732 113.515 51.259C113.059 51.686 112.878 52.3805 112.749 52.8377C112.603 53.3423 112.546 53.998 112.364 54.0281C112.183 54.0583 111.581 53.4545 110.913 53.0447C110.24 52.6349 109.705 52.1174 108.816 52.0828C107.926 52.0527 107.714 52.7989 107.727 53.0965C107.74 53.407 107.993 53.7176 107.993 53.7176C107.993 53.7176 107.59 53.5105 107.134 53.6917C106.679 53.8772 106.413 54.6665 106.634 55.0633C106.634 55.0633 106.121 54.8822 105.825 55.3998C105.577 55.8354 105.466 56.3185 105.882 56.6593C105.882 56.6593 105.457 56.6204 105.351 56.8361C105.249 57.0518 104.949 57.7247 105.254 58.1172C105.559 58.5097 106.51 58.8849 106.51 58.8849C106.51 58.8849 106.524 59.0747 106.9 59.4586C107.033 59.5923 107.444 60.4809 107.975 61.033C108.701 61.7921 109.413 62.0035 110.267 62.4822C111.656 63.2629 113.161 65.6827 114.727 68.0723C116.594 70.9191 118.152 73.4855 120.099 75.3143C122.523 77.5961 124.112 77.3718 127.183 74.3913C130.913 70.7681 134.983 65.7647 134.983 65.7647L136.452 54.4552C133.678 54.7744 132.315 56.0683 129.466 59.2473L129.461 59.2559Z" fill="#FFBDA7"/>
<path d="M108.298 58.1041C108.289 58.1817 108.249 58.2292 108.218 58.2939C108.183 58.3715 108.134 58.4362 108.077 58.5009C107.993 58.5915 107.904 58.6821 107.794 58.7425C107.727 58.7813 107.652 58.8029 107.577 58.8244C107.351 58.8848 107.134 58.8891 106.904 58.8891C106.771 58.8891 106.643 58.8934 106.51 58.8978C106.679 58.9625 106.851 59.0056 107.033 59.0272C107.245 59.0487 107.475 59.0228 107.683 58.9711C107.732 58.9581 107.78 58.9452 107.829 58.9236C107.957 58.8676 108.068 58.777 108.152 58.6648C108.236 58.5527 108.325 58.3931 108.338 58.2508C108.338 58.2378 108.347 58.1084 108.329 58.1084C108.479 58.1214 108.621 58.1084 108.763 58.0955C108.975 58.061 109.214 58.0653 109.422 57.91C109.519 57.8281 109.577 57.7418 109.639 57.6383C109.656 57.6081 109.67 57.5693 109.674 57.5347L109.895 57.3752C109.895 57.3752 109.829 57.8928 110.187 58.7209C110.546 59.5491 111.245 60.0451 111.245 60.0451C111.245 60.0451 110.727 59.6095 110.444 58.5354C110.201 57.6124 110.683 56.5599 111.09 56.0768C111.103 56.0768 111.117 56.0768 111.13 56.0768C111.227 56.051 111.294 55.9949 111.347 55.9431C111.466 55.8224 111.515 55.6585 111.519 55.5118C111.519 55.3608 111.493 55.2185 111.444 55.0848C111.254 54.5413 110.811 54.1488 110.342 53.8598C110.329 53.7304 110.289 53.6183 110.245 53.5104C110.192 53.394 110.125 53.2861 110.05 53.1826C110.112 53.2948 110.161 53.4112 110.205 53.5277C110.245 53.6441 110.276 53.7692 110.271 53.8857V53.9073L110.289 53.9202C110.732 54.2351 111.13 54.6405 111.289 55.1409C111.369 55.3781 111.386 55.6714 111.223 55.8267C111.121 55.9173 111.068 55.9345 110.948 55.8741C110.833 55.8224 110.709 55.7447 110.581 55.6843C110.325 55.5549 110.063 55.4644 109.816 55.3479C109.572 55.2314 109.347 55.0848 109.134 54.9123C108.926 54.7397 108.736 54.5413 108.537 54.3472C108.342 54.1531 108.148 53.959 107.984 53.739C108.271 54.2092 108.643 54.6233 109.041 55.0115C109.245 55.2012 109.479 55.3738 109.736 55.4946C109.988 55.6196 110.254 55.7188 110.493 55.8439C110.541 55.8698 110.59 55.8957 110.639 55.9216C110.705 56.0337 110.732 56.1588 110.705 56.2796C110.665 56.4996 110.475 56.6505 110.254 56.698C110.024 56.7584 109.794 56.8144 109.568 56.8274C109.338 56.8274 109.09 56.836 108.891 56.7627C108.475 56.6074 108.13 56.2494 107.758 55.9604C107.387 55.6628 107.015 55.3652 106.625 55.0891C106.962 55.4299 107.307 55.749 107.661 56.0725C107.833 56.2321 108.015 56.3874 108.201 56.5427C108.386 56.6937 108.586 56.8489 108.833 56.9352C108.988 56.974 109.139 56.9913 109.294 56.9956C109.422 57.0862 109.528 57.1983 109.572 57.3363C109.603 57.4269 109.59 57.5218 109.541 57.5994C109.488 57.6771 109.413 57.7677 109.342 57.8151C109.187 57.91 108.962 57.9229 108.754 57.9445C108.541 57.9618 108.325 57.9704 108.152 57.9014C107.971 57.8367 107.829 57.6814 107.643 57.5477C107.462 57.4183 107.267 57.3105 107.072 57.2199C106.683 57.0258 106.289 56.8489 105.882 56.6893C106.254 56.9136 106.63 57.125 107.002 57.345C107.183 57.4571 107.373 57.5606 107.537 57.6857C107.701 57.8065 107.847 57.9833 108.077 58.0782C108.152 58.1041 108.223 58.117 108.298 58.1257V58.1041ZM110.727 55.9647C110.727 55.9647 110.727 55.9561 110.723 55.9518C110.723 55.9518 110.723 55.9604 110.727 55.9647Z" fill="#F0997A"/>
<path d="M122.758 66.3941C123.86 67.2137 125.223 68.4171 125.351 70.4055C125.678 68.1583 124.404 66.3985 123.271 65.7515L122.758 66.3941Z" fill="#F28F8F"/>
<path d="M136.855 54.2349C133.302 54.6101 132.006 56.1715 129.054 59.4151C126.466 62.2619 122.758 66.0792 122.758 66.0792L117.369 61.6408C117.369 61.6408 117.687 62.7364 116.143 64.4833C114.855 65.9369 112.997 65.6349 112.997 65.6349C112.997 65.6349 115.143 69.1675 117.917 73.153C120.727 77.1946 122.992 77.5958 124.988 76.5304C126.984 75.465 136.253 65.8808 136.253 65.8808L136.855 54.2392V54.2349Z" fill="#37474F"/>
<path d="M122.758 66.0795C124.559 67.5503 125.603 70.4359 125.82 72.0663C126.125 68.3094 123.594 65.2168 123.594 65.2168L122.758 66.0795Z" fill="#263238"/>
<path d="M158.248 84.437C159.735 83.2595 158.58 81.146 157.757 75.1979C157.505 73.3647 158.713 68.8228 158.713 68.8228C158.713 68.8228 155.226 63.6986 156.355 54.8003L150.943 53.8125L142.134 53.6831L137.067 54.5113C135.899 55.5163 134.749 57.289 133.045 59.6915C130.594 63.1594 130.152 67.8394 132.798 70.5999C132.837 71.1434 132.917 74.8528 132.678 76.9965C132.346 79.9684 130.647 82.8583 132.417 84.3249C137.59 88.608 151.226 88.9056 158.244 84.4327L158.248 84.437Z" fill="#407BFF"/>
<path opacity="0.2" d="M158.248 84.437C159.735 83.2595 158.58 81.146 157.757 75.1979C157.505 73.3647 158.713 68.8228 158.713 68.8228C158.713 68.8228 155.226 63.6986 156.355 54.8003L150.943 53.8125L142.134 53.6831L137.067 54.5113C135.899 55.5163 134.749 57.289 133.045 59.6915C130.594 63.1594 130.152 67.8394 132.798 70.5999C132.837 71.1434 132.917 74.8528 132.678 76.9965C132.346 79.9684 130.647 82.8583 132.417 84.3249C137.59 88.608 151.226 88.9056 158.244 84.4327L158.248 84.437Z" fill="white"/>
<path d="M152.023 47.4068C153.041 47.588 154.005 47.1092 154.62 46.4622C155.992 45.0215 156.12 43.555 155.483 42.5759C154.961 41.7736 153.669 41.2603 152.762 41.7995C151.793 42.3775 151.762 42.8519 151.395 43.5119C151.019 44.1848 150.089 43.6542 150.408 41.0188C149.855 40.7686 149.479 40.3071 149.213 39.7852C149.151 39.6644 148.656 38.1806 148.669 38.1849C147.536 37.9607 146.519 37.2446 145.943 36.2698C145.921 36.7529 146.032 37.2446 146.262 37.676C145.452 37.6285 144.629 37.5768 143.855 37.3438C143.081 37.1109 142.337 36.6753 141.899 36.011C141.842 36.7443 141.961 37.4905 142.244 38.172C140.514 37.8787 139.063 36.4035 138.833 34.7041C138.174 35.7436 137.475 36.6839 137.174 37.883C136.886 39.0433 136.74 40.2381 136.625 41.4242C136.169 46.1991 136.598 48.6577 138.067 49.956C138.859 50.6547 140.16 51.4096 142.2 51.4743L142.134 53.6956C142.134 53.6956 137.121 58.3367 143.585 57.8795C148.43 57.5388 150.912 53.907 150.912 53.907L150.957 46.6649C150.957 46.6649 151.063 47.2429 152.027 47.4154L152.023 47.4068Z" fill="#FFBDA7"/>
<path d="M141.408 46.5573C141.563 47.3035 142.324 47.7909 143.103 47.6443C143.886 47.4976 144.39 46.7687 144.235 46.0225L141.404 46.5616L141.408 46.5573Z" fill="#B16668"/>
<path d="M144.249 46.471C144.169 47.0404 143.727 47.5235 143.107 47.6443C142.935 47.6788 142.762 47.6745 142.598 47.6486C142.718 46.8894 143.457 46.3632 144.253 46.471H144.249Z" fill="#F28F8F"/>
<path d="M144.638 39.0779L146.496 40.0269C146.793 39.5395 146.616 38.9356 146.103 38.6725C145.589 38.4094 144.935 38.5905 144.638 39.0779Z" fill="#263238"/>
<path d="M139.612 38.8665L137.753 39.8154C137.457 39.328 137.634 38.7242 138.147 38.4611C138.66 38.1979 139.315 38.3791 139.612 38.8665Z" fill="#263238"/>
<path d="M145.673 41.3121C145.673 41.7262 145.328 42.0583 144.908 42.0583C144.488 42.0583 144.143 41.7219 144.143 41.3121C144.143 40.9024 144.488 40.5659 144.908 40.5659C145.328 40.5659 145.673 40.9024 145.673 41.3121Z" fill="#263238"/>
<path d="M139.767 41.0841C139.767 41.4982 139.421 41.8303 139.001 41.8303C138.581 41.8303 138.236 41.4939 138.236 41.0841C138.236 40.6743 138.581 40.3379 139.001 40.3379C139.421 40.3379 139.767 40.6743 139.767 41.0841Z" fill="#263238"/>
<path d="M139.262 43.3481L141.877 44.6896L142.722 39.5093L139.262 43.3481Z" fill="#F0997A"/>
<path d="M142.2 51.4658C144.731 51.3752 148.731 50.34 149.886 47.627C149.209 50.4996 146.74 51.5089 145.32 51.8928C143.589 52.3587 142.218 52.4061 142.218 52.4061L142.2 51.4701V51.4658Z" fill="#F0997A"/>
<path d="M142.12 53.0659L142.134 53.687C142.134 53.687 138.563 56.2966 135.921 60.5409C133.28 64.7852 134.076 70.0992 133.944 75.5728C133.811 81.0464 134.107 92.6578 134.107 92.6578C134.107 92.6578 131.616 92.1661 130.342 90.3071C130.342 87.2575 131.231 76.8625 131.289 73.6059C131.337 70.9748 131.165 69.6549 130.727 67.2438C130.289 64.8326 130.674 60.0449 136.855 54.2391L142.12 53.0659Z" fill="#263238"/>
<path d="M150.912 53.2168C150.912 53.2168 148.51 58.4488 148.43 63.7844C148.35 69.1157 150.594 95.0085 150.594 95.0085C150.594 95.0085 158.961 95.6598 162.956 92.2307C162.08 88.0295 160.107 81.8874 159.403 79.2433C158.7 76.5949 158.31 74.4469 158.961 71.6864C159.611 68.9302 160.191 67.1186 160.191 67.1186L156.983 54.5582L150.912 53.2211V53.2168Z" fill="#263238"/>
<path d="M165.567 15.1175L165.784 15.1521C165.85 15.1607 165.939 15.1736 166.036 15.1909C166.107 15.1952 166.2 15.2038 166.257 15.1995C166.589 15.2124 166.509 15.0442 166.589 14.8889C166.7 14.5654 166.855 14.0996 167.04 13.5432C167.408 12.4304 167.872 10.9336 168.288 9.42398C168.501 8.66915 168.695 7.91 168.863 7.19399C168.947 6.83599 169.04 6.49092 169.107 6.16311C169.178 5.83099 169.244 5.52043 169.31 5.23144C169.377 4.94245 169.421 4.67502 169.465 4.43779C169.509 4.20056 169.549 3.99352 169.576 3.8253C169.633 3.48455 169.66 3.28613 169.66 3.28613C169.66 3.28613 169.558 3.45867 169.394 3.76491C169.31 3.91588 169.208 4.10135 169.102 4.31701C168.992 4.53268 168.859 4.76991 168.735 5.03734C168.607 5.30476 168.465 5.59375 168.315 5.89569C168.164 6.19762 168.023 6.52543 167.868 6.86187C167.558 7.53043 167.24 8.25076 166.939 8.97539C166.332 10.4247 165.77 11.8869 165.368 12.9911C165.169 13.5432 165.005 14.0047 164.89 14.3282C164.859 14.4964 164.691 14.5827 164.965 14.7725C165.009 14.8113 165.089 14.8587 165.147 14.8976C165.235 14.945 165.31 14.9838 165.372 15.0183C165.496 15.083 165.563 15.1175 165.563 15.1175H165.567Z" fill="#263238"/>
<path d="M146.536 67.6884L163.505 18.5339C163.638 18.1544 164.058 17.9516 164.448 18.081C164.837 18.2104 165.045 18.6202 164.912 18.9998L147.943 68.1543C147.55 68.4217 146.612 68.0939 146.536 67.6928V67.6884Z" fill="#E0E0E0"/>
<path d="M145.948 67.4682L143.935 72.5277C142.868 75.3659 141.12 75.7066 139.457 75.0769C137.731 74.4255 137.877 71.747 138.315 70.66C138.753 69.5731 137.028 68.4042 136.178 69.8621C135.329 71.32 134.514 75.7842 138.652 77.3629C141.001 78.2601 143.395 77.3974 144.616 76.3191C145.169 75.8274 145.687 75.2839 146.2 74.0028L148.426 68.3999L145.943 67.4639L145.948 67.4682Z" fill="#455A64"/>
<path d="M146.461 67.149C147.05 67.0325 147.85 67.2913 148.249 67.727C148.647 68.1626 148.496 68.6155 147.908 68.732C147.319 68.8484 146.519 68.5896 146.12 68.154C145.722 67.7183 145.873 67.2655 146.461 67.149Z" fill="#455A64"/>
<path d="M161.996 25.4046C171.058 26.7504 179.045 30.4469 185.956 36.4941C193.314 38.2971 197.673 41.8125 199.991 46.4838C195.73 26.5261 182.478 14.6817 167.43 9.72141C152.377 4.76541 134.47 6.3484 118.669 19.6981C123.422 17.356 129.072 17.136 136.045 20.0518C145.302 19.3272 153.957 21.1129 161.996 25.4003V25.4046Z" fill="#407BFF"/>
<g opacity="0.2">
<path d="M161.996 25.4046C171.058 26.7504 179.045 30.4469 185.956 36.4941C193.314 38.2971 197.673 41.8125 199.991 46.4838C195.73 26.5261 182.478 14.6817 167.43 9.72141C152.377 4.76541 134.47 6.3484 118.669 19.6981C123.422 17.356 129.072 17.136 136.045 20.0518C145.302 19.3272 153.957 21.1129 161.996 25.4003V25.4046Z" fill="white"/>
</g>
<path d="M136.045 20.0563C145.306 19.3317 153.957 21.1174 161.996 25.4048L167.43 9.72595C150.235 4.06257 136.041 20.0563 136.041 20.0563H136.045Z" fill="#407BFF"/>
<path opacity="0.1" d="M136.045 20.0563C145.306 19.3317 153.957 21.1174 161.996 25.4048L167.43 9.72595C150.235 4.06257 136.041 20.0563 136.041 20.0563H136.045Z" fill="white"/>
<path d="M185.96 36.4945C179.049 30.4429 171.058 26.7507 161.996 25.405L167.43 9.72607C184.624 15.3895 185.96 36.4945 185.96 36.4945Z" fill="#407BFF"/>
<path d="M199.996 46.484C195.735 26.5263 182.483 14.682 167.434 9.72168C184.629 15.3851 185.96 36.4944 185.96 36.4944C193.319 38.2974 197.677 41.8127 199.996 46.484Z" fill="#407BFF"/>
<path opacity="0.15" d="M199.996 46.484C195.735 26.5263 182.483 14.682 167.434 9.72168C184.629 15.3851 185.96 36.4944 185.96 36.4944C193.319 38.2974 197.677 41.8127 199.996 46.484Z" fill="black"/>
<path d="M169.257 80.9048C164.859 81.582 157.328 79.132 152.094 78.7309C150.696 78.6273 149.501 78.7481 149.001 78.7567C147.116 78.7826 146.112 77.1004 144.846 76.1127C144.78 76.0652 144.718 76.0178 144.651 75.9703C144.381 75.7806 144.085 75.6167 143.758 75.4959C142.983 75.0947 142.784 75.0042 142.554 74.6936C141.616 75.4786 140.66 75.3924 140.107 75.2716C139.771 74.7669 139.55 74.2234 139.713 73.9172C139.833 73.7015 140.028 73.6368 140.028 73.6368C140.028 73.6368 139.957 73.5204 139.886 72.9251C139.771 72.028 140.607 71.8468 141.143 71.6484C141.143 71.6484 140.979 71.1481 141.355 70.7728C141.727 70.3975 142.147 70.1215 144.16 69.3192C144.461 69.1984 144.758 69.0604 145.165 69.0647C145.213 69.0647 145.258 69.0647 145.311 69.069C145.704 69.0906 146.204 69.2373 146.904 69.6212C147.089 69.7247 147.342 69.8713 147.634 70.0439C147.669 70.0654 147.709 70.087 147.749 70.1085C149.253 70.9842 151.828 72.2954 152.793 72.606C153.974 72.9855 161.917 72.3299 161.917 72.3299L158.372 65.2216C158.372 65.2216 155.563 59.2649 156.886 55.1543C160.333 55.1845 162.156 55.6417 164.43 58.3505C166.695 61.0463 171.846 73.4298 172.341 75.6425C172.894 78.127 173.554 80.2405 169.257 80.9048Z" fill="#FFBDA7"/>
<path d="M161.523 71.5322L161.917 72.3345C163.952 72.3474 166.81 74.228 167.523 75.1209C166.766 73.6156 165.116 71.5883 161.523 71.5322Z" fill="#F0997A"/>
<path d="M141.143 71.6482L143.505 70.5742L141.112 71.3075C141.103 71.4283 141.112 71.5404 141.143 71.6482Z" fill="#F0997A"/>
<path d="M140.028 73.6367L142.793 72.5972L139.944 73.3175C139.957 73.421 139.988 73.5245 140.028 73.6324V73.6367Z" fill="#F0997A"/>
<path d="M156.987 54.5586C160.399 54.6535 163.328 55.4903 165.66 59.4413C167.987 63.3923 170.027 68.2404 171.58 72.5192C173.133 76.798 173.47 78.8986 172.208 80.0201C170.947 81.1415 168.748 81.5686 165.173 81.1804C161.598 80.7922 156.302 79.4766 156.302 79.4766C156.302 79.4766 157.204 77.9367 157.058 75.5342C156.912 73.1317 156.231 72.6572 156.231 72.6572L161.554 72.2087C161.554 72.2087 159.474 68.0851 158.067 65.234C156.66 62.3786 155.704 56.1286 156.983 54.5586H156.987Z" fill="#37474F"/>
<path d="M161.558 72.209C163.793 72.0451 166.567 72.6446 167.837 74.2837C166.563 71.411 162.682 71.1177 161.094 71.2773L161.563 72.2047L161.558 72.209Z" fill="#263238"/>
<path d="M120.581 42.1403L118.55 39.3021C120.811 34.4367 119.214 28.5318 114.519 25.4521C109.285 22.0187 102.161 23.3774 98.6389 28.4757C95.1212 33.5784 96.5106 40.5185 101.745 43.9519C106.44 47.0316 112.652 46.2509 116.422 42.3775L119.891 43.141C120.484 43.2704 120.931 42.6234 120.581 42.1403ZM116.877 40.4409C115.426 42.5458 113.311 43.9519 110.984 44.5903L109.807 44.8447C107.254 45.2459 104.55 44.7455 102.241 43.2316C97.4176 40.0656 96.1345 33.6646 99.3822 28.9631C100.935 26.7116 103.249 25.258 105.767 24.693L106.957 24.4945C109.355 24.2271 111.86 24.7577 114.019 26.1767C118.842 29.3427 120.125 35.7393 116.882 40.4409H116.877Z" fill="#455A64"/>
<path d="M114.019 26.1767C111.86 24.7576 109.355 24.2314 106.957 24.4945L105.767 24.6929C103.249 25.258 100.935 26.7159 99.3822 28.9631C96.1345 33.6646 97.4176 40.0656 102.241 43.2315C104.55 44.7455 107.254 45.2415 109.807 44.8447L110.984 44.5902C113.311 43.9562 115.426 42.5457 116.877 40.4408C120.125 35.7393 118.838 29.3384 114.015 26.1767H114.019Z" fill="white"/>
<path d="M106.829 39.9751C106.426 39.9751 106.041 39.8112 105.763 39.5265L102.457 36.0845C101.909 35.5108 101.935 34.6093 102.524 34.0745C103.112 33.5353 104.037 33.5655 104.586 34.1392L106.732 36.3734L111.816 30.0976C112.316 29.4808 113.232 29.3773 113.864 29.8603C114.497 30.3478 114.603 31.2406 114.108 31.8574L107.975 39.4316C107.714 39.7551 107.316 39.9535 106.891 39.9707C106.869 39.9707 106.851 39.9707 106.829 39.9707V39.9751Z" fill="#407BFF"/>
</svg>
