<svg width="200" height="200" viewBox="0 0 200 200" fill="none" xmlns="http://www.w3.org/2000/svg">
<path d="M200 175.757H0V175.891H200V175.757Z" fill="#E6E6E6"/>
<path d="M151.064 181.442H137.304V181.576H151.064V181.442Z" fill="#E6E6E6"/>
<path d="M44.416 181.506H36.672V181.641H44.416V181.506Z" fill="#E6E6E6"/>
<path d="M100.4 181.195H84.704V181.329H100.4V181.195Z" fill="#E6E6E6"/>
<path d="M84.3041 179.284H77.2881V179.418H84.3041V179.284Z" fill="#E6E6E6"/>
<path d="M169.824 179.348H148.628V179.482H169.824V179.348Z" fill="#E6E6E6"/>
<path d="M94.8 151.815H17.564C16.9589 151.813 16.379 151.49 15.9515 150.915C15.5241 150.34 15.284 149.561 15.284 148.749V3.03844C15.2892 2.23106 15.5316 1.45908 15.9585 0.890175C16.3854 0.321268 16.9624 0.00138307 17.564 0H94.8C95.4057 0 95.9867 0.322948 96.415 0.8978C96.8433 1.47265 97.084 2.25232 97.084 3.06528V148.749C97.084 149.562 96.8433 150.342 96.415 150.917C95.9867 151.492 95.4057 151.815 94.8 151.815ZM17.564 0.107366C16.9854 0.108788 16.4309 0.418223 16.0222 0.967751C15.6135 1.51728 15.384 2.262 15.384 3.03844V148.749C15.384 149.526 15.6135 150.27 16.0222 150.82C16.4309 151.369 16.9854 151.679 17.564 151.68H94.8C95.3789 151.679 95.9338 151.37 96.3431 150.82C96.7525 150.271 96.9829 149.526 96.984 148.749V3.03844C96.9829 2.2615 96.7525 1.5168 96.3431 0.967424C95.9338 0.418048 95.3789 0.108785 94.8 0.107366H17.564Z" fill="#E6E6E6"/>
<path d="M181.324 151.815H104.084C103.479 151.813 102.898 151.49 102.47 150.915C102.042 150.341 101.801 149.562 101.8 148.749V3.03844C101.806 2.23057 102.05 1.4586 102.477 0.88984C102.905 0.321081 103.482 0.00136799 104.084 0H181.324C181.925 0.00279391 182.501 0.323303 182.927 0.892059C183.353 1.46082 183.595 2.23199 183.6 3.03844V148.749C183.6 149.56 183.36 150.338 182.934 150.913C182.507 151.487 181.928 151.812 181.324 151.815ZM104.084 0.107366C103.505 0.108785 102.95 0.418048 102.541 0.967424C102.131 1.5168 101.901 2.2615 101.9 3.03844V148.749C101.901 149.526 102.131 150.271 102.541 150.82C102.95 151.37 103.505 151.679 104.084 151.68H181.324C181.903 151.679 182.458 151.37 182.867 150.82C183.276 150.271 183.507 149.526 183.508 148.749V3.03844C183.507 2.2615 183.276 1.5168 182.867 0.967424C182.458 0.418048 181.903 0.108785 181.324 0.107366H104.084Z" fill="#E6E6E6"/>
<path d="M169.212 10.001H114.7V95.249H169.212V10.001Z" fill="#E0E0E0"/>
<path d="M170.692 10.001H115.392V95.249H170.692V10.001Z" fill="#F5F5F5"/>
<path d="M169.212 95.2439H114.7V100.022H169.212V95.2439Z" fill="#E0E0E0"/>
<path d="M177.468 95.2439H125.408V100.022H177.468V95.2439Z" fill="#F5F5F5"/>
<path d="M168.62 91.631V13.614L117.468 13.614V91.631H168.62Z" fill="#FAFAFA"/>
<path d="M124.824 91.631L137 13.614H152.96L140.784 91.631H124.824Z" fill="white"/>
<path d="M143.368 91.631L155.54 13.614H162.748L150.576 91.631H143.368Z" fill="white"/>
<path d="M113.144 9.87758V40.2297H119.144C119.144 40.2297 129.892 30.8192 132.344 11.4558C132.402 10.9947 132.385 10.5221 132.293 10.0709C132.201 9.61975 132.037 9.20079 131.813 8.84319C131.588 8.48558 131.308 8.19791 130.992 8.00015C130.677 7.8024 130.333 7.69931 129.984 7.69806H114.784C114.57 7.69593 114.357 7.75071 114.158 7.85922C113.96 7.96774 113.779 8.12785 113.627 8.33038C113.474 8.53291 113.353 8.77385 113.27 9.03937C113.187 9.30489 113.145 9.58974 113.144 9.87758Z" fill="#E0E0E0"/>
<path d="M113.144 88.8824V42.6777H119.144C119.144 42.6777 122.584 52.0078 126.012 62.7336C126.924 65.5873 127.294 68.7002 127.088 71.7929C126.882 74.8857 126.108 77.8615 124.834 80.4535C123.56 83.0454 121.826 85.1724 119.789 86.6435C117.751 88.1147 115.474 88.884 113.16 88.8824H113.144Z" fill="#E0E0E0"/>
<path d="M118.952 40.2297H113.364C113.033 40.2297 112.764 40.5903 112.764 41.035V41.8724C112.764 42.3171 113.033 42.6777 113.364 42.6777H118.952C119.283 42.6777 119.552 42.3171 119.552 41.8724V41.035C119.552 40.5903 119.283 40.2297 118.952 40.2297Z" fill="#F5F5F5"/>
<path d="M172.4 9.87762V40.2298H166.4C166.4 40.2298 155.648 30.8192 153.2 11.4559C153.142 10.9952 153.159 10.5231 153.251 10.0723C153.342 9.62146 153.506 9.20279 153.73 8.84527C153.954 8.48776 154.234 8.19998 154.549 8.00189C154.864 7.80379 155.208 7.70013 155.556 7.6981H170.756C170.971 7.69527 171.184 7.74952 171.383 7.85771C171.582 7.96591 171.763 8.12591 171.916 8.32851C172.069 8.53111 172.19 8.77229 172.273 9.03816C172.357 9.30403 172.4 9.58933 172.4 9.87762Z" fill="#E0E0E0"/>
<path d="M172.44 88.8931V42.6885H166.44C166.44 42.6885 163 52.0132 159.568 62.7443C158.662 65.5989 158.298 68.7101 158.506 71.8C158.715 74.8899 159.491 77.8624 160.764 80.452C162.037 83.0417 163.768 85.1679 165.803 86.6408C167.837 88.1137 170.112 88.8875 172.424 88.8931H172.44Z" fill="#E0E0E0"/>
<path d="M166.58 42.6777H172.168C172.499 42.6777 172.768 42.3172 172.768 41.8725V41.035C172.768 40.5903 172.499 40.2298 172.168 40.2298H166.58C166.249 40.2298 165.98 40.5903 165.98 41.035V41.8725C165.98 42.3172 166.249 42.6777 166.58 42.6777Z" fill="#F5F5F5"/>
<path d="M80.356 47.5576H56.344V82.8325H80.356V47.5576Z" fill="#E0E0E0"/>
<path d="M83.732 47.5576H57.644V82.8325H83.732V47.5576Z" fill="#FAFAFA"/>
<path d="M81.04 79.225V51.1704H60.332V79.225H81.04Z" fill="white"/>
<path d="M65.2 65.1974C65.201 63.44 65.7219 61.7551 66.6483 60.5129C67.5746 59.2708 68.8305 58.573 70.14 58.573H71.252C72.5607 58.5744 73.8156 59.2728 74.7411 60.5148C75.6665 61.7568 76.1869 63.441 76.188 65.1974C76.188 66.0674 76.0603 66.9288 75.8122 67.7325C75.5642 68.5362 75.2006 69.2665 74.7422 69.8816C74.2839 70.4968 73.7397 70.9847 73.1409 71.3176C72.542 71.6505 71.9002 71.8219 71.252 71.8219H70.14C69.4914 71.8226 68.8491 71.6518 68.2498 71.3192C67.6505 70.9866 67.1059 70.4987 66.6471 69.8835C66.1883 69.2683 65.8244 68.5378 65.5761 67.7337C65.3278 66.9297 65.2 66.0678 65.2 65.1974Z" fill="#F5F5F5"/>
<path d="M36.896 55.9751C33.5543 55.9751 30.3494 54.1935 27.9865 51.0223C25.6235 47.851 24.296 43.5499 24.296 39.0651C24.296 34.5802 25.6235 30.2791 27.9865 27.1079C30.3494 23.9366 33.5543 22.155 36.896 22.155H39.172V55.9751H36.896Z" fill="#E0E0E0"/>
<path d="M39.172 55.9749C46.1263 55.9749 51.764 48.4088 51.764 39.0756C51.764 29.7423 46.1263 22.1763 39.172 22.1763C32.2176 22.1763 26.58 29.7423 26.58 39.0756C26.58 48.4088 32.2176 55.9749 39.172 55.9749Z" fill="#FAFAFA"/>
<path d="M39.172 51.8198C44.4165 51.8198 48.668 46.114 48.668 39.0756C48.668 32.0371 44.4165 26.3313 39.172 26.3313C33.9275 26.3313 29.676 32.0371 29.676 39.0756C29.676 46.114 33.9275 51.8198 39.172 51.8198Z" fill="white"/>
<path d="M43.084 43.8427L38.42 39.4729L39.9 29.8208L41.22 30.1858L39.92 38.6731L43.856 42.3557L43.084 43.8427Z" fill="#E0E0E0"/>
<path d="M140.936 115.418H123.772V177.657H140.936V115.418Z" fill="#E0E0E0"/>
<path d="M136.352 177.657H140.936V167.35H131.548L136.352 177.657Z" fill="#FAFAFA"/>
<path d="M38.0359 115.418H20.8719V177.657H38.0359V115.418Z" fill="#E0E0E0"/>
<path d="M140.94 115.418H34.036V174.109H140.94V115.418Z" fill="#FAFAFA"/>
<path d="M38.62 177.657H34.036V167.35H43.424L38.62 177.657Z" fill="#FAFAFA"/>
<path d="M137.384 120.464H37.592V142.066H137.384V120.464Z" fill="#F0F0F0"/>
<path d="M137.384 147.289H37.592V168.891H137.384V147.289Z" fill="#F0F0F0"/>
<path d="M122.752 120.464H37.592V142.066H122.752V120.464Z" fill="#E0E0E0"/>
<path d="M63.8161 123.379H58.6361C58.6361 123.379 59.5361 127.55 59.5361 130.003C59.5361 132.456 55.5961 142.071 61.2281 142.071C66.8601 142.071 62.9161 132.456 62.9161 130.003C62.9161 127.55 63.8161 123.379 63.8161 123.379Z" fill="#FAFAFA"/>
<path d="M43.4241 130.626V134.421C43.4241 138.63 46.4561 142.071 50.1601 142.071H53.5001C57.2041 142.071 60.2361 138.63 60.2361 134.421V130.626H43.4241Z" fill="#F0F0F0"/>
<path d="M122.752 147.289H37.592V168.891H122.752V147.289Z" fill="#E0E0E0"/>
<path d="M85.42 168.499H93.396V150.671H85.42V168.499Z" fill="white"/>
<path d="M92.1519 168.778H92.6959V150.95H92.1519V168.778Z" fill="#E6E6E6"/>
<path d="M92.7359 168.913H94.1279C94.234 168.913 94.3199 168.797 94.3199 168.655V151.068C94.3199 150.926 94.234 150.811 94.1279 150.811H92.7359C92.6299 150.811 92.5439 150.926 92.5439 151.068V168.655C92.5439 168.797 92.6299 168.913 92.7359 168.913Z" fill="#EBEBEB"/>
<path d="M92.5439 159.174H94.3199V154.944H92.5439V159.174Z" fill="white"/>
<path d="M92.5439 163.088H94.3199V160.479H92.5439V163.088Z" fill="white"/>
<path d="M85.012 168.913H92.2C92.306 168.913 92.392 168.797 92.392 168.655V151.068C92.392 150.926 92.306 150.811 92.2 150.811H85.012C84.9059 150.811 84.82 150.926 84.82 151.068V168.655C84.82 168.797 84.9059 168.913 85.012 168.913Z" fill="#EBEBEB"/>
<path d="M81.528 168.456H90.328V148.787H81.528V168.456Z" fill="white"/>
<path d="M88.9639 168.762H89.5599V149.093H88.9639V168.762Z" fill="#E6E6E6"/>
<path d="M89.604 168.913H91.1401C91.2571 168.913 91.3521 168.785 91.3521 168.628V149.227C91.3521 149.07 91.2571 148.943 91.1401 148.943H89.604C89.487 148.943 89.392 149.07 89.392 149.227V168.628C89.392 168.785 89.487 168.913 89.604 168.913Z" fill="#F0F0F0"/>
<path d="M89.392 155.986H91.3521V155.304H89.392V155.986Z" fill="white"/>
<path d="M89.392 157.961H91.3521V157.279H89.392V157.961Z" fill="white"/>
<path d="M89.392 159.931H91.3521V159.249H89.392V159.931Z" fill="white"/>
<path d="M81.084 168.913H89.012C89.1291 168.913 89.224 168.785 89.224 168.628V149.227C89.224 149.07 89.1291 148.943 89.012 148.943H81.084C80.9669 148.943 80.872 149.07 80.872 149.227V168.628C80.872 168.785 80.9669 168.913 81.084 168.913Z" fill="#F0F0F0"/>
<path d="M70.688 162.063C70.6888 162.662 70.5572 163.248 70.3098 163.746C70.0624 164.245 69.7103 164.634 69.2981 164.864C68.886 165.094 68.4322 165.154 67.9944 165.038C67.5565 164.922 67.1541 164.634 66.8382 164.211C66.5223 163.788 66.307 163.248 66.2197 162.661C66.1323 162.073 66.1767 161.464 66.3474 160.911C66.518 160.357 66.8072 159.884 67.1782 159.551C67.5493 159.218 67.9857 159.04 68.432 159.04C69.0297 159.04 69.6029 159.359 70.0258 159.925C70.4488 160.492 70.687 161.261 70.688 162.063Z" fill="#FAFAFA"/>
<path d="M66.8439 163.507C66.8439 163.975 66.7405 164.432 66.5466 164.822C66.3528 165.211 66.0773 165.515 65.755 165.694C65.4326 165.873 65.078 165.92 64.7358 165.828C64.3936 165.737 64.0793 165.512 63.8326 165.181C63.5859 164.849 63.4179 164.428 63.3498 163.968C63.2818 163.509 63.3167 163.033 63.4502 162.601C63.5837 162.168 63.8098 161.798 64.0999 161.538C64.39 161.278 64.731 161.139 65.0799 161.139C65.5474 161.141 65.9955 161.39 66.3261 161.834C66.6567 162.278 66.8429 162.879 66.8439 163.507Z" fill="#FAFAFA"/>
<path d="M74.548 163.507C74.548 164.106 74.4157 164.691 74.1678 165.189C73.9199 165.687 73.5676 166.075 73.1553 166.304C72.7431 166.533 72.2895 166.593 71.8519 166.476C71.4143 166.359 71.0123 166.071 70.6968 165.648C70.3813 165.224 70.1664 164.685 70.0794 164.097C69.9923 163.51 70.037 162.901 70.2077 162.348C70.3785 161.795 70.6677 161.322 71.0386 160.989C71.4096 160.657 71.8458 160.479 72.292 160.479C72.89 160.48 73.4632 160.8 73.8861 161.367C74.3089 161.935 74.547 162.704 74.548 163.507Z" fill="#FAFAFA"/>
<path d="M78.2439 162.621C78.2439 163.22 78.1116 163.805 77.8637 164.303C77.6158 164.801 77.2635 165.189 76.8513 165.418C76.439 165.647 75.9854 165.707 75.5478 165.59C75.1102 165.474 74.7082 165.185 74.3927 164.762C74.0772 164.338 73.8623 163.799 73.7753 163.212C73.6882 162.624 73.7329 162.016 73.9037 161.462C74.0744 160.909 74.3636 160.436 74.7346 160.104C75.1056 159.771 75.5417 159.593 75.9879 159.593C76.5863 159.593 77.1601 159.912 77.5832 160.48C78.0063 161.048 78.2439 161.818 78.2439 162.621Z" fill="#FAFAFA"/>
<path d="M58.8721 163.013C58.8721 163.013 59.1801 168.918 71.0481 168.918C82.9161 168.918 83.2241 163.013 83.2241 163.013H58.8721Z" fill="#F5F5F5"/>
<path d="M92.152 136.166C92.152 136.166 92.644 142.071 111.452 142.071C130.26 142.071 130.748 136.166 130.748 136.166H92.152Z" fill="white"/>
<path d="M100 200C142.833 200 177.556 197.279 177.556 193.923C177.556 190.567 142.833 187.846 100 187.846C57.167 187.846 22.444 190.567 22.444 193.923C22.444 197.279 57.167 200 100 200Z" fill="#F5F5F5"/>
<path d="M58.7685 113.445C67.2289 102.091 67.2289 83.6817 58.7685 72.3274C50.3082 60.9731 36.5913 60.9731 28.131 72.3274C19.6707 83.6817 19.6707 102.091 28.131 113.445C36.5913 124.799 50.3082 124.799 58.7685 113.445Z" fill="#407BFF"/>
<path opacity="0.4" d="M58.7685 113.445C67.2289 102.091 67.2289 83.6817 58.7685 72.3274C50.3082 60.9731 36.5913 60.9731 28.131 72.3274C19.6707 83.6817 19.6707 102.091 28.131 113.445C36.5913 124.799 50.3082 124.799 58.7685 113.445Z" fill="black"/>
<path opacity="0.2" d="M61.3846 96.9916C63.074 83.6997 56.4146 71.0864 46.5105 68.8191C36.6064 66.5519 27.208 75.4892 25.5186 88.7811C23.8292 102.073 30.4886 114.686 40.3927 116.954C50.2968 119.221 59.6952 110.284 61.3846 96.9916Z" fill="black"/>
<path d="M62.254 95.2246C62.9291 82.2802 55.6576 71.0522 46.0125 70.1461C36.3674 69.24 28.0012 78.9989 27.326 91.9433C26.6508 104.888 33.9224 116.116 43.5675 117.022C53.2126 117.928 61.5788 108.169 62.254 95.2246Z" fill="#407BFF"/>
<path opacity="0.4" d="M62.254 95.2246C62.9291 82.2802 55.6576 71.0522 46.0125 70.1461C36.3674 69.24 28.0012 78.9989 27.326 91.9433C26.6508 104.888 33.9224 116.116 43.5675 117.022C53.2126 117.928 61.5788 108.169 62.254 95.2246Z" fill="black"/>
<path d="M50.6439 90.6486L51.7839 97.2784C51.8323 97.5315 51.841 97.7954 51.8093 98.0532C51.7776 98.3111 51.7063 98.5573 51.5999 98.7761C51.4966 98.9999 51.3608 99.1935 51.2008 99.3456C51.0407 99.4978 50.8595 99.6053 50.6679 99.6619L46.3239 101.009L47.1239 105.674C47.171 105.926 47.1782 106.189 47.1452 106.445C47.1121 106.701 47.0395 106.945 46.9319 107.161C46.8286 107.381 46.6925 107.57 46.5321 107.716C46.3717 107.862 46.1905 107.962 45.9999 108.01C45.8091 108.074 45.6105 108.086 45.4161 108.045C45.2217 108.005 45.0353 107.912 44.8679 107.773C44.7012 107.642 44.5568 107.465 44.4439 107.254C44.3309 107.043 44.2519 106.803 44.2119 106.549L43.4119 101.831L39.1039 103.167C38.9183 103.228 38.7255 103.237 38.5371 103.194C38.3488 103.152 38.1688 103.059 38.0079 102.92C37.8408 102.789 37.6958 102.612 37.5822 102.401C37.4686 102.191 37.3888 101.951 37.3479 101.696C37.3025 101.446 37.2953 101.185 37.3269 100.93C37.3586 100.676 37.4283 100.432 37.5319 100.215C37.6308 99.9925 37.7629 99.8 37.9198 99.6495C38.0768 99.4989 38.2552 99.3935 38.4439 99.3398L48.5239 96.2208L48.0519 93.4669L37.9999 96.5751C37.8139 96.6389 37.6201 96.6513 37.4303 96.6116C37.2406 96.5719 37.0588 96.481 36.8959 96.3443C36.729 96.2098 36.5848 96.0301 36.4725 95.8166C36.3602 95.603 36.2824 95.3604 36.2439 95.1042L35.1079 88.5013C35.0205 87.9937 35.0868 87.4603 35.2924 87.0184C35.4979 86.5765 35.8258 86.2622 36.2039 86.1446L40.4919 84.8186L39.6919 80.1483C39.6456 79.9013 39.6365 79.6444 39.6654 79.3927C39.6942 79.1409 39.7604 78.8995 39.8599 78.6827C39.9654 78.4479 40.1071 78.2459 40.2754 78.0904C40.4437 77.9349 40.6348 77.8293 40.8359 77.7809C41.0209 77.7205 41.2131 77.7113 41.4008 77.7537C41.5886 77.7962 41.7679 77.8894 41.9279 78.0278C42.0922 78.1634 42.2343 78.3422 42.3457 78.5535C42.457 78.7647 42.5354 79.0041 42.5759 79.2571L43.3759 83.9221L47.7759 82.5693C47.9663 82.5075 48.164 82.498 48.3572 82.5413C48.5503 82.5847 48.735 82.68 48.8999 82.8217C49.0668 82.9504 49.212 83.1242 49.3263 83.3321C49.4406 83.54 49.5215 83.7775 49.5639 84.0295C49.6482 84.5487 49.5778 85.0915 49.3678 85.542C49.1577 85.9924 48.8247 86.3146 48.4399 86.4399L38.3599 89.5588L38.7999 92.2966L48.8439 89.1884C49.0343 89.1266 49.232 89.117 49.4252 89.1604C49.6183 89.2038 49.803 89.2991 49.9679 89.4407C50.1375 89.567 50.2854 89.7398 50.4019 89.9479C50.5184 90.1561 50.6008 90.3948 50.6439 90.6486Z" fill="#407BFF"/>
<g opacity="0.7">
<path d="M50.6439 90.6486L51.7839 97.2784C51.8323 97.5315 51.841 97.7954 51.8093 98.0532C51.7776 98.3111 51.7063 98.5573 51.5999 98.7761C51.4966 98.9999 51.3608 99.1935 51.2008 99.3456C51.0407 99.4978 50.8595 99.6053 50.6679 99.6619L46.3239 101.009L47.1239 105.674C47.171 105.926 47.1782 106.189 47.1452 106.445C47.1121 106.701 47.0395 106.945 46.9319 107.161C46.8286 107.381 46.6925 107.57 46.5321 107.716C46.3717 107.862 46.1905 107.962 45.9999 108.01C45.8091 108.074 45.6105 108.086 45.4161 108.045C45.2217 108.005 45.0353 107.912 44.8679 107.773C44.7012 107.642 44.5568 107.465 44.4439 107.254C44.3309 107.043 44.2519 106.803 44.2119 106.549L43.4119 101.831L39.1039 103.167C38.9183 103.228 38.7255 103.237 38.5371 103.194C38.3488 103.152 38.1688 103.059 38.0079 102.92C37.8408 102.789 37.6958 102.612 37.5822 102.401C37.4686 102.191 37.3888 101.951 37.3479 101.696C37.3025 101.446 37.2953 101.185 37.3269 100.93C37.3586 100.676 37.4283 100.432 37.5319 100.215C37.6308 99.9925 37.7629 99.8 37.9198 99.6495C38.0768 99.4989 38.2552 99.3935 38.4439 99.3398L48.5239 96.2208L48.0519 93.4669L37.9999 96.5751C37.8139 96.6389 37.6201 96.6513 37.4303 96.6116C37.2406 96.5719 37.0588 96.481 36.8959 96.3443C36.729 96.2098 36.5848 96.0301 36.4725 95.8166C36.3602 95.603 36.2824 95.3604 36.2439 95.1042L35.1079 88.5013C35.0205 87.9937 35.0868 87.4603 35.2924 87.0184C35.4979 86.5765 35.8258 86.2622 36.2039 86.1446L40.4919 84.8186L39.6919 80.1483C39.6456 79.9013 39.6365 79.6444 39.6654 79.3927C39.6942 79.1409 39.7604 78.8995 39.8599 78.6827C39.9654 78.4479 40.1071 78.2459 40.2754 78.0904C40.4437 77.9349 40.6348 77.8293 40.8359 77.7809C41.0209 77.7205 41.2131 77.7113 41.4008 77.7537C41.5886 77.7962 41.7679 77.8894 41.9279 78.0278C42.0922 78.1634 42.2343 78.3422 42.3457 78.5535C42.457 78.7647 42.5354 79.0041 42.5759 79.2571L43.3759 83.9221L47.7759 82.5693C47.9663 82.5075 48.164 82.498 48.3572 82.5413C48.5503 82.5847 48.735 82.68 48.8999 82.8217C49.0668 82.9504 49.212 83.1242 49.3263 83.3321C49.4406 83.54 49.5215 83.7775 49.5639 84.0295C49.6482 84.5487 49.5778 85.0915 49.3678 85.542C49.1577 85.9924 48.8247 86.3146 48.4399 86.4399L38.3599 89.5588L38.7999 92.2966L48.8439 89.1884C49.0343 89.1266 49.232 89.117 49.4252 89.1604C49.6183 89.2038 49.803 89.2991 49.9679 89.4407C50.1375 89.567 50.2854 89.7398 50.4019 89.9479C50.5184 90.1561 50.6008 90.3948 50.6439 90.6486Z" fill="white"/>
</g>
<path d="M89.6794 69.7647C95.0693 61.2048 94.2682 48.4017 87.8901 41.1681C81.512 33.9344 71.9721 35.0095 66.5822 43.5694C61.1923 52.1292 61.9934 64.9324 68.3715 72.166C74.7496 79.3996 84.2895 78.3245 89.6794 69.7647Z" fill="#407BFF"/>
<path opacity="0.4" d="M89.6794 69.7647C95.0693 61.2048 94.2682 48.4017 87.8901 41.1681C81.512 33.9344 71.9721 35.0095 66.5822 43.5694C61.1923 52.1292 61.9934 64.9324 68.3715 72.166C74.7496 79.3996 84.2895 78.3245 89.6794 69.7647Z" fill="black"/>
<path opacity="0.2" d="M87.917 67.5081C92.3847 60.2552 91.6254 49.515 86.2211 43.5192C80.8169 37.5234 72.8141 38.5424 68.3465 45.7953C63.8789 53.0481 64.6382 63.7883 70.0425 69.7841C75.4467 75.78 83.4494 74.7609 87.917 67.5081Z" fill="black"/>
<path d="M88.3002 67.6861C92.3877 60.5086 91.3657 50.2431 86.0176 44.7574C80.6695 39.2718 73.0204 40.6433 68.933 47.8208C64.8455 54.9984 65.8675 65.2639 71.2156 70.7495C76.5637 76.2352 84.2128 74.8636 88.3002 67.6861Z" fill="#407BFF"/>
<path opacity="0.4" d="M88.3002 67.6861C92.3877 60.5086 91.3657 50.2431 86.0176 44.7574C80.6695 39.2718 73.0204 40.6433 68.933 47.8208C64.8455 54.9984 65.8675 65.2639 71.2156 70.7495C76.5637 76.2352 84.2128 74.8636 88.3002 67.6861Z" fill="black"/>
<path d="M83.128 58.3316L82.268 62.9376C82.2368 63.1128 82.1787 63.2772 82.0975 63.4205C82.0162 63.5638 81.9135 63.6827 81.796 63.7697C81.6773 63.8666 81.5453 63.9303 81.4079 63.957C81.2704 63.9838 81.1303 63.973 80.996 63.9254L78 62.9108L77.392 66.1317C77.3611 66.3077 77.3032 66.4731 77.2219 66.6173C77.1406 66.7615 77.0378 66.8814 76.92 66.9692C76.8066 67.0637 76.68 67.1263 76.548 67.153C76.4159 67.1798 76.2812 67.1702 76.152 67.1249C76.019 67.0829 75.8935 67.0057 75.7829 66.8979C75.6723 66.79 75.5789 66.6537 75.508 66.4968C75.4358 66.3435 75.3879 66.172 75.3673 65.9928C75.3466 65.8136 75.3537 65.6307 75.388 65.4553L76 62.1807L73 61.1983C72.87 61.1565 72.7477 61.0798 72.6405 60.9728C72.5332 60.8657 72.4432 60.7306 72.376 60.5756C72.3037 60.4234 72.2557 60.2528 72.235 60.0744C72.2144 59.8961 72.2215 59.7139 72.256 59.5395C72.2859 59.363 72.3425 59.1966 72.4224 59.0507C72.5022 58.9048 72.6035 58.7825 72.72 58.6913C72.8351 58.5971 72.9632 58.5352 73.0965 58.5094C73.2299 58.4835 73.3658 58.4943 73.496 58.541L80.496 60.8977L80.856 58.9866L73.876 56.6353C73.7453 56.596 73.622 56.5209 73.514 56.4146C73.4059 56.3084 73.3153 56.1733 73.248 56.0179C73.1756 55.8648 73.1281 55.6928 73.1088 55.5133C73.0895 55.3338 73.0988 55.1508 73.136 54.9765L73.992 50.3866C74.0242 50.2117 74.082 50.047 74.1619 49.9022C74.2418 49.7574 74.3424 49.6353 74.4577 49.5429C74.573 49.4506 74.7008 49.3898 74.8337 49.3642C74.9666 49.3385 75.102 49.3485 75.232 49.3935L78.2 50.392L78.808 47.171C78.8374 46.9892 78.8946 46.8175 78.9758 46.6668C79.0571 46.5161 79.1608 46.3896 79.2802 46.2953C79.3997 46.201 79.5325 46.1409 79.6701 46.1189C79.8078 46.0968 79.9473 46.1133 80.08 46.1672C80.2089 46.2072 80.3303 46.2828 80.4363 46.3891C80.5423 46.4953 80.6308 46.63 80.696 46.7845C80.7668 46.9376 80.8136 47.1084 80.8335 47.2865C80.8534 47.4646 80.8461 47.6464 80.812 47.8206L80.204 51.0415L83.244 52.0669C83.3774 52.1096 83.5029 52.1883 83.6129 52.2981C83.7229 52.4079 83.8152 52.5466 83.884 52.7057C83.9569 52.8565 84.0059 53.0259 84.0279 53.2032C84.0499 53.3805 84.0445 53.562 84.012 53.7364C83.9786 53.9152 83.919 54.0833 83.8366 54.2308C83.7541 54.3783 83.6506 54.5022 83.532 54.5953C83.4139 54.694 83.282 54.7591 83.1444 54.7868C83.0068 54.8145 82.8665 54.8042 82.732 54.7564L75.728 52.3997L75.376 54.3001L82.352 56.646C82.4854 56.6887 82.6109 56.7674 82.7209 56.8772C82.8309 56.987 82.9232 57.1257 82.992 57.2848C83.0691 57.4362 83.1211 57.6079 83.1446 57.7884C83.168 57.969 83.1624 58.1542 83.128 58.3316Z" fill="#407BFF"/>
<g opacity="0.7">
<path d="M83.128 58.3316L82.268 62.9376C82.2368 63.1128 82.1787 63.2772 82.0975 63.4205C82.0162 63.5638 81.9135 63.6827 81.796 63.7697C81.6773 63.8666 81.5453 63.9303 81.4079 63.957C81.2704 63.9838 81.1303 63.973 80.996 63.9254L78 62.9108L77.392 66.1317C77.3611 66.3077 77.3032 66.4731 77.2219 66.6173C77.1406 66.7615 77.0378 66.8814 76.92 66.9692C76.8066 67.0637 76.68 67.1263 76.548 67.153C76.4159 67.1798 76.2812 67.1702 76.152 67.1249C76.019 67.0829 75.8935 67.0057 75.7829 66.8979C75.6723 66.79 75.5789 66.6537 75.508 66.4968C75.4358 66.3435 75.3879 66.172 75.3673 65.9928C75.3466 65.8136 75.3537 65.6307 75.388 65.4553L76 62.1807L73 61.1983C72.87 61.1565 72.7477 61.0798 72.6405 60.9728C72.5332 60.8657 72.4432 60.7306 72.376 60.5756C72.3037 60.4234 72.2557 60.2528 72.235 60.0744C72.2144 59.8961 72.2215 59.7139 72.256 59.5395C72.2859 59.363 72.3425 59.1966 72.4224 59.0507C72.5022 58.9048 72.6035 58.7825 72.72 58.6913C72.8351 58.5971 72.9632 58.5352 73.0965 58.5094C73.2299 58.4835 73.3658 58.4943 73.496 58.541L80.496 60.8977L80.856 58.9866L73.876 56.6353C73.7453 56.596 73.622 56.5209 73.514 56.4146C73.4059 56.3084 73.3153 56.1733 73.248 56.0179C73.1756 55.8648 73.1281 55.6928 73.1088 55.5133C73.0895 55.3338 73.0988 55.1508 73.136 54.9765L73.992 50.3866C74.0242 50.2117 74.082 50.047 74.1619 49.9022C74.2418 49.7574 74.3424 49.6353 74.4577 49.5429C74.573 49.4506 74.7008 49.3898 74.8337 49.3642C74.9666 49.3385 75.102 49.3485 75.232 49.3935L78.2 50.392L78.808 47.171C78.8374 46.9892 78.8946 46.8175 78.9758 46.6668C79.0571 46.5161 79.1608 46.3896 79.2802 46.2953C79.3997 46.201 79.5325 46.1409 79.6701 46.1189C79.8078 46.0968 79.9473 46.1133 80.08 46.1672C80.2089 46.2072 80.3303 46.2828 80.4363 46.3891C80.5423 46.4953 80.6308 46.63 80.696 46.7845C80.7668 46.9376 80.8136 47.1084 80.8335 47.2865C80.8534 47.4646 80.8461 47.6464 80.812 47.8206L80.204 51.0415L83.244 52.0669C83.3774 52.1096 83.5029 52.1883 83.6129 52.2981C83.7229 52.4079 83.8152 52.5466 83.884 52.7057C83.9569 52.8565 84.0059 53.0259 84.0279 53.2032C84.0499 53.3805 84.0445 53.562 84.012 53.7364C83.9786 53.9152 83.919 54.0833 83.8366 54.2308C83.7541 54.3783 83.6506 54.5022 83.532 54.5953C83.4139 54.694 83.282 54.7591 83.1444 54.7868C83.0068 54.8145 82.8665 54.8042 82.732 54.7564L75.728 52.3997L75.376 54.3001L82.352 56.646C82.4854 56.6887 82.6109 56.7674 82.7209 56.8772C82.8309 56.987 82.9232 57.1257 82.992 57.2848C83.0691 57.4362 83.1211 57.6079 83.1446 57.7884C83.168 57.969 83.1624 58.1542 83.128 58.3316Z" fill="white"/>
</g>
<path d="M41.3039 179.284H40.9039V185.345H41.3039V179.284Z" fill="#407BFF"/>
<path opacity="0.1" d="M41.3039 179.284H40.9039V185.345H41.3039V179.284Z" fill="black"/>
<path d="M159.096 131.265H158.696V139.57H159.096V131.265Z" fill="#407BFF"/>
<path d="M159.096 143.929H158.696V148.433H159.096V143.929Z" fill="#407BFF"/>
<path opacity="0.1" d="M159.096 131.265H158.696V139.57H159.096V131.265Z" fill="black"/>
<path opacity="0.1" d="M159.096 143.929H158.696V148.433H159.096V143.929Z" fill="black"/>
<path d="M151.68 95.2546H48.324C44.9992 95.2546 42.304 98.8718 42.304 103.334V184.529C42.304 188.991 44.9992 192.608 48.324 192.608H151.68C155.005 192.608 157.7 188.991 157.7 184.529V103.334C157.7 98.8718 155.005 95.2546 151.68 95.2546Z" fill="#407BFF"/>
<path opacity="0.2" d="M151.68 95.2546H48.324C44.9992 95.2546 42.304 98.8718 42.304 103.334V184.529C42.304 188.991 44.9992 192.608 48.324 192.608H151.68C155.005 192.608 157.7 188.991 157.7 184.529V103.334C157.7 98.8718 155.005 95.2546 151.68 95.2546Z" fill="black"/>
<path d="M139.02 129.155C141.001 129.155 142.9 128.099 144.301 126.22C145.701 124.34 146.488 121.791 146.488 119.133C146.488 116.475 145.701 113.925 144.301 112.046C142.9 110.166 141.001 109.11 139.02 109.11H129.38C127.399 109.11 125.5 110.166 124.099 112.046C122.699 113.925 121.912 116.475 121.912 119.133C121.912 121.791 122.699 124.34 124.099 126.22C125.5 128.099 127.399 129.155 129.38 129.155H139.02Z" fill="#407BFF"/>
<path d="M73.896 129.15H56.108C54.6765 129.15 53.516 130.707 53.516 132.629V148.234C53.516 150.155 54.6765 151.713 56.108 151.713H73.896C75.3275 151.713 76.488 150.155 76.488 148.234V132.629C76.488 130.707 75.3275 129.15 73.896 129.15Z" fill="#407BFF"/>
<path opacity="0.3" d="M73.896 129.15H56.108C54.6765 129.15 53.516 130.707 53.516 132.629V148.234C53.516 150.155 54.6765 151.713 56.108 151.713H73.896C75.3275 151.713 76.488 150.155 76.488 148.234V132.629C76.488 130.707 75.3275 129.15 73.896 129.15Z" fill="white"/>
<path d="M86.204 106.646H55.352C54.338 106.646 53.516 107.748 53.516 109.107C53.516 110.467 54.338 111.569 55.352 111.569H86.204C87.218 111.569 88.04 110.467 88.04 109.107C88.04 107.748 87.218 106.646 86.204 106.646Z" fill="#407BFF"/>
<path opacity="0.3" d="M86.204 106.646H55.352C54.338 106.646 53.516 107.748 53.516 109.107C53.516 110.467 54.338 111.569 55.352 111.569H86.204C87.218 111.569 88.04 110.467 88.04 109.107C88.04 107.748 87.218 106.646 86.204 106.646Z" fill="white"/>
<path d="M70.084 162.911H56.208C54.7212 162.911 53.516 164.528 53.516 166.523V169.9C53.516 171.895 54.7212 173.513 56.208 173.513H70.084C71.5707 173.513 72.776 171.895 72.776 169.9V166.523C72.776 164.528 71.5707 162.911 70.084 162.911Z" fill="#407BFF"/>
<path opacity="0.3" d="M70.084 162.911H56.208C54.7212 162.911 53.516 164.528 53.516 166.523V169.9C53.516 171.895 54.7212 173.513 56.208 173.513H70.084C71.5707 173.513 72.776 171.895 72.776 169.9V166.523C72.776 164.528 71.5707 162.911 70.084 162.911Z" fill="white"/>
<path d="M94.652 162.911H80.776C79.2892 162.911 78.084 164.528 78.084 166.523V169.9C78.084 171.895 79.2892 173.513 80.776 173.513H94.652C96.1387 173.513 97.344 171.895 97.344 169.9V166.523C97.344 164.528 96.1387 162.911 94.652 162.911Z" fill="#407BFF"/>
<path opacity="0.3" d="M94.652 162.911H80.776C79.2892 162.911 78.084 164.528 78.084 166.523V169.9C78.084 171.895 79.2892 173.513 80.776 173.513H94.652C96.1387 173.513 97.344 171.895 97.344 169.9V166.523C97.344 164.528 96.1387 162.911 94.652 162.911Z" fill="white"/>
<path d="M119.224 162.911H105.348C103.861 162.911 102.656 164.528 102.656 166.523V169.9C102.656 171.895 103.861 173.513 105.348 173.513H119.224C120.711 173.513 121.916 171.895 121.916 169.9V166.523C121.916 164.528 120.711 162.911 119.224 162.911Z" fill="#407BFF"/>
<path opacity="0.3" d="M119.224 162.911H105.348C103.861 162.911 102.656 164.528 102.656 166.523V169.9C102.656 171.895 103.861 173.513 105.348 173.513H119.224C120.711 173.513 121.916 171.895 121.916 169.9V166.523C121.916 164.528 120.711 162.911 119.224 162.911Z" fill="white"/>
<path d="M143.792 162.911H129.916C128.429 162.911 127.224 164.528 127.224 166.523V169.9C127.224 171.895 128.429 173.513 129.916 173.513H143.792C145.279 173.513 146.484 171.895 146.484 169.9V166.523C146.484 164.528 145.279 162.911 143.792 162.911Z" fill="#407BFF"/>
<path opacity="0.3" d="M143.792 162.911H129.916C128.429 162.911 127.224 164.528 127.224 166.523V169.9C127.224 171.895 128.429 173.513 129.916 173.513H143.792C145.279 173.513 146.484 171.895 146.484 169.9V166.523C146.484 164.528 145.279 162.911 143.792 162.911Z" fill="white"/>
<path d="M117.2 60.028C116.252 63.6193 115.2 67.0926 114.084 70.5659C112.954 74.0979 111.659 77.5298 110.204 80.8407C110.008 81.2648 109.804 81.6889 109.592 82.113L109.436 82.4297L109.224 82.8216C109.08 83.0686 108.944 83.2833 108.824 83.4927C108.32 84.2467 107.786 84.9635 107.224 85.64C106.156 86.9659 105.068 88.1684 103.968 89.3548C101.76 91.7061 99.504 93.9071 97.168 95.9953L95.772 93.6709L101.652 85.8923C102.624 84.5985 103.588 83.294 104.488 81.9895C104.932 81.34 105.364 80.6743 105.72 80.0623C105.808 79.912 105.884 79.7617 105.952 79.6329L106.036 79.4504L106.152 79.1712C106.308 78.8008 106.472 78.4411 106.624 78.06C107.848 74.9732 108.928 71.6181 109.968 68.2146C111.008 64.8111 112.008 61.3808 112.968 57.9773L117.2 60.028Z" fill="#E4897B"/>
<path d="M118.324 57.4405C119.232 61.005 113.896 71.4892 113.896 71.4892L108.8 67.6831C109.668 64.4118 110.695 61.2199 111.872 58.1276C113.656 53.5968 117.328 53.527 118.324 57.4405Z" fill="#407BFF"/>
<path opacity="0.7" d="M118.324 57.4405C119.232 61.005 113.896 71.4892 113.896 71.4892L108.8 67.6831C109.668 64.4118 110.695 61.2199 111.872 58.1276C113.656 53.5968 117.328 53.527 118.324 57.4405Z" fill="white"/>
<path opacity="0.31" d="M118.4 57.886C117.256 57.1506 115.94 57.7679 114.552 60.7097C113.164 63.6515 111.984 68.5635 111.856 69.9646L113.9 71.4838C113.9 71.4838 118.824 61.7995 118.4 57.886Z" fill="#407BFF"/>
<path d="M114.872 54.7133C114.872 54.7133 111.064 66.7328 113.808 89.1131H129.668C129.864 85.8439 128.744 69.9055 131.492 54.5093C129.746 54.0531 127.98 53.7519 126.204 53.6074C123.959 53.4355 121.709 53.4355 119.464 53.6074C117.915 53.8186 116.379 54.1883 114.872 54.7133Z" fill="#407BFF"/>
<path opacity="0.7" d="M114.872 54.7133C114.872 54.7133 111.064 66.7328 113.808 89.1131H129.668C129.864 85.8439 128.744 69.9055 131.492 54.5093C129.746 54.0531 127.98 53.7519 126.204 53.6074C123.959 53.4355 121.709 53.4355 119.464 53.6074C117.915 53.8186 116.379 54.1883 114.872 54.7133Z" fill="white"/>
<path d="M135.284 184.464L132.936 187.288L128.46 181.039L130.812 178.216L135.284 184.464Z" fill="#E4897B"/>
<path d="M127.232 190.342H124.268L123.884 181.125H126.848L127.232 190.342Z" fill="#E4897B"/>
<path d="M128.464 181.039L130.768 184.26L133.12 181.437L130.816 178.216L128.464 181.039Z" fill="#CE6F64"/>
<path d="M126.848 181.13H123.884L124.084 185.881H127.048L126.848 181.13Z" fill="#CE6F64"/>
<path d="M113.808 89.1133C113.808 89.1133 110.684 118.134 109.62 133.928C108.764 146.602 129.184 184.389 129.184 184.389L133.132 179.402C133.132 179.402 118.22 145.523 119.368 131.415C120.48 117.753 124.248 89.0972 124.248 89.0972L113.808 89.1133Z" fill="#407BFF"/>
<path opacity="0.7" d="M113.808 89.1133C113.808 89.1133 110.684 118.134 109.62 133.928C108.764 146.602 129.184 184.389 129.184 184.389L133.132 179.402C133.132 179.402 118.22 145.523 119.368 131.415C120.48 117.753 124.248 89.0972 124.248 89.0972L113.808 89.1133Z" fill="black"/>
<path opacity="0.2" d="M119.368 131.431C119.94 124.393 121.22 113.367 122.32 104.337C121.744 102.824 120.128 99.7583 120.128 99.7583C118.68 106.474 115.532 131.791 120.024 165.981C124.704 176.106 129.184 184.405 129.184 184.405L129.796 171.349C125.472 160.43 118.572 141.185 119.368 131.431Z" fill="black"/>
<path d="M119.448 89.113C119.448 89.113 119.168 119.524 119.648 130.921C120.172 143.397 122.812 184.733 122.812 184.733H128.244C128.244 184.733 128.08 144.406 128.4 132.059C128.756 118.638 129.676 89.113 129.676 89.113H119.448Z" fill="#407BFF"/>
<path opacity="0.7" d="M119.448 89.113C119.448 89.113 119.168 119.524 119.648 130.921C120.172 143.397 122.812 184.733 122.812 184.733H128.244C128.244 184.733 128.08 144.406 128.4 132.059C128.756 118.638 129.676 89.113 129.676 89.113H119.448Z" fill="black"/>
<path d="M124.112 189.886H127.444C127.499 189.883 127.554 189.91 127.595 189.96C127.636 190.01 127.661 190.08 127.664 190.155L127.828 193.692C127.828 193.785 127.815 193.876 127.79 193.962C127.764 194.047 127.726 194.125 127.677 194.191C127.629 194.257 127.572 194.309 127.508 194.345C127.445 194.381 127.377 194.4 127.308 194.401C126.148 194.374 125.592 194.283 124.128 194.283C123.228 194.283 119.396 194.412 118.152 194.412C116.908 194.412 116.952 192.758 117.468 192.608C119.832 191.937 122.764 190.997 123.604 190.128C123.749 189.974 123.927 189.889 124.112 189.886Z" fill="#263238"/>
<path d="M132.288 186.161L135.144 183.579C135.191 183.529 135.248 183.502 135.308 183.502C135.368 183.502 135.425 183.529 135.472 183.579L137.656 186.537C137.699 186.602 137.73 186.678 137.748 186.761C137.766 186.845 137.77 186.932 137.76 187.017C137.751 187.103 137.727 187.185 137.691 187.256C137.655 187.328 137.607 187.388 137.552 187.433C135.728 189.317 134.412 190.74 133.372 192.307C132.172 194.138 131.524 194.401 128.724 194.401C127.428 194.401 126.696 192.935 127.224 192.71C131.888 190.729 130.64 189.865 131.776 186.961C131.894 186.641 132.07 186.366 132.288 186.161Z" fill="#263238"/>
<path d="M96.444 93.1716L93.3521 93.3166L94 96.5697C94 96.5697 97.2321 96.9563 97.5201 95.6464L96.444 93.1716Z" fill="#E4897B"/>
<path d="M90.016 95.2543L92.184 96.9507L94 96.5696L93.352 93.3164L90.016 95.2543Z" fill="#E4897B"/>
<path opacity="0.31" d="M127.948 58.3101C127.62 60.8439 128.056 66.8993 129.676 73.9103C129.803 67.9035 130.323 61.9235 131.232 56.0393V56.0071C130.192 55.8675 128.264 55.932 127.948 58.3101Z" fill="#407BFF"/>
<path d="M125.8 43.4185C125.3 46.3281 124.736 51.6641 126.2 53.6182C126.2 53.6182 125.568 56.0285 121.536 56.0285C117.104 56.0285 119.46 53.6182 119.46 53.6182C121.9 52.8451 121.9 50.4348 121.536 48.1747L125.8 43.4185Z" fill="#E4897B"/>
<path d="M121.424 56.0178L120.224 57.7303L120.812 59.3837L121.768 59.4428L122.584 57.8645L121.424 56.0178Z" fill="#407BFF"/>
<path d="M124.064 45.3562L121.54 48.1584C121.631 48.6877 121.687 49.2265 121.708 49.7689C122.636 49.5918 123.94 48.2282 124.072 46.9291C124.143 46.4087 124.14 45.8752 124.064 45.3562Z" fill="#CE6F64"/>
<path d="M120.54 33.5516C119.024 34.2441 117.812 39.6392 119.58 41.0672C121.348 42.4951 123.42 32.2364 120.54 33.5516Z" fill="#263238"/>
<path d="M126.748 40.3692C125.844 44.127 125.46 46.3978 123.636 47.9385C123.048 48.446 122.367 48.728 121.668 48.7539C120.969 48.7798 120.277 48.5486 119.669 48.0854C119.061 47.6221 118.558 46.9444 118.216 46.1257C117.874 45.3069 117.705 44.3781 117.728 43.4399C117.764 39.827 119.236 34.2655 122.336 33.5676C123.004 33.3945 123.694 33.4601 124.338 33.7576C124.981 34.0552 125.555 34.5743 126.002 35.2631C126.448 35.9519 126.752 36.7861 126.883 37.6822C127.014 38.5784 126.968 39.5049 126.748 40.3692Z" fill="#E4897B"/>
<path d="M128.988 34.0885C128.084 37.0196 130.188 34.5717 129.644 38.0503C129.292 40.3157 126.244 45.743 125.068 45.2491C123.892 44.7553 123.904 40.9062 125.404 38.1845C126.268 36.6223 124.4 34.8508 120.204 35.0387C116.008 35.2266 113.472 32.0593 119.048 29.7349C119.048 29.7349 116.992 31.3453 118.212 31.8822C119.94 32.7465 130.8 28.2156 128.988 34.0885Z" fill="#263238"/>
<path d="M128.188 35.4305C128.144 35.4305 129.128 35.103 129.652 32.7463C129.652 32.7839 129.48 36.2572 128.188 35.4305Z" fill="#263238"/>
<path d="M120.336 30.2556C117.756 31.3293 118.824 32.5371 119.892 32.8377L122.34 31.5494C118.62 32.2097 120.336 30.2556 120.336 30.2556Z" fill="#263238"/>
<path d="M127.244 44.9593C126.708 45.6589 125.992 46.0566 125.244 46.0705C124.256 46.0705 124.044 44.8143 124.576 43.7622C125.048 42.8173 126.128 41.6793 127 42.1892C127.872 42.6992 127.9 44.095 127.244 44.9593Z" fill="#E4897B"/>
<path d="M122.192 40.16C122.132 40.4713 121.96 40.6968 121.792 40.6431C121.624 40.5894 121.564 40.3049 121.624 39.9935C121.684 39.6822 121.856 39.4567 122.024 39.5158C122.192 39.5748 122.252 39.8486 122.192 40.16Z" fill="#263238"/>
<path d="M119.552 39.3816C119.492 39.693 119.32 39.9184 119.152 39.8647C118.984 39.8111 118.924 39.5319 118.984 39.2206C119.044 38.9092 119.212 38.6837 119.384 38.7374C119.556 38.7911 119.6 39.0702 119.552 39.3816Z" fill="#263238"/>
<path d="M120.36 39.7839C119.905 40.6531 119.367 41.4382 118.76 42.1191C118.894 42.3184 119.058 42.4759 119.242 42.5807C119.426 42.6855 119.624 42.735 119.824 42.7257L120.36 39.7839Z" fill="#DE5753"/>
<path d="M120.8 43.8587C120.634 43.8584 120.469 43.8332 120.308 43.7836C120.29 43.7772 120.275 43.762 120.265 43.741C120.256 43.7201 120.252 43.695 120.256 43.6708C120.261 43.647 120.272 43.6265 120.288 43.6135C120.303 43.6006 120.322 43.5961 120.34 43.601C120.635 43.6891 120.94 43.6865 121.234 43.5935C121.528 43.5006 121.802 43.3196 122.036 43.0642C122.049 43.0468 122.067 43.0371 122.086 43.0371C122.105 43.0371 122.123 43.0468 122.136 43.0642C122.149 43.0822 122.156 43.1063 122.156 43.1313C122.156 43.1563 122.149 43.1804 122.136 43.1984C121.765 43.6275 121.29 43.862 120.8 43.8587Z" fill="#263238"/>
<path d="M123.24 39.2635C123.213 39.2641 123.186 39.2537 123.163 39.2336C123.14 39.2135 123.122 39.1846 123.112 39.1507C123.046 38.9354 122.943 38.7444 122.811 38.594C122.678 38.4435 122.521 38.3381 122.352 38.2864C122.334 38.2832 122.316 38.275 122.3 38.2623C122.284 38.2497 122.27 38.2329 122.258 38.2129C122.247 38.1929 122.239 38.1701 122.235 38.1459C122.23 38.1216 122.229 38.0964 122.232 38.0717C122.238 38.0223 122.258 37.9779 122.288 37.9478C122.318 37.9178 122.355 37.9045 122.392 37.9107C122.607 37.9696 122.809 38.0982 122.979 38.2853C123.149 38.4724 123.283 38.7123 123.368 38.9843C123.376 39.0068 123.38 39.0311 123.381 39.056C123.381 39.0808 123.378 39.1055 123.372 39.1286C123.365 39.1517 123.355 39.1727 123.342 39.1904C123.329 39.208 123.313 39.2219 123.296 39.2313C123.279 39.2474 123.26 39.2584 123.24 39.2635Z" fill="#263238"/>
<path d="M118.66 37.841C118.628 37.8406 118.597 37.8255 118.572 37.798C118.543 37.7656 118.525 37.7194 118.521 37.6693C118.518 37.6191 118.529 37.569 118.552 37.5296C118.693 37.2943 118.872 37.1056 119.076 36.9781C119.28 36.8506 119.503 36.7876 119.728 36.7942C119.746 36.7962 119.764 36.8031 119.781 36.8145C119.797 36.8258 119.812 36.8414 119.824 36.8604C119.836 36.8794 119.845 36.9013 119.85 36.9249C119.856 36.9486 119.858 36.9735 119.856 36.9982C119.855 37.0231 119.85 37.0476 119.842 37.07C119.834 37.0924 119.822 37.1122 119.808 37.1283C119.794 37.1444 119.777 37.1564 119.759 37.1636C119.741 37.1708 119.723 37.1729 119.704 37.1699C119.524 37.1674 119.346 37.2203 119.184 37.3245C119.022 37.4288 118.879 37.5816 118.768 37.7712C118.755 37.7931 118.739 37.8108 118.72 37.8229C118.701 37.835 118.681 37.8412 118.66 37.841Z" fill="#263238"/>
<path d="M132.26 57.2524C132.572 57.902 132.832 58.4764 133.096 59.0991C133.36 59.7218 133.612 60.3231 133.86 60.9458C134.348 62.1859 134.808 63.4528 135.228 64.7465C136.109 67.3951 136.77 70.1657 137.2 73.0083L137.24 73.2821L137.26 73.4163L137.288 73.6418C137.322 73.942 137.339 74.2453 137.34 74.549C137.336 75.0576 137.296 75.5645 137.22 76.0628C137.085 76.8848 136.889 77.6868 136.636 78.4571C136.187 79.8068 135.652 81.1018 135.036 82.3276C133.872 84.6584 132.549 86.8385 131.084 88.8393L129.344 86.9658C130.312 84.7004 131.276 82.3491 132.084 80.0461C132.481 78.9447 132.821 77.8074 133.1 76.6426C133.214 76.1568 133.292 75.6568 133.332 75.1502C133.346 74.9844 133.346 74.8169 133.332 74.651C133.332 74.6027 133.332 74.5597 133.308 74.5544C133.284 74.549 133.308 74.5544 133.308 74.5275L133.284 74.4202L133.236 74.2001C132.983 73.016 132.683 71.8511 132.336 70.7107C131.984 69.5458 131.592 68.3862 131.18 67.2321C130.768 66.0779 130.324 64.9398 129.868 63.8017C129.644 63.2327 129.408 62.669 129.172 62.1107L128.468 60.5002L132.26 57.2524Z" fill="#E4897B"/>
<path d="M123.064 190.573C122.864 190.6 122.665 190.526 122.504 190.364C122.459 190.297 122.427 190.215 122.412 190.127C122.396 190.039 122.398 189.947 122.416 189.859C122.425 189.801 122.445 189.746 122.473 189.7C122.502 189.654 122.539 189.618 122.58 189.596C122.944 189.403 123.78 190.176 123.876 190.262C123.888 190.272 123.897 190.287 123.902 190.304C123.907 190.321 123.908 190.341 123.904 190.359C123.902 190.377 123.896 190.394 123.887 190.407C123.877 190.42 123.865 190.43 123.852 190.434C123.594 190.517 123.33 190.564 123.064 190.573ZM122.716 189.752C122.688 189.746 122.66 189.746 122.632 189.752C122.612 189.762 122.594 189.779 122.58 189.802C122.567 189.825 122.558 189.852 122.556 189.881C122.541 189.937 122.538 189.997 122.547 190.056C122.555 190.114 122.575 190.169 122.604 190.214C122.74 190.396 123.128 190.418 123.66 190.278C123.377 190.015 123.055 189.837 122.716 189.757V189.752Z" fill="white"/>
<path d="M123.836 190.439H123.8C123.504 190.203 123.064 189.365 123.132 188.936C123.144 188.857 123.175 188.786 123.221 188.734C123.267 188.683 123.324 188.653 123.384 188.651C123.437 188.642 123.49 188.649 123.541 188.671C123.591 188.694 123.638 188.731 123.676 188.78C123.976 189.172 123.908 190.316 123.908 190.364C123.906 190.38 123.902 190.395 123.895 190.408C123.888 190.421 123.879 190.432 123.868 190.439H123.836ZM123.436 188.829H123.404C123.304 188.829 123.28 188.909 123.272 188.963C123.228 189.247 123.52 189.875 123.776 190.165C123.813 189.73 123.746 189.29 123.584 188.909C123.564 188.883 123.54 188.862 123.514 188.848C123.488 188.835 123.46 188.828 123.432 188.829H123.436Z" fill="white"/>
<path d="M130.368 188.319C130.294 188.322 130.22 188.303 130.152 188.265C130.099 188.237 130.052 188.192 130.016 188.134C129.979 188.076 129.953 188.007 129.94 187.932C129.93 187.887 129.929 187.839 129.936 187.793C129.944 187.747 129.96 187.704 129.984 187.669C130.252 187.234 131.656 187.363 131.816 187.379C131.831 187.38 131.845 187.387 131.857 187.4C131.868 187.412 131.877 187.43 131.88 187.449C131.883 187.468 131.882 187.489 131.876 187.507C131.87 187.525 131.86 187.541 131.848 187.551C131.401 187.946 130.897 188.208 130.368 188.319ZM131.216 187.535C130.724 187.535 130.208 187.599 130.092 187.787C130.085 187.802 130.082 187.819 130.082 187.836C130.082 187.853 130.085 187.869 130.092 187.884C130.099 187.93 130.114 187.974 130.136 188.01C130.159 188.047 130.187 188.075 130.22 188.093C130.444 188.217 130.948 188.013 131.584 187.556L131.216 187.535Z" fill="white"/>
<path d="M131.812 187.567C131.412 187.567 130.512 187.154 130.444 186.724C130.444 186.617 130.444 186.467 130.636 186.343C131.324 185.908 131.856 187.369 131.88 187.417C131.885 187.432 131.887 187.449 131.887 187.465C131.887 187.482 131.885 187.498 131.88 187.514C131.873 187.53 131.864 187.544 131.852 187.553C131.84 187.563 131.826 187.567 131.812 187.567ZM130.888 186.456C130.82 186.455 130.753 186.475 130.692 186.515C130.608 186.569 130.568 186.628 130.576 186.681C130.616 186.934 131.264 187.288 131.688 187.363C131.56 187.073 131.252 186.456 130.888 186.456Z" fill="white"/>
<path d="M130.136 86.0961L127.2 85.4036L128.716 89.9934C128.716 89.9934 131.408 89.9934 131.288 88.1038L130.136 86.0961Z" fill="#E4897B"/>
<path d="M124.98 87.7065L126.368 91.416L128.7 89.9881L127.184 85.4036L124.98 87.7065Z" fill="#E4897B"/>
<path d="M133.372 179.112L128.944 184.711L127.516 182.655L132.584 176.46L133.372 179.112Z" fill="#407BFF"/>
<path opacity="0.6" d="M133.372 179.112L128.944 184.711L127.516 182.655L132.584 176.46L133.372 179.112Z" fill="white"/>
<path d="M128.46 184.733H122.592L122.268 181.968L128.744 182.397L128.46 184.733Z" fill="#407BFF"/>
<path opacity="0.6" d="M128.46 184.733H122.592L122.268 181.968L128.744 182.397L128.46 184.733Z" fill="white"/>
<path d="M131.492 54.5094C134.292 55.0462 137.16 68.1019 137.16 68.1019L131.16 72.5683C131.16 72.5683 128.724 66.3625 127.56 61.7566C126.34 56.9305 128.496 53.9189 131.492 54.5094Z" fill="#407BFF"/>
<path opacity="0.7" d="M131.492 54.5094C134.292 55.0462 137.16 68.1019 137.16 68.1019L131.16 72.5683C131.16 72.5683 128.724 66.3625 127.56 61.7566C126.34 56.9305 128.496 53.9189 131.492 54.5094Z" fill="white"/>
<path opacity="0.2" d="M121.424 56.0178L120.224 57.7303L120.812 59.3837L121.768 59.4428L122.584 57.8645L121.424 56.0178Z" fill="black"/>
<path d="M120.916 59.0884C120.916 59.0884 118.64 71.7414 118.552 74.3718C118.428 77.99 119.556 84.1689 119.556 84.1689C119.556 84.1689 121.156 79.0315 121.484 74.2591C121.812 69.4867 121.568 61.7671 121.716 59.0884H120.916Z" fill="#407BFF"/>
<path opacity="0.2" d="M120.916 59.0884C120.916 59.0884 118.64 71.7414 118.552 74.3718C118.428 77.99 119.556 84.1689 119.556 84.1689C119.556 84.1689 121.156 79.0315 121.484 74.2591C121.812 69.4867 121.568 61.7671 121.716 59.0884H120.916Z" fill="black"/>
<path d="M121.424 56.0179C121.88 57.0082 122.144 58.1357 122.192 59.2979C122.192 59.2979 127.184 56.9359 126.948 53.4733C126.948 53.4733 126.24 52.9097 125.792 52.4534C125.792 52.4534 125.624 54.6329 121.424 56.0179Z" fill="#407BFF"/>
<path opacity="0.6" d="M121.424 56.0179C121.88 57.0082 122.144 58.1357 122.192 59.2979C122.192 59.2979 127.184 56.9359 126.948 53.4733C126.948 53.4733 126.24 52.9097 125.792 52.4534C125.792 52.4534 125.624 54.6329 121.424 56.0179Z" fill="white"/>
<path d="M121.424 56.0177C120.965 56.9552 120.635 57.9951 120.448 59.0884C120.448 59.0884 118.188 57.0377 118.868 53.6181C119.282 53.3942 119.709 53.2146 120.144 53.0813C120.144 53.0813 119.848 55.293 121.424 56.0177Z" fill="#407BFF"/>
<path opacity="0.6" d="M121.424 56.0177C120.965 56.9552 120.635 57.9951 120.448 59.0884C120.448 59.0884 118.188 57.0377 118.868 53.6181C119.282 53.3942 119.709 53.2146 120.144 53.0813C120.144 53.0813 119.848 55.293 121.424 56.0177Z" fill="white"/>
</svg>
