<svg width="200" height="200" viewBox="0 0 200 200" fill="none" xmlns="http://www.w3.org/2000/svg">
<path d="M137.523 16.5414C138.604 9.6374 134.058 3.13611 127.368 2.02031C120.679 0.904521 114.38 5.59676 113.298 12.5007C112.217 19.4047 116.764 25.906 123.453 27.0218C130.143 28.1376 136.442 23.4453 137.523 16.5414Z" fill="#EBEBEB"/>
<path d="M137.579 17.2598C138.62 10.6923 134.305 4.49734 127.942 3.42304C121.578 2.34875 115.576 6.80189 114.535 13.3694C113.494 19.937 117.809 26.1319 124.172 27.2062C130.535 28.2805 136.538 23.8273 137.579 17.2598Z" fill="#DBDBDB"/>
<path d="M130.869 25.5514C136.486 23.1825 139.179 16.5622 136.884 10.7646C134.589 4.96699 128.174 2.18748 122.557 4.5564C116.939 6.92532 114.246 13.5456 116.542 19.3432C118.837 25.1408 125.251 27.9203 130.869 25.5514Z" fill="white"/>
<path d="M126.203 4.84448H125.923V6.55774H126.203V4.84448Z" fill="#EBEBEB"/>
<path d="M121.117 6.18895L120.874 6.33325L121.704 7.81713L121.946 7.67283L121.117 6.18895Z" fill="#EBEBEB"/>
<path d="M117.484 9.4212L117.344 9.67236L118.788 10.529L118.928 10.2778L117.484 9.4212Z" fill="#EBEBEB"/>
<path d="M117.582 15.1714H115.922V15.4601H117.582V15.1714Z" fill="#EBEBEB"/>
<path d="M118.65 19.5755L117.213 20.4324L117.353 20.6824L118.79 19.8255L118.65 19.5755Z" fill="#EBEBEB"/>
<path d="M121.701 22.8227L120.872 24.3069L121.114 24.4511L121.943 22.9669L121.701 22.8227Z" fill="#EBEBEB"/>
<path d="M126.203 24.0737H125.923V25.787H126.203V24.0737Z" fill="#EBEBEB"/>
<path d="M130.431 22.8398L130.189 22.9841L131.019 24.4679L131.261 24.3235L130.431 22.8398Z" fill="#EBEBEB"/>
<path d="M133.478 19.5698L133.338 19.8198L134.771 20.6741L134.911 20.4241L133.478 19.5698Z" fill="#EBEBEB"/>
<path d="M136.209 15.1714H134.549V15.4601H136.209V15.1714Z" fill="#EBEBEB"/>
<path d="M134.773 9.95311L133.34 10.8074L133.48 11.0574L134.913 10.2031L134.773 9.95311Z" fill="#EBEBEB"/>
<path d="M131.023 6.18282L130.194 7.66699L130.437 7.81121L131.266 6.32704L131.023 6.18282Z" fill="#EBEBEB"/>
<path d="M127.683 11.6931L122.885 21.4292L123.134 21.5601L127.933 11.824L127.683 11.6931Z" fill="#EBEBEB"/>
<path d="M125.504 11.4348L125.139 11.51L127.185 22.0583L127.55 21.9831L125.504 11.4348Z" fill="#DBDBDB"/>
<path d="M90.127 96.7832H11.4V2.95142H90.127V96.7832ZM13.2297 94.8901H88.2928V4.84452H13.2343L13.2297 94.8901Z" fill="#EBEBEB"/>
<path d="M50.9653 5.34131H49.131V95.8365H50.9653V5.34131Z" fill="#EBEBEB"/>
<path d="M91.7962 6.78027H9.73541V9.41642H91.7962V6.78027Z" fill="#EBEBEB"/>
<path d="M91.7962 9.74756H9.73541V12.3837H91.7962V9.74756Z" fill="#EBEBEB"/>
<path d="M91.7962 12.7104H9.73541V15.3466H91.7962V12.7104Z" fill="#EBEBEB"/>
<path d="M91.7962 15.6777H9.73541V18.3139H91.7962V15.6777Z" fill="#EBEBEB"/>
<path d="M91.7962 18.6453H9.73541V21.2814H91.7962V18.6453Z" fill="#EBEBEB"/>
<path d="M91.7962 21.6079H9.73541V24.2441H91.7962V21.6079Z" fill="#EBEBEB"/>
<path d="M91.7962 24.5754H9.73541V27.2116H91.7962V24.5754Z" fill="#EBEBEB"/>
<path d="M91.7962 27.5427H9.73541V30.1789H91.7962V27.5427Z" fill="#EBEBEB"/>
<path d="M91.7962 30.5056H9.73541V33.1418H91.7962V30.5056Z" fill="#EBEBEB"/>
<path d="M86.3485 6.24536H85.8899V67.0093H86.3485V6.24536Z" fill="#263238"/>
<path d="M86.9308 69.2147H85.3029L85.711 66.801H86.5226L86.9308 69.2147Z" fill="#263238"/>
<path d="M87.9993 6.24536H87.5407V94.147H87.9993V6.24536Z" fill="#263238"/>
<path d="M88.5816 95.9215H86.9583L87.3619 93.5078H88.1781L88.5816 95.9215Z" fill="#263238"/>
<path d="M94.6393 2.58228H6.8877V8.09594H94.6393V2.58228Z" fill="#DBDBDB"/>
<path d="M196.735 24.2961H147.265V88.5907H196.735V24.2961Z" fill="#EBEBEB"/>
<path d="M190.439 37.5811H153.391V38.7974H190.439V37.5811Z" fill="#DBDBDB"/>
<path d="M184.762 40.1274H153.391V41.3438H184.762V40.1274Z" fill="#DBDBDB"/>
<path d="M177.315 42.6687H153.391V43.885H177.315V42.6687Z" fill="#DBDBDB"/>
<path d="M189.146 45.2151H153.391V46.4314H189.146V45.2151Z" fill="#DBDBDB"/>
<path d="M186.105 47.7566H153.391V48.9729H186.105V47.7566Z" fill="#DBDBDB"/>
<path d="M187.339 52.844H153.391V54.0603H187.339V52.844Z" fill="#DBDBDB"/>
<path d="M166.396 55.3904H153.391V56.6067H166.396V55.3904Z" fill="#DBDBDB"/>
<path d="M179.617 57.9319H153.391V59.1482H179.617V57.9319Z" fill="#DBDBDB"/>
<path d="M189.146 60.478H153.391V61.6943H189.146V60.478Z" fill="#DBDBDB"/>
<path d="M184.221 63.0195H153.391V64.2359H184.221V63.0195Z" fill="#DBDBDB"/>
<path d="M186.798 68.1072H153.391V69.3235H186.798V68.1072Z" fill="#DBDBDB"/>
<path d="M173.614 70.6536H153.391V71.8699H173.614V70.6536Z" fill="#DBDBDB"/>
<path d="M173.614 78.3538H153.391V79.5701H173.614V78.3538Z" fill="#DBDBDB"/>
<path d="M187.316 83.4369C189.385 83.4369 191.062 81.7058 191.062 79.5703C191.062 77.4348 189.385 75.7036 187.316 75.7036C185.247 75.7036 183.569 77.4348 183.569 79.5703C183.569 81.7058 185.247 83.4369 187.316 83.4369Z" fill="#407BFF"/>
<path d="M158.912 29.2515C159.362 29.2517 159.8 29.4066 160.155 29.6916C160.17 29.7027 160.182 29.7168 160.191 29.7331C160.2 29.7493 160.206 29.7673 160.208 29.7859C160.21 29.8045 160.209 29.8234 160.203 29.8414C160.198 29.8593 160.19 29.876 160.178 29.8904C160.167 29.9052 160.154 29.9176 160.139 29.9271C160.124 29.9365 160.107 29.9427 160.09 29.9454C160.072 29.948 160.054 29.947 160.037 29.9425C160.02 29.9379 160.004 29.9298 159.99 29.9188C159.684 29.6672 159.304 29.5304 158.912 29.5307C158.466 29.5307 158.038 29.7137 157.722 30.0394C157.407 30.3652 157.229 30.807 157.229 31.2676C157.229 31.7283 157.407 32.1701 157.722 32.4958C158.038 32.8216 158.466 33.0045 158.912 33.0045C159.301 33.0106 159.679 32.8749 159.981 32.6212C159.995 32.6089 160.012 32.5999 160.029 32.5948C160.047 32.5898 160.066 32.5888 160.084 32.5919C160.103 32.5951 160.12 32.6023 160.135 32.6131C160.151 32.6238 160.164 32.6379 160.173 32.6543C160.187 32.6668 160.198 32.6821 160.205 32.6992C160.213 32.7163 160.217 32.7349 160.217 32.7537C160.217 32.7725 160.213 32.7911 160.205 32.8082C160.198 32.8254 160.187 32.8407 160.173 32.8531C159.816 33.1335 159.379 33.2848 158.931 33.2838C158.674 33.2838 158.42 33.2316 158.183 33.1303C157.946 33.029 157.731 32.8805 157.549 32.6933C157.368 32.506 157.224 32.2838 157.126 32.0392C157.028 31.7946 156.977 31.5324 156.977 31.2676C156.977 31.0029 157.028 30.7407 157.126 30.4961C157.224 30.2515 157.368 30.0292 157.549 29.842C157.731 29.6548 157.946 29.5063 158.183 29.4049C158.42 29.3036 158.674 29.2515 158.931 29.2515H158.912Z" fill="#A6A6A6"/>
<path d="M162.888 29.2515C163.279 29.2306 163.667 29.3314 164.002 29.5406C164.338 29.7498 164.604 30.058 164.768 30.4252C164.932 30.7924 164.985 31.2019 164.921 31.6006C164.856 31.9994 164.678 32.3691 164.408 32.6621C164.138 32.9551 163.789 33.1578 163.407 33.244C163.024 33.3303 162.625 33.2961 162.262 33.146C161.898 32.9958 161.586 32.7366 161.367 32.4017C161.148 32.0669 161.03 31.6718 161.031 31.2676C161.023 31.009 161.065 30.7512 161.154 30.5094C161.243 30.2676 161.378 30.0465 161.551 29.859C161.724 29.6714 161.931 29.5211 162.161 29.4168C162.39 29.3126 162.637 29.2563 162.888 29.2515ZM162.888 33.0045C163.224 33.0244 163.559 32.9397 163.848 32.7614C164.137 32.583 164.368 32.3192 164.51 32.0041C164.652 31.689 164.699 31.337 164.646 30.9938C164.592 30.6506 164.44 30.3319 164.209 30.079C163.978 29.826 163.679 29.6504 163.35 29.575C163.021 29.4995 162.678 29.5276 162.365 29.6556C162.051 29.7837 161.783 30.0057 161.593 30.2931C161.404 30.5805 161.302 30.92 161.301 31.2676C161.289 31.715 161.449 32.1491 161.747 32.4748C162.044 32.8004 162.455 32.9909 162.888 33.0045Z" fill="#A6A6A6"/>
<path d="M166.016 29.895V33.1464C166.019 33.1662 166.018 33.1866 166.014 33.2062C166.009 33.2257 166 33.2439 165.987 33.2594C165.975 33.2749 165.959 33.2874 165.941 33.296C165.924 33.3046 165.904 33.309 165.885 33.309C165.865 33.309 165.846 33.3046 165.828 33.296C165.811 33.2874 165.795 33.2749 165.782 33.2594C165.77 33.2439 165.761 33.2257 165.756 33.2062C165.751 33.1866 165.751 33.1662 165.754 33.1464V29.5022C165.745 29.4752 165.744 29.4459 165.753 29.4186C165.761 29.3913 165.778 29.3675 165.8 29.3507C165.829 29.3301 165.865 29.322 165.9 29.3282C165.936 29.3344 165.967 29.3543 165.988 29.3839L168.322 32.6968V29.4643C168.322 29.4287 168.335 29.3945 168.359 29.3689C168.383 29.3433 168.416 29.3283 168.451 29.3271C168.468 29.3264 168.486 29.3295 168.503 29.3361C168.519 29.3427 168.535 29.3527 168.548 29.3655C168.56 29.3784 168.571 29.3937 168.578 29.4107C168.585 29.4276 168.588 29.4459 168.588 29.4643V33.1227C168.588 33.1412 168.585 33.1594 168.578 33.1764C168.571 33.1933 168.56 33.2087 168.548 33.2215C168.535 33.2343 168.519 33.2443 168.503 33.2509C168.486 33.2575 168.468 33.2606 168.451 33.26C168.431 33.2598 168.412 33.255 168.394 33.246C168.377 33.237 168.361 33.224 168.35 33.2079C168.344 33.2061 168.339 33.2029 168.335 33.1988C168.332 33.1947 168.329 33.1898 168.327 33.1843L166.016 29.895Z" fill="#A6A6A6"/>
<path d="M170.918 29.5873H169.757C169.722 29.5861 169.688 29.5706 169.663 29.5441C169.638 29.5176 169.624 29.4822 169.624 29.4454C169.626 29.4093 169.64 29.3751 169.665 29.3496C169.689 29.3241 169.722 29.3093 169.757 29.3081H172.344C172.379 29.3093 172.412 29.3241 172.436 29.3496C172.461 29.3751 172.476 29.4093 172.477 29.4454C172.477 29.4822 172.463 29.5176 172.438 29.5441C172.413 29.5706 172.379 29.5861 172.344 29.5873H171.184V33.1464C171.184 33.1828 171.17 33.2177 171.145 33.2434C171.12 33.2692 171.086 33.2836 171.051 33.2836C171.015 33.2836 170.981 33.2692 170.957 33.2434C170.932 33.2177 170.918 33.1828 170.918 33.1464V29.5873Z" fill="#A6A6A6"/>
<path d="M175.421 32.3845C175.421 32.2655 175.393 32.1483 175.338 32.0434C175.284 31.9385 175.205 31.8492 175.109 31.7834C174.969 31.6881 174.814 31.6206 174.65 31.5846H174.623H173.706V33.1559C173.7 33.1885 173.683 33.218 173.658 33.2392C173.634 33.2604 173.602 33.2721 173.57 33.2721C173.538 33.2721 173.507 33.2604 173.482 33.2392C173.458 33.218 173.441 33.1885 173.435 33.1559V29.4549C173.437 29.4214 173.449 29.3895 173.471 29.3645C173.493 29.3395 173.522 29.323 173.554 29.3176H174.655C174.904 29.3203 175.145 29.4101 175.338 29.5723C175.531 29.7345 175.665 29.9595 175.719 30.2106C175.772 30.4617 175.741 30.724 175.631 30.9547C175.521 31.1854 175.339 31.3707 175.113 31.4805C175.13 31.4927 175.149 31.5023 175.168 31.5089C175.324 31.5952 175.453 31.7228 175.545 31.8784C175.636 32.0341 175.685 32.2121 175.687 32.3939C175.679 32.5532 175.694 32.7127 175.732 32.8672C175.743 32.9031 175.762 32.9357 175.788 32.9619C175.819 32.9581 175.85 32.9649 175.878 32.9811C175.905 32.9972 175.926 33.022 175.939 33.0518C175.947 33.0882 175.943 33.1266 175.928 33.1603C175.912 33.194 175.885 33.2209 175.852 33.2364H175.774C175.72 33.231 175.669 33.2111 175.626 33.1787C175.582 33.1462 175.548 33.1024 175.526 33.0518C175.437 32.8421 175.401 32.6125 175.421 32.3845ZM174.65 29.5874H173.701V31.3007H174.673C174.893 31.2975 175.103 31.2043 175.257 31.0414C175.41 30.8785 175.495 30.6594 175.492 30.4322C175.489 30.205 175.398 29.9884 175.241 29.8299C175.083 29.6715 174.87 29.5843 174.65 29.5874Z" fill="#A6A6A6"/>
<path d="M179.034 32.2566H177.278L176.939 33.2032C176.929 33.2294 176.912 33.252 176.89 33.2681C176.868 33.2842 176.842 33.2929 176.815 33.2931H176.764C176.731 33.2784 176.704 33.2511 176.69 33.2168C176.675 33.1825 176.674 33.1437 176.686 33.1085L178.021 29.4264C178.033 29.4007 178.052 29.3791 178.075 29.364C178.099 29.3489 178.126 29.341 178.154 29.3412C178.182 29.3398 178.209 29.3472 178.233 29.3624C178.257 29.3776 178.276 29.4 178.287 29.4264L179.621 33.1085C179.634 33.1426 179.634 33.1804 179.621 33.2146C179.609 33.2487 179.584 33.2767 179.552 33.2931H179.502C179.474 33.2926 179.448 33.2838 179.425 33.2678C179.402 33.2518 179.384 33.2294 179.374 33.2032L179.034 32.2566ZM177.379 31.9774H178.938L178.158 29.8429L177.379 31.9774Z" fill="#A6A6A6"/>
<path d="M182.093 29.2515C182.543 29.2517 182.98 29.4066 183.336 29.6916C183.35 29.7027 183.362 29.7168 183.372 29.7331C183.381 29.7493 183.387 29.7673 183.389 29.7859C183.391 29.8045 183.389 29.8234 183.384 29.8414C183.379 29.8593 183.37 29.876 183.359 29.8904C183.348 29.9052 183.335 29.9176 183.32 29.9271C183.305 29.9365 183.288 29.9427 183.27 29.9454C183.253 29.948 183.235 29.947 183.218 29.9425C183.201 29.9379 183.185 29.9298 183.171 29.9188C182.864 29.6672 182.484 29.5304 182.093 29.5307C181.647 29.5307 181.218 29.7137 180.903 30.0394C180.587 30.3652 180.41 30.807 180.41 31.2676C180.41 31.7283 180.587 32.1701 180.903 32.4958C181.218 32.8216 181.647 33.0045 182.093 33.0045C182.482 33.0106 182.86 32.8749 183.161 32.6212C183.176 32.6089 183.192 32.5999 183.21 32.5948C183.228 32.5898 183.247 32.5888 183.265 32.5919C183.283 32.5951 183.301 32.6023 183.316 32.6131C183.331 32.6238 183.344 32.6379 183.354 32.6543C183.368 32.6668 183.379 32.6821 183.386 32.6992C183.394 32.7163 183.397 32.7349 183.397 32.7537C183.397 32.7725 183.394 32.7911 183.386 32.8082C183.379 32.8254 183.368 32.8407 183.354 32.8531C182.997 33.1335 182.56 33.2848 182.111 33.2838C181.855 33.2838 181.601 33.2316 181.364 33.1303C181.127 33.029 180.911 32.8805 180.73 32.6933C180.548 32.506 180.405 32.2838 180.306 32.0392C180.208 31.7946 180.158 31.5324 180.158 31.2676C180.158 31.0029 180.208 30.7407 180.306 30.4961C180.405 30.2515 180.548 30.0292 180.73 29.842C180.911 29.6548 181.127 29.5063 181.364 29.4049C181.601 29.3036 181.855 29.2515 182.111 29.2515H182.093Z" fill="#A6A6A6"/>
<path d="M185.509 29.5873H184.349C184.313 29.5861 184.28 29.5706 184.255 29.5441C184.23 29.5176 184.216 29.4822 184.216 29.4454C184.217 29.4093 184.232 29.3751 184.256 29.3496C184.281 29.3241 184.314 29.3093 184.349 29.3081H186.935C186.97 29.3093 187.003 29.3241 187.028 29.3496C187.053 29.3751 187.067 29.4093 187.068 29.4454C187.069 29.4638 187.066 29.4821 187.06 29.4993C187.053 29.5165 187.043 29.5322 187.031 29.5455C187.019 29.5587 187.004 29.5693 186.987 29.5765C186.971 29.5836 186.953 29.5873 186.935 29.5873H185.775V33.1464C185.775 33.1828 185.761 33.2177 185.736 33.2434C185.711 33.2692 185.677 33.2836 185.642 33.2836C185.607 33.2836 185.573 33.2692 185.548 33.2434C185.523 33.2177 185.509 33.1828 185.509 33.1464V29.5873Z" fill="#A6A6A6"/>
<path d="M103.879 149.468H194.726L196.616 111H101.99L103.879 149.468Z" fill="#EBEBEB"/>
<path d="M190.421 128.611H152.437L151.727 115.255H191.251L190.421 128.611ZM152.873 128.138H189.99L190.76 115.728H152.213L152.873 128.138Z" fill="#DBDBDB"/>
<path d="M189.719 143.974H153.928L153.345 131.919H190.448L189.719 143.974ZM154.363 143.5H189.288L189.962 132.392H153.827L154.363 143.5Z" fill="#DBDBDB"/>
<path d="M175.086 123.372H168.703L168.304 120.149H175.49L175.086 123.372ZM169.125 122.898H174.701L174.985 120.622H168.84L169.125 122.898Z" fill="#DBDBDB"/>
<path d="M175.086 139.558H168.703L168.304 136.335H175.49L175.086 139.558ZM169.125 139.084H174.701L174.985 136.808H168.84L169.125 139.084Z" fill="#DBDBDB"/>
<path d="M145.747 128.611H107.764L107.053 115.255H146.577L145.747 128.611ZM108.199 128.138H145.316L146.072 115.728H107.553L108.199 128.138Z" fill="#DBDBDB"/>
<path d="M145.045 143.974H109.254L108.672 131.919H145.774L145.045 143.974ZM109.69 143.5H144.614L145.288 132.392H109.153L109.69 143.5Z" fill="#DBDBDB"/>
<path d="M130.412 123.372H124.029L123.63 120.149H130.816L130.412 123.372ZM124.451 122.898H130.022L130.307 120.622H124.162L124.451 122.898Z" fill="#DBDBDB"/>
<path d="M130.412 139.558H124.029L123.63 136.335H130.816L130.412 139.558ZM124.451 139.084H130.022L130.307 136.808H124.162L124.451 139.084Z" fill="#DBDBDB"/>
<path d="M112.028 149.468L111.455 153.661L110.309 162.081H108.066V149.468H112.028Z" fill="#EBEBEB"/>
<path d="M112.028 149.468L111.455 153.661H108.066V149.468H112.028Z" fill="#DBDBDB"/>
<path d="M186.578 149.468L187.146 153.661L188.297 162.081H190.54V149.468H186.578Z" fill="#EBEBEB"/>
<path d="M186.578 149.468L187.146 153.661H190.54V149.468H186.578Z" fill="#DBDBDB"/>
<path d="M100.674 200C146.372 200 183.418 195.018 183.418 188.873C183.418 182.728 146.372 177.746 100.674 177.746C54.9758 177.746 17.9301 182.728 17.9301 188.873C17.9301 195.018 54.9758 200 100.674 200Z" fill="#EBEBEB"/>
<path d="M24.7719 176.696C38.453 176.696 49.5437 173.954 49.5437 170.572C49.5437 167.189 38.453 164.448 24.7719 164.448C11.0907 164.448 0 167.189 0 170.572C0 173.954 11.0907 176.696 24.7719 176.696Z" fill="#EBEBEB"/>
<path d="M1.34821 162.081L26.1797 161.967L51.0112 161.925L100.674 161.849L150.337 161.925L175.169 161.967L200 162.081L175.169 162.199L150.337 162.242L100.674 162.318L51.0112 162.242L26.1797 162.199L1.34821 162.081Z" fill="#263238"/>
<path d="M25.501 80.1192C25.501 80.1192 13.1701 78.3397 16.0499 62.9724C16.0499 62.9724 29.8299 66.167 25.501 80.1192Z" fill="#407BFF"/>
<path opacity="0.1" d="M25.501 80.1192C25.501 80.1192 13.1701 78.3397 16.0499 62.9724C16.0499 62.9724 29.8299 66.167 25.501 80.1192Z" fill="black"/>
<path d="M24.8773 76.9104C24.6364 76.1338 24.3563 75.3708 24.0381 74.6244C24.0381 74.5251 24.0381 74.4257 24.006 74.331C24.006 74.118 23.9693 73.9098 23.9556 73.6968C23.9189 73.2235 23.8914 72.7787 23.8639 72.3196C23.8134 71.4014 23.7584 70.4833 23.7446 69.5651C23.7446 69.5131 23.6667 69.5178 23.6667 69.5651C23.6667 70.488 23.6667 71.4062 23.6667 72.3243C23.6667 72.7976 23.7125 73.2425 23.7401 73.7016C23.7401 73.8057 23.7401 73.9051 23.7401 74.0092C23.047 72.4788 22.218 71.0181 21.2638 69.6456C20.8617 69.0339 20.4285 68.4446 19.966 67.8803C19.4754 67.2981 18.9572 66.7444 18.4573 66.1717C18.4252 66.1339 18.3748 66.1717 18.4069 66.2285C19.2924 67.2393 20.0874 68.3307 20.7823 69.4894C21.1583 70.0715 21.5114 70.6726 21.8508 71.2831L21.7361 71.2405L21.2775 71.0559L20.2687 70.6631C19.6084 70.4076 18.948 70.1615 18.2877 69.9012C18.2464 69.9012 18.2189 69.9579 18.2602 69.9721C18.9159 70.2419 19.5625 70.5259 20.2137 70.8146L21.1675 71.2405L21.649 71.444C21.7523 71.4974 21.8617 71.5372 21.9746 71.5624C22.2222 72.0356 22.4698 72.4852 22.6991 72.9585C23.271 74.149 23.7733 75.3739 24.2032 76.6264C24.2353 76.7116 24.2628 76.8015 24.2949 76.8914C23.9692 76.698 23.6305 76.5288 23.2815 76.385L22.0067 75.7887C21.14 75.377 20.2824 74.9605 19.4524 74.4777C19.4439 74.4727 19.4338 74.4714 19.4244 74.4741C19.4149 74.4767 19.4069 74.4831 19.402 74.4919C19.3971 74.5007 19.3958 74.5111 19.3984 74.5209C19.401 74.5307 19.4072 74.539 19.4158 74.544C20.2641 75.0173 21.0941 75.5331 21.9425 76.0064C22.3689 76.2431 22.7954 76.4797 23.231 76.6927C23.5895 76.9126 23.9796 77.0723 24.3866 77.1659C24.8004 78.3305 25.073 79.5434 25.1983 80.777C25.3359 82.514 25.3221 84.2651 25.3634 86.0067H25.4047C25.5285 84.426 25.5973 82.8311 25.6064 81.2456C25.5884 79.7697 25.3423 78.3062 24.8773 76.9104Z" fill="#263238"/>
<path d="M22.9788 67.8756C22.8598 68.7739 22.8183 69.6815 22.855 70.5874C22.855 70.6111 22.8917 70.6111 22.8917 70.5874C22.9422 69.6882 22.9513 68.789 23.0522 67.8945C23.0568 67.8472 22.9834 67.8282 22.9788 67.8756Z" fill="#263238"/>
<path d="M19.4525 68.6469C18.9011 68.4286 18.3701 68.1593 17.8658 67.8423C17.8245 67.8139 17.7879 67.8849 17.8291 67.9086C18.3232 68.2527 18.8641 68.5191 19.4341 68.6989C19.4616 68.7084 19.5075 68.6611 19.4525 68.6469Z" fill="#263238"/>
<path d="M25.8954 104.512C25.8954 103.092 25.8587 101.701 25.8449 100.295C25.8174 95.6237 25.7807 90.9525 25.6982 86.2813C25.634 82.5708 25.5499 78.8634 25.446 75.1593C25.4457 75.1496 25.443 75.1402 25.4382 75.1319C25.4333 75.1236 25.4266 75.1168 25.4185 75.1119C25.4185 74.0991 25.4185 73.0863 25.4185 72.0735C25.4185 72.0451 25.3909 72.0356 25.3588 72.0356C25.3267 72.0356 25.2992 72.0356 25.3038 72.0735C25.3038 73.0895 25.3038 74.1039 25.3038 75.1167C25.3038 75.1167 25.2717 75.1403 25.2717 75.1593C25.0929 81.7851 24.9324 88.3589 24.8911 94.9611C24.8911 96.3053 24.8911 97.6446 24.8911 98.9887C24.8452 103.289 24.8284 107.593 24.8407 111.9C24.8407 112.581 24.8407 113.267 24.8407 113.954C24.8407 117.891 24.8819 121.829 24.8819 125.786C24.8819 125.994 25.1112 126.103 25.3405 126.112C25.5698 126.122 25.9137 126.008 25.9137 125.767C25.9137 121.427 25.9412 117.082 25.9412 112.742C25.9275 109.988 25.9275 107.247 25.8954 104.512Z" fill="#263238"/>
<path d="M20.7456 100.238C20.7456 100.238 14.8118 95.7042 9.18514 98.7616C3.55851 101.819 2.66888 113.641 2.66888 113.641C2.66888 113.641 10.9231 114.862 16.1416 109.746C21.1584 104.824 20.7456 100.238 20.7456 100.238Z" fill="#407BFF"/>
<path d="M22.3598 100.517C21.2703 100.069 20.0903 99.9067 18.9251 100.044C18.6858 100 18.4436 99.9749 18.2006 99.9685L17.3614 99.9022L15.6326 99.7792C14.4632 99.6892 13.2893 99.6135 12.1199 99.4905C12.1119 99.4934 12.1048 99.4988 12.0999 99.506C12.0949 99.5132 12.0922 99.5219 12.0922 99.5307C12.0922 99.5395 12.0949 99.5482 12.0999 99.5554C12.1048 99.5626 12.1119 99.568 12.1199 99.5709C13.2755 99.7224 14.4128 99.8928 15.5821 100.011C16.1783 100.073 16.7744 100.139 17.3751 100.181L17.8062 100.224C17.6319 100.267 17.4531 100.309 17.2788 100.361C16.3481 100.641 15.4477 101.018 14.5916 101.488C14.1331 101.573 13.6745 101.71 13.2159 101.819C12.4822 101.999 11.7531 102.193 11.024 102.392C9.58407 102.78 8.15792 103.22 6.72719 103.651C6.68133 103.651 6.70426 103.736 6.72719 103.722C8.15333 103.362 9.59324 103.031 11.024 102.68L13.1059 102.164L13.6516 102.032C12.0599 103.054 10.6371 104.332 9.43732 105.818C8.28263 107.285 7.30055 108.888 6.51166 110.594C6.51166 110.636 6.54834 110.679 6.57586 110.636C7.5524 108.893 8.74392 107.288 10.1206 105.861C10.0931 105.941 10.0701 106.026 10.0426 106.107L9.71246 107.186C9.49235 107.91 9.2539 108.629 9.0613 109.354C9.0613 109.401 9.12091 109.415 9.13467 109.354C9.38688 108.653 9.62534 107.934 9.86379 107.247C9.97843 106.902 10.0977 106.561 10.2123 106.216C10.2765 106.036 10.3361 105.856 10.3911 105.676C10.3911 105.624 10.4324 105.567 10.4508 105.511C11.1118 104.848 11.8134 104.23 12.551 103.66C13.5305 102.92 14.5872 102.297 15.7014 101.8C15.7014 101.904 15.6647 102.013 15.6418 102.112C15.5821 102.392 15.5225 102.671 15.4675 102.95C15.3529 103.528 15.2428 104.11 15.1327 104.692C14.908 105.875 14.7705 107.058 14.5549 108.26C14.5549 108.312 14.6191 108.331 14.6283 108.26C14.8943 107.068 15.2382 105.894 15.495 104.701C15.6234 104.105 15.7518 103.509 15.8756 102.912L16.0407 102.07C16.0682 101.914 16.1049 101.757 16.1233 101.597L16.4442 101.459C17.9988 100.863 19.7184 100.432 21.3784 100.764C22.1637 100.914 22.9007 101.262 23.524 101.777C24.1472 102.292 24.6374 102.959 24.9507 103.717C25.0057 103.849 25.2075 103.764 25.1754 103.627C24.8544 102.179 23.6667 101.085 22.3598 100.517Z" fill="#263238"/>
<path d="M13.2802 105.562C13.1151 106.339 12.9454 107.115 12.7803 107.891C12.5929 108.634 12.4551 109.39 12.3676 110.153C12.3676 110.186 12.4043 110.186 12.4135 110.153C12.6319 109.407 12.8004 108.647 12.9179 107.877C13.0646 107.11 13.2114 106.343 13.3535 105.577C13.3627 105.534 13.2893 105.515 13.2802 105.562Z" fill="#263238"/>
<path d="M7.54342 107.536C6.78678 107.929 6.05766 108.379 5.25058 108.705C5.24606 108.707 5.24195 108.71 5.23847 108.713C5.23498 108.717 5.23221 108.721 5.23029 108.726C5.22837 108.73 5.22736 108.735 5.2273 108.74C5.22724 108.745 5.22814 108.75 5.22994 108.755C5.23175 108.76 5.23443 108.764 5.23783 108.767C5.24122 108.771 5.24527 108.774 5.24974 108.776C5.25422 108.778 5.25902 108.779 5.26388 108.779C5.26875 108.779 5.27358 108.778 5.27809 108.776C6.06748 108.415 6.83746 108.011 7.58469 107.565C7.58469 107.565 7.58469 107.527 7.54342 107.536Z" fill="#263238"/>
<path d="M22.0801 91.9086C22.0801 91.9086 14.8301 92.3818 11.455 87.455C8.07998 82.5282 8.8412 75.4717 8.8412 75.4717C8.8412 75.4717 16.458 76.4182 19.48 79.9725C22.502 83.5268 22.0801 91.9086 22.0801 91.9086Z" fill="#407BFF"/>
<path d="M25.4689 99.2914C25.2167 98.4916 24.9048 97.7012 24.6113 96.9251C24.3179 96.1489 24.029 95.42 23.6942 94.6817C23.0485 93.1738 22.3245 91.7029 21.5252 90.2755C21.0116 89.3668 20.4613 88.4818 19.8973 87.611C19.8973 87.4785 19.8606 87.3459 19.8422 87.2134C19.8101 86.9815 19.778 86.7401 19.7413 86.5177C19.668 86.0444 19.59 85.5712 19.5121 85.0979C19.347 84.0614 19.1406 83.0344 18.9801 82.0027C18.9801 81.9553 18.8976 81.9553 18.9068 82.0027C19.0489 83.0249 19.1498 84.0519 19.2874 85.0742C19.3561 85.5759 19.4203 86.0776 19.4937 86.5792L19.5763 87.1235C18.4705 85.4531 17.2732 83.8492 15.9903 82.3197L15.4904 81.7234C15.4904 81.6666 15.4446 81.6098 15.4216 81.553C15.3666 81.4111 15.3162 81.2691 15.2657 81.1224C15.1557 80.8289 15.0548 80.5308 14.9493 80.2326C14.7475 79.6457 14.5641 79.0541 14.4082 78.4531C14.4082 78.4058 14.3257 78.4294 14.3394 78.4531C14.4862 79.0683 14.6375 79.6789 14.798 80.2847C14.8851 80.5781 14.9768 80.8668 15.0777 81.1555C15.0777 81.2028 15.1098 81.2501 15.1281 81.2975C14.211 80.2563 13.2343 79.2529 12.2575 78.259C12.2254 78.2259 12.175 78.259 12.2071 78.3158C14.0804 80.3388 15.7976 82.5099 17.343 84.8092C17.1672 84.7518 16.988 84.7059 16.8065 84.6719C16.2471 84.5583 15.6876 84.4779 15.1236 84.4022C13.9405 84.246 12.7619 84.0945 11.588 83.9005C11.5376 83.9005 11.5192 83.9667 11.588 83.9762C12.7115 84.2034 13.8212 84.4495 14.9401 84.7335C15.4675 84.8565 15.9948 84.9606 16.5222 85.0695C16.9548 85.1646 17.3806 85.2895 17.797 85.4434C17.9117 85.6185 18.0355 85.7889 18.1501 85.964C18.6821 86.7591 19.1911 87.5778 19.6909 88.3966L18.9526 88.2499C18.3932 88.1363 17.8291 88.0322 17.2697 87.9375C16.1645 87.7482 15.0548 87.5495 13.9634 87.2939C13.9175 87.2939 13.8992 87.3601 13.9634 87.3696C15.0731 87.6394 16.1691 87.9517 17.2697 88.2546C17.8016 88.4013 18.3381 88.5339 18.8747 88.6569L19.6771 88.8368C19.7853 88.866 19.8958 88.885 20.0073 88.8936C21.0666 90.6636 22.0571 92.481 22.9788 94.3315C23.3824 95.1455 23.7722 95.969 24.1482 96.7925C24.5242 97.616 24.8681 98.5105 25.2258 99.3719C25.2763 99.5517 25.5377 99.4807 25.4689 99.2914Z" fill="#263238"/>
<path d="M18.0584 82.0974C17.9208 81.3828 17.7741 80.6776 17.5998 79.9582C17.5998 79.9109 17.5173 79.9346 17.5265 79.9582C17.664 80.6587 17.797 81.3781 17.9208 82.0643C18.022 82.7699 18.1582 83.4697 18.329 84.1609C18.2857 83.4674 18.1953 82.7779 18.0584 82.0974Z" fill="#263238"/>
<path d="M13.8304 81.8894C13.4957 81.7143 13.138 81.577 12.7895 81.4161L12.2392 81.1937L11.9594 81.0801C11.8523 81.0445 11.7493 80.9969 11.6522 80.9381C11.5972 80.9002 11.5651 80.9949 11.6201 81.0044C11.7277 81.0346 11.8309 81.0791 11.9273 81.1369L12.2025 81.2647L12.7344 81.506C13.0819 81.6742 13.4387 81.8212 13.8029 81.9462C13.8442 81.9793 13.8717 81.9083 13.8304 81.8894Z" fill="#263238"/>
<path d="M29.4997 86.0256C29.4997 86.0256 33.8882 77.5682 40.5604 76.2572C47.2325 74.9462 51.323 82.0359 51.323 82.0359C51.323 82.0359 46.453 88.4535 40.3173 89.5752C34.1817 90.6968 29.4997 86.0256 29.4997 86.0256Z" fill="#407BFF"/>
<path d="M45.036 80.0481C43.2967 79.8049 41.5322 79.8272 39.7992 80.1144L40.0972 79.9487L41.5784 79.1631C42.5961 78.5823 43.6414 78.0547 44.7104 77.5823C44.7609 77.5587 44.7104 77.4877 44.6829 77.5114C43.6374 78.013 42.5552 78.4579 41.5096 78.9312C40.9823 79.1773 40.4687 79.4376 39.9597 79.7168C39.6295 79.8967 39.2672 80.067 38.9417 80.2848C37.4755 80.5883 36.0509 81.0762 34.6999 81.7377L35.5345 80.7912C36.1536 80.086 36.768 79.3477 37.4513 78.7087C37.488 78.6756 37.4513 78.6236 37.3963 78.6567C36.6993 79.3098 35.961 79.9156 35.2823 80.5971C34.9567 80.9284 34.6403 81.2692 34.333 81.6241C34.1817 81.7992 34.0258 81.9791 33.8745 82.1684C31.5821 83.4351 29.5904 85.2105 28.0426 87.3669C26.4948 89.5232 25.4294 92.0069 24.9232 94.6392C24.9232 94.6865 24.9828 94.7102 24.9966 94.6629C25.9367 91.4385 27.6203 88.4974 29.9033 86.0918C32.3636 83.5136 35.4582 81.6762 38.8545 80.777C40.8692 80.2471 42.9528 80.0522 45.0269 80.1996C45.0463 80.2008 45.0655 80.194 45.0801 80.1807C45.0947 80.1674 45.1036 80.1487 45.1048 80.1286C45.106 80.1085 45.0995 80.0887 45.0866 80.0736C45.0737 80.0585 45.0555 80.0494 45.036 80.0481Z" fill="#263238"/>
<path opacity="0.1" d="M51.323 82.0361C51.323 82.0361 46.453 88.4538 40.3174 89.5754C35.6446 90.4273 31.8018 87.9142 30.2289 86.6742L29.8895 86.1016C29.8895 86.1016 33.0491 83.3566 39.0288 81.7711C45.0085 80.1856 51.323 82.0361 51.323 82.0361Z" fill="black"/>
<path d="M41.1565 77.0334C40.6456 77.3417 40.1512 77.6782 39.6753 78.0414C39.2116 78.4065 38.7803 78.8135 38.3867 79.2577C38.3816 79.2662 38.3795 79.2762 38.3808 79.286C38.3821 79.2959 38.3866 79.3049 38.3937 79.3117C38.4008 79.3184 38.4099 79.3224 38.4195 79.3229C38.4291 79.3234 38.4386 79.3205 38.4464 79.3145C38.9049 78.917 39.3314 78.5194 39.7945 78.1456C40.2406 77.7669 40.7093 77.4176 41.1978 77.0996C41.202 77.0968 41.2056 77.0932 41.2085 77.0889C41.2113 77.0847 41.2134 77.0799 41.2144 77.0748C41.2155 77.0698 41.2156 77.0646 41.2147 77.0595C41.2138 77.0544 41.2119 77.0495 41.2092 77.0452C41.2065 77.0408 41.203 77.0371 41.1989 77.0341C41.1948 77.0312 41.1901 77.0291 41.1852 77.028C41.1803 77.0269 41.1753 77.0268 41.1703 77.0277C41.1654 77.0286 41.1607 77.0306 41.1565 77.0334Z" fill="#263238"/>
<path d="M44.8205 78.4627C44.5728 78.5716 44.3206 78.6615 44.073 78.7704L43.3301 79.0875C43.2797 79.0875 43.3026 79.201 43.3576 79.1774L44.1005 78.865C44.3527 78.7609 44.5958 78.6426 44.8434 78.5385C44.8892 78.5195 44.8663 78.4438 44.8205 78.4627Z" fill="#263238"/>
<path d="M28.6238 96.6696C28.6238 96.6696 29.7978 105.061 35.9105 107.995C42.0232 110.929 49.4749 107.995 49.4749 107.995C49.4749 107.995 46.563 89.8449 28.6238 96.6696Z" fill="#407BFF"/>
<path d="M45.2607 102.548C44.7012 102.481 44.1372 102.382 43.5823 102.278L42.7569 102.117L42.3304 102.027C42.1653 101.871 42.0048 101.71 41.8352 101.554C40.6742 100.504 39.4215 99.5679 38.0933 98.7567C37.371 98.315 36.6237 97.9183 35.8554 97.5688H35.9701L37.9832 97.6587C39.3222 97.725 40.6658 97.7534 42.0048 97.8433C42.0553 97.8433 42.0507 97.7723 42.0048 97.7676C40.6567 97.6729 39.3176 97.5215 37.974 97.4032L36.0205 97.2233L35.0117 97.1334L34.7549 97.105C34.4064 96.9677 34.0579 96.84 33.7002 96.7264C32.034 96.1361 30.2418 96.0345 28.5229 96.4329C26.9867 96.84 25.4505 97.8812 25.0516 99.5518C25.0516 99.6086 25.1249 99.6512 25.1479 99.5944C25.7211 98.1746 27.2252 97.4884 28.5826 97.1997C29.4901 97.022 30.4202 97.0028 31.334 97.1429C31.3956 97.5751 31.4985 97.9999 31.6412 98.4112C31.8109 99.0028 31.976 99.5944 32.1502 100.181C32.4987 101.36 32.8793 102.548 33.2187 103.707C33.2187 103.717 33.2225 103.727 33.2294 103.734C33.2363 103.741 33.2456 103.745 33.2554 103.745C33.2651 103.745 33.2744 103.741 33.2813 103.734C33.2882 103.727 33.292 103.717 33.292 103.707C33.0077 102.529 32.7647 101.341 32.4896 100.158C32.3566 99.5802 32.2144 99.0028 32.0768 98.4254C31.9969 98.0221 31.8943 97.6238 31.7696 97.2328C32.3052 97.3292 32.8349 97.4571 33.3562 97.6161C34.294 97.9059 35.213 98.2568 36.1077 98.6668C36.1948 99.2631 36.3278 99.8547 36.4608 100.446C36.6258 101.185 36.8139 101.918 37.0386 102.642C37.0412 102.65 37.0459 102.656 37.052 102.66C37.0581 102.665 37.0655 102.667 37.0729 102.667C37.0804 102.667 37.0877 102.665 37.0939 102.66C37.1 102.656 37.1047 102.65 37.1073 102.642L37.0798 102.505C36.9423 101.819 36.7955 101.133 36.6534 100.446C36.5433 99.8926 36.4378 99.3389 36.3232 98.7899C37.0846 99.139 37.8284 99.5276 38.5518 99.9541C38.5518 100.124 38.6069 100.3 38.6298 100.456C38.6756 100.74 38.7261 101.028 38.7765 101.317C38.8912 101.961 39.015 102.609 39.1663 103.248C39.443 104.486 39.7937 105.704 40.2164 106.897C40.2112 106.904 40.2084 106.912 40.2084 106.921C40.2084 106.929 40.2112 106.938 40.2164 106.944L40.2531 106.987C40.2806 107.02 40.3219 106.987 40.3127 106.949C40.033 105.704 39.7074 104.469 39.4415 103.224C39.3131 102.6 39.1801 101.975 39.0563 101.331C38.9966 101.019 38.9416 100.707 38.882 100.385L38.8407 100.106C39.6641 100.603 40.4587 101.15 41.2207 101.743C42.5402 102.763 43.7611 103.912 44.8663 105.174C44.9076 105.226 44.9947 105.174 44.9534 105.099C44.4997 104.463 44.0145 103.851 43.4998 103.267C43.1925 102.926 42.8715 102.595 42.546 102.273H42.6468C42.9357 102.325 43.2201 102.368 43.5089 102.406C44.073 102.486 44.6416 102.543 45.2102 102.609C45.2928 102.619 45.3111 102.548 45.2607 102.548Z" fill="#263238"/>
<path d="M40.9685 105.388C40.9685 105.317 40.9685 105.241 40.9319 105.17C40.8952 105.099 40.8722 104.99 40.8585 104.895C40.7347 104.332 40.6292 103.769 40.5283 103.201C40.5283 103.163 40.4641 103.173 40.4641 103.201C40.5013 103.952 40.6562 104.692 40.9227 105.392C40.9227 105.416 40.9731 105.392 40.9685 105.392V105.388Z" fill="#263238"/>
<path d="M35.8509 105.25C35.8509 105.25 35.8509 105.212 35.8142 105.212C35.6399 104.469 35.4748 103.726 35.3281 102.978C35.2501 102.586 35.1722 102.193 35.0988 101.8C35.0575 101.587 35.0209 101.374 34.9842 101.161C34.9682 100.973 34.9233 100.79 34.8512 100.617C34.8486 100.609 34.8439 100.603 34.8377 100.599C34.8316 100.594 34.8243 100.592 34.8168 100.592C34.8093 100.592 34.802 100.594 34.7959 100.599C34.7897 100.603 34.785 100.609 34.7824 100.617C34.7776 100.998 34.8302 101.378 34.9383 101.743C35.0117 102.15 35.0896 102.562 35.1768 102.969C35.3556 103.797 35.5528 104.621 35.7821 105.435C35.7849 105.443 35.7902 105.45 35.7972 105.455C35.8041 105.461 35.8125 105.463 35.8211 105.463C35.8296 105.463 35.838 105.461 35.845 105.455C35.852 105.45 35.8572 105.443 35.86 105.435L35.8509 105.25Z" fill="#263238"/>
<path d="M44.7288 100.12C43.6099 99.9636 42.4955 99.7979 41.3766 99.6465C41.3308 99.6465 41.3124 99.7175 41.3766 99.7222C42.491 99.8926 43.6099 100.035 44.7288 100.195C44.7288 100.205 44.7517 100.129 44.7288 100.12Z" fill="#263238"/>
<path d="M25.4918 76.9908C25.4918 76.9908 21.7499 60.057 39.3818 53.1992C39.3818 53.1992 44.2702 75.4953 25.4918 76.9908Z" fill="#407BFF"/>
<path d="M29.298 67.3881L29.486 67.2697L30.4856 66.6923L32.5309 65.5139C33.8745 64.733 35.2043 63.9284 36.5571 63.1475C36.6029 63.1475 36.5571 63.0576 36.5204 63.0812C35.1447 63.8432 33.769 64.5579 32.4162 65.3009L30.3939 66.4036L29.5685 66.8769C30.1555 65.7269 30.7837 64.6005 31.4762 63.5119C32.3933 62.059 33.4067 60.6723 34.4568 59.3282C34.4678 59.3162 34.4737 59.3003 34.4733 59.2839C34.4728 59.2675 34.4661 59.2519 34.4546 59.2406C34.443 59.2293 34.4276 59.2232 34.4117 59.2237C34.3958 59.2241 34.3807 59.231 34.3697 59.243C32.8214 60.7934 31.4533 62.5246 30.293 64.4017C30.293 64.3402 30.293 64.2786 30.293 64.2218C30.293 63.8006 30.3251 63.3794 30.3297 62.9582C30.3297 62.13 30.3022 61.3017 30.3297 60.4782C30.3297 60.4262 30.2564 60.4309 30.2518 60.4782C30.2197 61.2923 30.1234 62.1063 30.0775 62.9203C30.0775 63.3226 30.0408 63.7296 30.0271 64.1366C30.0271 64.3544 30.0271 64.6099 30.0271 64.8466C29.6663 65.4429 29.3194 66.0471 28.9861 66.6592C28.3952 67.7634 27.8684 68.9028 27.4087 70.0715C27.4087 69.6503 27.3674 69.2291 27.3445 68.8079C27.2894 67.8613 27.184 66.9574 27.1427 66.0298C27.1427 66.0197 27.1388 66.0101 27.1319 66.003C27.1251 65.9959 27.1157 65.9919 27.106 65.9919C27.0963 65.9919 27.0869 65.9959 27.0801 66.003C27.0732 66.0101 27.0693 66.0197 27.0693 66.0298C27.0693 66.9763 27.0693 67.885 27.0693 68.8126C27.0693 69.2859 27.0968 69.7592 27.1243 70.2041C27.1243 70.3744 27.1243 70.5495 27.1564 70.7199C26.5958 72.234 26.1512 73.7911 25.8266 75.377C25.5207 77.0692 25.3019 78.777 25.1708 80.4931C25.3486 78.9494 25.6554 77.4245 26.088 75.9354C26.3035 75.1356 26.5465 74.3405 26.785 73.569C27.5187 73.2141 28.2203 72.7692 28.9265 72.3622L31.1414 71.1127C32.6134 70.2798 34.0808 69.4326 35.5987 68.699C35.64 68.699 35.5987 68.6091 35.5574 68.6328C34.0212 69.3474 32.4712 70.0526 30.9717 70.8146C30.2197 71.2074 29.4814 71.6239 28.7477 72.0498C28.1378 72.4048 27.505 72.7597 26.9134 73.1715C27.0831 72.6414 27.2619 72.1161 27.4591 71.6002C28.0002 70.1639 28.614 68.7579 29.298 67.3881Z" fill="#263238"/>
<path d="M27.8122 63.5118C27.8094 63.5034 27.8041 63.4962 27.7971 63.491C27.7902 63.4859 27.7818 63.4832 27.7732 63.4832C27.7647 63.4832 27.7563 63.4859 27.7493 63.491C27.7423 63.4962 27.7371 63.5034 27.7343 63.5118C27.7985 64.4583 27.8306 65.4427 27.9314 66.4082C27.9314 66.4195 27.9358 66.4303 27.9435 66.4383C27.9513 66.4463 27.9618 66.4508 27.9727 66.4508C27.9837 66.4508 27.9941 66.4463 28.0019 66.4383C28.0096 66.4303 28.014 66.4195 28.014 66.4082C27.9819 65.4427 27.881 64.482 27.8122 63.5118Z" fill="#263238"/>
<path d="M36.2636 66.7491C35.163 67.2224 34.0487 67.6436 32.9481 68.1169C32.9206 68.1169 32.9481 68.1831 32.9481 68.1689C34.0625 67.7383 35.1584 67.2697 36.2682 66.8248C36.3324 66.8059 36.3094 66.7302 36.2636 66.7491Z" fill="#263238"/>
<path d="M37.9419 58.9352C36.8624 59.4464 35.8149 60.0265 34.8053 60.6722C34.798 60.6805 34.7935 60.691 34.7925 60.7022C34.7915 60.7134 34.794 60.7246 34.7997 60.7342C34.8054 60.7438 34.8139 60.7512 34.824 60.7554C34.8341 60.7596 34.8452 60.7602 34.8557 60.7573C35.8784 60.1374 36.9193 59.5458 37.9786 59.0015C38.0245 59.0062 37.9832 58.9163 37.9419 58.9352Z" fill="#263238"/>
<path d="M37.6714 113.618H12.2438V141.281H37.6714V113.618Z" fill="#455A64"/>
<path d="M11.799 123.41H10.4966V170.794H11.799V123.41Z" fill="#263238"/>
<path d="M39.2901 123.41H37.9878V170.794H39.2901V123.41Z" fill="#263238"/>
<path d="M26.2347 123.41H24.9324V170.794H26.2347V123.41Z" fill="#263238"/>
<path d="M38.639 139.511H11.1478V143.34H38.639V139.511Z" fill="#263238"/>
<path d="M139.941 155.318C139.941 155.318 139.941 175.702 139.941 175.716C139.941 179.611 139.909 183.028 139.721 184.794C139.724 184.798 139.725 184.803 139.725 184.808C139.725 184.813 139.724 184.818 139.721 184.822C139.721 185.241 139.627 185.654 139.446 186.029L139.423 186.052C138.304 186.843 108.13 187.912 107.067 187.581C106.003 187.25 106.823 184.098 107.984 183.09C109.144 182.082 120.503 176.346 120.503 176.346L120.691 155.971L139.941 155.318Z" fill="#AD6359"/>
<path d="M139.937 171.528V175.716C139.937 179.611 139.905 183.028 139.717 184.794C139.719 184.798 139.72 184.803 139.72 184.808C139.72 184.813 139.719 184.818 139.717 184.822C139.669 185.234 139.577 185.638 139.441 186.029L139.419 186.052C138.3 186.843 108.126 187.912 107.062 187.581C105.998 187.25 106.819 184.098 107.979 183.09C109.139 182.082 120.498 176.346 120.498 176.346L120.443 172.086L139.937 171.528Z" fill="#C7C7C7"/>
<path d="M107.062 187.581C108.126 187.913 138.3 186.848 139.423 186.053C139.854 185.759 139.96 181.211 139.937 175.716V175.541L120.461 176.015L120.484 176.355C120.484 176.355 109.112 182.096 107.965 183.104C106.819 184.112 105.994 187.264 107.062 187.581Z" fill="#263238"/>
<path d="M107.36 186.365C112.446 186.052 132.971 185.305 138.015 185.418C138.057 185.418 138.057 185.447 138.015 185.451C132.971 185.868 112.455 186.45 107.365 186.469C107.259 186.45 107.255 186.369 107.36 186.365Z" fill="#455A64"/>
<path d="M118.843 176.464C120.833 175.991 123.291 176.237 124.868 177.656C124.932 177.713 124.868 177.798 124.79 177.78C122.856 177.211 120.868 176.857 118.861 176.724C118.831 176.721 118.803 176.707 118.782 176.685C118.761 176.662 118.748 176.633 118.746 176.602C118.744 176.571 118.752 176.54 118.77 176.515C118.788 176.489 118.813 176.471 118.843 176.464Z" fill="#455A64"/>
<path d="M117.43 177.415C119.416 176.942 121.878 177.188 123.456 178.608C123.515 178.66 123.456 178.75 123.373 178.731C121.439 178.162 119.451 177.808 117.444 177.676C117.414 177.672 117.387 177.657 117.366 177.634C117.346 177.612 117.334 177.582 117.332 177.551C117.33 177.52 117.339 177.49 117.357 177.465C117.375 177.44 117.401 177.422 117.43 177.415Z" fill="#455A64"/>
<path d="M116.013 178.362C118.003 177.888 120.461 178.139 122.039 179.554C122.103 179.611 122.039 179.701 121.961 179.682C120.027 179.112 118.039 178.757 116.032 178.622C116.002 178.619 115.974 178.605 115.953 178.582C115.932 178.56 115.919 178.531 115.917 178.5C115.914 178.469 115.923 178.438 115.941 178.413C115.958 178.387 115.984 178.369 116.013 178.362Z" fill="#455A64"/>
<path d="M141.67 79.75L141.652 81.0988L140.913 140.665L140.909 140.893L140.473 176.573L119.352 176.137L123.428 79.821L123.483 78.5337L123.69 67.3596H141.528L141.67 79.75Z" fill="#455A64"/>
<path d="M120.237 172.503C123.534 172.47 122.584 172.432 125.882 172.441C127.496 172.441 138.102 172.484 139.607 172.758C139.639 172.758 139.639 172.825 139.607 172.829C138.093 173.066 127.491 172.829 125.877 172.801C122.58 172.73 123.529 172.711 120.232 172.602C120.222 172.598 120.213 172.591 120.207 172.582C120.201 172.573 120.198 172.562 120.199 172.551C120.199 172.54 120.203 172.529 120.21 172.52C120.217 172.512 120.226 172.505 120.237 172.503Z" fill="#263238"/>
<path d="M129.697 86.0161C129.697 86.0061 129.693 85.9965 129.686 85.9894C129.679 85.9823 129.67 85.9783 129.66 85.9783C129.65 85.9783 129.641 85.9823 129.634 85.9894C129.627 85.9965 129.623 86.0061 129.623 86.0161C129.623 91.7191 129.399 94.9137 129.266 100.612C129.133 106.31 128.972 112.008 128.807 117.702C128.509 129.094 128.064 140.476 127.656 151.863C127.427 158.249 127.141 164.632 126.799 171.012C126.799 171.021 126.802 171.029 126.808 171.035C126.814 171.041 126.822 171.045 126.831 171.045C126.839 171.045 126.847 171.041 126.854 171.035C126.86 171.029 126.863 171.021 126.863 171.012C127.665 159.653 128.431 148.257 128.871 136.865C129.312 125.473 129.623 114.086 129.674 102.694C129.72 96.3004 129.683 92.4101 129.697 86.0161Z" fill="#263238"/>
<path d="M141.666 79.75L140.913 140.665L126.757 67.3596H141.523L141.666 79.75Z" fill="#263238"/>
<path d="M163.631 154.215C163.631 154.215 166.291 174.41 166.291 174.424C166.823 178.286 167.208 181.679 167.263 183.454C167.263 183.454 167.263 183.454 167.263 183.482C167.316 183.896 167.279 184.317 167.153 184.713C167.152 184.722 167.152 184.732 167.153 184.741C166.144 185.688 136.383 190.941 135.287 190.761C134.191 190.582 134.594 187.344 135.59 186.185C136.585 185.025 147.113 177.761 147.113 177.761L144.637 157.547L163.631 154.215Z" fill="#AD6359"/>
<path d="M165.745 170.278C165.745 170.278 166.291 174.41 166.291 174.424C166.823 178.286 167.208 181.68 167.263 183.454C167.263 183.454 167.263 183.454 167.263 183.483C167.271 183.896 167.234 184.309 167.153 184.713C167.152 184.723 167.152 184.732 167.153 184.742C166.144 185.688 136.383 190.942 135.287 190.762C134.191 190.582 134.594 187.345 135.59 186.185C136.585 185.026 147.113 177.761 147.113 177.761L146.485 173.539L165.745 170.278Z" fill="#C7C7C7"/>
<path d="M135.269 190.762C136.369 190.941 166.126 185.683 167.134 184.741C167.524 184.387 167.034 179.871 166.291 174.424L166.263 174.254L147.031 177.425L147.095 177.761C147.095 177.761 136.575 185.03 135.571 186.19C134.567 187.349 134.15 190.577 135.269 190.762Z" fill="#263238"/>
<path d="M135.406 189.512C140.404 188.499 160.627 184.898 165.672 184.306C165.713 184.306 165.717 184.33 165.672 184.339C160.742 185.456 140.478 188.887 135.434 189.616C135.314 189.631 135.301 189.536 135.406 189.512Z" fill="#455A64"/>
<path d="M145.49 178.106C147.402 177.377 149.869 177.264 151.616 178.447C151.685 178.494 151.616 178.594 151.552 178.584C149.562 178.288 147.546 178.213 145.54 178.362C145.51 178.363 145.481 178.352 145.457 178.333C145.434 178.314 145.418 178.286 145.412 178.256C145.406 178.225 145.41 178.194 145.425 178.166C145.439 178.139 145.462 178.118 145.49 178.106Z" fill="#455A64"/>
<path d="M144.211 179.242C146.123 178.513 148.59 178.4 150.337 179.588C150.406 179.63 150.337 179.73 150.273 179.72C148.282 179.426 146.267 179.351 144.261 179.498C144.231 179.498 144.202 179.488 144.178 179.469C144.155 179.449 144.138 179.422 144.132 179.392C144.126 179.361 144.131 179.33 144.145 179.302C144.159 179.275 144.183 179.254 144.211 179.242Z" fill="#455A64"/>
<path d="M142.936 180.383C144.848 179.654 147.311 179.54 149.062 180.723C149.131 180.771 149.062 180.87 148.998 180.861C147.008 180.562 144.992 180.487 142.986 180.638C142.956 180.639 142.927 180.629 142.903 180.609C142.88 180.59 142.864 180.563 142.858 180.532C142.852 180.502 142.856 180.47 142.87 180.443C142.885 180.415 142.908 180.394 142.936 180.383Z" fill="#455A64"/>
<path d="M125.505 67.3406C125.583 67.7192 126.831 73.6919 128.124 78.8223C129.064 82.5706 130.032 85.8646 130.586 86.2054C131.215 86.5887 134.278 87.9896 135.305 88.4298L139.996 134.73L146.338 177.6L167.075 174.287L152.318 80.4645L149.915 67.3406H125.505Z" fill="#455A64"/>
<path d="M146.462 173.298C149.718 172.758 148.755 172.862 152.038 172.351C153.634 172.105 164.126 170.5 165.653 170.543C165.685 170.543 165.694 170.6 165.653 170.609C164.195 171.083 153.675 172.502 152.075 172.711C148.805 173.146 149.741 172.985 146.467 173.387C146.459 173.383 146.452 173.377 146.447 173.369C146.443 173.362 146.44 173.353 146.439 173.344C146.439 173.335 146.441 173.326 146.445 173.318C146.449 173.309 146.455 173.303 146.462 173.298Z" fill="#263238"/>
<path d="M158.454 160.496C157.935 157.523 157.422 154.551 156.89 151.579C155.829 145.635 154.759 139.692 153.68 133.751C151.515 121.859 149.376 109.958 147.26 98.0468C146.077 91.3263 146.104 91.9557 145.073 85.2021C145.073 85.1595 144.99 85.1642 144.999 85.2021C145.99 91.2032 145.522 89.8875 146.457 95.8981C147.393 101.909 148.374 107.792 149.406 113.722C151.479 125.644 153.652 137.546 155.849 149.445C156.46 152.783 157.086 156.116 157.725 159.445C158.367 162.843 159.1 166.222 159.779 169.611C159.779 169.687 159.912 169.682 159.898 169.611C159.421 166.577 158.99 163.529 158.454 160.496Z" fill="#263238"/>
<path d="M152.754 85.6468C152.203 85.5001 151.612 85.4528 151.052 85.3629C150.594 85.2872 150.135 85.202 149.677 85.1026C148.814 84.9433 147.996 84.5876 147.283 84.0614C146.503 83.4366 146.104 82.4854 145.728 81.5719C145.502 81.0324 145.273 80.4929 145.041 79.9533L144.697 79.1724C144.536 78.8659 144.394 78.5498 144.27 78.2259C144.27 78.1785 144.183 78.2259 144.201 78.2259C144.279 78.447 144.344 78.6731 144.394 78.9026C144.472 79.163 144.541 79.4233 144.619 79.6836C144.761 80.1568 144.898 80.6301 145.045 81.1034C145.268 81.9573 145.59 82.7803 146.004 83.555C146.838 84.918 148.324 85.4717 149.81 85.6658C150.236 85.7178 150.667 85.751 151.098 85.7746C151.638 85.8243 152.182 85.8243 152.722 85.7746C152.734 85.7712 152.746 85.7644 152.755 85.7548C152.764 85.7453 152.771 85.7334 152.774 85.7204C152.777 85.7074 152.777 85.6937 152.773 85.6808C152.77 85.6679 152.763 85.6562 152.754 85.6468Z" fill="#263238"/>
<path d="M128.959 85.3868C131.146 86.2066 133.259 87.2233 135.273 88.4252C135.29 88.4334 135.303 88.4482 135.31 88.4663C135.316 88.4845 135.315 88.5046 135.307 88.5222C135.3 88.5398 135.285 88.5534 135.268 88.5601C135.25 88.5667 135.23 88.5659 135.213 88.5577C133.086 87.6112 130.917 86.7119 128.844 85.6518C128.815 85.6329 128.794 85.604 128.784 85.5703C128.774 85.5366 128.777 85.5004 128.791 85.4683C128.804 85.4361 128.829 85.4102 128.86 85.3953C128.891 85.3803 128.926 85.3773 128.959 85.3868Z" fill="#263238"/>
<path d="M128.317 70.3649C128.317 70.2891 128.454 70.2702 128.454 70.3649C128.453 72.8148 128.572 75.2632 128.812 77.7007C128.908 78.8318 129.789 85.079 131.692 84.6247C132.008 84.549 132.15 84.2224 132.219 83.7302C132.212 83.083 132.127 82.4391 131.967 81.8134C131.756 80.5024 131.586 79.1915 131.481 77.871C131.257 75.4108 131.283 72.9331 131.559 70.4785C131.559 70.4621 131.565 70.4465 131.576 70.4349C131.587 70.4234 131.602 70.4169 131.618 70.4169C131.634 70.4169 131.649 70.4234 131.66 70.4349C131.672 70.4465 131.678 70.4621 131.678 70.4785C131.625 73.8914 131.818 77.3037 132.256 80.687C132.494 82.3104 133.287 84.7572 131.641 85.008C129.995 85.2589 128.89 81.165 128.674 80.0434C128.149 76.8469 128.029 73.5934 128.317 70.3649Z" fill="#263238"/>
<path d="M131.641 84.7666C131.809 85.1895 131.951 85.6226 132.068 86.0633C132.19 86.4039 132.251 86.7649 132.247 87.1282C132.244 87.143 132.237 87.1566 132.227 87.1673C132.217 87.1781 132.204 87.1854 132.189 87.1885C132.175 87.1915 132.16 87.1901 132.147 87.1844C132.133 87.1788 132.122 87.1691 132.114 87.1566C131.909 86.8381 131.754 86.4883 131.655 86.1201C131.508 85.7226 131.357 85.3203 131.224 84.918C131.204 84.8609 131.208 84.7981 131.233 84.7436C131.259 84.689 131.304 84.647 131.359 84.6269C131.415 84.6069 131.475 84.6103 131.528 84.6365C131.581 84.6627 131.622 84.7094 131.641 84.7666Z" fill="#263238"/>
<path d="M152.534 81.842C150.021 81.6716 123.483 78.529 123.483 78.529L123.69 67.355H125.524H149.934L152.336 80.4789L152.534 81.842Z" fill="#263238"/>
<path d="M133.948 41.6939C130.912 51.5001 125.772 61.6235 124.286 63.616C120.301 68.9735 108.328 74.2505 104.673 74.9321C103.091 75.2255 99.2984 64.6951 100.28 63.2469C101.261 61.7986 116.142 55.93 116.871 55.1491C117.375 54.6048 123.653 46.2562 127.876 41.2206C133.154 34.9591 134.746 39.1287 133.948 41.6939Z" fill="#AD6359"/>
<path d="M103.458 61.2023L109.336 73.5075C109.336 73.5075 121.832 67.9181 124.809 63.9284C127.785 59.9386 133.177 46.4171 133.98 42.1103C134.782 37.8035 133.398 34.7272 127.808 41.0218C122.218 47.3164 117.586 53.5873 116.586 54.6379C115.587 55.6886 103.458 61.2023 103.458 61.2023Z" fill="#EBEBEB"/>
<path d="M103.953 60.5775L110.996 73.3276C110.996 73.3276 122.002 67.8991 124.809 64.3353C127.615 60.7716 132.242 49.8294 133.691 43.9229C135.14 38.0165 134.292 33.828 127.812 41.0549C121.333 48.2818 117.669 53.5304 116.348 54.7089C115.72 55.22 103.953 60.5775 103.953 60.5775Z" fill="#37474F"/>
<path d="M106.92 61.756C107.277 61.756 107.566 61.4573 107.566 61.0887C107.566 60.7202 107.277 60.4214 106.92 60.4214C106.563 60.4214 106.273 60.7202 106.273 61.0887C106.273 61.4573 106.563 61.756 106.92 61.756Z" fill="#263238"/>
<path d="M109.969 60.3078C110.326 60.3078 110.616 60.009 110.616 59.6405C110.616 59.2719 110.326 58.9731 109.969 58.9731C109.612 58.9731 109.323 59.2719 109.323 59.6405C109.323 60.009 109.612 60.3078 109.969 60.3078Z" fill="#263238"/>
<path d="M133.691 43.9038C132.242 49.8103 127.62 60.7335 124.808 64.3162C123.607 65.8449 120.92 67.7096 118.228 69.3471L132.412 37.2874C134.608 36.6721 134.677 39.8904 133.691 43.9038Z" fill="#263238"/>
<path d="M153.919 77.1516C153.845 77.2368 122.121 77.3362 121.819 77.0002C121.411 76.5269 128.578 41.0312 131.834 36.6723C132.526 35.7258 134.824 35.4749 136.777 35.7258C137.287 35.7851 137.79 35.8912 138.281 36.0429H138.336C138.733 36.1635 139.106 36.3523 139.442 36.6013C144.871 41.0785 149.447 56.7298 150.516 61.4294C152.304 69.1864 154.18 76.844 153.919 77.1516Z" fill="#EBEBEB"/>
<path d="M139.35 36.1848C139.35 36.1848 136.768 50.7144 136.319 54.4911C135.869 58.2679 136.53 78.2165 136.53 78.2165L156.45 79.7357C156.45 79.7357 152.144 66.5313 152.093 65.6936C152.093 65.6936 148.517 49.8767 145.164 43.2698C143.7 40.5338 141.724 38.1255 139.35 36.1848Z" fill="#37474F"/>
<path d="M156.45 79.7357L147.416 79.0447L140.969 37.6472V37.6756L145.013 43.0236C145.059 43.1088 145.105 43.194 145.146 43.2792C148.498 49.9051 152.075 65.703 152.075 65.703C152.144 66.5313 156.45 79.7357 156.45 79.7357Z" fill="#263238"/>
<path d="M131.641 36.502C131.641 36.502 129.527 51.2161 129.298 52.4324C129.069 53.6488 125.868 77.6439 125.868 77.6439L120.883 77.8048L123.483 66.8342C123.483 66.8342 129.266 39.635 131.641 36.502Z" fill="#37474F"/>
<path d="M134.553 44.576L133.141 41.7363L131.316 43.7904L131.765 45.8349L133.563 46.0763L134.553 44.576Z" fill="#263238"/>
<path d="M133.563 46.0763L134.425 66.9668L130.632 73.8766L128.661 66.1007L131.765 45.835L133.563 46.0763Z" fill="#263238"/>
<path d="M132.768 103.814L132.743 128.348L171.978 128.391L172.003 103.856L132.768 103.814Z" fill="#407BFF"/>
<path opacity="0.1" d="M132.766 103.816L132.754 115.369L171.989 115.412L172.001 103.859L132.766 103.816Z" fill="black"/>
<path d="M131.831 111.65L172.924 111.695L172.935 100.246L131.843 100.202L131.831 111.65Z" fill="#407BFF"/>
<path d="M143.743 93.6877L143.734 100.214L146.71 100.219L146.714 96.5037L158.064 96.5179L158.059 100.233H161.035L161.04 93.7019L143.743 93.6877Z" fill="#263238"/>
<path d="M164.6 114.416L167.278 114.419L167.284 108.948L164.606 108.945L164.6 114.416Z" fill="#263238"/>
<path d="M137.467 114.393L140.145 114.396L140.15 108.925L137.472 108.922L137.467 114.393Z" fill="#263238"/>
<path d="M143.734 40.5485C152.584 48.8356 158.202 60.6722 158.582 63.0622C159.499 68.8409 160.659 78.9691 160.462 83.4131C160.389 85.0601 148.296 83.0629 148.319 81.3023C148.397 75.7934 147.687 63.6775 147.654 63.4645C147.439 61.9832 144.807 55.3242 142.152 48.102C139.497 40.8798 140.01 37.0699 143.734 40.5485Z" fill="#AD6359"/>
<path d="M147.044 98.5674C147.397 98.733 147.791 98.7832 148.172 98.7112C148.553 98.6393 148.904 98.4488 149.177 98.1651C149.522 98.7436 150.053 99.179 150.676 99.3957C151.791 99.7269 152.781 98.0657 152.781 98.0657C153.262 98.589 153.883 98.9517 154.565 99.107C155.661 99.3105 156.895 97.7818 156.895 97.7818C157.592 98.0085 158.344 97.9716 159.018 97.6777C160.16 97.1239 161.127 93.7447 161.366 91.7996C161.604 89.8544 160.508 84.1041 160.407 82.9872L148.319 81.3118C148.319 81.3118 144.853 89.7266 144.889 92.0551C144.921 94.0287 145.715 97.8859 147.044 98.5674Z" fill="#AD6359"/>
<path d="M148.993 98.0515C148.475 95.9738 148.581 93.8488 148.572 91.7285C148.572 91.7185 148.575 91.7089 148.582 91.7018C148.589 91.6947 148.599 91.6907 148.608 91.6907C148.618 91.6907 148.627 91.6947 148.634 91.7018C148.641 91.7089 148.645 91.7185 148.645 91.7285C148.645 93.8393 149.021 95.9265 149.104 98.0373C149.105 98.0524 149.101 98.0676 149.092 98.0795C149.083 98.0915 149.07 98.0993 149.055 98.1012C149.041 98.1031 149.026 98.0989 149.014 98.0896C149.003 98.0803 148.995 98.0666 148.993 98.0515Z" fill="#263238"/>
<path d="M152.63 98.0044C152.556 97.5207 152.543 97.029 152.593 96.542C152.593 96.0261 152.648 95.5055 152.689 94.9896C152.769 93.9547 152.871 92.923 152.997 91.8944C152.997 91.8471 153.07 91.8471 153.066 91.8944C152.992 92.9261 152.933 93.9579 152.896 94.9896C152.896 95.5102 152.868 96.0261 152.859 96.542C152.879 97.0314 152.848 97.5217 152.767 98.0044C152.762 98.0189 152.753 98.0314 152.741 98.0402C152.728 98.049 152.714 98.0538 152.699 98.0538C152.684 98.0538 152.669 98.049 152.657 98.0402C152.644 98.0314 152.635 98.0189 152.63 98.0044Z" fill="#263238"/>
<path d="M156.895 97.739C156.836 97.2998 156.848 96.8535 156.931 96.4185C156.977 95.9452 157.018 95.472 157.06 94.9987C157.142 94.0521 157.22 93.1056 157.266 92.159C157.266 92.1117 157.339 92.1117 157.339 92.159C157.294 93.1056 157.261 94.0805 157.211 95.0413L157.128 96.4611C157.138 96.8935 157.075 97.3244 156.94 97.7342C156.938 97.7384 156.935 97.742 156.931 97.7446C156.928 97.7473 156.923 97.7489 156.919 97.7494C156.914 97.7499 156.91 97.7492 156.905 97.7473C156.901 97.7455 156.897 97.7426 156.895 97.739Z" fill="#263238"/>
<path d="M147.728 81.3687L161.132 82.1165C161.132 82.1165 160.141 66.9716 159.077 62.7642C158.014 58.5568 148.934 44.5336 143.573 39.4506C138.529 34.6658 138.529 38.6461 140.441 44.2544C142.353 49.8627 147.086 63.4173 147.246 64.4065C147.407 65.3956 147.728 81.3687 147.728 81.3687Z" fill="#37474F"/>
<path d="M148.329 78.5762C148.842 78.5289 149.36 78.5762 149.874 78.5762C150.388 78.5762 150.901 78.5999 151.415 78.6235C152.405 78.6661 153.396 78.7277 154.386 78.7939L157.353 78.9974C158.376 79.0684 159.421 79.0873 160.435 79.2435C160.442 79.2462 160.448 79.2511 160.452 79.2574C160.456 79.2637 160.459 79.2713 160.459 79.279C160.459 79.2868 160.456 79.2943 160.452 79.3006C160.448 79.307 160.442 79.3118 160.435 79.3145C159.412 79.3571 158.371 79.2625 157.349 79.2246L154.322 79.0968C153.313 79.0495 152.304 78.9974 151.295 78.9312C150.8 78.9028 150.305 78.8649 149.814 78.8081C149.324 78.7513 148.81 78.7466 148.324 78.6472C148.278 78.6377 148.292 78.5809 148.329 78.5762Z" fill="#263238"/>
<path d="M133.618 41.3577C134.14 41.334 137.612 38.518 138.662 36.3504C138.735 36.199 138.465 34.6561 138.226 32.7677C138.084 31.6224 137.951 30.3398 137.914 29.1614C137.914 28.92 137.126 29.3933 137.126 29.3933L135.658 29.8097L130.816 31.2012C131.272 32.6604 131.552 34.1721 131.65 35.702C131.656 35.8605 131.645 36.0191 131.618 36.1753C131.62 36.2021 131.62 36.229 131.618 36.2558C131.513 37.1881 132.774 41.3908 133.618 41.3577Z" fill="#AD6359"/>
<path d="M131.637 36.1848C131.639 36.2116 131.639 36.2385 131.637 36.2653C131.882 36.2893 132.129 36.2893 132.375 36.2653C137.19 35.9908 137.589 29.6394 137.589 29.6394L135.686 29.7909L130.843 31.1823C131.299 32.6415 131.58 34.1532 131.678 35.6831C131.682 35.8514 131.668 36.0197 131.637 36.1848Z" fill="#263238"/>
<path d="M137.736 19.1752C138.891 21.6409 138.699 29.3364 137.162 31.291C134.943 34.1307 130.742 35.0347 128.266 32.1429C125.868 29.3459 126.294 19.3219 128.06 17.4714C130.66 14.7832 136.03 15.5309 137.736 19.1752Z" fill="#AD6359"/>
<path d="M131.343 24.7883C131.343 24.7883 131.38 24.7883 131.38 24.8357C131.352 25.3515 131.407 25.9526 131.838 26.1324C131.838 26.1324 131.838 26.1656 131.838 26.1608C131.302 26.0709 131.238 25.2758 131.343 24.7883Z" fill="#263238"/>
<path d="M131.802 24.2583C132.609 24.211 132.641 25.8864 131.889 25.929C131.137 25.9716 131.123 24.2962 131.802 24.2583Z" fill="#263238"/>
<path d="M128.436 24.9302C128.436 24.9302 128.399 24.9538 128.399 24.9775C128.422 25.4934 128.367 26.0944 127.913 26.2743V26.3027C128.472 26.208 128.541 25.4035 128.436 24.9302Z" fill="#263238"/>
<path d="M127.977 24.3909C127.17 24.3435 127.133 26.0189 127.886 26.0615C128.638 26.1041 128.647 24.4571 127.977 24.3909Z" fill="#263238"/>
<path d="M132.43 23.4823C132.205 23.4255 132.008 23.3403 131.797 23.2646C131.563 23.2216 131.35 23.0982 131.192 22.9143C131.152 22.8479 131.136 22.7696 131.145 22.6923C131.154 22.615 131.189 22.5431 131.242 22.4884C131.362 22.3935 131.504 22.3334 131.654 22.3142C131.804 22.2951 131.956 22.3176 132.095 22.3795C132.395 22.4614 132.655 22.6554 132.824 22.9238C132.859 22.9872 132.876 23.0597 132.872 23.1327C132.868 23.2056 132.844 23.2758 132.802 23.3348C132.761 23.3939 132.703 23.4392 132.637 23.4654C132.571 23.4915 132.499 23.4974 132.43 23.4823Z" fill="#263238"/>
<path d="M127.335 23.5625C127.552 23.5133 127.767 23.4516 127.977 23.378C128.211 23.3443 128.429 23.233 128.596 23.0609C128.639 22.9962 128.659 22.9187 128.654 22.8406C128.649 22.7626 128.619 22.6885 128.569 22.6302C128.454 22.5287 128.314 22.461 128.165 22.4344C128.015 22.4077 127.862 22.423 127.72 22.4787C127.417 22.5449 127.149 22.7255 126.968 22.9851C126.93 23.0466 126.91 23.1181 126.911 23.1911C126.911 23.264 126.932 23.3352 126.971 23.3962C127.01 23.4572 127.065 23.5053 127.129 23.5348C127.194 23.5643 127.265 23.574 127.335 23.5625Z" fill="#263238"/>
<path d="M131.334 28.0492C131.21 28.2565 131.046 28.4351 130.852 28.5736C130.658 28.7121 130.438 28.8075 130.206 28.8538C130.004 28.8988 129.797 28.9132 129.591 28.8963C129.552 28.9013 129.512 28.9013 129.472 28.8963H129.362C129.336 28.8913 129.311 28.8775 129.293 28.857C129.275 28.8365 129.264 28.8104 129.261 28.7828C129.259 28.7655 129.259 28.748 129.261 28.7307V28.6834C129.261 28.2858 129.261 27.68 129.261 27.68C129.119 27.7558 128.404 28.1012 128.413 27.893C128.428 26.0933 128.62 24.2999 128.986 22.5402C128.986 22.5277 128.991 22.5157 129 22.5068C129.008 22.4979 129.02 22.4929 129.032 22.4929C129.044 22.4929 129.056 22.4979 129.064 22.5068C129.073 22.5157 129.078 22.5277 129.078 22.5402C129.078 24.2062 128.784 25.8532 128.757 27.5286C129.011 27.4004 129.281 27.3096 129.559 27.2588C129.614 27.2588 129.486 28.4325 129.509 28.6124C129.826 28.6394 130.145 28.6001 130.446 28.4968C130.748 28.3935 131.027 28.2284 131.265 28.0113C131.325 27.9735 131.362 28.0066 131.334 28.0492Z" fill="#263238"/>
<path d="M129.816 28.6881C130.031 28.9699 130.314 29.1886 130.637 29.3223C130.815 29.3908 131.009 29.4007 131.192 29.3507C131.595 29.2324 131.595 28.8775 131.517 28.5272C131.472 28.3626 131.409 28.2038 131.329 28.054C130.903 28.4259 130.373 28.648 129.816 28.6881Z" fill="#263238"/>
<path d="M130.637 29.3224C130.815 29.3909 131.008 29.4008 131.192 29.3508C131.595 29.2325 131.595 28.8776 131.517 28.5273C131.306 28.5402 131.105 28.6253 130.945 28.7692C130.786 28.9132 130.677 29.1078 130.637 29.3224Z" fill="#FF9ABB"/>
<path d="M127.033 20.0462C127.294 19.3836 127.601 18.7163 127.982 18.5743C128.362 18.4323 128.633 19.3978 129.509 19.4404C130.687 19.5019 131.238 18.3755 132.884 18.2241C135.246 18.0064 136.323 20.0272 136.447 23.4916C136.552 26.5821 138.373 26.8377 138.373 26.8377C138.373 26.8377 139.345 19.9941 137.456 17.7697C135.567 15.5453 131.256 14.6319 128.422 16.8232C127.372 17.6514 127.033 20.0462 127.033 20.0462Z" fill="#263238"/>
<path d="M136.837 25.6498C136.837 25.6498 138.162 22.9947 139.308 23.449C140.455 23.9034 139.68 27.5949 138.488 28.2528C138.341 28.3474 138.176 28.4104 138.005 28.4378C137.834 28.4652 137.659 28.4566 137.491 28.4123C137.323 28.3681 137.165 28.2892 137.028 28.1805C136.89 28.0717 136.775 27.9353 136.69 27.7795L136.837 25.6498Z" fill="#AD6359"/>
<path d="M139.061 24.5044C139.061 24.5044 139.088 24.5281 139.061 24.5375C138.231 25.0108 137.878 25.929 137.685 26.8471C137.724 26.7487 137.783 26.6601 137.858 26.5877C137.933 26.5153 138.023 26.4607 138.121 26.4278C138.219 26.3948 138.322 26.3844 138.425 26.3972C138.527 26.4099 138.625 26.4456 138.712 26.5016C138.735 26.5016 138.712 26.5537 138.712 26.5537C138.551 26.5241 138.385 26.547 138.238 26.6191C138.09 26.6911 137.967 26.8089 137.887 26.956C137.753 27.2018 137.645 27.4621 137.566 27.7321C137.538 27.8221 137.387 27.7984 137.405 27.699C137.213 26.5253 137.873 24.7884 139.061 24.5044Z" fill="#263238"/>
<path d="M131.614 36.3648L133.342 40.7473L138.588 35.21L140.083 36.98C140.083 36.98 134.957 45.7546 134.925 45.3712L133.173 41.6134L130.664 44.2353L130.852 37.6615L131.614 36.3648Z" fill="#EBEBEB"/>
<path d="M130.577 40.9837C130.646 39.8999 130.683 38.8019 130.797 37.7229C130.797 37.685 130.862 37.6708 130.871 37.7229C131.082 38.7688 130.807 42.9289 130.811 43.9086C130.917 43.795 133.136 41.6037 133.159 41.6369C133.54 42.2332 134.824 44.9498 134.911 45.2196C135.723 43.8234 138.827 38.7499 139.79 37.4294C139.796 37.4242 139.803 37.4209 139.811 37.4203C139.819 37.4196 139.827 37.4216 139.833 37.4258C139.84 37.43 139.845 37.4363 139.848 37.4438C139.851 37.4512 139.852 37.4595 139.85 37.4673C139.148 38.9155 135.039 45.7544 134.975 45.7544C134.299 44.4622 133.686 43.1353 133.141 41.7788C132.765 42.2521 130.522 44.7368 130.513 44.5759C130.474 43.3782 130.496 42.1792 130.577 40.9837Z" fill="#263238"/>
<path d="M72.3804 40.8798C78.1492 52.6312 84.0097 80.9 84.5554 84.6815C84.9268 87.2514 71.8347 89.5751 71.8347 87.7956C71.8347 85.5144 69.1934 58.8311 69.4456 48.2865C69.5831 42.47 71.1881 38.4518 72.3804 40.8798Z" fill="#EB9481"/>
<path d="M71.7843 86.6692C71.5734 88.2168 72.0732 93.579 73.0545 97.5546C73.5131 99.495 75.4758 104.914 76.9478 104.654C78.4198 104.393 77.9841 102.761 77.9841 102.761C77.9841 102.761 79.1397 104.919 80.5934 104.516C82.0471 104.114 81.2996 101.587 81.2996 101.587C81.2996 101.587 82.6386 103.721 84.051 103.21C85.4634 102.699 84.3032 100.29 84.3032 100.29C84.3032 100.29 85.4451 102.302 86.4447 101.369C87.6508 100.248 85.147 96.7926 84.7251 94.6202C84.6288 94.147 83.4595 84.4827 83.4595 84.4827L71.7843 86.6692Z" fill="#EB9481"/>
<path d="M84.3215 100.257C82.4872 97.7106 82.1112 96.2671 81.8819 93.1576C81.8787 93.147 81.8723 93.1378 81.8637 93.1312C81.855 93.1246 81.8445 93.1211 81.8338 93.1211C81.823 93.1211 81.8126 93.1246 81.8039 93.1312C81.7952 93.1378 81.7888 93.147 81.7856 93.1576C81.7444 96.2292 81.9645 98.1081 84.2069 100.366C84.3169 100.465 84.4086 100.375 84.3215 100.257Z" fill="#263238"/>
<path d="M81.3363 101.724C79.6533 98.9083 79.2314 97.3465 78.7545 94.1045C78.7545 94.0572 78.672 94.062 78.6766 94.1045C78.8829 97.3276 79.1351 99.197 81.1849 101.786C81.2767 101.909 81.4142 101.852 81.3363 101.724Z" fill="#263238"/>
<path d="M77.8511 102.548C76.4158 99.7081 75.8839 98.0091 75.8151 94.8002C75.8115 94.7874 75.804 94.7761 75.7937 94.768C75.7833 94.76 75.7707 94.7556 75.7578 94.7556C75.7448 94.7556 75.7322 94.76 75.7219 94.768C75.7115 94.7761 75.704 94.7874 75.7004 94.8002C75.462 98.08 76.1132 100.196 77.764 102.59C77.8786 102.728 77.9428 102.709 77.8511 102.548Z" fill="#263238"/>
<path d="M84.4729 84.0095C84.4729 84.0095 86.5823 87.3225 87.1968 89.012C87.8113 90.7016 87.8801 97.7866 86.3943 97.8907C84.4775 98.0232 83.6429 93.9294 83.5053 91.8706C83.5053 91.8706 79.0664 92.1783 77.8649 89.3717C76.6635 86.5652 84.4729 84.0095 84.4729 84.0095Z" fill="#EB9481"/>
<path d="M85.8577 97.7438C84.0235 96.5654 83.996 93.8488 83.7071 91.861C83.7041 91.8314 83.6943 91.803 83.6784 91.7782C83.6625 91.7534 83.641 91.7329 83.6158 91.7185C83.5905 91.7041 83.5623 91.6961 83.5335 91.6954C83.5047 91.6947 83.4761 91.7012 83.4503 91.7143C81.5839 91.7143 78.9471 91.1558 77.819 89.4899C77.8167 89.4835 77.813 89.4777 77.8082 89.4729C77.8034 89.4681 77.7977 89.4644 77.7914 89.4621C77.7851 89.4599 77.7784 89.459 77.7717 89.4597C77.7651 89.4604 77.7587 89.4625 77.753 89.466C77.7472 89.4695 77.7423 89.4742 77.7385 89.4799C77.7347 89.4856 77.7321 89.492 77.731 89.4988C77.7299 89.5056 77.7302 89.5125 77.7319 89.5192C77.7337 89.5258 77.7368 89.532 77.7411 89.5372C78.7132 91.4966 81.2629 92.2633 83.3081 92.126C83.5741 94.1659 83.7162 96.892 85.844 97.7628C85.8577 97.7675 85.8669 97.7533 85.8577 97.7438Z" fill="#263238"/>
<path d="M85.8119 83.2143L70.9405 85.5807C70.9405 85.5807 68.5697 57.0847 68.4826 47.5198C68.3954 37.9549 71.7246 35.6122 75.2969 45.3948C78.8691 55.1774 85.8119 83.2143 85.8119 83.2143Z" fill="#407BFF"/>
<path d="M70.8672 83.1811C76.9524 81.7612 83.5512 81.2359 84.6976 81.0608C84.7526 81.0608 84.7572 81.1412 84.6976 81.146C83.5695 81.2596 76.0857 82.7125 70.8672 83.2757C70.8259 83.2805 70.8213 83.1905 70.8672 83.1811Z" fill="#263238"/>
<path d="M103.829 187.558C102.797 187.903 72.5547 187.435 71.4449 186.682C71.3119 186.597 71.2936 183.776 71.3303 179.91L69.8583 156.941L88.9943 156.998L90.5076 176.876C90.5076 176.876 94.7998 178.92 98.34 180.709C99.8889 181.436 101.394 182.258 102.848 183.17C103.99 184.155 104.861 187.217 103.829 187.558Z" fill="#EB9481"/>
<path d="M103.829 187.557C102.797 187.903 72.5547 187.434 71.4449 186.682C71.312 186.597 71.2936 183.776 71.3303 179.909C78.8004 181.627 98.7206 184.41 99.303 182.796C99.5368 182.148 99.0599 181.414 98.3491 180.737C99.8981 181.464 101.403 182.286 102.857 183.198C103.99 184.154 104.861 187.217 103.829 187.557Z" fill="#263238"/>
<path d="M61.7783 73.3464C61.7783 73.3464 67.1986 132.705 67.3178 133.424C67.3178 133.519 67.3774 134.617 67.4279 136.401C67.7305 146.193 68.4734 176.729 68.4734 176.729H91.2092C91.2092 176.729 89.7281 140.561 88.8751 132.127C87.7883 121.36 81.107 73.3464 81.107 73.3464H61.7783Z" fill="#37474F"/>
<path d="M70.028 135.431C69.3279 123.107 68.2747 110.801 66.8684 98.5152C66.0705 91.6054 65.1075 84.7192 64.1537 77.8283C64.1537 77.7668 64.0528 77.7715 64.062 77.8283C65.8229 90.0909 67.0656 102.439 68.1387 114.796C69.2117 127.153 69.9729 139.482 70.4315 151.853C70.7112 158.858 70.9222 165.872 71.1377 172.881C71.1433 172.911 71.159 172.939 71.182 172.958C71.205 172.978 71.2339 172.989 71.2638 172.989C71.2937 172.989 71.3226 172.978 71.3456 172.958C71.3686 172.939 71.3843 172.911 71.3899 172.881C71.0873 160.406 70.7387 147.911 70.028 135.431Z" fill="#263238"/>
<path d="M89.7739 172.948C89.1778 172.867 88.5312 172.891 87.9396 172.872C87.2609 172.872 86.5639 172.839 85.8944 172.815C84.5783 172.763 83.2576 172.725 81.9416 172.706C79.2864 172.659 76.6268 172.678 73.9762 172.763L71.7843 172.844C71.0047 172.872 70.2251 172.948 69.4456 172.943C69.3905 172.943 69.3905 173.014 69.4456 173.014C70.78 173.014 72.1328 173.132 73.4718 173.184C74.8108 173.236 76.104 173.255 77.4201 173.274C80.0752 173.312 82.7395 173.274 85.39 173.189C86.1191 173.161 86.8482 173.151 87.5774 173.127L88.7513 173.066C89.0998 173.066 89.4437 173.066 89.7922 173.033C89.8381 173.033 89.8335 172.957 89.7739 172.948Z" fill="#263238"/>
<path d="M78.2042 73.3464L67.8177 150.661C67.6709 144.896 67.5242 139.567 67.4279 136.401C67.3774 134.617 67.3362 133.519 67.3178 133.424C67.1894 132.705 61.7783 73.3464 61.7783 73.3464H78.2042Z" fill="#263238"/>
<path d="M65.7403 191.675C64.6581 191.585 36.9147 179.147 36.1719 178.011C36.0801 177.884 37.089 175.271 38.5885 171.717L44.7058 149.473L62.4065 156.804L57.4127 176.554C57.4127 176.554 60.6227 180.146 63.2182 183.18C64.3775 184.467 65.4616 185.825 66.4649 187.245C67.1573 188.594 66.818 191.77 65.7403 191.675Z" fill="#EB9481"/>
<path d="M65.7403 191.675C64.6581 191.585 36.9147 179.147 36.1719 178.012C36.0801 177.884 37.089 175.271 38.5885 171.717C44.848 176.27 62.1956 186.739 63.3512 185.48C63.8098 184.978 63.6401 184.107 63.2366 183.199C64.3958 184.486 65.4799 185.844 66.4832 187.264C67.1573 188.594 66.818 191.77 65.7403 191.675Z" fill="#263238"/>
<path d="M36.5983 169.426L58.7793 176.525C58.7793 176.525 69.6107 137.315 70.4407 128.105C71.2615 118.975 72.0548 100.323 72.4079 86.7923C72.4079 86.7923 76.1132 84.53 77.0532 83.2948C77.9933 82.0595 78.8371 77.6154 80.6897 73.356H53.5516C47.0674 86.3569 51.9466 92.1403 51.9466 94.9752C51.9466 108.662 49.9427 126.831 49.3053 129.524C47.9754 135.137 36.5983 169.426 36.5983 169.426Z" fill="#37474F"/>
<path d="M58.7288 171.518C58.174 171.281 57.5457 171.135 56.9679 170.95C56.3122 170.747 55.6518 170.557 55.0007 170.349C53.7442 169.947 52.4786 169.563 51.2129 169.194C48.6602 168.443 46.0892 167.752 43.4998 167.121L41.3629 166.615C40.6062 166.435 39.8312 166.298 39.07 166.09C39.0104 166.09 38.9967 166.142 39.07 166.161C40.3632 166.511 41.638 166.989 42.9174 167.396C44.1968 167.803 45.4441 168.167 46.7098 168.541C49.264 169.284 51.8411 169.961 54.4275 170.581C55.1428 170.747 55.849 170.931 56.5598 171.106L57.7016 171.367C58.041 171.447 58.3712 171.561 58.7151 171.613C58.7273 171.615 58.7396 171.611 58.7495 171.604C58.7594 171.596 58.766 171.585 58.7678 171.573C58.7697 171.56 58.7666 171.547 58.7593 171.537C58.7519 171.527 58.741 171.52 58.7288 171.518Z" fill="#263238"/>
<path d="M77.6861 82.987C76.391 83.6012 75.1615 84.3531 74.0175 85.2303C72.8023 86.0917 71.6834 87.0808 70.5141 88.0037C70.4682 88.0416 70.5141 88.1173 70.5599 88.0842C71.7935 87.2701 73.0866 86.5555 74.3064 85.7178C75.5312 84.9509 76.6855 84.0701 77.7548 83.0864C77.7869 83.0485 77.7457 82.9633 77.6861 82.987Z" fill="#263238"/>
<path d="M77.8557 75.0977C77.6998 75.9685 77.4935 76.8346 77.31 77.7007C77.1266 78.5668 77.012 79.343 76.8056 80.1475C76.635 80.9258 76.2514 81.6371 75.7005 82.1968C75.3932 82.495 75.0493 82.7553 74.7191 83.0298C74.5449 83.1765 74.3523 83.3138 74.1688 83.4652C74.1918 83.3469 74.2101 83.2333 74.2285 83.1103C74.2881 82.7837 74.3431 82.4524 74.3935 82.1211C74.5128 81.3875 74.6274 80.6492 74.7375 79.9156C74.953 78.4674 75.1502 77.005 75.4437 75.571C75.4467 75.5584 75.4448 75.5451 75.4383 75.534C75.4319 75.5229 75.4214 75.5149 75.4093 75.5118C75.3971 75.5087 75.3842 75.5106 75.3735 75.5173C75.3627 75.524 75.355 75.5348 75.3519 75.5473C75.0034 76.9671 74.6182 78.387 74.3156 79.8068C74.1643 80.5072 73.6323 83.9716 73.6094 84.2177C73.5865 84.4638 73.5635 84.7241 73.5544 84.9797C73.5245 85.2391 73.5245 85.5012 73.5544 85.7606C73.5544 85.8221 73.6461 85.8127 73.669 85.7606C73.7717 85.5203 73.8441 85.2674 73.8845 85.0081C73.9441 84.762 73.9992 84.5112 74.0404 84.2603C74.0404 84.1704 74.0679 84.0757 74.0817 83.9811C74.4119 83.7728 74.7191 83.5078 75.0309 83.2712C75.3428 83.0345 75.7005 82.7979 76.0169 82.5045C76.5999 81.9966 77.0204 81.3185 77.2229 80.5593C77.4267 79.7416 77.5602 78.907 77.6219 78.0651C77.7273 77.0807 77.8053 76.0916 77.9383 75.1119C77.952 75.0977 77.8649 75.0504 77.8557 75.0977Z" fill="#263238"/>
<path d="M77.2871 37.3587C76.8514 42.9197 76.3103 48.6369 75.0539 54.0701C74.0725 58.3012 71.8439 61.5904 67.3958 62.0306C63.2686 62.4376 57.5595 61.5573 54.5329 58.3343C53.1205 56.834 52.8133 54.9504 53.1847 52.9437C53.7029 50.1561 57.908 35.068 59.1874 30.3542C59.967 27.4861 60.7373 24.5755 62.003 21.8778C64.6535 16.1985 67.5058 16.6718 67.9002 16.6008C68.2716 16.421 70.5828 15.73 73.5543 17.1877C74.3362 17.5643 75.0321 18.1073 75.5963 18.781C76.1606 19.4548 76.5805 20.244 76.8285 21.0969C78.406 26.1704 77.709 32.1526 77.2871 37.3587Z" fill="#263238"/>
<path d="M66.9189 17.2965C63.2824 18.4607 61.9526 22.1996 60.6686 25.5315C58.8802 30.1743 57.1651 34.8503 55.6702 39.6067C54.9548 41.8926 54.2945 44.1975 53.6846 46.5165C53.1114 48.7409 52.3639 51.0931 52.208 53.398C51.9512 57.1842 55.0695 59.3991 58.2428 60.3977C58.2744 60.4084 58.3088 60.4057 58.3385 60.3901C58.3682 60.3746 58.3906 60.3475 58.401 60.3149C58.4113 60.2823 58.4087 60.2467 58.3936 60.2161C58.3786 60.1855 58.3524 60.1623 58.3207 60.1516C56.5231 59.5127 54.7118 58.7318 53.5241 57.1084C51.9971 55.045 52.5198 52.707 53.038 50.3785C53.9276 46.4124 55.0328 42.5079 56.248 38.6459C57.4632 34.784 58.8664 30.9599 60.2972 27.169C61.6729 23.5579 62.9431 18.7305 66.9097 17.358C66.9693 17.358 66.9556 17.2823 66.9189 17.2965Z" fill="#263238"/>
<path d="M77.842 25.3517C77.576 22.3748 76.4938 19.3553 73.6644 18.1011C77.3054 19.8901 77.6631 24.3152 77.6906 27.9689C77.7212 31.8214 77.6157 35.6675 77.3742 39.5074C77.1449 43.2036 76.8331 46.9189 76.2782 50.5773C75.6775 54.5244 74.4898 58.1497 71.7934 61.0793C71.7874 61.0849 71.7825 61.0917 71.779 61.0992C71.7755 61.1067 71.7735 61.1149 71.7731 61.1233C71.7727 61.1316 71.7738 61.14 71.7765 61.1479C71.7792 61.1557 71.7834 61.163 71.7888 61.1692C71.7943 61.1754 71.8008 61.1805 71.8081 61.1841C71.8154 61.1877 71.8234 61.1898 71.8315 61.1902C71.8396 61.1906 71.8476 61.1894 71.8553 61.1866C71.8629 61.1839 71.87 61.1795 71.876 61.174C74.4577 58.8502 75.6821 55.3195 76.3103 51.9403C77.0683 47.4543 77.5386 42.9215 77.7181 38.3715C77.9566 34.0883 78.2272 29.6632 77.842 25.3517Z" fill="#263238"/>
<path d="M66.7033 38.1158C66.8776 38.5891 69.551 41.476 71.7155 41.0832C72.4171 40.9507 71.8989 36.9515 71.8989 36.9515L71.9264 36.6486L72.3024 32.3891L67.1986 29.8997L66.4694 29.5779C66.4694 29.5779 66.4373 30.7516 66.419 32.2093C66.419 32.2803 66.419 32.3465 66.419 32.4175C66.4145 32.4979 66.4145 32.5785 66.419 32.6589C66.419 32.8766 66.419 33.0991 66.419 33.3215C66.419 33.5439 66.419 33.6528 66.419 33.8279C66.419 34.003 66.419 34.1829 66.419 34.358C66.4311 35.6158 66.5261 36.8713 66.7033 38.1158Z" fill="#EB9481"/>
<path d="M66.4191 32.2093C66.9694 33.3169 67.7466 34.2877 68.6969 35.0543C69.6471 35.8209 70.7476 36.3649 71.9219 36.6486L72.2979 32.3891L67.1986 29.8997L66.4695 29.5779C66.4695 29.5779 66.4374 30.7516 66.4191 32.2093Z" fill="#263238"/>
<path d="M77.5485 26.1181C78.1263 33.5958 73.8524 34.798 72.2887 34.9258C70.8671 35.0393 66.0201 35.2476 64.6994 27.8645C63.3787 20.4814 66.5658 17.831 69.7987 17.4051C73.0316 16.9791 76.9753 18.6356 77.5485 26.1181Z" fill="#EB9481"/>
<path d="M76.3287 24.5281C76.1634 24.5029 75.9996 24.4682 75.838 24.4239C75.6588 24.4128 75.4881 24.3413 75.352 24.2204C75.3174 24.1735 75.2986 24.1161 75.2986 24.0571C75.2986 23.9982 75.3174 23.9408 75.352 23.8939C75.4337 23.8124 75.5349 23.7547 75.6452 23.7264C75.7555 23.6982 75.871 23.7004 75.9802 23.733C76.2139 23.7633 76.4274 23.8853 76.5763 24.0737C76.6088 24.1178 76.6281 24.1708 76.6318 24.2261C76.6355 24.2814 76.6235 24.3366 76.5972 24.3849C76.5708 24.4332 76.5314 24.4725 76.4837 24.4979C76.436 24.5233 76.3821 24.5338 76.3287 24.5281Z" fill="#263238"/>
<path d="M71.5045 24.6322C71.6742 24.6085 71.8255 24.5612 71.9952 24.5233C72.1659 24.5036 72.3263 24.4291 72.4538 24.3104C72.4891 24.2637 72.5083 24.2063 72.5083 24.1471C72.5083 24.0879 72.4891 24.0304 72.4538 23.9838C72.3709 23.9028 72.2685 23.846 72.1573 23.8194C72.0461 23.7928 71.93 23.7972 71.821 23.8324C71.5902 23.8705 71.3812 23.9952 71.234 24.1826C71.2007 24.2283 71.1816 24.2834 71.1792 24.3405C71.1767 24.3977 71.1911 24.4543 71.2203 24.5029C71.2495 24.5515 71.2923 24.5898 71.343 24.6129C71.3938 24.636 71.4501 24.6427 71.5045 24.6322Z" fill="#263238"/>
<path d="M72.6372 26.5205C72.6372 26.5205 72.6005 26.5205 72.6005 26.5631C72.6326 27.0742 72.6005 27.6658 72.142 27.8504C72.142 27.8504 72.142 27.8835 72.142 27.8788C72.7014 27.77 72.7473 26.9985 72.6372 26.5205Z" fill="#263238"/>
<path d="M72.1786 26C71.3807 25.9669 71.3716 27.6139 72.1099 27.647C72.8482 27.6801 72.8482 26.0284 72.1786 26Z" fill="#263238"/>
<path d="M71.8668 26.0852C71.7247 26.1798 71.5871 26.3407 71.4083 26.3597C71.2294 26.3786 71.0689 26.2035 70.9497 26.0378H70.9222C70.9222 26.3502 71.0277 26.6768 71.3807 26.7241C71.7338 26.7714 71.8989 26.4922 71.9769 26.1751C71.9723 26.1372 71.9219 26.0473 71.8668 26.0852Z" fill="#263238"/>
<path d="M75.3886 26.407C75.3886 26.407 75.4253 26.407 75.4253 26.4496C75.4024 26.9607 75.4574 27.5523 75.9068 27.7274C75.9068 27.7274 75.9068 27.7606 75.9068 27.7558C75.3565 27.6706 75.2877 26.885 75.3886 26.407Z" fill="#263238"/>
<path d="M75.838 25.877C76.6314 25.8296 76.6726 27.4767 75.9343 27.524C75.196 27.5713 75.1685 25.9196 75.838 25.877Z" fill="#263238"/>
<path d="M76.1728 25.9811C76.3012 26.0615 76.4296 26.2177 76.5809 26.2272C76.7323 26.2366 76.879 26.0521 76.9891 25.877H77.012C77.012 26.1893 76.934 26.5206 76.6451 26.5869C76.3562 26.6531 76.1866 26.3834 76.0948 26.0757C76.0811 26.0331 76.1224 25.9432 76.1728 25.9811Z" fill="#263238"/>
<path d="M74.6641 28.7166C74.6641 28.7166 74.7695 29.4786 74.7695 29.8383C74.7695 29.8761 74.687 29.8903 74.5678 29.8998C74.2686 29.9582 73.9597 29.9304 73.6749 29.8193C73.3901 29.7083 73.1406 29.5183 72.9536 29.2704C72.9469 29.2628 72.9434 29.2529 72.9438 29.2427C72.9443 29.2324 72.9486 29.2228 72.9559 29.2159C72.9632 29.209 72.9728 29.2054 72.9827 29.2058C72.9926 29.2063 73.0019 29.2108 73.0086 29.2183C73.4533 29.5308 73.9845 29.6853 74.5219 29.6584C74.5448 29.5591 74.2972 28.3569 74.3522 28.3522C74.6234 28.3746 74.8903 28.4351 75.1456 28.532C74.9713 26.9371 74.5494 25.3848 74.3935 23.7993C74.3935 23.7867 74.3983 23.7747 74.4069 23.7658C74.4155 23.7569 74.4272 23.752 74.4394 23.752C74.4515 23.752 74.4632 23.7569 74.4718 23.7658C74.4804 23.7747 74.4852 23.7867 74.4852 23.7993C74.988 25.4497 75.3306 27.1477 75.5078 28.8681C75.5216 29.029 74.8016 28.7639 74.6641 28.7166Z" fill="#263238"/>
<path d="M75.2235 26.9039C75.1135 25.6829 75.6592 24.6322 76.4387 24.5375C77.2183 24.4429 77.9474 25.3894 78.0575 26.6105C78.1675 27.8315 77.5989 28.8822 76.8423 28.9769C76.0856 29.0715 75.3336 28.125 75.2235 26.9039ZM75.5124 26.8755C75.6087 27.9309 76.1911 28.7402 76.8148 28.6834C77.4384 28.6266 77.8695 27.7132 77.7732 26.6578C77.6769 25.6024 77.0899 24.7931 76.4662 24.8499C75.8426 24.9067 75.4161 25.8201 75.5124 26.8755Z" fill="#263238"/>
<path d="M69.8353 27.4292C69.8255 27.0247 69.9304 26.626 70.1371 26.2821C70.3437 25.9383 70.6431 25.6642 70.9986 25.4935C71.3541 25.3228 71.7501 25.2629 72.1381 25.3213C72.526 25.3796 72.889 25.5536 73.1825 25.8219C73.476 26.0901 73.6873 26.441 73.7902 26.8315C73.8932 27.2219 73.8835 27.6349 73.7623 28.0197C73.6411 28.4045 73.4136 28.7444 73.1078 28.9976C72.8021 29.2509 72.4313 29.4065 72.0411 29.4453C71.49 29.4777 70.9489 29.284 70.5357 28.9063C70.1225 28.5286 69.8708 27.9976 69.8353 27.4292ZM70.1242 27.4008C70.1826 27.7411 70.3358 28.0565 70.5649 28.3084C70.7941 28.5604 71.0894 28.738 71.4148 28.8197C71.7402 28.9013 72.0815 28.8834 72.3972 28.7681C72.7129 28.6528 72.9892 28.4452 73.1924 28.1705C73.3956 27.8958 73.517 27.5661 73.5416 27.2214C73.5662 26.8767 73.4931 26.5322 73.3311 26.2297C73.1691 25.9272 72.9253 25.68 72.6295 25.5181C72.3336 25.3563 71.9985 25.2869 71.665 25.3184C71.1934 25.3843 70.7664 25.6405 70.4776 26.0309C70.1887 26.4212 70.0617 26.9139 70.1242 27.4008Z" fill="#263238"/>
<path d="M73.724 26.847C74.7604 26.3737 75.2786 26.6719 75.2832 26.6766L75.4391 26.4258C75.4161 26.4258 74.8017 26.0093 73.6048 26.5773L73.724 26.847Z" fill="#263238"/>
<path d="M69.95 27.2209L69.9775 26.9228C69.7849 26.9228 65.3368 26.4968 64.8599 26.5157C64.383 26.5347 63.2503 27.3251 63.1265 27.415L63.2916 27.6611C63.7627 27.2934 64.2896 27.0087 64.8507 26.8186H64.9058C65.2543 26.8234 68.368 27.0742 69.95 27.2209Z" fill="#263238"/>
<path d="M64.9058 27.3298C65.6899 27.2825 67.7351 25.0439 67.7993 21.1252C67.7993 21.1252 67.5058 24.6416 67.2536 25.1575C67.0014 25.6733 68.3955 23.8986 68.4872 20.7418C69.4532 21.4531 70.5124 22.0188 71.633 22.4219C73.0775 22.8384 73.9625 22.8242 74.068 22.7154C74.1734 22.6065 72.0411 21.9155 71.4633 21.234C71.4633 21.234 75.3153 23.0751 77.0853 23.217C77.2917 23.217 77.5439 18.8771 74.7925 17.0313C72.0411 15.1855 67.7076 17.1828 66.5383 18.347C66.5383 18.347 65.1626 18.5458 63.6814 20.6424C62.2002 22.739 64.062 27.3819 64.9058 27.3298Z" fill="#263238"/>
<path d="M65.8963 28.3474C65.8963 28.3474 64.3234 25.981 63.2916 26.5679C62.2598 27.1548 63.4246 30.5482 64.6306 31.0214C64.7813 31.0931 64.9444 31.1327 65.1103 31.1378C65.2761 31.1429 65.4413 31.1134 65.5958 31.0511C65.7504 30.9888 65.8912 30.895 66.0098 30.7752C66.1284 30.6555 66.2223 30.5122 66.286 30.3541L65.8963 28.3474Z" fill="#EB9481"/>
<path d="M63.6493 27.5334V27.5666C64.4931 27.931 64.9333 28.745 65.2405 29.5875C65.1924 29.499 65.1261 29.4225 65.0463 29.3633C64.9666 29.3041 64.8752 29.2636 64.7786 29.2447C64.6821 29.2257 64.5827 29.2288 64.4874 29.2537C64.3921 29.2786 64.3033 29.3246 64.2271 29.3887C64.2271 29.3887 64.2271 29.4407 64.25 29.436C64.3993 29.3877 64.5595 29.3886 64.7083 29.4386C64.8571 29.4887 64.987 29.5854 65.08 29.7153C65.2351 29.932 65.3673 30.1652 65.4744 30.411C65.5111 30.4914 65.6487 30.4488 65.6211 30.3589C65.6395 29.223 64.8095 27.6565 63.6493 27.5334Z" fill="#263238"/>
<path d="M65.6441 30.8509C65.645 30.9597 65.6145 31.0663 65.5566 31.1572C65.4988 31.2481 65.416 31.3192 65.3189 31.3615C65.2218 31.4038 65.1147 31.4153 65.0112 31.3947C64.9077 31.374 64.8125 31.3221 64.7376 31.2455C64.6628 31.1689 64.6117 31.0711 64.5908 30.9645C64.5699 30.8579 64.5801 30.7472 64.6202 30.6467C64.6604 30.5461 64.7285 30.46 64.8161 30.3995C64.9037 30.339 65.0067 30.3066 65.1121 30.3066C65.2524 30.3066 65.387 30.3638 65.4866 30.4658C65.5863 30.5677 65.6428 30.7061 65.6441 30.8509Z" fill="white"/>
<path d="M81.8728 75.8786C81.8728 75.8786 57.4494 76.2525 51.3871 75.8123C51.3871 75.8123 56.3305 46.8952 62.8514 39.5878C63.0942 39.3132 63.3514 39.0526 63.6217 38.8069C64.0207 38.4614 63.9657 35.7022 64.1537 35.4939C64.3417 35.2857 72.2658 36.36 72.3666 36.5588C72.4675 36.7576 72.8757 39.3606 72.8757 39.3606C74.6732 41.727 80.4558 49.9052 81.1299 53.2797C81.804 56.6541 79.6808 60.3788 79.6808 60.3788L81.8728 75.8786Z" fill="#407BFF"/>
<path d="M60.985 44.7464C59.5405 51.9308 60.398 67.4637 63.7364 70.3033C69.2392 74.9509 82.4643 76.3092 86.1558 76.7588C87.747 76.9529 90.9157 66.2048 89.8244 64.8181C88.733 63.4314 72.4767 61.2732 71.7017 60.5586C71.1652 60.0474 68.6385 50.6624 66.4603 45.3712C63.53 38.2105 61.5123 42.0961 60.985 44.7464Z" fill="#EB9481"/>
<path d="M87.073 63.9521C87.073 63.9521 91.9521 63.9 95.1438 64.0231C96.9276 64.0894 99.9679 64.4964 101.256 65.159C103.178 66.1576 110.607 71.6002 109.364 73.4886C108.24 75.1971 106.03 72.9491 106.03 72.9491C106.03 72.9491 108.672 75.1687 107.053 76.5129C105.434 77.857 102.816 74.6481 102.816 74.6481C102.816 74.6481 105.778 76.8063 103.916 78.0652C102.302 79.1632 98.9132 75.7935 98.9132 75.7935C98.9132 75.7935 102.265 77.6866 100.715 78.9976C99.0049 80.4174 93.3095 76.0254 93.3095 76.0254C89.2282 76.9719 86.6557 76.9719 83.6566 76.4655C83.1063 76.3709 87.073 63.9521 87.073 63.9521Z" fill="#EB9481"/>
<path d="M103.632 75.3959L102.967 74.6718C102.555 74.1919 102.118 73.7368 101.655 73.3088C101.197 72.9018 100.738 72.5137 100.234 72.1445C99.7294 71.7754 99.1608 71.4062 98.6564 71.0039C98.6151 70.9708 98.5693 71.0323 98.6151 71.0607C99.116 71.4593 99.5966 71.8842 100.055 72.3338C100.514 72.7598 100.972 73.1952 101.431 73.6259C101.889 74.0566 102.348 74.4399 102.806 74.8517C103.031 75.0552 103.265 75.2681 103.471 75.4811C103.667 75.6998 103.88 75.9009 104.109 76.0822C104.132 76.0822 104.159 76.0822 104.145 76.0443C103.997 75.8099 103.825 75.5925 103.632 75.3959Z" fill="#263238"/>
<path d="M106.571 73.4221C105.835 72.5047 105.039 71.6412 104.187 70.838C103.324 70.0402 102.385 69.3346 101.385 68.7319C101.348 68.7319 101.311 68.7603 101.339 68.7887C102.201 69.5886 103.077 70.3742 103.953 71.1551C104.379 71.5385 106.269 73.3464 106.489 73.5215C106.539 73.5499 106.603 73.4742 106.571 73.4221Z" fill="#263238"/>
<path d="M100.913 77.3268C100.199 76.4799 99.433 75.6816 98.6197 74.9367C97.7248 74.2564 96.7821 73.6458 95.7995 73.1099C95.7628 73.1099 95.7261 73.1477 95.7582 73.1714C96.6478 73.8529 97.5466 74.5108 98.4042 75.2349C98.826 75.5898 100.413 77.0949 100.844 77.393C100.89 77.4214 100.94 77.3646 100.913 77.3268Z" fill="#263238"/>
<path d="M82.4965 77.2037L88.3157 63.1994C88.3157 63.1994 72.3758 60.4781 71.8852 60.1468C71.3945 59.8155 68.4872 48.8923 66.6208 44.6044C64.7544 40.3165 61.549 37.7987 60.3109 47.0039C59.0728 56.2091 60.8658 67.4494 62.6588 69.7874C64.8324 72.6176 73.4397 76.2003 82.4965 77.2037Z" fill="#407BFF"/>
<path d="M74.3064 75.4336C71.9218 74.7663 69.5969 73.602 67.3178 72.5939C65.3597 71.7468 63.3603 70.7008 62.2735 68.7178C61.7668 67.7081 61.4127 66.6244 61.2234 65.5043C60.9712 64.2548 60.7648 62.9912 60.5906 61.7181C60.3796 60.2667 60.1901 58.8121 60.022 57.3544C59.9394 56.6067 59.8569 55.8589 59.7835 55.1111C59.7101 54.3633 59.5772 53.6156 59.5496 52.8631C59.5496 52.853 59.5458 52.8434 59.5389 52.8363C59.532 52.8292 59.5227 52.8252 59.513 52.8252C59.5032 52.8252 59.4939 52.8292 59.487 52.8363C59.4801 52.8434 59.4763 52.853 59.4763 52.8631C59.5267 53.554 59.4763 54.2498 59.5313 54.9455C59.5313 55.4187 59.5863 55.8542 59.6184 56.3085L59.49 56.0198C59.3488 55.6883 59.2412 55.3425 59.169 54.9881C59.169 54.9455 59.0911 54.9644 59.1002 54.9881C59.1828 55.343 59.2653 55.7027 59.3616 56.0529C59.4075 56.2233 59.4625 56.3937 59.5267 56.5641C59.5651 56.6785 59.6095 56.7907 59.6597 56.9001C59.7697 58.26 59.9119 59.6136 60.0862 60.9608C60.2558 62.2671 60.453 63.5638 60.6777 64.8606C60.8441 66.0075 61.1395 67.1305 61.5582 68.2067C61.9746 69.2212 62.6116 70.1232 63.42 70.8428C64.2576 71.5526 65.1828 72.1447 66.1714 72.6034C68.4064 73.6691 70.7166 74.5583 73.082 75.2632C75.9114 76.1814 76.7735 76.1199 74.3064 75.4336Z" fill="#263238"/>
<path d="M80.2907 61.7418C79.7038 61.6613 72.7656 60.1563 72.4951 60.0759C72.3596 60.0332 72.2372 59.955 72.1399 59.8488C72.0426 59.7426 71.9738 59.6121 71.9402 59.4701C71.7247 58.8927 71.5366 58.3011 71.3349 57.719C70.9864 56.7156 70.6317 55.717 70.271 54.7231C70.271 54.5007 70.2297 54.2498 70.2068 54.0558C70.1839 53.8618 70.138 53.5257 70.0967 53.2607C70.005 52.688 69.8399 52.1248 69.7712 51.5522C69.7712 51.4954 69.684 51.5143 69.6978 51.5522C69.8375 52.1161 69.9205 52.6934 69.9454 53.2749C69.9683 53.5021 69.9821 53.7482 69.9959 53.9611C69.7849 53.379 69.5694 52.7969 69.3447 52.2195C69.0833 51.5474 68.7852 50.8707 68.5743 50.1797C68.5743 50.1323 68.4918 50.156 68.5055 50.1797C68.744 50.7997 68.9136 51.4575 69.1016 52.0728C69.2897 52.688 69.4914 53.3506 69.6932 53.9895C70.0876 55.2437 70.5049 56.4884 70.9268 57.7379C71.1285 58.339 71.3257 58.9495 71.5412 59.5458C71.6004 59.7691 71.7168 59.9718 71.8782 60.1325C72.0396 60.2933 72.24 60.4062 72.4584 60.4592C73.6644 60.7953 79.5616 61.8033 80.277 61.8317C80.3503 61.8791 80.3687 61.7513 80.2907 61.7418Z" fill="#263238"/>
<path d="M85.3671 63.4172C84.45 65.4286 83.5328 67.4259 82.7028 69.4799C81.8632 71.5005 81.1269 73.5653 80.4971 75.6656C80.4934 75.675 80.4936 75.6855 80.4974 75.6949C80.5013 75.7042 80.5086 75.7115 80.5177 75.7153C80.5269 75.7191 80.5371 75.7189 80.5461 75.7149C80.5551 75.7109 80.5622 75.7034 80.5659 75.694C81.483 73.7204 82.2855 71.6712 83.0972 69.6408C83.9088 67.6104 84.6471 65.5233 85.468 63.4882C85.5092 63.403 85.4038 63.3368 85.3671 63.4172Z" fill="#263238"/>
<path d="M102.508 61.8175C101.807 62.2245 97.7897 61.0791 96.1618 62.3381C95.0841 63.171 94.0294 65.1777 93.8001 67.7949C93.5663 70.4973 95.6344 70.3601 96.4002 69.2148C97.3333 67.707 98.1476 66.1243 98.8352 64.482C99.5716 64.6334 100.298 64.8342 101.009 65.0831L102.508 61.8175Z" fill="#AD6359"/>
<path d="M97.5833 71.2498C96.3406 69.9057 90.1316 74.8325 92.0805 77.0711C94.0294 79.3097 98.9865 72.7738 97.5833 71.2498Z" fill="#AD6359"/>
<path d="M99.6561 73.1761C98.4133 71.832 92.2043 76.7588 94.1532 78.9974C96.1022 81.236 101.059 74.7001 99.6561 73.1761Z" fill="#AD6359"/>
<path d="M101.289 73.8575C99.9816 72.8116 95.0016 78.1833 97.0881 79.9344C99.1746 81.6855 102.77 75.0407 101.289 73.8575Z" fill="#AD6359"/>
<path d="M103.063 74.1511C101.564 73.5595 98.4042 79.9961 100.821 81.0136C103.237 82.0312 104.765 74.7995 103.063 74.1511Z" fill="#AD6359"/>
<path d="M97.3999 73.4648C97.0549 73.7032 96.7298 73.9708 96.4277 74.2647C96.093 74.5676 95.7628 74.8752 95.4601 75.2112C95.165 75.5289 94.8878 75.8639 94.6301 76.2146C94.3596 76.5932 94.1349 77.0049 93.8597 77.3741C93.8548 77.3774 93.8506 77.3819 93.8477 77.3872C93.8448 77.3925 93.8431 77.3985 93.8429 77.4046C93.8427 77.4107 93.8439 77.4167 93.8465 77.4222C93.849 77.4278 93.8528 77.4326 93.8576 77.4362C93.8623 77.4399 93.8678 77.4423 93.8737 77.4433C93.8795 77.4443 93.8855 77.4438 93.8911 77.4419C93.8967 77.44 93.9018 77.4367 93.9059 77.4323C93.91 77.4279 93.9131 77.4225 93.9148 77.4167C94.1865 77.0597 94.4823 76.7228 94.7998 76.4086C95.0979 76.0868 95.3776 75.7508 95.6757 75.4242C95.9737 75.0976 96.2397 74.7805 96.5332 74.4776C96.8267 74.1747 97.1568 73.8624 97.4503 73.5311C97.4641 73.4885 97.432 73.4459 97.3999 73.4648Z" fill="#263238"/>
<path d="M99.867 74.0658C99.601 74.4871 98.6701 76.1199 98.3858 76.5316C98.1015 76.9434 97.8034 77.3551 97.5008 77.7574C97.1981 78.1597 96.9046 78.5998 96.5607 78.9784C96.5332 79.0116 96.5836 79.0636 96.6157 79.0305C96.9597 78.6519 97.3357 78.3064 97.6613 77.9088C97.9869 77.5113 98.2849 77.109 98.5784 76.6878C99.0878 75.853 99.5472 74.9869 99.9541 74.0942C99.9541 74.0516 99.8899 74.028 99.867 74.0658Z" fill="#263238"/>
<path d="M101.591 74.9842C101.316 75.6089 101.078 76.2573 100.798 76.8773C100.66 77.185 100.518 77.4926 100.381 77.8239L100.188 78.2735C100.127 78.4525 100.051 78.6252 99.9587 78.7894C99.9312 78.8272 100.005 78.8698 100.023 78.8178C100.115 78.6304 100.222 78.4515 100.344 78.283C100.422 78.141 100.504 77.999 100.578 77.857C100.734 77.5415 100.876 77.2339 101.004 76.9341C101.272 76.3209 101.496 75.6882 101.674 75.041C101.681 75.0297 101.684 75.0159 101.681 75.0026C101.679 74.9893 101.671 74.9776 101.66 74.97C101.649 74.9625 101.636 74.9598 101.623 74.9624C101.61 74.9651 101.599 74.9729 101.591 74.9842Z" fill="#263238"/>
<path d="M105.64 21.1916C105.421 23.3535 104.624 25.41 103.338 27.1318C102.053 28.8535 100.329 30.1728 98.359 30.9424C96.3892 31.7119 94.251 31.9016 92.1829 31.4902C90.1147 31.0789 88.198 30.0826 86.6465 28.6125L80.9556 29.4739L83.8033 24.4004C83.0634 22.5235 82.807 20.4808 83.0592 18.4713C83.3114 16.4618 84.0635 14.5539 85.2424 12.9336C86.4213 11.3132 87.9867 10.0356 89.7862 9.22514C91.5857 8.4147 93.5578 8.09906 95.5106 8.30898C98.5085 8.63238 101.259 10.1709 103.159 12.5865C105.058 15.0021 105.951 18.0972 105.64 21.1916Z" fill="white"/>
<path d="M105.64 21.1916C105.419 23.3528 104.626 25.4095 103.348 27.136C103.031 27.5672 102.688 27.9766 102.32 28.3618C101.941 28.7358 101.54 29.0851 101.119 29.4077C100.28 30.0664 99.353 30.5971 98.3675 30.9837C97.3875 31.3824 96.3577 31.6357 95.3088 31.7362C94.7845 31.7874 94.2572 31.7985 93.7313 31.7694C93.2035 31.7555 92.6776 31.6986 92.1584 31.599C90.0639 31.2098 88.1156 30.2265 86.5318 28.7593L86.6694 28.8019L80.9923 29.6633L80.5796 29.7295L80.786 29.3556L83.6153 24.2727V24.4714C82.9519 22.7945 82.6689 20.9832 82.7882 19.176C82.9074 17.3689 83.4256 15.6138 84.3032 14.0452C85.188 12.4801 86.4045 11.142 87.8617 10.1312C89.6727 8.87981 91.7918 8.18714 93.9706 8.13436C96.1494 8.08158 98.2976 8.67088 100.164 9.83318C102.029 10.9955 103.536 12.6826 104.506 14.6969C105.476 16.7111 105.869 18.969 105.64 21.2058V21.1916ZM105.64 21.1916C105.822 19.4249 105.608 17.6388 105.015 15.9708C104.422 14.3029 103.466 12.7976 102.221 11.571C100.976 10.3443 99.4742 9.42898 97.8322 8.89546C96.1902 8.36194 94.4515 8.22447 92.75 8.49363C91.0659 8.74892 89.4601 9.39629 88.0543 10.3867C86.6657 11.3933 85.5062 12.6999 84.6563 14.2155C83.8163 15.736 83.3224 17.4337 83.2118 19.1802C83.1076 20.9224 83.3801 22.6668 84.0097 24.2869L84.051 24.391L83.9959 24.4904L81.1345 29.5544L80.9327 29.2421L86.6235 28.4186H86.7015L86.7611 28.4706C88.2789 29.9375 90.1618 30.9403 92.1997 31.3671C92.7094 31.4719 93.226 31.5367 93.7451 31.5611C94.2626 31.5989 94.7821 31.5989 95.2996 31.5611C96.3379 31.4783 97.3597 31.2457 98.3354 30.8701C99.321 30.5065 100.248 29.9928 101.087 29.3462C101.94 28.7229 102.693 27.966 103.32 27.1029C104.603 25.3888 105.406 23.3441 105.64 21.1916Z" fill="#263238"/>
<path d="M93.0022 26.6628L88.1506 21.5893L89.7785 19.9281L92.617 22.8908L98.5096 13.3542L100.44 14.6274L93.0022 26.6628Z" fill="#407BFF"/>
</svg>
