<svg width="200" height="200" viewBox="0 0 200 200" fill="none" xmlns="http://www.w3.org/2000/svg">
<path d="M29.2883 184.968C68.3421 205.008 131.658 205.014 170.712 184.968C209.766 164.921 209.76 132.433 170.712 112.393C131.664 92.3525 68.3421 92.3525 29.2883 112.393C-9.76558 132.433 -9.75992 164.928 29.2883 184.968Z" fill="#F5F5F5"/>
<path d="M170.576 170.157C177.768 170.157 183.599 167.166 183.599 163.475C183.599 159.785 177.768 156.793 170.576 156.793C163.383 156.793 157.552 159.785 157.552 163.475C157.552 167.166 163.383 170.157 170.576 170.157Z" fill="#EBEBEB"/>
<path d="M26.3242 164.433L30.9318 161.571C33.5043 159.311 35.4623 156.344 36.5992 152.985C38.0217 148.762 37.8233 145.553 36.8032 143.942C35.5507 141.958 32.3033 142.306 32.1729 146.48C31.9009 154.706 29.6736 160.412 26.3242 164.433Z" fill="#FEAD41"/>
<path opacity="0.2" d="M26.3242 164.433L30.9318 161.571C33.5043 159.311 35.4623 156.344 36.5992 152.985C38.0217 148.762 37.8233 145.553 36.8032 143.942C35.5507 141.958 32.3033 142.306 32.1729 146.48C31.9009 154.706 29.6736 160.412 26.3242 164.433Z" fill="black"/>
<path d="M26.3242 164.738C26.2642 164.737 26.206 164.716 26.1579 164.677C26.1099 164.639 26.0745 164.585 26.0568 164.523C26.0392 164.461 26.0402 164.395 26.0597 164.334C26.0793 164.273 26.1163 164.22 26.1655 164.183C36.8202 156.25 34.7572 145.186 34.7346 145.077C34.7268 145.036 34.7264 144.995 34.7334 144.955C34.7404 144.915 34.7547 144.876 34.7755 144.842C34.7963 144.808 34.8231 144.778 34.8545 144.755C34.8859 144.732 34.9212 144.716 34.9584 144.707C34.9957 144.699 35.034 144.698 35.0714 144.706C35.1088 144.714 35.1444 144.729 35.1762 144.751C35.2081 144.774 35.2355 144.803 35.257 144.836C35.2784 144.87 35.2935 144.908 35.3013 144.948C35.3013 145.064 37.4776 156.506 26.5056 164.683C26.4523 164.722 26.3886 164.742 26.3242 164.738Z" fill="white"/>
<path d="M17.0921 170.175C17.0921 170.175 15.4883 168.772 15.8737 166.868C16.259 164.964 17.2962 163.597 15.5223 161.144C13.7484 158.691 13.2553 155.42 15.3749 153.65C16.9901 152.277 19.5121 154.218 20.4189 150.599C21.0876 147.951 20.8609 142.086 23.995 140.134C27.129 138.181 29.0956 141.122 28.6026 145.101C28.1718 148.659 27.5598 152.082 28.0358 153.034C28.9539 154.865 30.5238 154.615 30.4501 157.959C30.3878 161.071 27.6504 163.646 27.6504 163.646L17.0921 170.175Z" fill="#FEAD41"/>
<path d="M22.357 167.192C22.2878 167.191 22.221 167.163 22.169 167.114C22.117 167.065 22.0832 166.997 22.0737 166.923C21.2632 159.692 23.2071 147.206 24.794 143.496C24.8074 143.455 24.8288 143.417 24.8567 143.386C24.8847 143.354 24.9187 143.33 24.9563 143.314C24.9938 143.297 25.0342 143.29 25.0747 143.292C25.1151 143.294 25.1547 143.305 25.1907 143.325C25.2245 143.342 25.255 143.365 25.2802 143.395C25.3055 143.424 25.325 143.458 25.3377 143.496C25.3504 143.533 25.3559 143.573 25.354 143.613C25.3522 143.653 25.3429 143.692 25.3267 143.728C23.7569 147.389 21.881 159.911 22.6574 166.825C22.6654 166.905 22.6436 166.986 22.5969 167.048C22.5502 167.111 22.4823 167.152 22.408 167.161L22.357 167.192Z" fill="white"/>
<path d="M22.2041 161.559C22.1607 161.561 22.1176 161.551 22.0794 161.529C20.1128 160.497 18.866 156.818 18.815 156.647C18.8011 156.609 18.7944 156.568 18.7954 156.527C18.7963 156.487 18.8048 156.446 18.8204 156.409C18.836 156.372 18.8584 156.339 18.8862 156.311C18.914 156.283 18.9466 156.262 18.9823 156.248C19.0179 156.234 19.0558 156.228 19.0936 156.23C19.1314 156.232 19.1685 156.243 19.2025 156.26C19.2366 156.278 19.267 156.303 19.292 156.334C19.3169 156.365 19.3359 156.4 19.3477 156.439C19.3477 156.476 20.5662 160.04 22.3288 160.961C22.3866 160.991 22.4332 161.042 22.4609 161.104C22.4886 161.166 22.4958 161.237 22.4813 161.304C22.4668 161.372 22.4315 161.432 22.3811 161.475C22.3308 161.518 22.2683 161.541 22.2041 161.541V161.559Z" fill="white"/>
<path d="M22.1701 164C22.1133 164 22.0579 163.981 22.0113 163.946C21.9646 163.912 21.9291 163.862 21.9094 163.805C21.8812 163.73 21.8815 163.647 21.9101 163.573C21.9388 163.498 21.9935 163.439 22.0624 163.408C25.3722 161.98 27.4351 157.739 27.4577 157.69C27.4923 157.618 27.552 157.564 27.6238 157.539C27.6955 157.515 27.7734 157.522 27.8403 157.559C27.9072 157.596 27.9576 157.661 27.9804 157.738C28.0033 157.815 27.9967 157.899 27.9621 157.971C27.8715 158.154 25.7802 162.462 22.2948 163.976C22.2559 163.995 22.2129 164.004 22.1701 164Z" fill="white"/>
<path d="M137.858 131.169C137.858 131.169 135.381 126.849 135.138 122.156C134.894 117.464 135.852 115.511 137.167 114.949C138.481 114.388 138.583 116.115 139.258 117.134C139.932 118.153 141.31 117.573 141.82 114.394C142.33 111.215 144.189 105.851 148.054 104.807C152.304 103.672 150.026 109.042 148.955 111.135C147.884 113.229 147.056 116.084 147.759 116.859C148.462 117.634 149.556 116.2 150.593 117.531C151.856 119.136 147.929 124.915 145.673 126.312L137.858 131.169Z" fill="#FEAD41"/>
<path d="M141.253 129.357C141.216 129.355 141.179 129.346 141.145 129.329C141.111 129.312 141.081 129.289 141.056 129.259C141.03 129.23 141.011 129.195 140.998 129.157C140.985 129.12 140.979 129.08 140.981 129.04C141.365 121.491 143.551 114.176 147.328 107.804C147.35 107.77 147.377 107.742 147.409 107.721C147.441 107.699 147.476 107.685 147.513 107.679C147.55 107.672 147.588 107.674 147.625 107.684C147.661 107.694 147.695 107.712 147.725 107.736C147.784 107.784 147.824 107.855 147.836 107.933C147.847 108.012 147.83 108.092 147.787 108.158C144.077 114.437 141.931 121.639 141.553 129.07C141.551 129.11 141.542 129.15 141.525 129.186C141.509 129.222 141.486 129.254 141.458 129.281C141.43 129.307 141.398 129.328 141.363 129.341C141.327 129.354 141.29 129.359 141.253 129.357Z" fill="white"/>
<path d="M141.576 125.75C141.528 125.75 141.482 125.737 141.44 125.714C139.853 124.768 138.975 121.961 138.941 121.845C138.928 121.807 138.923 121.767 138.925 121.726C138.927 121.686 138.936 121.647 138.953 121.61C138.969 121.574 138.992 121.541 139.02 121.515C139.048 121.488 139.081 121.467 139.116 121.454C139.188 121.429 139.265 121.436 139.332 121.473C139.399 121.509 139.45 121.573 139.473 121.65C139.473 121.65 140.323 124.353 141.74 125.177C141.804 125.218 141.851 125.284 141.872 125.361C141.892 125.438 141.883 125.521 141.848 125.592C141.822 125.644 141.783 125.687 141.734 125.716C141.686 125.744 141.631 125.756 141.576 125.75Z" fill="white"/>
<path d="M141.854 123.901C141.791 123.901 141.73 123.878 141.681 123.836C141.631 123.794 141.597 123.735 141.581 123.67C141.572 123.631 141.57 123.591 141.575 123.552C141.581 123.512 141.593 123.474 141.612 123.44C141.631 123.406 141.656 123.377 141.686 123.353C141.716 123.33 141.75 123.313 141.786 123.303C145.877 122.187 147.294 119.88 147.306 119.856C147.326 119.822 147.352 119.792 147.382 119.769C147.413 119.746 147.448 119.729 147.484 119.721C147.521 119.712 147.559 119.711 147.596 119.718C147.632 119.725 147.668 119.739 147.699 119.761C147.731 119.783 147.758 119.811 147.78 119.844C147.801 119.877 147.817 119.914 147.825 119.954C147.833 119.993 147.834 120.034 147.827 120.073C147.821 120.113 147.807 120.151 147.787 120.185C147.725 120.289 146.251 122.712 141.927 123.895L141.854 123.901Z" fill="white"/>
<path d="M76.1971 121.686C76.1971 121.686 70.762 120.258 70.4787 109.299C70.1783 97.4724 71.8105 83.6689 65.378 82.5522C58.9456 81.4355 55.3751 89.875 55.4545 99.7302C55.5282 108.359 58.7586 127.093 76.1744 130.767L76.1971 121.686Z" fill="#FEAD41"/>
<path opacity="0.2" d="M76.1971 121.686C76.1971 121.686 70.762 120.258 70.4787 109.299C70.1783 97.4724 71.8105 83.6689 65.378 82.5522C58.9456 81.4355 55.3751 89.875 55.4545 99.7302C55.5282 108.359 58.7586 127.093 76.1744 130.767L76.1971 121.686Z" fill="black"/>
<path d="M76.1971 129.644H76.1461C72.23 128.875 69.0392 126.55 66.6646 122.742C59.6257 111.435 61.8417 90.3205 62.5728 86.6347C62.5891 86.5562 62.6331 86.4876 62.6954 86.4432C62.7578 86.3988 62.8337 86.3822 62.9072 86.3967C62.9805 86.4157 63.0443 86.4643 63.0855 86.5324C63.1266 86.6005 63.1419 86.683 63.1282 86.7629C62.4084 90.4243 60.2038 111.27 67.135 122.4C68.1439 124.127 69.475 125.608 71.0438 126.751C72.6126 127.894 74.3848 128.673 76.2481 129.04C76.2851 129.047 76.3204 129.062 76.3519 129.084C76.3834 129.107 76.4104 129.135 76.4315 129.169C76.4526 129.202 76.4673 129.24 76.4748 129.28C76.4822 129.319 76.4822 129.36 76.4748 129.4C76.4628 129.469 76.4283 129.532 76.3775 129.577C76.3266 129.621 76.2627 129.645 76.1971 129.644Z" fill="white"/>
<path d="M76.1971 157.769C70.5807 158.587 61.4619 158.575 56.1969 154.108C50.9319 149.641 52.0314 145.797 54.0547 144.192C56.0779 142.587 57.8348 140.756 54.355 137.192C50.8753 133.629 45.2872 127.905 43.4737 119.319C41.6601 110.733 42.5556 105.363 46.1147 103.575C49.5661 101.842 50.4786 104.6 52.5925 110.287C54.7064 115.975 59.4613 111.099 63.5305 112.875C67.5997 114.65 67.4353 118.165 67.6904 121.186C67.9454 124.207 69.2885 125.043 71.5952 125.043C73.9018 125.043 76.1971 126.471 76.1971 129.314V157.769Z" fill="#FEAD41"/>
<path d="M76.1971 147.798C76.1728 147.804 76.1477 147.804 76.1234 147.798C75.8797 147.725 70.0707 145.907 61.6093 137.54C52.5982 128.631 48.3476 115.267 48.3023 115.132C48.2806 115.056 48.2873 114.973 48.3211 114.901C48.3549 114.829 48.4132 114.774 48.4837 114.748C48.5543 114.723 48.6314 114.728 48.6982 114.764C48.765 114.799 48.8162 114.861 48.8407 114.937C48.8804 115.071 53.0912 128.289 61.9947 137.089C70.337 145.345 76.2141 147.194 76.2764 147.212C76.3122 147.224 76.3455 147.242 76.3745 147.267C76.4035 147.292 76.4277 147.323 76.4456 147.359C76.4634 147.394 76.4747 147.432 76.4788 147.472C76.4828 147.512 76.4795 147.552 76.4691 147.591C76.4507 147.652 76.4143 147.706 76.3652 147.743C76.3162 147.781 76.2572 147.8 76.1971 147.798Z" fill="white"/>
<path d="M63.9725 139.664C63.9156 139.665 63.8597 139.646 63.813 139.611C63.7662 139.576 63.7308 139.526 63.7118 139.468C61.8926 134.44 61.4789 123.682 61.4449 123.224C61.4433 123.144 61.4707 123.065 61.5215 123.006C61.5722 122.947 61.6423 122.911 61.7169 122.907C61.7909 122.908 61.8619 122.938 61.9163 122.992C61.9707 123.047 62.0047 123.12 62.0116 123.2C62.0116 123.309 62.4367 134.312 64.2219 139.249C64.2355 139.286 64.2421 139.327 64.2412 139.367C64.2404 139.407 64.232 139.447 64.2167 139.484C64.2014 139.521 64.1795 139.554 64.1522 139.582C64.1248 139.61 64.0927 139.631 64.0575 139.645C64.0302 139.656 64.0016 139.662 63.9725 139.664Z" fill="white"/>
<path d="M63.9273 146.895C63.4048 146.899 62.8825 146.871 62.3631 146.81C62.3259 146.805 62.2899 146.792 62.2572 146.772C62.2246 146.753 62.1958 146.726 62.1727 146.694C62.1495 146.663 62.1324 146.626 62.1223 146.587C62.1122 146.549 62.1093 146.508 62.1137 146.468C62.1182 146.428 62.1299 146.389 62.1483 146.354C62.1667 146.319 62.1913 146.288 62.2208 146.263C62.2502 146.238 62.284 146.219 62.3201 146.209C62.3562 146.198 62.3939 146.195 62.4311 146.199C62.4821 146.199 67.7584 146.846 70.1784 144.192C70.2036 144.16 70.2347 144.133 70.2697 144.115C70.3047 144.096 70.343 144.086 70.382 144.084C70.421 144.082 70.4599 144.089 70.4964 144.104C70.5328 144.119 70.566 144.142 70.5938 144.171C70.6216 144.201 70.6435 144.236 70.658 144.275C70.6725 144.314 70.6793 144.356 70.6781 144.398C70.6769 144.44 70.6676 144.481 70.6508 144.519C70.6341 144.557 70.6102 144.591 70.5808 144.619C68.8296 146.566 65.7749 146.895 63.9273 146.895Z" fill="white"/>
<path d="M59.8467 31.3414L59.2346 27.5397L56.0835 29.7731C55.7956 29.1629 55.3875 28.6277 54.8877 28.2048L56.3952 23.8111L53.5616 23.1338L51.4873 27.4054C50.7369 27.5417 50.0092 27.7967 49.328 28.1621L48.4269 24.9401L45.0605 27.7899L45.2815 31.5733C44.596 32.4002 43.9743 33.2859 43.4226 34.2217L40.6456 34.0692L38.6961 38.7741L41.082 39.8725C40.8329 40.8456 40.6754 41.8433 40.6116 42.8504L37.5796 45.8528L38.186 49.6606L41.3427 47.4272C41.629 48.0368 42.0374 48.5704 42.5385 48.9894L41.0594 53.3891L43.893 54.0604L46.8627 50.9482C47.5485 50.8323 47.3785 49.4409 48.1266 49.0443L49.0277 52.2541L52.3884 49.4104L52.3034 47.9214C52.9835 47.1037 55.5565 45.3035 56.1119 44.3638L56.809 43.1433L58.7585 38.4384L57.8518 36.6688L56.843 34.3621L59.8467 31.3414ZM49.5604 43.8573C46.9761 46.0419 46.16 46.524 45.7236 43.601C45.2872 40.678 46.7664 36.2355 49.3507 34.0448C51.935 31.854 52.9212 31.7015 53.3859 34.6184C53.8506 37.5353 52.1504 41.6971 49.5604 43.8573Z" fill="#E0E0E0"/>
<path d="M53.5843 23.1338L57.2624 25.4161L55.1881 29.6755L51.51 27.3932L53.5843 23.1338Z" fill="#F5F5F5"/>
<path d="M62.9128 29.8221L59.7617 32.0555L56.0836 29.7732L59.2347 27.5398L62.9128 29.8221Z" fill="#F5F5F5"/>
<path d="M62.4083 40.7025L60.0224 39.6101L56.3442 37.3279L58.7302 38.4202L62.4083 40.7025Z" fill="#E0E0E0"/>
<path d="M41.0537 53.3893L44.7318 55.6655L46.2393 51.2718L42.5612 48.9895L41.0537 53.3893Z" fill="#E0E0E0"/>
<path d="M52.6718 54.5365L48.9994 52.2543L48.0983 49.0444L51.7764 51.3267L52.6718 54.5365Z" fill="#E0E0E0"/>
<path d="M63.5192 33.6239L62.9127 29.8221L59.7617 32.0556C59.4717 31.4451 59.0617 30.91 58.5602 30.4873L60.0677 26.0936L57.2624 25.4163L55.1824 29.6879C54.432 29.8242 53.7044 30.0792 53.0232 30.4446L52.1277 27.2348L48.7613 30.0845L48.9823 33.868C48.2961 34.7007 47.6743 35.5926 47.1235 36.5347L44.3408 36.3821L42.3912 41.087L44.7772 42.1855C44.5303 43.1612 44.3728 44.1607 44.3068 45.1695L41.2804 48.1291L41.8868 51.937L45.0379 49.7035C45.328 50.3122 45.738 50.8454 46.2393 51.2657L44.7318 55.6594L47.5655 56.3368L49.6398 52.0651C50.3931 51.9303 51.1231 51.6731 51.8047 51.3023L52.7001 54.5122L56.0666 51.6685L55.8455 47.885C56.5311 47.0582 57.1528 46.1724 57.7044 45.2366L60.4871 45.3831L62.4367 40.6782L60.0167 39.5859C60.2676 38.6108 60.4271 37.6111 60.4928 36.6018L63.5192 33.6239ZM53.2442 46.1642C50.6656 48.3488 48.1946 47.7569 47.7242 44.84C47.2538 41.9231 48.971 37.7796 51.5553 35.5949C54.1397 33.4103 56.605 34.0083 57.0753 36.9253C57.5457 39.8422 55.8285 43.9795 53.2442 46.1642Z" fill="#EBEBEB"/>
<path d="M52.1278 27.2225L48.4497 24.9402L45.0833 27.79L48.7614 30.0722L52.1278 27.2225Z" fill="#F5F5F5"/>
<path d="M45.0833 27.79L45.3043 31.5735L48.9824 33.8558L48.7614 30.0723L45.0833 27.79Z" fill="#E0E0E0"/>
<path d="M47.1235 36.5042L43.4454 34.2219L40.6683 34.0754L44.3408 36.3577L47.1235 36.5042Z" fill="#F5F5F5"/>
<path d="M40.6683 34.0754L38.7188 38.7742L42.3912 41.0565L44.3408 36.3577L40.6683 34.0754Z" fill="#E0E0E0"/>
<path d="M44.3068 45.1329L40.6343 42.8506L37.6023 45.8529L41.2748 48.1352L44.3068 45.1329Z" fill="#F5F5F5"/>
<path d="M41.8868 51.9429L38.2087 49.6606L37.6023 45.8528L41.2748 48.135L41.8868 51.9429Z" fill="#E0E0E0"/>
<path d="M57.2625 25.4161L53.5844 23.1338L56.3954 23.8111L60.0678 26.0934L57.2625 25.4161Z" fill="#F5F5F5"/>
<path d="M43.3773 14.0842V8.40291L39.1778 10.4411C38.9553 9.47719 38.5712 8.56517 38.0443 7.74996L40.691 2.00767L37.4606 0L34.1622 5.33954C33.243 5.25307 32.3168 5.35031 31.4305 5.62635L30.9658 0.689566L26.3979 3.53325L25.9388 9.02534C24.9447 9.97384 24.0305 11.0153 23.2071 12.1375L19.9087 10.9171L16.6783 16.9462L19.3193 19.3871C18.8313 20.7159 18.4521 22.088 18.1858 23.4879L13.9863 26.6672V32.3545L18.1858 30.3164C18.4083 31.2803 18.7924 32.1923 19.3193 33.0075L16.6897 38.7559L19.9201 40.7635L23.2185 35.424C24.1377 35.5102 25.0637 35.413 25.9501 35.1372L26.4092 40.074L30.9771 37.2303L31.4418 31.7382C32.8675 31.1781 34.1305 30.2224 35.1029 28.9678L37.4719 29.8648L40.7023 23.8418L38.7187 22.0111C39.1493 20.4845 39.3089 18.8842 39.1891 17.294L43.3773 14.0842ZM28.6818 28.2782C25.1794 30.4567 23.0144 28.8884 23.0144 24.5497C23.0144 20.2109 25.9105 14.847 29.4186 12.6684C32.9267 10.4899 35.0463 12.0582 35.0463 16.4336C35.0463 20.8089 32.1899 26.0936 28.6818 28.2782Z" fill="#E0E0E0"/>
<path d="M41.133 2.27617L37.4605 0L34.1621 5.33954L37.8346 7.62181L41.133 2.27617Z" fill="#F5F5F5"/>
<path d="M47.0554 10.6851L43.3773 8.40283L39.1777 10.441L42.8559 12.7233L47.0554 10.6851Z" fill="#F5F5F5"/>
<path d="M30.0704 42.3563L26.3979 40.074L25.9388 35.1372L29.6113 37.4195L30.0704 42.3563Z" fill="#E0E0E0"/>
<path d="M16.6727 38.756L20.3509 41.0382L22.9975 35.2959L19.3194 33.0137L16.6727 38.756Z" fill="#E0E0E0"/>
<path d="M47.0554 16.3969V10.7156L42.8559 12.7355C42.6358 11.7708 42.2515 10.8583 41.7224 10.0444L44.3691 4.3021L41.1387 2.28833L37.8403 7.63397C36.9211 7.5445 35.9944 7.64179 35.1086 7.92078L34.6439 2.97179L30.076 5.81548L29.6112 11.3076C28.6185 12.2577 27.7045 13.299 26.8796 14.4198L23.5812 13.1993L20.3508 19.2284L22.9974 21.6693C22.5069 22.9971 22.1275 24.3695 21.8639 25.7701L17.6644 28.9494V34.6368L21.8639 32.5986C22.0839 33.5634 22.4683 34.4759 22.9974 35.2897L20.3508 41.032L23.5812 43.0397L26.8796 37.7001C27.7988 37.7866 28.7249 37.6894 29.6112 37.4133L30.076 42.3501L34.6439 39.5064L35.1029 34.0143C36.0971 33.0658 37.0112 32.0244 37.8346 30.9022L41.133 32.1226L44.3634 26.0996L41.7167 23.6587C42.2072 22.3308 42.5865 20.9584 42.8502 19.5579L47.0554 16.3969ZM32.3599 30.5909C28.8518 32.7695 26.0068 30.9998 26.0068 26.6427C26.0068 22.2857 28.8405 16.9827 32.3599 14.7981C35.8793 12.6135 38.7074 14.3892 38.7074 18.7463C38.7074 23.1034 35.8623 28.3758 32.3599 30.5604V30.5909Z" fill="#EBEBEB"/>
<path d="M23.2072 12.1497L26.8797 14.4319L23.5813 13.1932L19.9088 10.9048L23.2072 12.1497Z" fill="#F0F0F0"/>
<path d="M19.9084 10.911L16.6771 16.9421L20.354 19.2261L23.5853 13.1949L19.9084 10.911Z" fill="#F5F5F5"/>
<path d="M16.6727 16.9341L20.3509 19.2164L22.9975 21.6695L19.3194 19.3933L16.6727 16.9341Z" fill="#E0E0E0"/>
<path d="M18.1858 23.4939L21.864 25.7762L17.6644 28.9555L13.9863 26.6732L18.1858 23.4939Z" fill="#F5F5F5"/>
<path d="M13.9863 26.6733L17.6644 28.9556V34.643L13.9863 32.3607V26.6733Z" fill="#E0E0E0"/>
<path d="M34.6438 2.97197L30.9657 0.689697L26.3978 3.53338L30.0703 5.81565L34.6438 2.97197Z" fill="#F5F5F5"/>
<path d="M81.7965 165.934L135.07 132.811C135.187 132.766 135.289 132.684 135.361 132.575C135.433 132.465 135.471 132.335 135.471 132.201C135.471 132.067 135.433 131.936 135.361 131.827C135.289 131.717 135.187 131.635 135.07 131.59L130.145 128.539C129.84 128.374 129.503 128.288 129.161 128.288C128.82 128.288 128.483 128.374 128.178 128.539L74.8879 161.632C74.7706 161.677 74.6689 161.759 74.597 161.868C74.5251 161.978 74.4865 162.108 74.4865 162.242C74.4865 162.376 74.5251 162.507 74.597 162.616C74.6689 162.726 74.7706 162.808 74.8879 162.853L79.8299 165.904C80.1327 166.074 80.4683 166.165 80.8098 166.17C81.1513 166.176 81.4892 166.095 81.7965 165.934Z" fill="#E0E0E0"/>
<path d="M133.608 4.92451L85.5709 34.7893C84.8568 35.2911 84.2625 35.9669 83.8362 36.7621C83.4099 37.5572 83.1635 38.4493 83.1169 39.3661V162.066C83.1169 163.75 84.2164 164.433 85.5709 163.591L133.608 133.726C134.323 133.226 134.918 132.55 135.344 131.755C135.77 130.959 136.016 130.067 136.061 129.15V6.45009C136.061 4.76585 134.968 4.08239 133.608 4.92451Z" fill="#455A64"/>
<path d="M85.5709 34.7894L133.608 4.92458C134.82 4.16789 135.823 4.63777 136.028 5.94977C135.914 5.12489 135.64 4.33518 135.223 3.6326C134.806 2.93002 134.255 2.33047 133.608 1.87342L131.613 0.652952C130.852 0.237507 130.011 0.0209961 129.159 0.0209961C128.306 0.0209961 127.465 0.237507 126.705 0.652952L78.6624 30.4933C77.9388 30.9819 77.3422 31.66 76.9282 32.4644L83.8367 36.736C84.2505 35.938 84.8477 35.2677 85.5709 34.7894Z" fill="#37474F"/>
<path d="M76.197 157.77C76.2435 158.686 76.49 159.578 76.9163 160.374C77.3426 161.169 77.9369 161.845 78.651 162.346L80.6516 163.567C81.344 163.94 82.1018 164.151 82.8753 164.187C83.6488 164.223 84.4206 164.082 85.1401 163.774C84.0067 164.25 83.1055 163.548 83.1055 162.041V39.3661C83.1339 38.4454 83.3818 37.5481 83.8253 36.7604L76.9168 32.4888C76.4795 33.2705 76.2319 34.1582 76.197 35.0701V157.77Z" fill="#263238"/>
<path d="M86.8914 51.1375L132.304 22.9142C133.12 22.4138 133.778 22.8227 133.778 23.8296V114.644C133.75 115.195 133.603 115.73 133.347 116.208C133.091 116.685 132.733 117.09 132.304 117.39L86.9084 145.614C86.0923 146.12 85.4349 145.711 85.4349 144.698V53.8835C85.4607 53.3349 85.606 52.8005 85.859 52.3234C86.112 51.8464 86.4657 51.4402 86.8914 51.1375Z" fill="white"/>
<path d="M109.589 24.5068C109.339 24.684 109.13 24.9221 108.98 25.2019C108.831 25.4817 108.744 25.7954 108.728 26.1178C108.728 26.728 109.113 26.9538 109.589 26.6548C109.841 26.4787 110.05 26.2409 110.2 25.9608C110.35 25.6808 110.436 25.3665 110.451 25.0438C110.451 24.4519 110.065 24.2139 109.589 24.5068Z" fill="#37474F"/>
<path d="M109.589 135.844C108.599 136.542 107.774 137.481 107.184 138.586C106.593 139.69 106.252 140.93 106.189 142.202C106.189 144.54 107.713 145.492 109.589 144.32C110.58 143.622 111.404 142.682 111.994 141.578C112.585 140.473 112.926 139.234 112.99 137.961C113.001 135.624 111.471 134.672 109.589 135.844Z" fill="#37474F"/>
<path d="M101.434 33.9533C100.936 34.3093 100.522 34.7864 100.227 35.3461C99.9317 35.9057 99.7627 36.5323 99.7336 37.1753C99.7336 38.3592 100.504 38.8412 101.434 38.2493C101.937 37.8967 102.356 37.4211 102.656 36.8612C102.957 36.3013 103.13 35.6729 103.162 35.0273C103.162 33.8434 102.392 33.3614 101.434 33.9533Z" fill="#37474F"/>
<path d="M105.667 33.5504C105.667 34.3437 106.234 34.6428 106.897 34.2217L118.232 27.1613C118.583 26.9252 118.877 26.6032 119.091 26.2214C119.305 25.8397 119.432 25.409 119.462 24.9645C119.462 24.1773 118.895 23.8782 118.232 24.2993L106.897 31.3597C106.547 31.5952 106.253 31.9163 106.039 32.2969C105.826 32.6775 105.698 33.1069 105.667 33.5504Z" fill="#37474F"/>
<path d="M80.0282 55.0673C80.4304 55.3494 80.7651 55.7296 81.0054 56.177C81.2457 56.6244 81.3846 57.1265 81.411 57.6425C81.411 58.5945 80.7933 58.9789 80.0282 58.503C79.6273 58.2198 79.2939 57.8393 79.0547 57.392C78.8155 56.9447 78.6772 56.4432 78.651 55.9278C78.651 54.9819 79.2687 54.5975 80.0282 55.0673Z" fill="#37474F"/>
<path d="M80.0282 66.5276C80.4304 66.8097 80.7651 67.1899 81.0054 67.6373C81.2457 68.0847 81.3846 68.5868 81.411 69.1028C81.411 70.0487 80.7933 70.4331 80.0282 69.9633C79.6273 69.6802 79.2939 69.2996 79.0547 68.8523C78.8155 68.405 78.6772 67.9035 78.651 67.3881C78.651 66.4361 79.2687 66.0517 80.0282 66.5276Z" fill="#37474F"/>
<path d="M79.5974 55.2992C79.9996 55.5812 80.3344 55.9614 80.5747 56.4088C80.8149 56.8562 80.9539 57.3583 80.9803 57.8743C80.9803 58.8202 80.3625 59.2047 79.5974 58.7348C79.1953 58.4527 78.8605 58.0725 78.6202 57.6251C78.3799 57.1777 78.241 56.6756 78.2146 56.1596C78.2203 55.2076 78.838 54.8415 79.5974 55.2992Z" fill="#455A64"/>
<path d="M79.5974 66.7534C80.0004 67.0361 80.3356 67.4172 80.5759 67.8657C80.8162 68.3143 80.9548 68.8176 80.9803 69.3347C80.9803 70.2805 80.3625 70.665 79.5974 70.189C79.1943 69.908 78.8588 69.5281 78.6184 69.0804C78.378 68.6328 78.2396 68.1302 78.2146 67.6138C78.2203 66.6679 78.838 66.2835 79.5974 66.7534Z" fill="#455A64"/>
<path d="M142.97 26.7037C142.97 25.6907 142.313 25.2819 141.496 25.7883L136.061 29.1629L96.1008 54.0116C95.6716 54.3119 95.3144 54.7172 95.0583 55.1944C94.8022 55.6716 94.6546 56.2073 94.6273 56.7577V147.548C94.6273 148.561 95.2847 148.97 96.1008 148.463L136.078 123.609L141.496 120.24C141.926 119.94 142.283 119.535 142.539 119.057C142.795 118.58 142.943 118.045 142.97 117.494V26.7037Z" fill="white"/>
<path d="M143.537 26.7038C143.572 26.3978 143.523 26.0872 143.396 25.811C143.269 25.5347 143.068 25.3051 142.82 25.1507C142.572 24.9964 142.288 24.9242 142.002 24.9432C141.716 24.9622 141.442 25.0715 141.213 25.2575L136.027 28.4857L95.8175 53.5052C95.2998 53.857 94.8693 54.3392 94.5633 54.9101C94.2572 55.481 94.0847 56.1235 94.0606 56.7821V147.548C94.0378 147.853 94.0922 148.158 94.218 148.432C94.3437 148.706 94.5361 148.939 94.7747 149.104C94.9776 149.231 95.2087 149.297 95.4434 149.293C95.7756 149.282 96.0996 149.179 96.3842 148.994L136.623 123.975L141.797 120.759C142.312 120.404 142.74 119.921 143.045 119.351C143.351 118.78 143.525 118.14 143.554 117.482L143.537 26.7038ZM136.039 122.931L135.574 123.224L95.8401 147.927C95.7734 147.982 95.696 148.02 95.6136 148.039C95.5313 148.058 95.446 148.057 95.3641 148.036C95.2904 147.988 95.2167 147.817 95.2167 147.536V56.7577C95.2461 56.3147 95.3684 55.8845 95.5746 55.4998C95.7808 55.115 96.0653 54.7856 96.4069 54.5365L136.101 29.8221L141.769 26.2888C141.835 26.2336 141.913 26.1951 141.995 26.1761C142.077 26.1571 142.163 26.158 142.245 26.179C142.318 26.2278 142.392 26.3987 142.392 26.6794V117.494C142.363 117.937 142.24 118.367 142.034 118.752C141.828 119.137 141.543 119.466 141.202 119.715L136.027 122.931H136.039Z" fill="#FEAD41"/>
<path d="M118.799 47.7995C123.899 44.6385 128.008 47.1893 128.008 53.5296C128.008 59.8699 123.882 67.5649 118.799 70.7015C113.715 73.8381 109.589 71.3118 109.589 64.9775C109.589 58.6433 113.715 50.9666 118.799 47.7995Z" fill="#FEAD41"/>
<path d="M118.799 52.7791C120.448 51.7539 121.785 52.5838 121.785 54.6098C121.729 55.7259 121.43 56.812 120.911 57.78C120.392 58.7481 119.668 59.5707 118.799 60.1812C117.15 61.2064 115.812 60.3765 115.812 58.3505C115.868 57.2344 116.168 56.1483 116.687 55.1802C117.206 54.2122 117.929 53.3895 118.799 52.7791Z" fill="#FEAD41"/>
<path d="M124.619 63.7141C124.619 60.3457 122.426 58.9787 119.711 60.663L118.011 61.7187C115.302 63.4029 113.103 67.5037 113.103 70.8722V71.7814C114.673 72.3367 116.645 72.0377 118.77 70.7013C121.125 69.1376 123.115 67.0148 124.591 64.4952L124.619 63.7141Z" fill="#FEAD41"/>
<path opacity="0.7" d="M118.799 52.7791C120.448 51.7539 121.785 52.5838 121.785 54.6098C121.729 55.7259 121.43 56.812 120.911 57.78C120.392 58.7481 119.668 59.5707 118.799 60.1812C117.15 61.2064 115.812 60.3765 115.812 58.3505C115.868 57.2344 116.168 56.1483 116.687 55.1802C117.206 54.2122 117.929 53.3895 118.799 52.7791Z" fill="white"/>
<path opacity="0.7" d="M124.619 63.7141C124.619 60.3457 122.426 58.9787 119.711 60.663L118.011 61.7187C115.302 63.4029 113.103 67.5037 113.103 70.8722V71.7814C114.673 72.3367 116.645 72.0377 118.77 70.7013C121.125 69.1376 123.115 67.0148 124.591 64.4952L124.619 63.7141Z" fill="white"/>
<path d="M100.98 84.6453L112.831 77.2798C113.398 76.9442 113.811 77.2127 113.811 77.8901V78.3111C113.793 78.6779 113.695 79.0348 113.525 79.353C113.355 79.6711 113.117 79.9414 112.831 80.1418L100.98 87.5073C100.442 87.843 100 87.5684 100 86.8971V86.476C100.018 86.1094 100.117 85.7526 100.287 85.4346C100.457 85.1165 100.695 84.8461 100.98 84.6453Z" fill="#FEAD41"/>
<path opacity="0.1" d="M100.98 84.6453L112.831 77.2798C113.398 76.9442 113.811 77.2127 113.811 77.8901V78.3111C113.793 78.6779 113.695 79.0348 113.525 79.353C113.355 79.6711 113.117 79.9414 112.831 80.1418L100.98 87.5073C100.442 87.843 100 87.5684 100 86.8971V86.476C100.018 86.1094 100.117 85.7526 100.287 85.4346C100.457 85.1165 100.695 84.8461 100.98 84.6453Z" fill="black"/>
<path d="M100.493 93.5365L136.345 71.2508C136.611 71.08 136.832 71.2142 136.832 71.5559V76.0595C136.822 76.2422 136.773 76.42 136.688 76.5788C136.604 76.7377 136.486 76.8732 136.345 76.9748L100.493 99.2605C100.221 99.4314 100 99.291 100 98.9554V94.4519C100.01 94.2684 100.059 94.0899 100.145 93.9308C100.231 93.7718 100.35 93.6368 100.493 93.5365Z" fill="#FEAD41"/>
<path opacity="0.2" d="M100.493 93.5365L136.345 71.2508C136.611 71.08 136.832 71.2142 136.832 71.5559V76.0595C136.822 76.2422 136.773 76.42 136.688 76.5788C136.604 76.7377 136.486 76.8732 136.345 76.9748L100.493 99.2605C100.221 99.4314 100 99.291 100 98.9554V94.4519C100.01 94.2684 100.059 94.0899 100.145 93.9308C100.231 93.7718 100.35 93.6368 100.493 93.5365Z" fill="white"/>
<path d="M100.98 104.679L112.831 97.3137C113.398 96.978 113.811 97.2526 113.811 97.9239V98.3449C113.794 98.7118 113.696 99.069 113.525 99.3872C113.355 99.7054 113.117 99.9756 112.831 100.176L100.98 107.541C100.442 107.883 100 107.608 100 106.931V106.51C100.019 106.143 100.118 105.787 100.288 105.469C100.459 105.151 100.696 104.881 100.98 104.679Z" fill="#FEAD41"/>
<path opacity="0.1" d="M100.98 104.679L112.831 97.3137C113.398 96.978 113.811 97.2526 113.811 97.9239V98.3449C113.794 98.7118 113.696 99.069 113.525 99.3872C113.355 99.7054 113.117 99.9756 112.831 100.176L100.98 107.541C100.442 107.883 100 107.608 100 106.931V106.51C100.019 106.143 100.118 105.787 100.288 105.469C100.459 105.151 100.696 104.881 100.98 104.679Z" fill="black"/>
<path d="M100.493 113.57L136.345 91.2846C136.611 91.1138 136.832 91.2541 136.832 91.5897V96.0933C136.822 96.276 136.773 96.4538 136.688 96.6126C136.604 96.7715 136.486 96.907 136.345 97.0086L100.493 119.294C100.221 119.465 100 119.331 100 118.989V114.486C100.01 114.302 100.059 114.124 100.145 113.965C100.231 113.806 100.35 113.671 100.493 113.57Z" fill="#FEAD41"/>
<path opacity="0.2" d="M100.493 113.57L136.345 91.2846C136.611 91.1138 136.832 91.2541 136.832 91.5897V96.0933C136.822 96.276 136.773 96.4538 136.688 96.6126C136.604 96.7715 136.486 96.907 136.345 97.0086L100.493 119.294C100.221 119.465 100 119.331 100 118.989V114.486C100.01 114.302 100.059 114.124 100.145 113.965C100.231 113.806 100.35 113.671 100.493 113.57Z" fill="white"/>
<path d="M114.792 116.127L128.96 107.334C129.527 106.992 129.946 107.266 129.946 107.944V112.655C129.928 113.022 129.829 113.379 129.657 113.698C129.486 114.016 129.247 114.286 128.96 114.485L114.792 123.285C114.225 123.621 113.811 123.346 113.811 122.675V117.958C113.831 117.591 113.93 117.235 114.1 116.917C114.27 116.599 114.507 116.329 114.792 116.127Z" fill="#FEAD41"/>
<path opacity="0.1" d="M114.792 116.127L128.96 107.334C129.527 106.992 129.946 107.266 129.946 107.944V112.655C129.928 113.022 129.829 113.379 129.657 113.698C129.486 114.016 129.247 114.286 128.96 114.485L114.792 123.285C114.225 123.621 113.811 123.346 113.811 122.675V117.958C113.831 117.591 113.93 117.235 114.1 116.917C114.27 116.599 114.507 116.329 114.792 116.127Z" fill="black"/>
<path d="M148.343 96.246C148.343 96.246 141.383 85.9087 140.975 84.6516C140.652 83.724 140.975 82.3449 141.077 81.7042C141.179 81.0634 141.27 79.6355 141.372 79.2632C141.542 78.5676 140.709 78.7079 140.238 79.3425C139.768 79.9772 139.609 81.2465 139.366 81.454C139.122 81.6614 137.269 78.7506 136.3 77.4081C135.33 76.0656 134.724 75.2479 134.129 75.7483C133.704 76.1083 134.021 76.8894 134.724 78.0367C135.134 78.6544 135.513 79.2961 135.857 79.9589C135.965 80.2091 135.387 80.2274 135.075 80.7461C134.832 81.1488 135.075 81.8018 134.735 82.113C134.526 82.2845 134.383 82.5329 134.332 82.8108C134.282 83.0888 134.329 83.3769 134.463 83.6203C135.094 84.687 135.908 85.6148 136.861 86.3541C137.903 87.1291 138.323 87.4037 138.94 88.4594C139.558 89.5151 145.101 100.298 145.475 100.945C145.849 101.592 146.569 102.91 147.663 102.946C148.756 102.983 157.711 94.6838 158.17 94.2688C159.643 92.9446 160.114 92.7555 160.363 93.9454C160.449 94.3684 160.514 94.7962 160.556 95.2269C160.732 96.7403 161.689 102.147 161.689 102.147C161.689 102.147 166.223 104.509 169.947 103.367C173.67 102.226 174.928 100.524 174.928 100.524L173.064 97.2529C173.568 95.9043 175.897 90.4366 176.651 86.6104L164.976 84.5783C164.738 84.5234 164.353 84.4197 163.843 84.2793C163.203 84.0963 161.576 83.4921 160.346 84.6516C156.334 88.4167 148.354 96.246 148.354 96.246" fill="#FFA8A7"/>
<path d="M171.488 159.674L169.397 162.804C170.347 163.282 171.386 163.522 172.435 163.506C174.31 163.579 174.826 162.896 174.894 162.761C175.212 162.029 174.719 160.711 174.582 159.576L171.488 159.674Z" fill="#37474F"/>
<path d="M169.516 161.303C169.516 161.303 166.977 161.126 165.226 160.894C163.474 160.662 162.086 161.577 162.494 162.352C162.902 163.127 163.871 163.774 165.379 164.317C166.665 164.787 168.212 165.123 169.55 165.538C170.887 165.953 171.817 166.496 172.593 166.203C173.46 165.88 173.834 165.507 173.761 164.824C173.571 163.852 173.337 162.89 173.058 161.944L169.516 161.303Z" fill="#37474F"/>
<path d="M174.894 156.531C174.894 156.531 174.577 159.374 174.554 159.985C174.532 160.595 171.976 160.79 171.488 159.673L171.409 156.195L174.894 156.531Z" fill="#F28F8F"/>
<path d="M172.321 158.276L173.234 162.596C173.234 162.596 173.319 163.121 171.233 163.457C169.148 163.792 165.872 162.279 165.311 161.974C164.75 161.669 164.687 161.052 166.739 161.174C168.79 161.297 169.516 161.303 169.516 161.303L168.847 159.393L172.321 158.276Z" fill="#FFA8A7"/>
<path d="M176.617 86.5737L178.062 86.1404C178.062 86.1404 181.083 96.435 181.417 97.4297C181.752 98.4244 182.131 99.474 181.48 100.701C180.703 102.159 176.617 108.023 176.617 108.023L174.021 105.289L176.969 99.4801L174.362 93.8049L176.617 86.5737Z" fill="#F28F8F"/>
<path d="M161.774 73.2035C161.435 72.5186 161.263 71.7525 161.274 70.9766C161.285 70.2008 161.479 69.4406 161.837 68.7671C163.276 65.8929 166.484 64.4955 170.304 65.0264C172.072 65.2766 174.157 66.8571 175.297 69.2187C176.555 71.8366 176.674 77.109 176.997 79.1044L161.774 73.2035Z" fill="#37474F"/>
<path d="M161.672 74.3325C161.672 74.3325 160.765 76.1937 160.924 76.3646C161.159 76.5124 161.416 76.6156 161.684 76.6697L161.672 74.3325Z" fill="#FFA8A7"/>
<path d="M164.427 68.4497C163.44 69.1393 161.74 70.4086 161.667 74.5886C161.587 78.8603 162.154 80.2699 162.743 80.7642C163.14 81.0998 165.469 80.929 166.467 80.6788C167.464 80.4286 170.338 78.8969 171.375 76.5719C172.593 73.8381 172.344 69.8593 170.536 68.6389C169.616 68.053 168.572 67.7283 167.504 67.6952C166.435 67.6621 165.376 67.9217 164.427 68.4497Z" fill="#FFA8A7"/>
<path d="M174.894 100.499C176.64 103.428 178.295 105.991 178.657 109.299C179.405 116.249 176.957 124.195 176.43 129.339C177.421 130.802 177.993 132.546 178.074 134.355C178.074 136.485 174.894 156.531 174.894 156.531C174.894 156.531 172.582 157.288 171.409 156.195L169.227 119.319L170.36 114.828L174.894 100.499Z" fill="#FEAD41"/>
<path opacity="0.2" d="M174.894 100.499C176.64 103.428 178.295 105.991 178.657 109.299C179.405 116.249 176.957 124.195 176.43 129.339C177.421 130.802 177.993 132.546 178.074 134.355C178.074 136.485 174.894 156.531 174.894 156.531C174.894 156.531 172.582 157.288 171.409 156.195L169.227 119.319L170.36 114.828L174.894 100.499Z" fill="black"/>
<path d="M169.227 119.319L170.36 114.828C172.531 114.212 174.624 113.317 176.594 112.161C176.594 112.161 175.416 114.474 172.026 115.743L170.275 121.51L170.128 134.721L169.227 119.319Z" fill="#FEAD41"/>
<path opacity="0.3" d="M169.227 119.319L170.36 114.828C172.531 114.212 174.624 113.317 176.594 112.161C176.594 112.161 175.416 114.474 172.026 115.743L170.275 121.51L170.128 134.721L169.227 119.319Z" fill="black"/>
<path d="M174.894 100.499C175.829 102.147 178.062 104.954 177.586 107.657C177.019 110.928 175.376 113.229 170.377 114.828L165.685 133.135C165.685 133.135 168.127 135.575 168.875 137.937C169.624 140.299 172.321 158.288 172.321 158.288C172.321 158.288 171.482 159.759 168.847 159.405C168.847 159.405 159.66 136.826 159.014 135.356C158.23 133.866 157.955 132.128 158.238 130.443C158.527 128.076 161.638 102.159 161.638 102.159L174.894 100.499Z" fill="#FEAD41"/>
<path opacity="0.2" d="M174.894 100.499C175.829 102.147 178.062 104.954 177.586 107.657C177.019 110.928 175.376 113.229 170.377 114.828L165.685 133.135C165.685 133.135 168.127 135.575 168.875 137.937C169.624 140.299 172.321 158.288 172.321 158.288C172.321 158.288 171.482 159.759 168.847 159.405C168.847 159.405 159.66 136.826 159.014 135.356C158.23 133.866 157.955 132.128 158.238 130.443C158.527 128.076 161.638 102.159 161.638 102.159L174.894 100.499Z" fill="black"/>
<path d="M176.617 86.5738L164.942 84.5417C164.704 84.4868 164.319 84.383 163.809 84.2427C163.809 84.2427 163.31 92.1269 160.312 93.9332C160.386 94.3115 160.448 94.7326 160.505 95.2147C160.681 96.728 161.638 102.135 161.638 102.135C161.638 102.135 166.172 104.496 169.896 103.355C173.619 102.214 174.877 100.511 174.877 100.511L173.013 97.2406C173.534 95.8798 175.88 90.4121 176.617 86.5738Z" fill="#FEAD41"/>
<path opacity="0.7" d="M176.617 86.5738L164.942 84.5417C164.704 84.4868 164.319 84.383 163.809 84.2427C163.809 84.2427 163.31 92.1269 160.312 93.9332C160.386 94.3115 160.448 94.7326 160.505 95.2147C160.681 96.728 161.638 102.135 161.638 102.135C161.638 102.135 166.172 104.496 169.896 103.355C173.619 102.214 174.877 100.511 174.877 100.511L173.013 97.2406C173.534 95.8798 175.88 90.4121 176.617 86.5738Z" fill="white"/>
<path d="M173.54 95.9409C171.989 96.9434 170.365 97.8067 168.683 98.5222C170.209 98.4894 171.704 98.0446 173.03 97.2285L173.54 95.9409Z" fill="#FEAD41"/>
<path d="M164.138 68.6573C164.138 68.6573 163.571 72.6239 164.908 74.9549C164.908 74.9549 165.407 73.3744 166.648 73.6735C167.889 73.9725 167.957 75.736 167.085 76.7246C166.863 77.0019 166.573 77.2063 166.248 77.3142C165.923 77.4221 165.577 77.4293 165.248 77.3349C165.248 77.3349 165.05 80.2029 164.942 82.6073C164.835 85.0116 164.245 90.2535 166.756 92.371C169.267 94.4885 175.569 95.233 178.521 90.7905C180.165 88.319 177.983 83.9498 176.968 79.0496C176.033 74.5461 175.506 67.8701 171.069 66.7961C166.631 65.7221 164.138 68.6573 164.138 68.6573Z" fill="#37474F"/>
<path d="M180.42 14.4626L179.485 15.0729C179.563 14.7146 179.607 14.3485 179.615 13.9805C179.615 11.9363 178.283 11.1125 176.64 12.1499C176.14 12.4747 175.693 12.8872 175.319 13.3703C175.319 10.6243 173.528 9.50754 171.318 10.8806C170.153 11.6984 169.184 12.8004 168.489 14.0971C167.794 15.3938 167.392 16.8487 167.317 18.3437C167.317 18.4841 167.317 18.6183 167.317 18.7526C166.748 18.6754 166.171 18.8181 165.69 19.1553C164.824 19.763 164.104 20.5819 163.587 21.5457C163.07 22.5095 162.771 23.591 162.715 24.7023C162.715 24.9607 162.739 25.2184 162.789 25.4712L162.29 25.7825C160.936 26.6246 159.836 28.2661 159.836 29.4439C159.836 30.6216 160.936 30.9023 162.29 30.0541L180.426 18.7953C181.78 17.9532 182.88 16.3116 182.88 15.1339C182.88 13.9561 181.774 13.6144 180.42 14.4626Z" fill="#EBEBEB"/>
</svg>
