<svg width="200" height="201" viewBox="0 0 200 201" fill="none" xmlns="http://www.w3.org/2000/svg">
<path d="M172.961 182.842H174.449L177.688 178.001V174.806C177.688 174.806 179.986 174.657 179.716 178.817C179.446 182.978 179.738 181.919 179.738 181.919C179.738 181.919 184.613 181.919 185.018 182.385C185.314 182.712 185.453 187.903 185.496 190.715C185.529 191.394 185.348 192.065 184.982 192.622C184.617 193.178 184.089 193.587 183.481 193.784C183.311 193.834 183.135 193.859 182.959 193.859C181.74 193.859 175.529 192.8 175.529 192.8H172.961V182.842Z" fill="#E0E0E0"/>
<path d="M168.708 181.97L169.622 192.856H172.168V182.189L168.708 181.97Z" fill="#E0E0E0"/>
<path d="M97.0018 19.1419L103.4 28.9362C103.564 29.1806 103.781 29.3788 104.033 29.5139C104.284 29.649 104.562 29.7169 104.843 29.7119C105.124 29.7068 105.399 29.629 105.646 29.485C105.893 29.3409 106.104 29.1351 106.26 28.8849L112.454 18.6895L97.0018 19.1419Z" fill="#E0E0E0"/>
<path d="M113.229 2.72925H95.2651C92.4861 2.72925 90.2334 5.14312 90.2334 8.12079V19.179C90.2334 22.1567 92.4861 24.5706 95.2651 24.5706H113.229C116.008 24.5706 118.26 22.1567 118.26 19.179V8.12079C118.26 5.14312 116.008 2.72925 113.229 2.72925Z" fill="#E0E0E0"/>
<path d="M109.738 11.6421C108.837 9.88377 107.348 9.60859 106.347 10.0097C105.641 10.3404 105.059 10.9152 104.693 11.6421C104.327 10.9152 103.745 10.3404 103.039 10.0097C102.038 9.60859 100.549 9.88377 99.6525 11.6421C97.7809 15.2986 104.693 20.0932 104.693 20.0932C104.693 20.0932 111.609 15.2986 109.738 11.6421Z" fill="white"/>
<path d="M26.745 171.966H41.505C43.0808 171.966 44.592 172.637 45.7062 173.83C46.8205 175.024 47.4464 176.644 47.4464 178.332V186.363C47.4464 188.052 46.8205 189.671 45.7062 190.865C44.592 192.059 43.0808 192.73 41.505 192.73H37.6485L34.9324 196.89C34.7787 197.126 34.5732 197.318 34.334 197.449C34.0948 197.58 33.8292 197.646 33.5606 197.642C33.292 197.637 33.0286 197.562 32.7935 197.423C32.5583 197.283 32.3586 197.085 32.212 196.843L29.7136 192.73H26.745C25.1693 192.73 23.658 192.059 22.5438 190.865C21.4296 189.671 20.8036 188.052 20.8036 186.363V178.332C20.8036 176.644 21.4296 175.024 22.5438 173.83C23.658 172.637 25.1693 171.966 26.745 171.966Z" fill="#E0E0E0"/>
<path d="M33.6005 178.346V186.536L28.1292 182.441L33.6005 178.346Z" fill="white"/>
<path d="M40.9217 187.18C40.9217 187.18 40.5605 181.364 36.2165 181.275H33.4395V183.775L36.1773 183.817C36.1773 183.817 39.0196 183.747 40.9217 187.18Z" fill="white"/>
<path d="M35.6432 86.2212C36.1415 83.9679 34.8407 81.7084 32.7378 81.1745C30.6349 80.6406 28.5262 82.0345 28.0279 84.2877C27.5297 86.541 28.8305 88.8005 30.9334 89.3344C33.0363 89.8683 35.145 88.4745 35.6432 86.2212Z" fill="#E0E0E0"/>
<path d="M31.8377 88.9521C30.0634 88.9521 28.3617 89.7074 27.1071 91.0518C25.8524 92.3961 25.1476 94.2194 25.1476 96.1207H38.5278C38.5278 94.2194 37.8229 92.3961 36.5683 91.0518C35.3136 89.7074 33.612 88.9521 31.8377 88.9521Z" fill="#E0E0E0"/>
<path d="M141.417 6.4931C141.417 7.06963 141.257 7.63321 140.958 8.11258C140.659 8.59194 140.234 8.96556 139.737 9.18619C139.24 9.40682 138.693 9.46454 138.166 9.35207C137.638 9.23959 137.153 8.96197 136.773 8.5543C136.392 8.14664 136.133 7.62724 136.028 7.06179C135.923 6.49634 135.977 5.91023 136.183 5.37759C136.389 4.84495 136.738 4.38969 137.185 4.06939C137.632 3.74909 138.158 3.57813 138.696 3.57813C139.054 3.57751 139.408 3.65249 139.738 3.79877C140.068 3.94504 140.368 4.15973 140.621 4.43054C140.874 4.70134 141.074 5.02293 141.211 5.37687C141.347 5.7308 141.417 6.11013 141.417 6.4931Z" fill="#E0E0E0"/>
<path d="M148.964 13.3166C148.964 13.8931 148.805 14.4567 148.506 14.9361C148.207 15.4154 147.782 15.789 147.285 16.0097C146.788 16.2303 146.241 16.288 145.713 16.1756C145.185 16.0631 144.701 15.7855 144.32 15.3778C143.94 14.9701 143.681 14.4507 143.576 13.8853C143.471 13.3198 143.525 12.7337 143.731 12.2011C143.936 11.6684 144.285 11.2132 144.732 10.8929C145.18 10.5726 145.706 10.4016 146.244 10.4016C146.965 10.4016 147.657 10.7087 148.168 11.2554C148.678 11.8021 148.964 12.5435 148.964 13.3166Z" fill="#E0E0E0"/>
<path d="M141.46 20.2753C141.46 20.8519 141.301 21.4154 141.002 21.8948C140.703 22.3742 140.278 22.7478 139.781 22.9684C139.284 23.189 138.737 23.2468 138.209 23.1343C137.681 23.0218 137.197 22.7442 136.816 22.3365C136.436 21.9289 136.177 21.4095 136.072 20.844C135.967 20.2786 136.021 19.6925 136.226 19.1598C136.432 18.6272 136.781 18.1719 137.228 17.8516C137.676 17.5313 138.202 17.3604 138.74 17.3604C139.461 17.3604 140.153 17.6675 140.663 18.2141C141.174 18.7608 141.46 19.5022 141.46 20.2753Z" fill="#E0E0E0"/>
<path d="M138.883 20.4524L138.596 20.0979L145.909 13.3212L138.557 6.67504L138.835 6.31592L146.579 13.3165L138.883 20.4524Z" fill="#E0E0E0"/>
<path d="M188.361 74.8808C187.185 72.5768 185.235 72.2224 183.93 72.7447C183.001 73.1756 182.235 73.9278 181.753 74.8808C181.271 73.9278 180.505 73.1756 179.577 72.7447C178.271 72.2224 176.321 72.5768 175.146 74.8808C172.717 79.6614 181.788 85.9344 181.788 85.9344C181.788 85.9344 190.811 79.6614 188.361 74.8808Z" fill="#E0E0E0"/>
<path d="M177.662 97.268C176.821 95.6263 175.437 95.3744 174.501 95.7475C173.844 96.0559 173.302 96.5911 172.961 97.268C172.62 96.5911 172.077 96.0559 171.42 95.7475C170.488 95.3744 169.1 95.6263 168.264 97.268C166.523 100.687 172.961 105.141 172.961 105.141C172.961 105.141 179.407 100.687 177.662 97.268Z" fill="#E0E0E0"/>
<path d="M184.726 17.7939H155.702C153.993 17.7939 152.354 18.521 151.146 19.8154C149.937 21.1098 149.257 22.8655 149.256 24.6966V43.5483C149.256 44.4552 149.423 45.3532 149.747 46.1909C150.071 47.0287 150.546 47.7899 151.144 48.4309C151.743 49.0719 152.454 49.5803 153.236 49.9269C154.018 50.2735 154.856 50.4516 155.702 50.451H164.673L169.701 58.1605C169.86 58.403 170.073 58.6 170.319 58.7344C170.566 58.8687 170.84 58.9363 171.117 58.9312C171.394 58.9261 171.665 58.8486 171.908 58.7053C172.15 58.5621 172.356 58.3574 172.508 58.1092L177.157 50.451H184.726C185.572 50.4516 186.41 50.2735 187.192 49.9268C187.974 49.5801 188.684 49.0717 189.283 48.4306C189.881 47.7895 190.355 47.0283 190.679 46.1906C191.002 45.3529 191.169 44.455 191.168 43.5483V24.6966C191.168 23.7901 191.001 22.8925 190.678 22.0551C190.354 21.2176 189.879 20.4567 189.281 19.8157C188.683 19.1747 187.973 18.6663 187.191 18.3194C186.41 17.9725 185.572 17.7939 184.726 17.7939Z" fill="white"/>
<path d="M184.726 17.794H184.944C185.158 17.7955 185.371 17.811 185.583 17.8406C186.414 17.943 187.215 18.2271 187.938 18.6755C188.894 19.256 189.697 20.0875 190.27 21.0919C190.843 22.0963 191.169 23.2405 191.216 24.4168C191.242 25.3822 191.216 26.399 191.216 27.4717C191.216 31.7719 191.216 36.9582 191.242 42.8628C191.269 43.618 191.213 44.374 191.077 45.1155C190.917 45.8795 190.636 46.6084 190.245 47.2702C189.431 48.6594 188.19 49.7015 186.737 50.2178C185.986 50.4672 185.203 50.5853 184.417 50.5676H177.157L177.244 50.5163L174.584 54.9005L173.213 57.1625C172.974 57.5449 172.778 57.9227 172.504 58.3098C172.218 58.7009 171.804 58.9597 171.346 59.0327C170.885 59.0997 170.419 58.9762 170.04 58.6876C169.854 58.5415 169.693 58.3615 169.566 58.1559L169.191 57.5776L167.677 55.2456L164.582 50.5117L164.678 50.563H156.107C155.497 50.5809 154.887 50.5262 154.288 50.3997C153.693 50.2536 153.118 50.0263 152.577 49.7235C151.522 49.1088 150.644 48.1969 150.038 47.0864C149.432 45.9758 149.121 44.7088 149.138 43.4224C149.138 38.474 149.138 33.7028 149.138 29.1554C149.138 28.0174 149.138 26.898 149.138 25.788C149.138 25.233 149.138 24.6873 149.164 24.1323C149.186 23.8569 149.221 23.5829 149.269 23.3114C149.33 23.0409 149.386 22.7751 149.465 22.5139C149.786 21.49 150.317 20.5561 151.019 19.7808C151.714 19.0256 152.561 18.4498 153.495 18.0971C153.718 18.0079 153.947 17.9347 154.179 17.8779C154.408 17.8148 154.64 17.7696 154.875 17.7427C155.336 17.6886 155.8 17.6668 156.264 17.6774H163.942L179.142 17.7194H183.272H184.347H184.713C184.713 17.7194 184.591 17.7194 184.347 17.7194H183.272H179.142L163.942 17.8779H158.906H156.229C155.774 17.867 155.319 17.8888 154.867 17.9432C154.637 17.9698 154.41 18.015 154.188 18.0785C153.963 18.1343 153.742 18.2059 153.526 18.293C152.635 18.6397 151.827 19.1959 151.162 19.9207C150.481 20.6724 149.968 21.5798 149.661 22.5745C149.582 22.8264 149.53 23.0876 149.469 23.3488C149.408 23.6099 149.378 23.8758 149.369 24.1416C149.334 24.678 149.347 25.233 149.347 25.7833V29.1507C149.347 33.6981 149.347 38.4786 149.347 43.4178C149.332 44.6606 149.633 45.8844 150.219 46.9571C150.805 48.0298 151.654 48.9105 152.673 49.5042C153.194 49.7985 153.748 50.0181 154.322 50.1572C154.905 50.2831 155.5 50.3363 156.094 50.3158H164.708L164.743 50.3671L167.833 55.101L169.348 57.433L169.722 58.0067C169.84 58.189 169.987 58.347 170.158 58.4731C170.489 58.7331 170.901 58.8444 171.308 58.7834C171.714 58.7225 172.082 58.494 172.334 58.1466C172.569 57.7921 172.8 57.391 173.03 57.0179C173.498 56.2592 173.956 55.5052 174.406 54.7559L177.074 50.3717L177.104 50.3204H184.439C185.204 50.3438 185.967 50.2319 186.698 49.9893C188.11 49.4942 189.316 48.4842 190.106 47.135C190.489 46.4946 190.764 45.7875 190.92 45.0455C191.057 44.3183 191.113 43.5761 191.085 42.8348C191.085 36.9349 191.085 31.7486 191.111 27.4437C191.111 26.371 191.111 25.3496 191.111 24.3935C191.076 23.5058 190.877 22.6342 190.528 21.8283C189.978 20.5311 189.065 19.449 187.917 18.7314C187.202 18.2789 186.41 17.9855 185.588 17.8686C185.377 17.835 185.165 17.8132 184.952 17.8033L184.726 17.794Z" fill="#263238"/>
<path d="M171.041 27.8262V40.708L179.646 34.2671L171.041 27.8262Z" fill="#FF725E"/>
<path d="M159.524 41.7249C159.524 41.7249 160.094 32.5742 166.924 32.4343H171.276V36.3707L166.971 36.436C166.971 36.436 162.484 36.3241 159.524 41.7249Z" fill="#FF725E"/>
<path d="M145.491 164.471H194.933C197.688 164.471 199.921 162.078 199.921 159.126V118.12C199.921 115.169 197.688 112.776 194.933 112.776H145.491C142.736 112.776 140.503 115.169 140.503 118.12V159.126C140.503 162.078 142.736 164.471 145.491 164.471Z" fill="white"/>
<path d="M167.824 162.89C167.215 164.471 155.432 176.341 155.432 176.341V162.89H167.824Z" fill="#455A64"/>
<path d="M163.263 152.065C163.263 150.432 163.263 149.071 163.263 148.903C163.263 148.903 158.114 148.38 157.744 142.919C157.565 140.279 157.609 134.803 157.704 129.86C157.754 127.296 158.703 124.846 160.362 122.998C162.021 121.15 164.269 120.04 166.658 119.888L167.15 119.855C172.482 119.855 175.463 124.692 175.324 130.401L175.137 151.822L166.519 159.243L165.892 159.182L163.263 152.065Z" fill="#FFBF9D"/>
<path d="M163.254 148.903C165.612 148.744 167.877 147.866 169.783 146.37C169.783 146.37 168.386 150.47 163.254 150.307V148.903Z" fill="#FF9A6C"/>
<path d="M166.379 132.215C166.48 132.327 167.072 131.828 167.925 131.814C168.778 131.8 169.413 132.257 169.505 132.14C169.596 132.024 169.444 131.888 169.17 131.674C168.799 131.399 168.357 131.257 167.907 131.268C167.46 131.277 167.028 131.441 166.675 131.735C166.414 131.958 166.332 132.164 166.379 132.215Z" fill="#263238"/>
<path d="M167.011 134.696C167.018 134.889 167.097 135.07 167.229 135.201C167.361 135.332 167.536 135.402 167.716 135.396C167.804 135.398 167.891 135.382 167.974 135.347C168.056 135.313 168.13 135.261 168.193 135.195C168.256 135.128 168.306 135.049 168.34 134.962C168.374 134.875 168.391 134.781 168.39 134.687C168.381 134.494 168.303 134.313 168.171 134.182C168.039 134.05 167.865 133.979 167.685 133.983C167.597 133.981 167.509 133.998 167.427 134.033C167.345 134.068 167.27 134.12 167.207 134.187C167.144 134.253 167.095 134.333 167.061 134.42C167.027 134.508 167.01 134.601 167.011 134.696Z" fill="#263238"/>
<path d="M164.164 138.544C163.737 138.431 163.298 138.376 162.858 138.381C162.658 138.381 162.466 138.343 162.423 138.199C162.394 137.977 162.429 137.751 162.523 137.551C162.68 137.024 162.845 136.464 163.024 135.881C163.716 133.502 164.203 131.548 164.112 131.52C164.02 131.492 163.389 133.386 162.697 135.778C162.532 136.361 162.371 136.921 162.223 137.457C162.111 137.724 162.091 138.025 162.166 138.306C162.199 138.38 162.247 138.445 162.306 138.496C162.366 138.547 162.435 138.582 162.51 138.6C162.623 138.624 162.739 138.634 162.854 138.628C163.292 138.664 163.733 138.636 164.164 138.544Z" fill="#263238"/>
<path d="M166.802 129.277C166.884 129.482 167.568 129.337 168.386 129.398C169.204 129.459 169.875 129.654 169.97 129.459C170.014 129.37 169.888 129.179 169.613 128.992C169.25 128.768 168.842 128.639 168.423 128.614C168.004 128.59 167.586 128.672 167.202 128.852C166.91 129.006 166.767 129.183 166.802 129.277Z" fill="#263238"/>
<path d="M158.797 129.799C158.884 129.967 159.554 129.799 160.36 129.776C161.165 129.752 161.835 129.878 161.922 129.706C161.962 129.626 161.831 129.477 161.552 129.342C161.175 129.174 160.768 129.096 160.36 129.113C159.947 129.12 159.54 129.222 159.167 129.412C158.889 129.566 158.758 129.72 158.797 129.799Z" fill="#263238"/>
<path d="M175.128 134.472C175.211 134.426 178.571 133.134 178.671 136.879C178.771 140.624 175.237 139.957 175.228 139.85C175.22 139.743 175.128 134.472 175.128 134.472Z" fill="#FFBF9D"/>
<path d="M176.26 138.399C176.26 138.399 176.321 138.446 176.426 138.493C176.572 138.556 176.736 138.556 176.883 138.493C177.248 138.334 177.54 137.7 177.54 137.023C177.541 136.701 177.476 136.382 177.348 136.091C177.312 135.974 177.25 135.869 177.167 135.784C177.084 135.698 176.984 135.636 176.874 135.601C176.803 135.583 176.729 135.592 176.665 135.627C176.6 135.662 176.549 135.721 176.521 135.792C176.478 135.899 176.521 135.969 176.482 135.979C176.443 135.988 176.404 135.918 176.43 135.764C176.447 135.67 176.493 135.585 176.56 135.522C176.607 135.481 176.66 135.45 176.718 135.433C176.776 135.415 176.836 135.41 176.896 135.419C177.04 135.446 177.175 135.511 177.289 135.609C177.403 135.707 177.492 135.834 177.549 135.979C177.703 136.3 177.784 136.657 177.784 137.019C177.784 137.774 177.44 138.488 176.939 138.66C176.846 138.693 176.747 138.703 176.65 138.689C176.553 138.676 176.46 138.639 176.378 138.581C176.269 138.488 176.247 138.427 176.26 138.399Z" fill="#FF9A6C"/>
<path d="M165.248 141.73C165.209 141.636 165.896 141.426 166.388 140.741C166.593 140.442 166.76 140.116 166.884 139.771C166.989 139.5 167.067 139.332 167.106 139.346C167.145 139.36 167.128 139.542 167.071 139.813C166.992 140.208 166.833 140.581 166.606 140.904C166.372 141.226 166.06 141.475 165.705 141.622C165.435 141.758 165.248 141.762 165.248 141.73Z" fill="#263238"/>
<path d="M179.847 128.474C179.133 127.141 178.976 125.564 178.602 124.086C178.227 122.607 177.474 121.068 176.134 120.536H176.103C174.898 119.995 173.405 119.967 172.399 120.858C172.177 118.909 170.606 117.342 168.839 116.819C167.071 116.297 164.225 116.558 162.514 117.286C161.208 117.831 159.903 118.979 158.344 120.662C157.684 121.372 157.079 122.138 156.534 122.952L154.932 128.027L156.238 130.718C156.316 130.904 156.394 131.086 156.49 131.268L157.613 136.921C157.709 135.386 157.67 130.037 157.761 128.502C158.84 128.482 159.905 128.229 160.89 127.758C161.876 127.287 162.763 126.607 163.498 125.76C164.29 124.827 164.921 123.685 165.975 123.144C167.337 122.444 168.939 122.99 170.358 123.535L170.297 123.479C171.036 123.857 171.699 124.384 172.251 125.032C171.894 128.065 172.151 131.145 173.004 134.062C173.135 134.5 173.487 135.405 173.875 135.573C174.658 135.909 174.88 135.055 175.355 134.608C175.776 134.306 176.285 134.18 176.787 134.253C177.195 132.984 177.531 131.69 177.792 130.377C178.265 130.542 178.768 130.585 179.259 130.503L178.824 129.342C179.009 129.491 179.221 129.598 179.446 129.654C179.559 129.679 179.677 129.667 179.784 129.619C179.89 129.57 179.98 129.488 180.042 129.384C180.173 129.099 179.995 128.75 179.847 128.474Z" fill="#263238"/>
<path d="M170.789 121.474C170.97 121.628 171.138 121.798 171.294 121.982C171.69 122.51 171.952 123.138 172.055 123.806C172.138 124.267 172.176 124.736 172.168 125.205C172.168 125.709 172.121 126.245 172.077 126.814C172.023 127.409 172.003 128.007 172.016 128.605C172.032 128.918 172.067 129.23 172.121 129.538C172.16 129.876 172.28 130.197 172.469 130.471C172.557 130.578 172.669 130.659 172.795 130.706C172.921 130.754 173.056 130.766 173.187 130.741C173.438 130.693 173.667 130.559 173.84 130.359C174.122 129.949 174.296 129.466 174.345 128.96H174.24C174.389 129.373 174.592 129.761 174.845 130.112C175.089 130.438 175.442 130.65 175.829 130.704C176.009 130.727 176.191 130.696 176.356 130.615C176.508 130.532 176.633 130.402 176.717 130.242C176.792 130.1 176.831 129.939 176.83 129.776C176.828 129.617 176.772 129.465 176.674 129.347L176.617 129.398C176.917 129.773 177.286 130.078 177.701 130.293C177.811 130.349 177.924 130.397 178.04 130.438C178.079 130.456 178.12 130.467 178.162 130.471L178.049 130.419C177.971 130.382 177.862 130.335 177.718 130.256C177.318 130.029 176.963 129.72 176.674 129.347L176.621 129.398C176.703 129.514 176.748 129.655 176.752 129.8C176.756 129.945 176.718 130.088 176.643 130.209C176.568 130.353 176.455 130.469 176.317 130.541C176.167 130.613 176.001 130.639 175.838 130.615C175.479 130.56 175.154 130.359 174.928 130.056C174.684 129.711 174.486 129.331 174.34 128.927L174.271 128.75L174.236 128.936C174.184 129.415 174.018 129.871 173.753 130.261C173.598 130.439 173.393 130.558 173.17 130.601C173.058 130.624 172.943 130.615 172.836 130.575C172.729 130.535 172.634 130.465 172.56 130.373C172.385 130.12 172.274 129.823 172.238 129.51C172.182 129.202 172.147 128.89 172.134 128.577C172.12 127.984 172.137 127.391 172.186 126.8C172.225 126.231 172.269 125.69 172.269 125.182C172.269 124.712 172.226 124.243 172.138 123.783C172.027 123.103 171.747 122.469 171.328 121.945C171.174 121.757 170.991 121.598 170.789 121.474Z" fill="#455A64"/>
<path d="M154.962 126.572C154.962 126.572 154.962 126.572 155.001 126.609L155.128 126.712C155.195 126.767 155.267 126.816 155.341 126.861C155.44 126.928 155.543 126.987 155.65 127.038C156.328 127.385 157.076 127.545 157.826 127.504C158.941 127.441 160.014 127.032 160.917 126.329C162.006 125.459 162.918 124.361 163.598 123.102C163.977 122.449 164.286 121.772 164.625 121.152C164.938 120.547 165.33 119.993 165.787 119.506C166.2 119.067 166.709 118.747 167.267 118.573C167.52 118.502 167.781 118.473 168.042 118.489C168.283 118.507 168.52 118.56 168.747 118.648C169.141 118.797 169.5 119.036 169.801 119.347C170.03 119.58 170.222 119.853 170.366 120.154C170.478 120.417 170.564 120.692 170.623 120.975C170.624 120.956 170.624 120.938 170.623 120.919C170.623 120.872 170.623 120.816 170.623 120.751C170.581 120.538 170.518 120.33 170.436 120.131C170.293 119.821 170.104 119.539 169.875 119.296C169.396 118.77 168.756 118.448 168.073 118.391C167.802 118.371 167.53 118.399 167.267 118.475C166.692 118.643 166.165 118.964 165.735 119.408C165.268 119.899 164.869 120.459 164.551 121.073C164.207 121.702 163.898 122.374 163.52 123.022C162.848 124.268 161.95 125.356 160.878 126.222C159.988 126.919 158.931 127.329 157.831 127.402C157.093 127.453 156.354 127.314 155.676 126.996C155.193 126.767 154.971 126.553 154.962 126.572Z" fill="#455A64"/>
<path d="M158.593 132.448C158.693 132.56 159.289 132.061 160.142 132.052C160.995 132.043 161.626 132.495 161.718 132.378C161.809 132.262 161.661 132.122 161.383 131.912C161.012 131.637 160.57 131.495 160.12 131.506C159.674 131.517 159.242 131.68 158.889 131.973C158.632 132.192 158.545 132.402 158.593 132.448Z" fill="#263238"/>
<path d="M159.898 134.822C159.907 135.015 159.986 135.196 160.118 135.328C160.249 135.459 160.424 135.53 160.603 135.526C160.692 135.528 160.78 135.511 160.862 135.476C160.944 135.441 161.018 135.389 161.081 135.322C161.144 135.256 161.194 135.176 161.228 135.089C161.262 135.001 161.279 134.908 161.278 134.813C161.269 134.621 161.19 134.44 161.059 134.309C160.927 134.179 160.753 134.108 160.573 134.113C160.485 134.111 160.397 134.127 160.315 134.162C160.233 134.196 160.158 134.248 160.095 134.314C160.032 134.381 159.983 134.46 159.949 134.547C159.915 134.634 159.898 134.728 159.898 134.822Z" fill="#263238"/>
<path d="M156.978 122.323C156.542 122.938 155.876 123.498 155.162 123.414C154.903 123.356 154.649 123.276 154.401 123.176C154.153 123.339 154.209 124.254 154.401 124.505C154.563 124.719 154.742 124.918 154.936 125.098C154.096 125.564 153.334 125.345 152.442 124.995C152.532 125.813 152.82 126.59 153.279 127.251C153.737 127.912 154.349 128.432 155.054 128.759C155.269 128.883 155.509 128.95 155.753 128.955C155.998 128.96 156.24 128.902 156.46 128.787C156.797 128.492 157.019 128.073 157.082 127.612C157.482 125.973 157.692 124.287 157.709 122.593L156.978 122.323Z" fill="#263238"/>
<path d="M151.598 158.23L151.689 158.105C155.772 153.473 163.289 151.925 163.289 151.925C163.289 151.925 163.75 154.956 167.964 155.297C172.177 155.637 175.259 151.02 175.259 151.02L180.917 151.878C180.917 151.878 183.747 152.237 185.505 153.347C189.475 155.847 191.599 164.471 191.599 164.471L148.246 164.662L151.598 158.23Z" fill="#455A64"/>
<path d="M147.632 112.776L147.328 112.799L146.953 112.827C146.805 112.827 146.636 112.878 146.44 112.911C145.293 113.12 144.212 113.633 143.297 114.403C142.63 114.961 142.061 115.642 141.617 116.414C141.082 117.339 140.74 118.378 140.616 119.459C140.558 120.066 140.537 120.677 140.555 121.287C140.555 121.917 140.555 122.575 140.555 123.246C140.555 124.599 140.555 126.045 140.555 127.546C140.555 133.61 140.555 140.923 140.577 149.276C140.577 151.365 140.577 153.517 140.577 155.731C140.577 156.281 140.577 156.841 140.607 157.391C140.646 157.947 140.739 158.498 140.886 159.033C141.2 160.122 141.742 161.121 142.47 161.953C143.206 162.815 144.124 163.475 145.147 163.879L145.534 164.028L145.935 164.14C146.204 164.212 146.478 164.265 146.753 164.298C147.313 164.356 147.875 164.377 148.438 164.364H155.515V164.471C155.515 168.226 155.515 172.232 155.515 176.341L155.337 176.257C157.171 174.391 159.032 172.479 160.921 170.52C162.802 168.543 164.725 166.537 166.558 164.392L166.593 164.354H191.982C192.448 164.354 192.909 164.354 193.362 164.326C194.718 164.204 196.011 163.661 197.084 162.764C198.157 161.867 198.963 160.655 199.403 159.275C199.683 158.374 199.814 157.427 199.791 156.477V153.585C199.791 145.96 199.791 138.6 199.791 131.59C199.791 128.089 199.791 124.669 199.791 121.329C199.821 120.512 199.775 119.693 199.651 118.885C199.495 118.102 199.228 117.348 198.859 116.651C198.495 115.965 198.029 115.346 197.479 114.819C196.947 114.293 196.338 113.863 195.677 113.545C195.029 113.227 194.339 113.017 193.632 112.925C192.93 112.861 192.225 112.839 191.521 112.86H187.39H179.625L156.194 112.822L149.822 112.799H156.194L179.625 112.762H187.39H191.521C192.234 112.742 192.947 112.764 193.658 112.827C194.384 112.921 195.091 113.135 195.756 113.461C196.436 113.787 197.062 114.228 197.61 114.767C198.173 115.304 198.652 115.934 199.029 116.633C199.407 117.349 199.682 118.123 199.843 118.927C199.973 119.748 200.022 120.581 199.991 121.413C199.991 124.734 199.991 128.154 199.991 131.674C199.991 138.67 199.991 146.044 199.991 153.669V156.542C200.016 157.523 199.882 158.502 199.595 159.434C199.128 160.832 198.297 162.056 197.2 162.962C196.102 163.869 194.786 164.418 193.405 164.546C192.931 164.583 192.465 164.583 192.004 164.578H166.667L166.749 164.541C164.904 166.691 162.98 168.697 161.091 170.674C159.202 172.652 157.33 174.559 155.498 176.411L155.315 176.593V176.327C155.315 172.218 155.315 168.212 155.315 164.457L155.419 164.569H148.455C147.884 164.587 147.313 164.565 146.744 164.504C146.462 164.471 146.183 164.415 145.909 164.336L145.495 164.224L145.095 164.07C144.044 163.652 143.101 162.973 142.344 162.088C141.601 161.229 141.048 160.203 140.725 159.084C140.574 158.535 140.479 157.971 140.442 157.4C140.403 156.831 140.416 156.276 140.416 155.726C140.416 153.512 140.416 151.361 140.416 149.271C140.416 140.918 140.416 133.596 140.437 127.542C140.437 126.026 140.437 124.594 140.437 123.242C140.437 122.57 140.437 121.912 140.437 121.283C140.421 120.668 140.443 120.052 140.503 119.441C140.623 118.44 140.928 117.474 141.397 116.599C141.867 115.724 142.494 114.958 143.241 114.343C144.167 113.573 145.26 113.066 146.418 112.869C146.614 112.841 146.784 112.804 146.936 112.794H147.31L147.632 112.776Z" fill="#263238"/>
<path d="M13.0079 63.2024L72.888 63.2024C76.2559 63.2024 78.9861 60.2769 78.9861 56.6682V7.03431C78.9861 3.42557 76.2559 0.500099 72.888 0.500099L13.0079 0.500099C9.64005 0.500099 6.90982 3.42557 6.90982 7.03431V56.6682C6.90982 60.2769 9.64005 63.2024 13.0079 63.2024Z" fill="white"/>
<path d="M40.0512 61.2854C39.3112 63.2023 25.017 77.6093 25.017 77.6093V61.2854H40.0512Z" fill="#455A64"/>
<path d="M57.5359 28.0174C57.5707 24.7526 58.0538 21.4878 57.9363 18.223C57.8188 14.9583 57.0136 11.5489 54.8894 9.2076C52.7653 6.86629 49.0655 5.94283 46.5758 7.85971L46.0665 10.6581C47.0473 23.2726 48.0281 35.8855 49.0089 48.4968C49.1352 50.1525 49.2745 51.8595 49.9796 53.338C50.6847 54.8165 52.095 56.0431 53.6446 55.9405C55.6686 55.8099 57.0005 53.6085 57.6273 51.5424C59.9124 44.0194 57.4445 35.9041 57.5359 28.0174Z" fill="#263238"/>
<path d="M50.1929 11.0593C49.7862 10.2284 49.2637 9.46876 48.6434 8.80657C48.3291 8.47864 47.9499 8.23078 47.5339 8.0814C47.118 7.93203 46.6759 7.88498 46.2407 7.94374C46.0357 7.97098 45.8406 8.05381 45.6737 8.18439C45.5069 8.31497 45.374 8.48898 45.2874 8.68997C45.1525 9.10973 45.4398 9.66474 45.8533 9.62277L45.9404 9.70205C46.8544 10.5696 47.7815 11.4184 48.7304 12.2439C48.9549 12.4687 49.218 12.6445 49.5052 12.7616C49.6526 12.8212 49.8129 12.8345 49.9671 12.7998C50.1214 12.7651 50.2631 12.6839 50.3757 12.5657C50.6978 12.1646 50.4497 11.5303 50.1929 11.0593Z" fill="#FF725E"/>
<path d="M51.9166 14.2727C48.8697 10.285 44.7912 7.99497 39.9858 7.90636C37.2784 7.85972 36.1554 8.46137 34.2054 9.02571C32.2487 9.53418 30.5214 10.7642 29.3261 12.5004C27.9463 14.6038 26.7841 16.9591 26.5229 19.5196C26.2618 22.0801 25.9832 24.7712 26.1704 27.425C26.3575 30.0788 27.0409 32.714 28.4686 34.8547L34.7278 36.016C38.1838 36.142 41.6921 36.2632 45.0524 35.4191C48.4126 34.5749 51.6946 32.6207 53.4966 29.4725C55.995 25.0604 54.9591 18.2557 51.9166 14.2727Z" fill="#263238"/>
<path d="M34.7017 47.8999C34.7452 45.5679 34.8192 42.597 34.8192 42.6109C34.8192 42.6249 29.7179 42.0093 28.2902 34.9994C27.5894 31.5154 27.4588 25.7414 27.4936 21.0075C27.5241 16.7539 30.9061 10.9566 35.8116 10.938L37.988 10.6675L46.3277 14.2214C46.9092 14.2537 47.4583 14.5182 47.8668 14.9628C48.2753 15.4074 48.5136 15.9999 48.5345 16.6234L48.8479 47.4381L43.5028 57.0039L33.9269 49.0752L34.7017 47.8999Z" fill="#B56760"/>
<path d="M38.1142 33.3624C38.0683 32.9986 37.8976 32.6661 37.6354 32.4296C37.3966 32.2088 37.0962 32.079 36.7812 32.0604C36.4662 32.0419 36.1544 32.1356 35.8943 32.327C35.6253 32.5485 35.4165 32.843 35.2894 33.18C35.1624 33.5171 35.1218 33.8844 35.1718 34.2439C35.3158 34.4592 35.5008 34.6391 35.7147 34.7718C35.9286 34.9045 36.1664 34.9869 36.4123 35.0135H36.643C37.0348 35.004 37.4091 34.8376 37.692 34.5471C37.8397 34.3953 37.9542 34.2104 38.0272 34.0055C38.1002 33.8007 38.13 33.581 38.1142 33.3624Z" fill="#8A4A43"/>
<path d="M30.1445 26.4921C30.1536 26.7301 30.2503 26.9545 30.4135 27.1162C30.5766 27.2779 30.793 27.3638 31.0151 27.355C31.1221 27.3568 31.2284 27.3359 31.3279 27.2934C31.4273 27.2509 31.5179 27.1878 31.5945 27.1075C31.671 27.0273 31.7319 26.9316 31.7736 26.8259C31.8154 26.7203 31.8372 26.6068 31.8377 26.4921C31.8223 26.2562 31.7238 26.0354 31.5622 25.8744C31.4006 25.7133 31.1879 25.624 30.9672 25.6246C30.8598 25.6228 30.7531 25.6438 30.6534 25.6866C30.5536 25.7294 30.4628 25.793 30.3863 25.8737C30.3097 25.9544 30.2489 26.0507 30.2074 26.1569C30.1659 26.2631 30.1445 26.377 30.1445 26.4921Z" fill="#263238"/>
<path d="M29.0084 23.3768C29.1216 23.4888 29.7353 22.9431 30.645 22.9104C31.5547 22.8778 32.2511 23.3069 32.3425 23.1856C32.434 23.0643 32.2685 22.9198 31.9682 22.7192C31.5589 22.4488 31.0812 22.3217 30.6015 22.3554C30.1245 22.3794 29.6671 22.5657 29.2957 22.8871C29.0345 23.1063 28.9518 23.3255 29.0084 23.3768Z" fill="#263238"/>
<path d="M34.8584 31.0304C34.3694 30.895 33.8661 30.8276 33.3611 30.8299C33.126 30.8299 32.904 30.7785 32.8561 30.6153C32.8215 30.358 32.8626 30.0955 32.9737 29.8644L33.5613 27.9289C34.3796 25.1725 34.9585 22.9104 34.8671 22.8778C34.7757 22.8452 33.9965 25.0465 33.2 27.8076L32.6298 29.7571C32.4985 30.066 32.4738 30.4147 32.5602 30.7412C32.5976 30.8275 32.6533 30.9031 32.7228 30.9623C32.7923 31.0214 32.8737 31.0623 32.9606 31.0817C33.0905 31.1132 33.2237 31.1257 33.3567 31.119C33.8587 31.1575 34.3633 31.1277 34.8584 31.0304Z" fill="#263238"/>
<path d="M34.8192 42.6108C37.9278 42.4764 40.941 41.4223 43.5246 39.5652C43.5246 39.5652 41.4223 44.6023 34.7844 44.3318L34.8192 42.6108Z" fill="#8A4A43"/>
<path d="M37.5701 31.5432C37.4221 31.5432 37.4743 32.6019 36.6691 33.4088C35.8638 34.2157 34.8018 34.155 34.8018 34.3043C34.8018 34.3742 35.0455 34.4955 35.4938 34.4862C36.0724 34.4573 36.6234 34.2132 37.0521 33.7959C37.4608 33.3925 37.7099 32.8368 37.7485 32.2428C37.7616 31.7904 37.6397 31.5339 37.5701 31.5432Z" fill="#263238"/>
<path d="M29.3175 19.9627C29.4829 20.1912 30.188 19.9907 30.9889 20.014C31.7898 20.0373 32.4949 20.2285 32.6603 20.014C32.7343 19.9021 32.6342 19.6782 32.3426 19.4543C31.9386 19.1854 31.4737 19.0398 30.9981 19.0332C30.5225 19.0266 30.0543 19.1593 29.6439 19.417C29.3479 19.6269 29.2435 19.8508 29.3175 19.9627Z" fill="#263238"/>
<path d="M40.5039 26.2404C40.511 26.4773 40.4311 26.7077 40.2814 26.8822C40.1316 27.0566 39.9239 27.1611 39.703 27.1732C39.5966 27.1821 39.4897 27.1684 39.3882 27.1328C39.2868 27.0973 39.193 27.0406 39.1121 26.966C39.0312 26.8915 38.9648 26.8005 38.9168 26.6984C38.8688 26.5963 38.8402 26.485 38.8325 26.371C38.8253 26.1341 38.9052 25.9036 39.055 25.7292C39.2048 25.5548 39.4125 25.4503 39.6334 25.4382C39.7397 25.4293 39.8467 25.443 39.9481 25.4785C40.0496 25.5141 40.1434 25.5708 40.2243 25.6453C40.3052 25.7199 40.3716 25.8108 40.4195 25.9129C40.4675 26.0151 40.4962 26.1263 40.5039 26.2404Z" fill="#263238"/>
<path d="M41.3266 22.999C41.2221 23.1202 40.5735 22.6212 39.6638 22.6445C38.7541 22.6678 38.0925 23.1622 37.988 23.0456C37.8836 22.929 38.0446 22.7797 38.3319 22.5466C38.7219 22.2473 39.1885 22.0845 39.6682 22.0802C40.1422 22.0719 40.6067 22.2236 40.9957 22.5139C41.2787 22.7331 41.3788 22.9477 41.3266 22.999Z" fill="#263238"/>
<path d="M40.7607 19.8742C40.5866 20.0981 39.8902 19.8742 39.0196 19.8742C38.1491 19.8742 37.4614 20.0514 37.2785 19.8229C37.2046 19.711 37.3134 19.4871 37.6224 19.2725C38.047 19.0111 38.5291 18.8758 39.0188 18.8807C39.5085 18.8857 39.9882 19.0306 40.4081 19.3005C40.7607 19.5384 40.8565 19.7623 40.7607 19.8742Z" fill="#263238"/>
<path d="M47.4246 28.5071C47.3984 27.98 47.899 26.7021 48.3822 26.5948C49.688 26.301 52.008 26.2777 52.2082 29.799C52.4867 34.6169 47.9164 33.9219 47.899 33.7867C47.8816 33.6514 47.5116 30.3213 47.4246 28.5071Z" fill="#B56760"/>
<path d="M49.0308 31.9443C49.0308 31.9443 49.1135 31.9956 49.2484 32.0516C49.437 32.1323 49.6474 32.1323 49.836 32.0516C50.2974 31.8324 50.65 30.9975 50.6238 30.13C50.6163 29.7076 50.518 29.2926 50.3366 28.9174C50.2859 28.7694 50.2024 28.6368 50.0932 28.5312C49.984 28.4255 49.8524 28.35 49.7098 28.3111C49.6204 28.2954 49.5286 28.3127 49.4496 28.3602C49.3705 28.4076 49.3088 28.4824 49.2745 28.5723C49.2223 28.7122 49.2745 28.8055 49.231 28.8148C49.1875 28.8241 49.1309 28.7402 49.157 28.5396C49.1736 28.4191 49.229 28.3085 49.3137 28.2271C49.4346 28.1171 49.5907 28.0619 49.749 28.0732C49.9373 28.0999 50.1162 28.1778 50.2685 28.2994C50.4209 28.4211 50.5417 28.5824 50.6195 28.7682C50.8366 29.1717 50.9563 29.627 50.9677 30.0927C50.9938 31.0675 50.5847 32.005 49.9448 32.2475C49.8268 32.2944 49.7002 32.3117 49.5749 32.2979C49.4497 32.2842 49.329 32.2398 49.2223 32.1682C49.0525 32.0609 49.0308 31.9537 49.0308 31.9443Z" fill="#8A4A43"/>
<path d="M48.565 26.6088L47.4246 27.8913C42.5017 22.817 32.8475 10.1683 33.3872 10.9052C35.6349 10.0033 38.0581 9.72104 40.4342 10.0843C44.1035 10.756 51.0591 12.7195 50.9547 17.3555C50.8502 21.9914 48.565 26.6088 48.565 26.6088Z" fill="#263238"/>
<path d="M55.0985 25.5595C55.0856 25.4636 55.0623 25.3697 55.0289 25.2797C54.9485 25.0171 54.8465 24.7627 54.7242 24.5195C54.2596 23.6257 53.6177 22.8519 52.8438 22.2528C51.6966 21.3755 50.4171 20.716 49.0613 20.3032C47.5553 19.7809 45.8621 19.3704 44.1994 18.6056C42.6278 17.903 41.1366 17.0094 39.7553 15.9424C38.6295 15.0671 37.5805 14.0836 36.6213 13.0041C35.9753 12.2727 35.3692 11.5019 34.8062 10.6955L34.371 10.0332C34.3214 9.95401 34.2661 9.87915 34.2056 9.80933C34.2357 9.89955 34.2782 9.98444 34.3318 10.0612C34.4276 10.2198 34.5625 10.4576 34.7671 10.7514C35.3039 11.5844 35.8944 12.3761 36.5343 13.1207C37.485 14.2273 38.533 15.2331 39.6638 16.1243C41.0511 17.215 42.5547 18.1246 44.1428 18.8341C45.744 19.4864 47.3755 20.0499 49.0308 20.5224C50.3696 20.9164 51.6377 21.5469 52.7829 22.388C53.5482 22.9649 54.1943 23.7048 54.6806 24.5614C54.9766 25.1678 55.0767 25.5595 55.0985 25.5595Z" fill="#455A64"/>
<path d="M53.7883 26.3009C53.8023 25.9417 53.7429 25.5836 53.6142 25.2516C53.2778 24.3293 52.6891 23.5376 51.9253 22.9802C50.9895 22.2293 49.6488 21.7676 48.1733 21.4038C46.5691 21.0629 45.0055 20.531 43.5116 19.818C42.0244 19.0918 40.628 18.1689 39.3547 17.071C38.3146 16.1726 37.3596 15.1666 36.5037 14.0674C35.93 13.3257 35.3994 12.5469 34.915 11.7354L34.5363 11.0545C34.496 10.972 34.4463 10.8952 34.3883 10.8259C34.4127 10.9144 34.4479 10.9991 34.4928 11.0778L34.841 11.7774C35.2968 12.6178 35.8104 13.4206 36.3775 14.1793C37.2254 15.3029 38.1777 16.3311 39.2198 17.2482C40.5026 18.3671 41.9125 19.3074 43.4158 20.0466C44.9242 20.7644 46.5044 21.2949 48.1254 21.6277C49.5966 21.9728 50.9111 22.4112 51.8339 23.1248C52.5818 23.6547 53.1712 24.4045 53.5315 25.2842C53.6457 25.6141 53.7316 25.9544 53.7883 26.3009Z" fill="#455A64"/>
<path d="M48.4171 34.7662C48.4171 34.7336 48.8002 34.6776 49.4661 34.4911C50.4003 34.1992 51.2605 33.6842 51.982 32.9846C53.0353 31.9265 53.8368 30.6135 54.3194 29.1555C54.9317 27.3736 55.2612 25.4945 55.2944 23.596C55.3134 22.6159 55.2405 21.6362 55.0767 20.6717C54.9059 19.7789 54.6552 18.9058 54.3281 18.0646C53.7607 16.6374 52.9735 15.3225 51.9994 14.1748C51.0787 13.142 50.0687 12.2051 48.983 11.3765C49.0712 11.4087 49.1548 11.4543 49.2311 11.5117C49.3878 11.619 49.6272 11.7589 49.9101 11.9781C50.7269 12.5787 51.48 13.2731 52.1561 14.0489C53.1691 15.197 53.9893 16.5239 54.5805 17.9713C54.923 18.8303 55.1841 19.7241 55.3597 20.6391C55.5343 21.6226 55.6117 22.6231 55.5904 23.624C55.5588 25.5588 55.2142 27.4729 54.5718 29.2814C54.0634 30.7767 53.2205 32.1155 52.1169 33.1805C51.368 33.8832 50.4722 34.3823 49.5053 34.6356C49.2434 34.7027 48.9771 34.7479 48.7087 34.7709C48.6118 34.7841 48.5136 34.7825 48.4171 34.7662Z" fill="#455A64"/>
<path d="M20.3639 55.6328L20.4771 55.4789C25.4305 49.8821 34.5494 47.9839 34.5494 47.9839C34.5494 47.9839 35.1065 51.6591 40.2079 52.0695C45.3092 52.48 49.0743 46.9019 49.0743 46.9019L55.895 47.9279C55.895 47.9279 59.3249 48.3617 61.4621 49.7049C66.2762 52.7411 68.8312 63.2024 68.8312 63.2024L16.2419 63.4309L20.3639 55.6328Z" fill="#455A64"/>
<path d="M15.5543 0.5L15.1886 0.527984L14.7534 0.555967C14.5749 0.555967 14.366 0.621263 14.1309 0.658575C12.7305 0.909506 11.4108 1.53157 10.2918 2.46819C8.49057 3.97183 7.31838 6.17867 7.03168 8.60596C6.96614 9.3422 6.94288 10.0821 6.96204 10.8213C6.96204 11.5909 6.96204 12.3838 6.96204 13.2046C6.96204 14.8417 6.96204 16.5813 6.96204 18.4143C6.96204 25.76 6.96204 34.6449 6.98815 44.775C6.98815 47.3091 6.98815 49.9193 6.98815 52.6058C6.98815 53.2727 6.98815 53.9537 7.02298 54.6206C7.07112 55.2968 7.18491 55.9658 7.36248 56.6168C7.74506 57.9419 8.40282 59.157 9.28637 60.1707C9.73245 60.685 10.2302 61.1449 10.7706 61.5419C11.3248 61.9351 11.9192 62.2591 12.5422 62.5074L13.0123 62.6939L13.4998 62.8245C13.8261 62.9146 14.1576 62.9816 14.4922 63.0251C14.8274 63.081 15.1669 63.0717 15.5064 63.095H25.1171V63.207C25.1171 67.7543 25.1171 72.6142 25.1171 77.5999L24.9387 77.516C27.1614 75.268 29.4205 72.9484 31.7158 70.5574C33.9966 68.1601 36.3297 65.7255 38.5539 63.123L38.5887 63.0857H69.3753C69.9412 63.0857 70.5027 63.0857 71.0511 63.0437C72.7012 62.8968 74.2755 62.2375 75.5813 61.1465C76.887 60.0555 77.8676 58.5802 78.4028 56.9013C78.7421 55.7993 78.8997 54.6425 78.8685 53.4826V49.9986C78.8685 40.7453 78.8685 31.8092 78.8685 23.3161C78.8685 19.0688 78.8685 14.9272 78.8685 10.8913C78.9051 9.89877 78.8468 8.90483 78.6944 7.92502C78.5122 6.97476 78.1967 6.05957 77.7586 5.2106C76.8664 3.54996 75.5141 2.22801 73.8891 1.42813C73.1018 1.04179 72.2634 0.788488 71.4037 0.677231C70.5511 0.599493 69.6952 0.573021 68.8399 0.597943H63.83H54.4108L25.9615 0.546639L54.3846 0.509328H63.8039H68.8138C69.6764 0.484887 70.5395 0.511356 71.3993 0.588615C72.2788 0.699485 73.1365 0.957589 73.9413 1.3535C75.6013 2.17101 76.9838 3.5203 77.8979 5.21526C78.3597 6.08849 78.6944 7.03216 78.8903 8.01364C79.0417 9.00768 79.1 10.0154 79.0644 11.0219C79.0644 15.064 79.0644 19.2056 79.0644 23.4467C79.0644 31.9491 79.0644 40.8759 79.0644 50.1292V53.6132C79.0967 54.8002 78.9346 55.9841 78.5856 57.1112C78.0369 58.8344 77.031 60.3488 75.6912 61.4688C74.3514 62.5888 72.7358 63.2658 71.0424 63.4168C70.4722 63.4588 69.9107 63.4588 69.3492 63.4541H38.6409L38.7236 63.4168C36.4907 66.024 34.1577 68.4586 31.8725 70.8792C29.5873 73.2998 27.3152 75.4359 25.091 77.6839L24.9082 77.8704V77.5999C24.9082 72.6142 24.9082 67.7543 24.9082 63.207L25.0127 63.3142H15.5151C15.1669 63.2862 14.8186 63.3142 14.4791 63.2396C14.1373 63.1951 13.7985 63.1265 13.465 63.0344L12.9644 62.8991L12.4682 62.7032C11.833 62.4481 11.227 62.1164 10.6618 61.7145C10.1086 61.3081 9.59784 60.839 9.13838 60.3153C8.24034 59.2762 7.57103 58.0347 7.17967 56.6821C6.99971 56.017 6.88305 55.3342 6.83146 54.6439C6.80969 53.949 6.80969 53.2774 6.80969 52.6104C6.80969 49.924 6.80969 47.3137 6.80969 44.7796C6.80969 34.6495 6.80969 25.7647 6.83581 18.4189C6.83581 16.586 6.83581 14.8463 6.83581 13.2093C6.83581 12.3884 6.83581 11.5956 6.83581 10.826C6.81978 10.0819 6.84595 9.33738 6.91416 8.59664C7.21256 6.14743 8.40535 3.92503 10.2309 2.41689C11.3547 1.48361 12.6793 0.86778 14.083 0.625927C14.3181 0.593279 14.5183 0.551303 14.7098 0.537311L15.1451 0.513991L15.5543 0.5Z" fill="#263238"/>
<path d="M47.0372 107.892H5.08593C2.34305 107.892 0.119507 110.275 0.119507 113.214V147.709C0.119507 150.648 2.34305 153.03 5.08593 153.03H47.0372C49.7801 153.03 52.0036 150.648 52.0036 147.709V113.214C52.0036 110.275 49.7801 107.892 47.0372 107.892Z" fill="white"/>
<path d="M28.1379 151.65C28.669 153.049 38.9631 163.394 38.9631 163.394V151.65H28.1379Z" fill="#FF725E"/>
<path d="M35.3764 117.906C35.122 117.024 34.7062 116.205 34.1531 115.497C33.6001 114.789 32.921 114.207 32.1554 113.783C30.4272 112.921 28.4729 112.729 26.6275 113.242C24.7991 113.76 23.0615 114.594 21.4826 115.709C20.553 116.26 19.7278 116.993 19.0495 117.869C17.8873 119.524 16.773 122.225 16.7121 124.296C16.6598 125.97 17.3693 130.135 18.0701 131.632C18.4423 132.251 18.9769 132.737 19.6066 133.031C20.3577 134.515 21.3497 135.843 22.536 136.954C22.8668 135.822 23.199 134.688 23.5327 133.554L35.3764 117.906Z" fill="#263238"/>
<path d="M34.4232 115.882L31.3328 115.387C33.1261 119.622 33.8443 129.417 34.9281 133.922C36.0119 132.126 38.5017 126.679 38.3058 124.547C38.1099 122.416 38.0664 115.406 34.4232 115.882Z" fill="#263238"/>
<path d="M20.0375 123.466C20.0596 122.261 20.442 121.095 21.1284 120.141C21.8147 119.186 22.7689 118.493 23.8504 118.163L30.88 116.013C33.9269 115.546 36.0771 119.534 36.3688 122.817C36.6865 126.464 36.9259 130.322 36.5995 133.078C35.9466 138.591 32.0422 139.421 32.0422 139.421C32.0422 139.421 32.1118 142.028 32.151 143.618L31.0063 150.796L21.7394 142.317L19.9983 123.531C20.0157 123.438 20.0331 123.591 20.0375 123.466Z" fill="#FFBF9D"/>
<path d="M34.8193 127.383C34.8276 127.566 34.7683 127.745 34.6542 127.881C34.5401 128.017 34.3804 128.1 34.2099 128.111C34.1265 128.121 34.042 128.113 33.9615 128.088C33.8809 128.063 33.806 128.02 33.741 127.963C33.6761 127.906 33.6224 127.836 33.5834 127.756C33.5443 127.677 33.5205 127.589 33.5135 127.5C33.5074 127.317 33.5673 127.139 33.6809 127.002C33.7944 126.866 33.9528 126.782 34.1229 126.768C34.2065 126.758 34.2911 126.766 34.3717 126.792C34.4522 126.818 34.5272 126.861 34.592 126.918C34.6569 126.976 34.7104 127.046 34.7495 127.126C34.7885 127.206 34.8122 127.293 34.8193 127.383Z" fill="#263238"/>
<path d="M35.655 124.99C35.5767 125.084 35.0674 124.706 34.3492 124.734C33.631 124.762 33.1348 125.154 33.0434 125.06C32.952 124.967 33.0826 124.855 33.3046 124.669C33.6043 124.433 33.9643 124.301 34.3362 124.291C34.7031 124.279 35.0641 124.392 35.3677 124.613C35.6158 124.785 35.6942 124.949 35.655 124.99Z" fill="#263238"/>
<path d="M28.4556 127.383C28.464 127.566 28.4046 127.745 28.2905 127.881C28.1764 128.017 28.0168 128.1 27.8463 128.111C27.7629 128.121 27.6784 128.113 27.5978 128.088C27.5173 128.063 27.4423 128.02 27.3773 127.963C27.3124 127.906 27.2588 127.836 27.2197 127.756C27.1806 127.677 27.1569 127.589 27.1498 127.5C27.1438 127.316 27.2043 127.138 27.3188 127.001C27.4333 126.864 27.5927 126.781 27.7636 126.768C27.847 126.758 27.9313 126.766 28.0116 126.792C28.0919 126.818 28.1666 126.861 28.2311 126.919C28.2956 126.976 28.3488 127.047 28.3873 127.126C28.4259 127.206 28.4491 127.294 28.4556 127.383Z" fill="#263238"/>
<path d="M28.9474 125.196C28.8647 125.289 28.3598 124.911 27.6416 124.939C26.9234 124.967 26.4316 125.359 26.3358 125.266C26.24 125.172 26.375 125.061 26.597 124.874C26.8967 124.638 27.2567 124.506 27.6286 124.496C27.9955 124.484 28.3565 124.597 28.6601 124.818C28.9039 124.991 29.0084 125.154 28.9474 125.196Z" fill="#263238"/>
<path d="M31.311 131.072C31.6816 130.938 32.066 130.852 32.4557 130.816C32.6342 130.788 32.8039 130.746 32.83 130.61C32.8393 130.411 32.7923 130.212 32.6951 130.041C32.5123 129.575 32.3208 129.109 32.1162 128.586C31.3153 126.516 30.732 124.809 30.8104 124.776C30.8887 124.743 31.5982 126.394 32.3991 128.465L32.9563 129.93C33.075 130.16 33.115 130.427 33.0694 130.685C33.0453 130.754 33.0069 130.816 32.9571 130.867C32.9074 130.918 32.8476 130.956 32.7822 130.979C32.6831 131.011 32.5808 131.03 32.4775 131.035C32.0917 131.101 31.6997 131.113 31.311 131.072Z" fill="#263238"/>
<path d="M25.1998 137.658C25.1998 137.658 26.967 141.389 32.0727 140.69L32.0553 139.402C29.6634 139.514 27.2897 138.91 25.1998 137.658Z" fill="#FF9A6C"/>
<path d="M28.6516 122.467C28.5863 122.672 27.8811 122.602 27.0541 122.733C26.2271 122.864 25.5655 123.134 25.448 122.952C25.3957 122.864 25.5089 122.668 25.7744 122.458C26.128 122.202 26.5312 122.036 26.9535 121.973C27.3758 121.909 27.8062 121.949 28.2119 122.089C28.521 122.211 28.6777 122.369 28.6516 122.467Z" fill="#263238"/>
<path d="M35.3633 122.682C35.2458 122.859 34.7539 122.682 34.1663 122.705C33.5787 122.729 33.0912 122.859 32.9693 122.682C32.9171 122.593 32.9911 122.421 33.2044 122.253C33.489 122.046 33.8248 121.936 34.1685 121.936C34.5122 121.936 34.848 122.046 35.1326 122.253C35.3416 122.421 35.4156 122.598 35.3633 122.682Z" fill="#263238"/>
<path d="M34.8411 117.85C34.6498 117.453 34.3593 117.12 34.0019 116.89C33.6445 116.659 33.2342 116.539 32.8171 116.544C31.9799 116.568 31.1668 116.849 30.4753 117.356C27.4763 119.338 26.0312 123.946 23.0757 125.993C22.3488 126.492 21.3695 126.082 20.7557 126.739C20.142 127.397 19.7633 128.423 20.1333 129.263C19.6869 128.7 19.3175 128.072 19.0364 127.397C18.899 127.059 18.8306 126.692 18.8359 126.323C18.8411 125.954 18.9199 125.59 19.0669 125.256C19.315 124.762 19.7633 124.38 19.8765 123.857C19.9897 123.335 19.7851 122.882 19.7938 122.393C19.8347 121.896 19.9838 121.417 20.2291 120.993C21.3013 118.678 22.9414 116.719 24.9735 115.327C26.3148 114.436 27.857 113.952 29.435 113.928C31.0177 113.919 32.551 114.518 33.7572 115.616C34.4493 116.269 35.1762 116.945 34.8498 117.869" fill="#263238"/>
<path d="M20.8471 127.416C20.7862 127.262 18.0875 126.311 18.1354 129.351C18.1789 132.308 20.9472 131.641 20.9472 131.558C20.9472 131.474 20.8471 127.416 20.8471 127.416Z" fill="#FFBF9D"/>
<path d="M20.0767 130.457C20.0767 130.457 20.0288 130.494 19.9505 130.531C19.8344 130.58 19.7053 130.58 19.5892 130.531C19.41 130.412 19.263 130.245 19.1629 130.046C19.0629 129.847 19.0132 129.624 19.019 129.398C19.0102 129.144 19.0518 128.891 19.1409 128.656C19.1663 128.564 19.212 128.479 19.274 128.41C19.3361 128.34 19.4128 128.287 19.4978 128.255C19.5523 128.238 19.6106 128.242 19.6624 128.267C19.7142 128.292 19.7562 128.336 19.7807 128.39C19.8199 128.474 19.8025 128.53 19.8199 128.535C19.8373 128.54 19.8765 128.488 19.8547 128.362C19.8364 128.29 19.7967 128.226 19.7415 128.181C19.6648 128.121 19.5696 128.096 19.476 128.111C19.3633 128.137 19.2586 128.194 19.1719 128.275C19.0851 128.357 19.019 128.461 18.9798 128.577C18.8669 128.835 18.8146 129.118 18.8275 129.403C18.8187 129.667 18.883 129.927 19.0124 130.152C19.1417 130.377 19.3303 130.556 19.5544 130.666C19.6286 130.686 19.706 130.689 19.7811 130.674C19.8563 130.658 19.9274 130.626 19.9896 130.578C20.0723 130.527 20.0898 130.461 20.0767 130.457Z" fill="#FF9A6C"/>
<path d="M19.7067 125.932C19.7636 125.906 19.8176 125.873 19.8677 125.835C19.9722 125.76 20.1289 125.662 20.303 125.508C20.834 125.065 21.3199 124.563 21.7524 124.011C22.3783 123.184 22.9596 122.32 23.4935 121.422C24.1372 120.324 24.8652 119.285 25.6699 118.316C26.1034 117.831 26.585 117.398 27.1062 117.024C27.5954 116.685 28.1217 116.41 28.6732 116.208C29.6073 115.855 30.5957 115.697 31.5852 115.742C32.2524 115.765 32.9139 115.883 33.5526 116.092C33.7789 116.161 33.9487 116.236 34.0662 116.278L34.249 116.343L34.0749 116.255C33.909 116.174 33.739 116.104 33.5656 116.045C32.9268 115.811 32.2597 115.677 31.5852 115.648C30.5826 115.598 29.5804 115.757 28.634 116.115C28.073 116.32 27.5379 116.599 27.041 116.945C26.5093 117.32 26.0187 117.758 25.5785 118.251C24.7702 119.225 24.042 120.272 23.4021 121.38C22.8632 122.277 22.2821 123.145 21.661 123.978C21.2523 124.515 20.7976 125.01 20.303 125.457C20.1202 125.615 19.9635 125.723 19.8677 125.807L19.7067 125.932Z" fill="white"/>
<path d="M20.4248 126.767C20.3367 127.561 20.4448 128.365 20.7382 129.099C21.1082 129.808 21.9962 130.27 22.6404 129.846C23.167 129.505 23.3063 128.764 23.3803 128.111C23.5936 126.222 23.6589 124.314 23.8852 122.425L20.4248 126.767Z" fill="#263238"/>
<path d="M34.1271 116.465C34.1271 116.465 33.8834 116.423 33.4394 116.423C32.8151 116.431 32.1983 116.57 31.6243 116.833C31.228 117.013 30.8502 117.237 30.497 117.5C30.0933 117.808 29.708 118.143 29.3435 118.503C28.4976 119.316 27.7464 120.235 27.1062 121.241C26.771 121.777 26.4751 122.327 26.1486 122.84C25.8478 123.339 25.4928 123.798 25.0909 124.207C24.3923 124.879 23.6241 125.462 22.8014 125.947C22.1093 126.371 21.5261 126.67 21.1256 126.879L20.6599 127.108C20.6061 127.138 20.5491 127.162 20.4901 127.178C20.5385 127.139 20.5911 127.106 20.6468 127.08L21.0821 126.819C21.4738 126.595 22.0484 126.282 22.7318 125.853C23.5362 125.358 24.2879 124.77 24.9734 124.1C25.3684 123.698 25.7176 123.247 26.0137 122.756C26.3314 122.248 26.6274 121.698 26.9669 121.152C27.6181 120.129 28.3841 119.195 29.2477 118.372C29.6207 118.015 30.0131 117.682 30.423 117.374C30.7848 117.108 31.1731 116.886 31.5808 116.712C32.1698 116.452 32.8027 116.327 33.4394 116.343C33.6117 116.35 33.7834 116.37 33.953 116.404C34.013 116.417 34.0715 116.437 34.1271 116.465Z" fill="#455A64"/>
<path d="M20.303 124.925C20.2301 124.996 20.1498 125.057 20.0636 125.107L19.3759 125.573L19.1452 125.723C19.0544 125.785 18.9518 125.825 18.8449 125.839C18.7803 125.852 18.7138 125.838 18.6577 125.802C18.6274 125.78 18.6019 125.751 18.5831 125.717C18.5643 125.683 18.5526 125.645 18.5489 125.606C18.5525 125.47 18.5951 125.338 18.6708 125.228L19.4455 123.829L19.5587 123.936C19.2958 124.152 19.0017 124.321 18.6882 124.435C18.3711 124.548 18.0382 124.6 17.7045 124.589C17.6191 124.59 17.534 124.578 17.452 124.552C17.4042 124.539 17.3597 124.515 17.3219 124.481C17.2842 124.447 17.2543 124.404 17.2344 124.356C17.2178 124.307 17.2123 124.254 17.2183 124.202C17.2244 124.151 17.2418 124.101 17.2692 124.058C17.3156 123.99 17.3665 123.926 17.4215 123.866C17.7742 123.48 18.0759 123.044 18.3182 122.57C18.5377 122.119 18.7254 121.651 18.8797 121.171C18.8721 121.306 18.8472 121.439 18.8057 121.567C18.7086 121.925 18.5788 122.272 18.4183 122.602C18.1801 123.102 17.8767 123.562 17.5173 123.969C17.4172 124.076 17.3171 124.202 17.3606 124.291C17.4041 124.379 17.5565 124.426 17.7001 124.421C18.0164 124.431 18.3318 124.381 18.6316 124.272C18.9302 124.169 19.2099 124.011 19.4586 123.806L19.7807 123.54L19.5718 123.913L18.7796 125.312C18.7179 125.397 18.6802 125.499 18.6708 125.606C18.6708 125.69 18.7448 125.737 18.8318 125.727C19.008 125.681 19.1748 125.6 19.3237 125.489L20.0332 125.074C20.1159 125.011 20.2068 124.961 20.303 124.925Z" fill="white"/>
<path d="M28.6645 132.551C28.7095 132.324 28.8275 132.122 28.9979 131.98C29.1682 131.837 29.38 131.764 29.596 131.772C29.754 131.788 29.9058 131.846 30.0379 131.941C30.17 132.035 30.2783 132.163 30.3534 132.313C30.4252 132.465 30.4679 132.63 30.4791 132.8C30.4903 132.97 30.4698 133.14 30.4187 133.302V133.372C30.2771 133.546 30.0885 133.67 29.8789 133.725C29.6692 133.78 29.4487 133.764 29.2478 133.679C29.0472 133.588 28.8808 133.427 28.7752 133.222C28.6695 133.018 28.6306 132.782 28.6645 132.551Z" fill="#FF9A6C"/>
<path d="M30.9192 133.372C30.9192 133.26 30.2054 133.316 29.6482 132.705C29.0911 132.094 29.1129 131.273 29.0128 131.273C28.9126 131.273 28.8909 131.469 28.9039 131.814C28.9332 132.261 29.1072 132.683 29.3958 133.008C29.6738 133.321 30.0549 133.505 30.4579 133.521C30.7495 133.526 30.9279 133.423 30.9192 133.372Z" fill="#263238"/>
<path d="M42.319 147.583L42.2407 147.471C38.6715 143.427 32.1076 142.075 32.1076 142.075C32.1076 142.075 31.7071 144.719 28.0291 145.018C24.3511 145.316 21.6437 141.286 21.6437 141.286L16.7382 142.023C16.7382 142.023 14.2659 142.336 12.725 143.306C9.24289 145.489 7.42346 153.021 7.42346 153.021L45.2919 153.184L42.319 147.583Z" fill="#FF725E"/>
<path d="M45.7837 107.892C45.7837 107.892 45.8707 107.892 46.0448 107.892C46.3075 107.894 46.5695 107.919 46.8283 107.967C47.8394 108.142 48.7938 108.585 49.6054 109.254C50.9204 110.343 51.7809 111.943 51.9993 113.708C52.0492 114.243 52.0681 114.78 52.0559 115.317C52.0559 115.868 52.0559 116.441 52.0559 117.029C52.0559 118.209 52.0559 119.464 52.0559 120.784C52.0559 126.068 52.0559 132.467 52.082 139.757C52.082 141.579 52.082 143.458 52.082 145.395C52.082 145.862 52.082 146.361 52.082 146.86C52.0477 147.359 51.9631 147.854 51.8296 148.334C51.5501 149.313 51.0664 150.211 50.4149 150.959C49.7532 151.735 48.9279 152.33 48.0079 152.694L47.6597 152.83L47.2984 152.928C47.0578 152.994 46.8136 153.043 46.5672 153.077C46.0709 153.126 45.5724 153.144 45.0742 153.133H38.9804L39.0805 153.021C39.0805 156.286 39.0805 159.798 39.0805 163.384V163.65L38.8977 163.468C37.2959 161.858 35.668 160.196 34.014 158.482C32.3687 156.757 30.6885 155.003 29.078 153.124L29.1607 153.166H7.036C6.6312 153.166 6.2264 153.166 5.81289 153.138C4.5878 153.028 3.41907 152.538 2.44967 151.728C1.48028 150.918 0.752239 149.823 0.354613 148.576C0.103765 147.761 -0.0140327 146.906 0.00639752 146.048V143.539C0.00639752 136.874 0.00639752 130.452 0.00639752 124.328C0.00639752 121.269 0.00639752 118.288 0.00639752 115.387C-0.0176411 114.66 0.0261022 113.932 0.136978 113.214C0.278064 112.509 0.518784 111.831 0.85082 111.204C1.51253 109.976 2.51315 108.999 3.71489 108.405C4.29712 108.122 4.91669 107.936 5.55173 107.855C6.17114 107.797 6.79321 107.778 7.41468 107.799H17.8176L38.2753 107.836L43.838 107.86L38.2753 107.883L17.8176 107.92H11.0361H7.42774C6.81344 107.906 6.19884 107.926 5.58655 107.981C4.64341 108.11 3.74113 108.472 2.95098 109.038C2.16082 109.605 1.50442 110.361 1.03363 111.246C0.70879 111.869 0.475368 112.543 0.341554 113.242C0.232603 113.946 0.191762 114.66 0.219679 115.373C0.219679 118.268 0.219679 121.248 0.219679 124.314C0.219679 130.438 0.219679 136.86 0.219679 143.525V146.034C0.19527 146.865 0.308749 147.694 0.554836 148.483C1.06656 150.087 2.14048 151.415 3.54949 152.186C4.25918 152.578 5.03437 152.816 5.8303 152.886C6.22204 152.914 6.62685 152.918 7.036 152.914H29.2086L29.2434 152.956C30.8452 154.821 32.5254 156.58 34.1663 158.305C35.8073 160.031 37.4439 161.696 39.0457 163.314L38.8629 163.398C38.8629 159.812 38.8629 156.309 38.8629 153.035V152.923H45.0611C45.5506 152.939 46.0405 152.922 46.528 152.872C46.7675 152.842 47.0047 152.794 47.2375 152.727L47.59 152.634L47.9252 152.503C48.8185 152.152 49.6201 151.576 50.2626 150.824C50.8943 150.099 51.3645 149.23 51.6381 148.282C51.7676 147.816 51.8507 147.336 51.8862 146.85C51.9166 146.384 51.9079 145.88 51.9079 145.4C51.9079 143.466 51.9079 141.586 51.9079 139.761C51.9079 132.471 51.9079 126.073 51.934 120.788C51.934 119.468 51.934 118.214 51.934 117.034V115.322C51.9492 114.79 51.9333 114.257 51.8862 113.727C51.7201 112.317 51.1369 111.001 50.222 109.972C49.3071 108.943 48.1086 108.255 46.8022 108.009C46.5469 107.955 46.2877 107.923 46.0274 107.916L45.7837 107.892Z" fill="#263238"/>
<path d="M126.509 200.5L72.2045 200.458C65.6755 200.458 60.3826 195.048 60.3826 188.378L60.4087 49.3458C60.4087 42.6716 65.7103 37.2615 72.2481 37.2661L126.557 37.2988C133.086 37.2988 138.379 42.709 138.379 49.3784L138.352 188.406C138.348 195.099 133.038 200.505 126.509 200.5Z" fill="#263238"/>
<path d="M126.509 42.2332H115.966C115.631 42.2326 115.3 42.3027 114.99 42.4395C114.68 42.5762 114.399 42.777 114.162 43.0304C113.924 43.2838 113.736 43.5847 113.607 43.9161C113.479 44.2474 113.412 44.6027 113.411 44.9616V46.9111C113.411 47.2705 113.344 47.6261 113.215 47.9578C113.086 48.2894 112.897 48.5906 112.66 48.844C112.422 49.0974 112.14 49.2981 111.83 49.4347C111.52 49.5712 111.187 49.6408 110.852 49.6396H90.3291C89.9941 49.6402 89.6623 49.5701 89.3526 49.4333C89.043 49.2965 88.7615 49.0957 88.5242 48.8424C88.2869 48.589 88.0986 48.2881 87.9699 47.9567C87.8412 47.6253 87.7746 47.2701 87.774 46.9111V44.9569C87.7735 44.5976 87.7068 44.242 87.5778 43.9103C87.4488 43.5787 87.2601 43.2775 87.0224 43.0241C86.7846 42.7707 86.5026 42.57 86.1924 42.4334C85.8822 42.2969 85.55 42.2273 85.2147 42.2285H72.2959C67.7212 42.2285 64.0257 46.0157 64.0257 50.689L63.9996 186.41C63.9996 191.074 67.7038 194.871 72.2698 194.871L126.469 194.903C131.049 194.903 134.74 191.121 134.761 186.448L134.787 50.7263C134.779 46.025 131.07 42.2379 126.509 42.2332Z" fill="white"/>
<path d="M97.5764 76.0609C98.3427 76.0021 99.0611 75.6397 99.5915 75.0442C100.122 74.4487 100.426 73.6629 100.445 72.8399C100.464 72.017 100.197 71.216 99.6944 70.5931C99.1922 69.9702 98.4914 69.5701 97.7288 69.4707C98.0998 68.867 98.284 68.1534 98.2553 67.4312C98.2265 66.709 97.9863 66.0149 97.5687 65.4471C97.1511 64.8794 96.5773 64.467 95.9287 64.2683C95.2801 64.0697 94.5895 64.0949 93.955 64.3404C93.8029 63.6467 93.4856 63.0072 93.0341 62.4841C92.5826 61.961 92.0123 61.5723 91.3788 61.3557C90.7453 61.1391 90.0702 61.1022 89.4194 61.2485C88.7686 61.3947 88.1643 61.7192 87.6654 62.1903C86.8141 61.704 85.8362 61.5344 84.8852 61.7083C83.9343 61.8822 83.0642 62.3897 82.4117 63.1511C81.7472 63.149 81.1 63.3774 80.5668 63.8022C80.0335 64.227 79.6429 64.8253 79.4534 65.5076C79.2638 66.19 79.2854 66.9198 79.515 67.5879C79.7446 68.256 80.1699 68.8265 80.7272 69.2142" fill="#263238"/>
<path d="M98.0986 76.4247C97.2227 73.0163 95.1805 70.0868 92.3789 68.2197C89.5773 66.3527 86.222 65.6853 82.9817 66.3505L82.3158 66.4858C75.2035 68.4073 72.7398 75.949 74.7334 83.5186L79.7129 110.989L94.3684 123.116L98.1596 112.999L96.6666 103.858C96.6666 103.858 103.378 101.293 102.147 93.8679C101.568 90.272 99.7831 82.9915 98.0986 76.4247Z" fill="#C17560"/>
<path d="M96.7406 103.825C93.5257 104.484 90.202 104.139 87.1647 102.832C87.1647 102.832 90.1637 107.892 96.9452 105.817L96.7406 103.825Z" fill="#7C4236"/>
<path d="M97.4806 83.5325C97.5326 83.808 97.482 84.0944 97.3397 84.3305C97.1974 84.5667 96.9746 84.7339 96.7189 84.7964C96.5951 84.8328 96.4658 84.8423 96.3385 84.8243C96.2113 84.8063 96.0887 84.7612 95.9779 84.6917C95.8672 84.6221 95.7706 84.5296 95.6937 84.4194C95.6169 84.3092 95.5614 84.1837 95.5306 84.0502C95.4786 83.7747 95.5291 83.4883 95.6714 83.2521C95.8137 83.016 96.0365 82.8488 96.2923 82.7862C96.4161 82.7499 96.5454 82.7404 96.6727 82.7584C96.7999 82.7764 96.9225 82.8214 97.0332 82.891C97.144 82.9605 97.2406 83.0531 97.3174 83.1633C97.3943 83.2735 97.4497 83.399 97.4806 83.5325Z" fill="#263238"/>
<path d="M97.2542 80.3564C97.1585 80.515 96.3053 80.0766 95.2433 80.2958C94.1812 80.515 93.5022 81.2286 93.3629 81.1306C93.2933 81.0793 93.3629 80.8042 93.6676 80.4684C94.0673 80.0336 94.5827 79.742 95.1432 79.6335C95.6951 79.5163 96.2676 79.5931 96.7754 79.8527C97.1498 80.0533 97.3065 80.2818 97.2542 80.3564Z" fill="#263238"/>
<path d="M87.8438 85.7246C87.8944 86.0001 87.8426 86.2859 87.6996 86.5211C87.5565 86.7563 87.3334 86.9223 87.0777 86.9839C86.9542 87.0202 86.8252 87.0297 86.6982 87.0116C86.5712 86.9936 86.449 86.9485 86.3386 86.8789C86.2282 86.8093 86.1319 86.7167 86.0555 86.6066C85.9791 86.4964 85.9241 86.371 85.8938 86.2377C85.8419 85.9627 85.8925 85.6769 86.0349 85.4416C86.1773 85.2062 86.4001 85.0399 86.6555 84.9784C86.7793 84.942 86.9086 84.9325 87.0358 84.9505C87.1631 84.9685 87.2857 85.0136 87.3964 85.0831C87.5072 85.1527 87.6038 85.2452 87.6806 85.3554C87.7575 85.4656 87.8129 85.5911 87.8438 85.7246Z" fill="#263238"/>
<path d="M86.8469 82.6975C86.7512 82.8607 85.898 82.4177 84.836 82.6369C83.7739 82.8561 83.0949 83.5697 82.9556 83.4717C82.8903 83.4204 82.9556 83.1452 83.2603 82.8141C83.6584 82.3872 84.1687 82.1008 84.7228 81.9932C85.2748 81.8793 85.8464 81.9561 86.3551 82.2125C86.7425 82.3943 86.8992 82.6229 86.8469 82.6975Z" fill="#263238"/>
<path d="M92.2051 90.3559C92.2051 90.2906 92.8276 90.0341 93.8722 89.6657C94.1377 89.5817 94.3858 89.4744 94.3945 89.2646C94.3634 88.9594 94.2465 88.6715 94.0594 88.439L92.8667 86.3915C91.191 83.4672 89.9243 81.0373 90.0331 80.9674C90.1419 80.8974 91.5914 83.2107 93.2672 86.135L94.4294 88.2012C94.662 88.5182 94.7837 88.9126 94.7732 89.3159C94.7518 89.4264 94.7075 89.5304 94.6434 89.62C94.5794 89.7096 94.4973 89.7826 94.4032 89.8336C94.2646 89.9049 94.1185 89.9582 93.968 89.9921C92.8885 90.2766 92.2225 90.4165 92.2051 90.3559Z" fill="#263238"/>
<path d="M86.4639 78.7566C86.3768 79.0738 85.4105 78.9478 84.2875 79.1344C83.1646 79.3209 82.2505 79.7174 82.1112 79.4376C82.0416 79.3023 82.1939 79.0038 82.5465 78.6913C83.0172 78.3044 83.5736 78.0553 84.1613 77.9684C84.7395 77.8722 85.3311 77.9414 85.8763 78.169C86.3072 78.3648 86.5205 78.6074 86.4639 78.7566Z" fill="#263238"/>
<path d="M96.6667 76.2986C96.4882 76.6018 95.5654 76.5132 94.4903 76.7137C93.4152 76.9143 92.5751 77.2874 92.314 77.0588C92.2008 76.9422 92.2922 76.6577 92.6404 76.3313C93.1244 75.9165 93.7029 75.6476 94.3162 75.5524C94.9228 75.4305 95.5489 75.4886 96.1269 75.7203C96.5753 75.9302 96.745 76.1494 96.6667 76.2986Z" fill="#263238"/>
<path d="M77.1448 90.5006C77.0882 90.2302 76.9808 89.9749 76.8293 89.7503C76.6779 89.5256 76.4854 89.3362 76.2636 89.1936C76.0418 89.051 75.7953 88.9582 75.539 88.9207C75.2827 88.8832 75.022 88.9018 74.7726 88.9755C73.506 89.3719 72.2089 90.4493 72.8052 93.285C73.8542 98.3174 78.3549 96.1487 78.3331 96.0041C78.3114 95.8595 77.6019 92.6041 77.1448 90.5006Z" fill="#C17560"/>
<path d="M76.9141 94.3528C76.8923 94.3528 76.8444 94.4367 76.7226 94.5347C76.5472 94.6724 76.3284 94.731 76.1132 94.6979C75.5734 94.6186 74.9815 93.877 74.7682 92.9769C74.6652 92.5482 74.6547 92.1 74.7377 91.6663C74.7483 91.4984 74.797 91.3358 74.8797 91.1927C74.9624 91.0496 75.0765 90.9304 75.2122 90.8455C75.3004 90.7982 75.401 90.7845 75.4975 90.8065C75.594 90.8285 75.6806 90.885 75.7432 90.9667C75.8346 91.0927 75.8259 91.1999 75.8564 91.2046C75.8868 91.2093 75.9391 91.0973 75.8564 90.8968C75.8033 90.7785 75.7143 90.6831 75.6039 90.6263C75.5281 90.5924 75.4467 90.575 75.3645 90.575C75.2823 90.575 75.201 90.5924 75.1251 90.6263C74.9407 90.713 74.7803 90.8491 74.6591 91.0214C74.5379 91.1937 74.46 91.3965 74.433 91.6104C74.3242 92.0931 74.3242 92.5967 74.433 93.0795C74.6768 94.0869 75.3602 94.9451 76.0827 94.9684C76.2173 94.9776 76.3521 94.9543 76.4771 94.9002C76.6022 94.8461 76.7143 94.7626 76.8053 94.6559C76.9315 94.4787 76.9315 94.3621 76.9141 94.3528Z" fill="#7C4236"/>
<path d="M92.2965 66.6909C92.231 66.5734 92.1536 66.4639 92.0658 66.3645C91.7296 65.9989 91.3186 65.7221 90.8653 65.5562C90.412 65.3902 89.9289 65.3396 89.4542 65.4084C88.8686 65.2222 88.2705 65.0849 87.6652 64.9979C87.2055 64.4141 86.6143 63.9657 85.9476 63.6952C85.2809 63.4248 84.5608 63.3411 83.8555 63.4523C83.1502 63.5635 82.4831 63.8657 81.9173 64.3305C81.3516 64.7952 80.9059 65.407 80.6225 66.108C80.431 66.1779 80.2439 66.2525 80.0567 66.3318C79.467 66.0288 78.8203 65.8748 78.1664 65.8816C77.5124 65.8885 76.8686 66.0561 76.2846 66.3714C75.7006 66.6868 75.1919 67.1416 74.7977 67.7007C74.4035 68.2598 74.1343 68.9084 74.0108 69.5966C73.4013 69.5466 72.7915 69.6905 72.258 70.0104C71.7246 70.3304 71.2912 70.812 71.0122 71.3948C70.7333 71.9777 70.6212 72.6359 70.69 73.2868C70.7589 73.9376 71.0056 74.5522 71.3992 75.0534C70.6418 75.7484 70.0934 76.8024 70.2414 77.8518C70.3894 78.9012 71.4166 79.6381 72.2828 79.3396C72.5483 81.8022 73.297 84.6099 73.8628 87.1051C74.2633 88.8634 76.5571 89.4884 76.9097 90.6637C78.7378 96.6569 80.0088 92.8791 78.468 80.0112C78.5681 79.8853 78.6725 79.7547 78.7727 79.6148C78.9187 79.3135 79.0452 79.0019 79.1513 78.682C79.3516 78.3042 79.8478 78.3089 80.2526 78.2716C80.9531 78.1873 81.6054 77.8475 82.0999 77.3091C82.5944 76.7707 82.9012 76.0665 82.9686 75.3146C83.4039 75.781 84.2353 75.6131 84.7097 75.1374C85.1259 74.614 85.4703 74.0298 85.7326 73.4024C86.0591 72.8054 86.5596 72.2317 87.1995 72.1991C87.5555 72.254 87.9162 72.265 88.2746 72.2317C88.884 72.0498 89.0494 71.2057 89.0232 70.5294C88.9456 69.9576 89.0148 69.3739 89.2235 68.841C89.564 68.5644 89.9491 68.3573 90.3595 68.2301C90.5989 68.2301 90.847 68.2301 91.0821 68.2021C91.1947 68.1954 91.3067 68.1798 91.4172 68.1554C91.5727 68.1781 91.7268 68.2109 91.8786 68.2534C94.1594 68.911 96.8059 73.1785 96.8059 73.1785C96.4751 70.1936 94.525 68.0482 92.2965 66.6909Z" fill="#263238"/>
<path d="M70.8552 75.4219C70.8552 75.4219 70.8552 75.3939 70.8857 75.3379C70.9162 75.282 70.9423 75.2073 70.9989 75.1094C71.1703 74.8311 71.3853 74.5865 71.6344 74.3865C72.0308 74.0707 72.4919 73.8612 72.9793 73.7755C73.6245 73.655 74.2887 73.7769 74.8597 74.1206L74.7378 74.1906C74.7802 73.6151 74.9364 73.0558 75.196 72.55C75.4557 72.0442 75.8129 71.6034 76.2439 71.257C76.7194 70.8529 77.2611 70.5476 77.8413 70.3568C78.4545 70.1667 79.0928 70.0864 79.7304 70.119C80.9251 70.1965 82.0958 70.5129 83.1821 71.0517L83.0515 71.1264C83.265 69.9852 83.8748 68.9734 84.7577 68.2954C85.3297 67.8648 85.9939 67.5962 86.6888 67.5147C87.3836 67.4331 88.0864 67.5412 88.7317 67.829C88.8664 67.8881 88.9972 67.9566 89.1235 68.0342C89.2062 68.0901 89.2497 68.1228 89.2454 68.1274C89.241 68.1321 89.0625 68.0295 88.71 67.8896C88.2039 67.693 87.668 67.5997 87.1299 67.6144C86.3093 67.6322 85.5134 67.9187 84.8491 68.4353C84.0108 69.0958 83.4345 70.0695 83.2343 71.1637L83.2125 71.2896L83.1037 71.2383C82.0389 70.709 80.8927 70.3928 79.7217 70.3055C79.1062 70.2764 78.4904 70.3536 77.8979 70.534C77.3394 70.7126 76.8179 71.0039 76.3614 71.3922C75.9464 71.7213 75.6011 72.1407 75.3482 72.6231C75.0954 73.1054 74.9408 73.6396 74.8945 74.1906V74.3305L74.7814 74.2606C74.2442 73.925 73.6154 73.7982 73.0011 73.9014C72.531 73.973 72.0834 74.1633 71.6953 74.4564C71.3585 74.7156 71.073 75.0438 70.8552 75.4219Z" fill="#455A64"/>
<path d="M89.2323 68.4912C89.2219 68.564 89.2058 68.6358 89.1844 68.7057C89.145 68.9102 89.1203 69.1176 89.1104 69.3261C89.1104 69.6012 89.1104 69.937 89.0799 70.3335C89.0908 70.7929 89.0091 71.2494 88.8405 71.672C88.7782 71.7964 88.6933 71.9063 88.591 71.9951C88.4886 72.084 88.3707 72.1502 88.2442 72.1897C87.9775 72.2584 87.7045 72.2944 87.4302 72.297C87.1526 72.2976 86.8798 72.3747 86.6381 72.5209C86.3985 72.7129 86.1985 72.9558 86.0504 73.2345C85.885 73.519 85.7371 73.8314 85.576 74.1673C85.432 74.5067 85.2412 74.8212 85.0102 75.1C84.737 75.3781 84.4034 75.5785 84.0395 75.683C83.852 75.7433 83.6561 75.7686 83.4606 75.7577C83.2459 75.7541 83.0411 75.6603 82.8904 75.4965L83.0558 75.4312C83.0427 76.0712 82.828 76.6876 82.4464 77.1802C82.0421 77.6863 81.5147 78.0624 80.923 78.2669C80.6773 78.3506 80.4254 78.4114 80.17 78.4488C79.9339 78.4405 79.699 78.4883 79.4822 78.5887C79.2846 78.7072 79.1309 78.8949 79.047 79.1204C78.9379 79.3548 78.8112 79.5795 78.6683 79.792C78.1594 80.648 77.3685 81.2675 76.4528 81.527C75.6153 81.6558 74.7628 81.4535 74.0544 80.958C73.4454 80.5469 72.9661 79.9488 72.679 79.2416L72.7704 79.2789C72.5137 79.3931 72.2367 79.4452 71.959 79.4315C71.6814 79.4178 71.41 79.3387 71.1642 79.1997C70.7954 78.9882 70.5074 78.6449 70.3503 78.2296C70.2509 77.9744 70.2048 77.699 70.2153 77.4227C70.2157 77.3521 70.223 77.2818 70.2371 77.2128C70.2371 77.1662 70.2371 77.1429 70.2371 77.1429C70.2106 77.505 70.2674 77.8685 70.4025 78.2016C70.5618 78.5894 70.8418 78.9059 71.1947 79.0971C71.4266 79.2215 71.681 79.2905 71.9403 79.2993C72.1995 79.3082 72.4575 79.2567 72.6964 79.1484L72.7617 79.1204L72.7878 79.1857C73.0731 79.858 73.5381 80.4245 74.1241 80.8134C74.7994 81.2757 75.6078 81.4612 76.4005 81.3358C77.2653 81.0852 78.0118 80.4982 78.4942 79.6894C78.6327 79.4862 78.755 79.2709 78.8598 79.0457C78.9622 78.7826 79.1427 78.5629 79.3734 78.4208C79.4922 78.3516 79.6222 78.3073 79.7564 78.2902L80.1264 78.2575C80.369 78.2223 80.608 78.1629 80.8403 78.0803C81.3982 77.8915 81.8957 77.5393 82.2767 77.0636C82.6334 76.6077 82.8345 76.0353 82.8469 75.4405V75.198L83.0036 75.3752C83.1388 75.4841 83.298 75.5538 83.4658 75.5774C83.6335 75.6011 83.8042 75.5781 83.9612 75.5105C84.2953 75.4158 84.6021 75.233 84.8535 74.9788C85.0864 74.7084 85.2774 74.3998 85.4193 74.0646C85.5847 73.7475 85.737 73.435 85.9112 73.1319C86.073 72.8337 86.2909 72.5748 86.551 72.3716C86.8168 72.2121 87.1169 72.1301 87.4215 72.1338C87.6851 72.133 87.9478 72.1017 88.205 72.0405C88.3154 72.0081 88.4187 71.9527 88.5091 71.8775C88.5995 71.8022 88.6751 71.7087 88.7317 71.6021C88.9011 71.199 88.9872 70.7615 88.9842 70.3195C89.0059 69.9277 89.019 69.5872 89.0451 69.3121C89.0632 69.1006 89.0996 68.8913 89.1539 68.6871C89.1725 68.6186 89.1989 68.5529 89.2323 68.4912Z" fill="#455A64"/>
<path d="M89.2453 93.019C89.0495 94.4182 89.611 95.7568 90.8384 96.2372C91.0774 96.3165 91.3285 96.3445 91.5776 96.3197C91.8266 96.2948 92.0686 96.2176 92.2898 96.0924C92.511 95.9672 92.7069 95.7965 92.8664 95.59C93.0259 95.3836 93.1458 95.1455 93.2194 94.8893C93.3597 94.3173 93.3702 93.7175 93.2498 93.1403C92.1225 93.0703 90.3814 93.089 89.2453 93.019Z" fill="#7C4236"/>
<path d="M92.993 95.4537C92.993 95.4537 92.993 95.491 92.9452 95.5516C92.891 95.6407 92.8267 95.7222 92.7536 95.7941C92.4861 96.0674 92.1478 96.2478 91.783 96.3118C91.2334 96.402 90.6718 96.2796 90.1986 95.9667C89.9161 95.7654 89.6755 95.5035 89.4919 95.1977C89.3084 94.8919 89.1859 94.5487 89.1322 94.1897C89.1063 94.0014 89.0975 93.8108 89.1061 93.6207C89.1069 93.4215 89.1549 93.2257 89.2454 93.0517C89.302 92.9581 89.3863 92.8875 89.4848 92.8512C89.5719 92.8214 89.6633 92.8087 89.7546 92.8139H90.216C90.8123 92.8465 91.3477 92.9071 91.7961 92.9584C92.6884 93.061 93.2455 93.089 93.2455 93.1263C92.7597 93.1874 92.2688 93.1874 91.783 93.1263C91.3477 93.0984 90.7993 93.0517 90.2073 93.0331H89.7721C89.6197 93.0331 89.5109 93.0564 89.4456 93.1683C89.3815 93.3142 89.3488 93.4735 89.3498 93.6347C89.3298 94.052 89.4092 94.4678 89.5805 94.8432C89.7519 95.2185 90.0095 95.5409 90.3292 95.7801C90.7588 96.0725 91.2685 96.1991 91.7743 96.1393C92.1186 96.0981 92.4448 95.9525 92.7145 95.7195C92.8973 95.5609 92.993 95.435 92.993 95.4537Z" fill="#263238"/>
<path d="M119.283 79.3583C119.283 79.3583 124.798 78.6214 133.086 71.5555C141.373 64.4896 145.865 54.4481 146.788 54.5973C147.711 54.7466 151.955 53.1282 158.105 71.9193C164.255 90.7104 160.834 94.5861 159.302 94.3949C157.77 94.2037 147.602 90.0341 141.021 90.174C134.439 90.314 125.73 93.103 125.73 93.103L119.283 79.3583Z" fill="#FF725E"/>
<path d="M109.363 93.3873L112.31 92.7156L110.713 88.5601L108.223 89.894L109.363 93.3873Z" fill="#455A64"/>
<path d="M109.707 88.4483L110.796 91.9556L111.475 93.7185C111.917 94.8899 112.763 95.8339 113.838 96.3549C114.912 96.8759 116.133 96.9339 117.246 96.5169L129.203 92.9117L124.067 76.6904L112.184 82.0586C111.069 82.56 110.184 83.5121 109.721 84.7083C109.257 85.9045 109.252 87.2483 109.707 88.4483Z" fill="#263238"/>
<path d="M113.995 93.8397L117.999 101.447L119.827 100.817L132.333 110.817L135.436 103.578C135.436 103.578 128.158 100.598 126.731 97.9253C125.303 95.2529 126.809 94.5673 126.809 94.5673L123.288 90.6216L113.995 93.8397Z" fill="#263238"/>
<path d="M157.448 72.1991C160.699 82.3712 161.648 91.2374 159.563 92.0023C157.478 92.7672 153.147 85.1463 149.891 74.9742C146.636 64.8021 145.691 55.9359 147.776 55.1663C149.861 54.3968 154.192 62.013 157.448 72.1991Z" fill="#263238"/>
<path d="M149.252 69.1675C149.252 69.1675 154.222 66.523 156.194 73.5796C158.166 80.6362 153.125 81.2565 153.125 81.2565C151.311 77.4416 150.007 73.372 149.252 69.1675Z" fill="#FAFAFA"/>
<path d="M144.973 60.5625C144.957 61.0038 144.98 61.4458 145.043 61.8824C145.117 62.7266 145.221 63.9532 145.391 65.4643C145.527 66.2137 145.672 67.0283 145.826 67.9082C145.909 68.3467 145.991 68.8037 146.074 69.2701C146.118 69.5033 146.161 69.7412 146.205 69.9837C146.257 70.2216 146.327 70.4501 146.388 70.7019L147.193 73.7382L147.402 74.5311C147.471 74.8016 147.58 75.0581 147.667 75.3239C147.85 75.8556 148.037 76.392 148.229 76.9377L148.795 78.5514C148.89 78.8126 148.969 79.0831 149.082 79.3349L149.408 80.0858L150.666 82.9448C150.771 83.1687 150.862 83.4112 150.971 83.6118L151.31 84.2414L151.959 85.4494L153.125 87.5995C153.922 88.8588 154.592 89.8522 155.054 90.5424C155.276 90.915 155.529 91.2648 155.811 91.5872C155.633 91.1893 155.423 90.8086 155.184 90.4492L153.365 87.4316L152.251 85.2582L151.628 84.0595C151.519 83.8497 151.411 83.6398 151.297 83.4299C151.184 83.22 151.106 82.9868 151.006 82.7583C150.614 81.8488 150.2 80.8927 149.778 79.9086L149.452 79.1624C149.343 78.9105 149.265 78.6447 149.169 78.3835L148.612 76.7838C148.425 76.2427 148.237 75.7064 148.05 75.1794C147.963 74.9182 147.854 74.6617 147.789 74.3958C147.724 74.13 147.645 73.8641 147.571 73.6029L146.753 70.59C146.692 70.3522 146.618 70.1236 146.566 69.8811C146.514 69.6386 146.47 69.4147 146.427 69.1768C146.335 68.7104 146.244 68.244 146.161 67.8243C145.987 66.9568 145.822 66.1453 145.674 65.4037C145.478 63.9205 145.312 62.7126 145.199 61.8544C145.155 61.4182 145.079 60.9863 144.973 60.5625Z" fill="#263238"/>
<path d="M129.203 92.8884C129.031 92.9731 128.85 93.0342 128.663 93.0703L127.183 93.4901C125.93 93.8352 124.202 94.3249 122.295 94.8893C120.389 95.4536 118.67 95.9666 117.412 96.2885C116.781 96.4564 116.271 96.5823 115.914 96.6616C115.732 96.7114 115.545 96.7441 115.357 96.7595C115.53 96.6758 115.711 96.6118 115.897 96.5683L117.368 96.1019L122.239 94.6234C124.141 94.0591 125.882 93.5927 127.144 93.2895C127.775 93.1356 128.289 93.019 128.646 92.9491C128.829 92.9103 129.016 92.89 129.203 92.8884Z" fill="#455A64"/>
<path d="M122.156 90.2393C121.786 90.4622 121.395 90.642 120.989 90.7756C120.254 91.0694 119.248 91.4426 118.086 91.811C116.924 92.1795 115.888 92.464 115.126 92.6505C114.719 92.7754 114.3 92.8551 113.877 92.8884C114.27 92.7189 114.674 92.5832 115.087 92.4826C115.84 92.2541 116.876 91.9416 118.021 91.5778C119.166 91.214 120.197 90.8642 120.937 90.6124C121.334 90.4534 121.741 90.3286 122.156 90.2393Z" fill="#455A64"/>
<path d="M120.276 86.5361C119.072 87.0542 117.841 87.4949 116.589 87.856C115.358 88.2977 114.103 88.6621 112.833 88.9474C114.038 88.4285 115.27 87.9862 116.524 87.6228C117.754 87.1836 119.006 86.8207 120.276 86.5361Z" fill="#455A64"/>
<path d="M118.421 82.9683C117.407 83.5755 116.358 84.1114 115.279 84.5727C114.231 85.113 113.153 85.5804 112.049 85.9719C113.06 85.3602 114.109 84.8226 115.187 84.3628C116.235 83.8206 117.315 83.3547 118.421 82.9683Z" fill="#455A64"/>
<path d="M104.967 123.106L97.707 109.977L78.9338 109.147V110.975C78.9338 110.975 73.7802 116.535 72.1175 124.104C70.8595 129.836 76.1524 151.71 77.641 159.294C79.4692 168.622 81.9937 180.412 81.9937 180.412C81.6151 182.502 79.1123 184.195 79.2864 186.984L121.011 186.494L118.865 177.432L104.967 123.106Z" fill="#FF725E"/>
<path d="M119.444 180.907C119.444 180.977 111.139 181.028 100.897 181.028C90.6556 181.028 82.355 180.977 82.355 180.907C82.355 180.837 90.6556 180.785 100.897 180.785C111.139 180.785 119.444 180.841 119.444 180.907Z" fill="white"/>
<path d="M116.559 169.676C116.559 169.746 108.332 169.802 98.1858 169.802C88.0397 169.802 79.8087 169.746 79.8087 169.676C79.8087 169.606 88.0353 169.554 98.1858 169.554C108.336 169.554 116.559 169.624 116.559 169.676Z" fill="white"/>
<path d="M113.729 157.498C113.729 157.564 105.677 157.619 95.7439 157.619C85.811 157.619 77.7585 157.55 77.7585 157.498C77.7585 157.447 85.8067 157.377 95.7395 157.377C105.672 157.377 113.729 157.428 113.729 157.498Z" fill="white"/>
<path d="M111.749 145.227C111.749 145.293 103.452 145.348 93.2236 145.348C82.9948 145.348 74.7029 145.293 74.7029 145.227C74.7029 145.162 82.9948 145.106 93.2236 145.106C103.452 145.106 111.749 145.157 111.749 145.227Z" fill="white"/>
<path d="M107.357 130.004C107.357 130.069 99.522 130.125 89.8286 130.125C80.1351 130.125 72.3003 130.069 72.3003 130.004C72.3003 129.939 80.1351 129.878 89.8286 129.878C99.522 129.878 107.357 129.934 107.357 130.004Z" fill="white"/>
<path d="M101.389 116.04C101.389 116.106 95.5959 116.162 88.4444 116.162C81.2929 116.162 75.4995 116.106 75.4995 116.04C75.4995 115.975 81.2929 115.919 88.4444 115.919C95.5959 115.919 101.389 115.994 101.389 116.04Z" fill="white"/>
<path opacity="0.3" d="M77.4581 131.203C79.285 134.489 81.5906 137.442 84.2875 139.948C88.4792 143.679 101.233 150.367 101.233 150.367L102.299 148.007L111.814 150.39L110.073 144.113L77.4581 131.203Z" fill="black"/>
<path d="M122.221 114.641L118.9 133.969L90.4509 119.478L85.8676 136.669C97.0496 142.527 119.684 152.279 122.596 152C126.739 151.598 129.603 148.945 130.892 142.443C131.693 138.418 131.327 111.428 131.327 111.428L122.221 114.641Z" fill="#C17560"/>
<path d="M92.3096 116.88C92.3096 116.88 81.6716 109.837 77.0317 118.713C73.7149 127.369 77.3842 134.281 85.576 138.572C89.5239 140.643 94.9038 143.199 100.336 145.629L108.254 126.8L92.3096 116.88Z" fill="#FF725E"/>
<path d="M92.3096 116.88C92.3096 116.88 92.4141 116.931 92.6056 117.048L93.45 117.556L96.6623 119.524L108.301 126.716L108.371 126.763L108.336 126.842L100.44 145.675L100.397 145.782L100.297 145.736C97.5111 144.495 94.6383 143.171 91.7133 141.771C90.422 141.149 89.1467 140.528 87.8873 139.906C86.6337 139.276 85.3975 138.646 84.2093 137.952C83.6289 137.594 83.0558 137.219 82.4899 136.828C81.9502 136.408 81.3931 136.025 80.9012 135.559C79.8961 134.694 78.9915 133.703 78.2069 132.607L77.6672 131.776C77.4925 131.501 77.334 131.215 77.1927 130.918C76.8958 130.345 76.6369 129.749 76.4179 129.137C76.3178 128.833 76.2438 128.516 76.1568 128.204L76.0305 127.737C75.9957 127.579 75.9783 127.425 75.9478 127.271C75.9 126.963 75.8477 126.651 75.7998 126.338C75.752 126.026 75.765 125.723 75.7476 125.405C75.7163 124.801 75.7264 124.194 75.7781 123.591C75.8216 122.999 75.9391 122.421 76.0175 121.852C76.0958 121.283 76.283 120.742 76.4266 120.205C76.5703 119.669 76.7792 119.165 76.949 118.661C77.5673 117.457 78.4264 116.414 79.4648 115.606C80.4149 114.917 81.4955 114.462 82.6292 114.273C84.451 114.036 86.299 114.228 88.044 114.837C89.1499 115.205 90.2245 115.673 91.2563 116.236C91.6088 116.432 91.87 116.591 92.0485 116.703C92.2269 116.814 92.3053 116.88 92.3053 116.88L92.0354 116.726C91.8569 116.623 91.6001 116.474 91.2301 116.287C90.1942 115.746 89.1183 115.296 88.0135 114.944C86.2826 114.355 84.4523 114.178 82.651 114.427C81.5403 114.616 80.483 115.068 79.5562 115.751C78.5411 116.548 77.7028 117.575 77.1013 118.759C76.9359 119.263 76.7618 119.771 76.5877 120.294C76.4136 120.816 76.3222 121.366 76.1916 121.917C76.061 122.467 76.0044 123.05 75.9609 123.638C75.9129 124.232 75.9042 124.829 75.9348 125.424C75.9348 125.723 75.9653 126.03 75.9914 126.357C76.0175 126.683 76.0871 126.963 76.1394 127.266C76.1655 127.42 76.1829 127.574 76.2177 127.733L76.3439 128.199C76.431 128.502 76.5006 128.81 76.6051 129.109C76.8197 129.71 77.0743 130.295 77.3668 130.858C77.5078 131.148 77.6633 131.43 77.8326 131.702L78.3679 132.513C79.1437 133.594 80.0381 134.572 81.0318 135.424C81.5355 135.87 82.0599 136.289 82.6031 136.678C83.1545 137.067 83.7232 137.437 84.3094 137.788C85.4846 138.474 86.7208 139.108 87.9743 139.733C89.2279 140.358 90.5076 140.988 91.8003 141.599C94.7167 142.998 97.5894 144.323 100.371 145.568L100.227 145.628C103.183 138.632 105.886 132.187 108.162 126.814L108.201 126.935L96.6014 119.669L93.4283 117.603L92.6012 117.071C92.4054 116.973 92.3096 116.88 92.3096 116.88Z" fill="#263238"/>
<path d="M121.795 117.953L122.435 110.751C122.435 110.751 119.867 105.211 119.919 104.656C119.971 104.101 120.119 101.046 120.119 101.046L126.539 94.8521C126.539 94.8521 128.62 94.852 128.672 97.0581C128.672 97.0581 130.67 96.5917 130.7 99.1755C130.7 99.1755 132.877 99.2595 132.92 101.139C132.92 101.139 134.226 100.953 134.183 102.916C134.148 104.315 133.573 109.73 133.573 109.73L130.888 114.735L130.666 119.739L121.795 117.953Z" fill="#C17560"/>
<path d="M122.461 141.03C122.387 141.058 121.912 139.309 120.942 137.35C119.971 135.391 118.844 134.02 118.9 133.969C119.188 134.222 119.444 134.513 119.662 134.836C120.223 135.584 120.719 136.387 121.142 137.233C121.561 138.081 121.91 138.965 122.187 139.878C122.319 140.249 122.411 140.636 122.461 141.03Z" fill="#7C4236"/>
<path d="M85.8676 114.487C85.7919 114.715 85.6972 114.935 85.5847 115.145C85.3888 115.56 85.0972 116.152 84.7142 116.88C83.9785 118.34 82.9296 120.336 81.7587 122.528L78.7423 128.125L77.8282 129.822C77.7223 130.036 77.6015 130.24 77.4669 130.433C77.5427 130.206 77.6373 129.985 77.7498 129.776C77.9457 129.365 78.2373 128.768 78.6204 128.041C79.356 126.581 80.4006 124.585 81.5759 122.393C82.7511 120.201 83.8001 118.256 84.5879 116.796C84.9623 116.11 85.2713 115.537 85.5063 115.098C85.6101 114.884 85.731 114.679 85.8676 114.487Z" fill="white"/>
<path d="M94.5426 118.559C94.5279 118.632 94.5045 118.702 94.4729 118.769L94.2335 119.352C94.0203 119.86 93.7069 120.583 93.3021 121.474C92.5012 123.255 91.3564 125.695 90.0158 128.349C88.6751 131.002 87.4042 133.367 86.4466 135.06C85.9678 135.904 85.576 136.585 85.2975 137.051L84.9754 137.588C84.9385 137.651 84.8962 137.71 84.8491 137.765C84.8491 137.765 84.8709 137.69 84.9362 137.56L85.2235 137.005L86.3073 134.971C87.2257 133.26 88.4836 130.881 89.8155 128.232C91.1475 125.583 92.3227 123.158 93.1584 121.395L94.1552 119.314L94.4294 118.75C94.4588 118.681 94.4969 118.617 94.5426 118.559Z" fill="white"/>
<path d="M104.249 124.379C104.178 124.644 104.089 124.903 103.984 125.154C103.805 125.62 103.527 126.348 103.17 127.21C102.451 128.931 101.389 131.282 100.079 133.801C98.769 136.319 97.4676 138.521 96.4708 140.083C95.9746 140.862 95.5611 141.482 95.2651 141.907C95.1237 142.135 94.965 142.35 94.7906 142.55C94.9079 142.307 95.0432 142.075 95.1954 141.855L96.3359 139.99C97.2934 138.409 98.5731 136.198 99.8833 133.689C101.193 131.179 102.269 128.843 103.022 127.159L103.892 125.135C103.99 124.872 104.109 124.619 104.249 124.379Z" fill="white"/>
<path d="M78.9556 195.617L79.8609 186.984L119.666 186.513L120.68 195.617H78.9556Z" fill="#263238"/>
<path d="M128.25 194.861C128.25 194.927 115.988 194.983 100.863 194.983C85.7371 194.983 73.4756 194.927 73.4756 194.861C73.4756 194.796 85.7371 194.74 100.863 194.74C115.988 194.74 128.25 194.787 128.25 194.861Z" fill="#455A64"/>
<path d="M106.064 44.22H91.2606C90.7702 44.22 90.3727 44.646 90.3727 45.1714V45.857C90.3727 46.3825 90.7702 46.8085 91.2606 46.8085H106.064C106.555 46.8085 106.952 46.3825 106.952 45.857V45.1714C106.952 44.646 106.555 44.22 106.064 44.22Z" fill="#455A64"/>
<path d="M110.974 45.5166C110.974 45.773 110.903 46.0237 110.77 46.2369C110.637 46.4501 110.448 46.6163 110.227 46.7144C110.006 46.8126 109.763 46.8383 109.528 46.7882C109.293 46.7382 109.077 46.6147 108.908 46.4334C108.739 46.252 108.624 46.021 108.577 45.7695C108.53 45.518 108.554 45.2573 108.646 45.0204C108.738 44.7835 108.893 44.581 109.092 44.4385C109.291 44.296 109.525 44.22 109.764 44.22C109.923 44.22 110.08 44.2535 110.227 44.3187C110.374 44.3838 110.507 44.4793 110.62 44.5997C110.732 44.7201 110.821 44.8631 110.882 45.0204C110.943 45.1777 110.974 45.3463 110.974 45.5166Z" fill="#455A64"/>
<path d="M60.8178 64.3123H61.7972V85.953H60.8178C60.1021 85.953 59.4157 85.6484 58.9096 85.1061C58.4035 84.5638 58.1191 83.8283 58.1191 83.0614V67.2039C58.1191 66.8242 58.1889 66.4482 58.3246 66.0973C58.4602 65.7465 58.659 65.4277 58.9096 65.1592C59.1602 64.8907 59.4577 64.6777 59.7851 64.5324C60.1125 64.3871 60.4634 64.3123 60.8178 64.3123Z" fill="#263238"/>
<path d="M60.5742 95.7566H61.5535V117.397H60.5742C59.8584 117.397 59.172 117.093 58.6659 116.55C58.1598 116.008 57.8755 115.273 57.8755 114.506V98.6483C57.8755 97.8813 58.1598 97.1458 58.6659 96.6035C59.172 96.0613 59.8584 95.7566 60.5742 95.7566Z" fill="#263238"/>
<path d="M60.6438 127.831C60.5785 127.831 60.5306 112.123 60.5306 92.7486C60.5306 73.3745 60.5785 57.6616 60.6438 57.6616C60.7091 57.6616 60.757 73.3698 60.757 92.7486C60.757 112.127 60.7047 127.831 60.6438 127.831Z" fill="#455A64"/>
</svg>
